<?xml version="1.0" encoding="UTF-8" standalone="no"?>
<!DOCTYPE svg PUBLIC "-//W3C//DTD SVG 1.1//EN"
 "http://www.w3.org/Graphics/SVG/1.1/DTD/svg11.dtd">
<!-- Generated by graphviz version 3.0.1~dev.20220405.0544 (20220405.0544)
 -->
<!-- Title: G Pages: 1 -->
<svg width="1042pt" height="526pt"
 viewBox="0.00 0.00 1042.48 525.87" xmlns="http://www.w3.org/2000/svg" xmlns:xlink="http://www.w3.org/1999/xlink">
<g id="graph0" class="graph" transform="scale(1 1) rotate(0) translate(4 521.87)">
<title>G</title><style>.edge>path:hover{stroke-width:8}</style>
<polygon fill="white" stroke="transparent" points="-4,4 -4,-521.87 1038.48,-521.87 1038.48,4 -4,4"/>
<!-- tomli -->
<g id="node1" class="node">
<title>tomli</title><style>.edge>path:hover{stroke-width:8}</style>
<ellipse fill="#b65353" stroke="black" cx="434.83" cy="-427.87" rx="27" ry="18"/>
<text text-anchor="middle" x="434.83" y="-424.87" font-family="Helvetica,sans-Serif" font-size="10.00" fill="#ffffff">tomli</text>
</g>
<!-- vcorelib_io_decode -->
<g id="node7" class="node">
<title>vcorelib_io_decode</title><style>.edge>path:hover{stroke-width:8}</style>
<ellipse fill="#303091" stroke="black" cx="325.83" cy="-129.34" rx="37.79" ry="31.23"/>
<text text-anchor="middle" x="325.83" y="-138.34" font-family="Helvetica,sans-Serif" font-size="10.00" fill="#ffffff">vcorelib.</text>
<text text-anchor="middle" x="325.83" y="-126.34" font-family="Helvetica,sans-Serif" font-size="10.00" fill="#ffffff">io.</text>
<text text-anchor="middle" x="325.83" y="-114.34" font-family="Helvetica,sans-Serif" font-size="10.00" fill="#ffffff">decode</text>
</g>
<!-- tomli&#45;&gt;vcorelib_io_decode -->
<g id="edge1" class="edge">
<title>tomli&#45;&gt;vcorelib_io_decode</title><style>.edge>path:hover{stroke-width:8}</style>
<path fill="none" stroke="black" d="M437.09,-409.77C442.17,-368.63 452.72,-265.41 434.83,-237.05"/>
<path fill="none" stroke="black" d="M434.83,-235.05C415.04,-204.8 384.99,-176.78 361.45,-157.36"/>
<polygon fill="#b65353" stroke="black" points="363.39,-154.43 353.42,-150.86 358.99,-159.87 363.39,-154.43"/>
</g>
<!-- tomli_w -->
<g id="node2" class="node">
<title>tomli_w</title><style>.edge>path:hover{stroke-width:8}</style>
<ellipse fill="#40c040" stroke="black" cx="84.83" cy="-427.87" rx="30.01" ry="18"/>
<text text-anchor="middle" x="84.83" y="-424.87" font-family="Helvetica,sans-Serif" font-size="10.00" fill="#000000">tomli_w</text>
</g>
<!-- vcorelib_io_encode -->
<g id="node8" class="node">
<title>vcorelib_io_encode</title><style>.edge>path:hover{stroke-width:8}</style>
<ellipse fill="#303091" stroke="black" cx="108.83" cy="-129.34" rx="37.79" ry="31.23"/>
<text text-anchor="middle" x="108.83" y="-138.34" font-family="Helvetica,sans-Serif" font-size="10.00" fill="#ffffff">vcorelib.</text>
<text text-anchor="middle" x="108.83" y="-126.34" font-family="Helvetica,sans-Serif" font-size="10.00" fill="#ffffff">io.</text>
<text text-anchor="middle" x="108.83" y="-114.34" font-family="Helvetica,sans-Serif" font-size="10.00" fill="#ffffff">encode</text>
</g>
<!-- tomli_w&#45;&gt;vcorelib_io_encode -->
<g id="edge2" class="edge">
<title>tomli_w&#45;&gt;vcorelib_io_encode</title><style>.edge>path:hover{stroke-width:8}</style>
<path fill="none" stroke="black" d="M86.23,-409.65C89.96,-363.54 100.25,-236.34 105.57,-170.7"/>
<polygon fill="#40c040" stroke="black" points="109.05,-170.97 106.37,-160.72 102.08,-170.4 109.05,-170.97"/>
</g>
<!-- vcorelib_dict -->
<g id="node3" class="node">
<title>vcorelib_dict</title><style>.edge>path:hover{stroke-width:8}</style>
<ellipse fill="#1010f9" stroke="black" cx="259.83" cy="-499.87" rx="41.24" ry="18"/>
<text text-anchor="middle" x="259.83" y="-496.87" font-family="Helvetica,sans-Serif" font-size="10.00" fill="#ffffff">vcorelib.dict</text>
</g>
<!-- vcorelib_io -->
<g id="node4" class="node">
<title>vcorelib_io</title><style>.edge>path:hover{stroke-width:8}</style>
<ellipse fill="#0909b8" stroke="black" cx="108.83" cy="-31.11" rx="36.89" ry="18"/>
<text text-anchor="middle" x="108.83" y="-28.11" font-family="Helvetica,sans-Serif" font-size="10.00" fill="#ffffff">vcorelib.io</text>
</g>
<!-- vcorelib_dict&#45;&gt;vcorelib_io -->
<g id="edge3" class="edge">
<title>vcorelib_dict&#45;&gt;vcorelib_io</title><style>.edge>path:hover{stroke-width:8}</style>
<path fill="none" stroke="black" d="M220.05,-494.37C164.71,-487.25 68.7,-471.51 45.83,-445.87 -16.46,-376.03 -3.89,-327.83 18.83,-237.05"/>
<path fill="none" stroke="black" d="M18.83,-235.05C33.84,-189.72 37.09,-177.74 42.83,-130.34"/>
<path fill="none" stroke="black" d="M42.83,-128.34C46.37,-99.13 67.14,-72.09 84.45,-54.16"/>
<polygon fill="#1010f9" stroke="black" points="86.97,-56.58 91.6,-47.05 82.04,-51.62 86.97,-56.58"/>
</g>
<!-- vcorelib_io_cache -->
<g id="node6" class="node">
<title>vcorelib_io_cache</title><style>.edge>path:hover{stroke-width:8}</style>
<ellipse fill="#373781" stroke="black" cx="508.83" cy="-31.11" rx="37.79" ry="31.23"/>
<text text-anchor="middle" x="508.83" y="-40.11" font-family="Helvetica,sans-Serif" font-size="10.00" fill="#ffffff">vcorelib.</text>
<text text-anchor="middle" x="508.83" y="-28.11" font-family="Helvetica,sans-Serif" font-size="10.00" fill="#ffffff">io.</text>
<text text-anchor="middle" x="508.83" y="-16.11" font-family="Helvetica,sans-Serif" font-size="10.00" fill="#ffffff">cache</text>
</g>
<!-- vcorelib_dict&#45;&gt;vcorelib_io_cache -->
<g id="edge4" class="edge">
<title>vcorelib_dict&#45;&gt;vcorelib_io_cache</title><style>.edge>path:hover{stroke-width:8}</style>
<path fill="none" stroke="black" d="M837.83,-341.76C810.1,-235.07 870.61,-174.3 790.83,-98.23 757.49,-66.43 627.4,-46.28 556.15,-37.39"/>
<polygon fill="#1010f9" stroke="black" points="556.43,-33.9 546.08,-36.16 555.58,-40.85 556.43,-33.9"/>
</g>
<!-- vcorelib_dict&#45;&gt;vcorelib_io_decode -->
<g id="edge5" class="edge">
<title>vcorelib_dict&#45;&gt;vcorelib_io_decode</title><style>.edge>path:hover{stroke-width:8}</style>
<path fill="none" stroke="black" d="M358.83,-341.76C359.05,-281.19 345.6,-212 335.81,-169.75"/>
<polygon fill="#1010f9" stroke="black" points="339.18,-168.8 333.47,-159.87 332.37,-170.41 339.18,-168.8"/>
</g>
<!-- vcorelib_dict&#45;&gt;vcorelib_io_encode -->
<g id="edge6" class="edge">
<title>vcorelib_dict&#45;&gt;vcorelib_io_encode</title><style>.edge>path:hover{stroke-width:8}</style>
<path fill="none" stroke="black" d="M18.83,-235.05C26.71,-203.57 51.43,-176.1 72.97,-157.21"/>
<polygon fill="#1010f9" stroke="black" points="75.35,-159.77 80.72,-150.64 70.83,-154.43 75.35,-159.77"/>
</g>
<!-- vcorelib_io_types -->
<g id="node9" class="node">
<title>vcorelib_io_types</title><style>.edge>path:hover{stroke-width:8}</style>
<ellipse fill="#0b0bdf" stroke="black" cx="160.83" cy="-236.05" rx="37.79" ry="31.23"/>
<text text-anchor="middle" x="160.83" y="-245.05" font-family="Helvetica,sans-Serif" font-size="10.00" fill="#ffffff">vcorelib.</text>
<text text-anchor="middle" x="160.83" y="-233.05" font-family="Helvetica,sans-Serif" font-size="10.00" fill="#ffffff">io.</text>
<text text-anchor="middle" x="160.83" y="-221.05" font-family="Helvetica,sans-Serif" font-size="10.00" fill="#ffffff">types</text>
</g>
<!-- vcorelib_dict&#45;&gt;vcorelib_io_types -->
<g id="edge7" class="edge">
<title>vcorelib_dict&#45;&gt;vcorelib_io_types</title><style>.edge>path:hover{stroke-width:8}</style>
<path fill="none" stroke="black" d="M230.04,-487.1C212.34,-478.46 191.19,-464.9 179.83,-445.87 148.91,-394.07 150.06,-321.83 154.72,-277.32"/>
<polygon fill="#1010f9" stroke="black" points="158.22,-277.51 155.89,-267.17 151.26,-276.71 158.22,-277.51"/>
</g>
<!-- vcorelib_math_time -->
<g id="node12" class="node">
<title>vcorelib_math_time</title><style>.edge>path:hover{stroke-width:8}</style>
<ellipse fill="#0505e5" stroke="black" cx="608.83" cy="-342.76" rx="37.79" ry="31.23"/>
<text text-anchor="middle" x="608.83" y="-351.76" font-family="Helvetica,sans-Serif" font-size="10.00" fill="#ffffff">vcorelib.</text>
<text text-anchor="middle" x="608.83" y="-339.76" font-family="Helvetica,sans-Serif" font-size="10.00" fill="#ffffff">math.</text>
<text text-anchor="middle" x="608.83" y="-327.76" font-family="Helvetica,sans-Serif" font-size="10.00" fill="#ffffff">time</text>
</g>
<!-- vcorelib_dict&#45;&gt;vcorelib_math_time -->
<g id="edge8" class="edge">
<title>vcorelib_dict&#45;&gt;vcorelib_math_time</title><style>.edge>path:hover{stroke-width:8}</style>
<path fill="none" stroke="black" d="M301.2,-498.04C431.25,-494.88 824.08,-481.04 837.83,-428.87"/>
<path fill="none" stroke="black" d="M837.83,-426.87C847.73,-389.3 725.49,-362.85 655.66,-350.91"/>
<polygon fill="#1010f9" stroke="black" points="656.2,-347.45 645.76,-349.25 655.05,-354.36 656.2,-347.45"/>
</g>
<!-- vcorelib_task -->
<g id="node17" class="node">
<title>vcorelib_task</title><style>.edge>path:hover{stroke-width:8}</style>
<ellipse fill="#2020b6" stroke="black" cx="738.83" cy="-129.34" rx="43.08" ry="18"/>
<text text-anchor="middle" x="738.83" y="-126.34" font-family="Helvetica,sans-Serif" font-size="10.00" fill="#ffffff">vcorelib.task</text>
</g>
<!-- vcorelib_dict&#45;&gt;vcorelib_task -->
<g id="edge9" class="edge">
<title>vcorelib_dict&#45;&gt;vcorelib_task</title><style>.edge>path:hover{stroke-width:8}</style>
<path fill="none" stroke="black" d="M837.83,-426.87C847.24,-391.15 847.93,-379.29 837.83,-343.76"/>
<path fill="none" stroke="black" d="M837.83,-341.76C821.92,-285.79 753.78,-326.12 724.83,-275.65 703.65,-238.71 716.3,-187.67 727.5,-156.95"/>
<polygon fill="#1010f9" stroke="black" points="730.86,-157.95 731.19,-147.36 724.33,-155.43 730.86,-157.95"/>
</g>
<!-- vcorelib_task_dict_melder -->
<g id="node18" class="node">
<title>vcorelib_task_dict_melder</title><style>.edge>path:hover{stroke-width:8}</style>
<ellipse fill="#4646a4" stroke="black" cx="292.83" cy="-236.05" rx="37.79" ry="39.7"/>
<text text-anchor="middle" x="292.83" y="-251.05" font-family="Helvetica,sans-Serif" font-size="10.00" fill="#ffffff">vcorelib.</text>
<text text-anchor="middle" x="292.83" y="-239.05" font-family="Helvetica,sans-Serif" font-size="10.00" fill="#ffffff">task.</text>
<text text-anchor="middle" x="292.83" y="-227.05" font-family="Helvetica,sans-Serif" font-size="10.00" fill="#ffffff">dict.</text>
<text text-anchor="middle" x="292.83" y="-215.05" font-family="Helvetica,sans-Serif" font-size="10.00" fill="#ffffff">melder</text>
</g>
<!-- vcorelib_dict&#45;&gt;vcorelib_task_dict_melder -->
<g id="edge10" class="edge">
<title>vcorelib_dict&#45;&gt;vcorelib_task_dict_melder</title><style>.edge>path:hover{stroke-width:8}</style>
<path fill="none" stroke="black" d="M279.48,-484.01C310.82,-458.37 367.76,-402.83 358.83,-343.76"/>
<path fill="none" stroke="black" d="M358.83,-341.76C358.93,-315.13 343.47,-289.74 327.48,-270.64"/>
<polygon fill="#1010f9" stroke="black" points="330.11,-268.33 320.89,-263.11 324.85,-272.94 330.11,-268.33"/>
</g>
<!-- vcorelib_io_archive -->
<g id="node5" class="node">
<title>vcorelib_io_archive</title><style>.edge>path:hover{stroke-width:8}</style>
<ellipse fill="#3535a1" stroke="black" cx="508.83" cy="-129.34" rx="37.79" ry="31.23"/>
<text text-anchor="middle" x="508.83" y="-138.34" font-family="Helvetica,sans-Serif" font-size="10.00" fill="#ffffff">vcorelib.</text>
<text text-anchor="middle" x="508.83" y="-126.34" font-family="Helvetica,sans-Serif" font-size="10.00" fill="#ffffff">io.</text>
<text text-anchor="middle" x="508.83" y="-114.34" font-family="Helvetica,sans-Serif" font-size="10.00" fill="#ffffff">archive</text>
</g>
<!-- vcorelib_io_archive&#45;&gt;vcorelib_io_cache -->
<g id="edge11" class="edge">
<title>vcorelib_io_archive&#45;&gt;vcorelib_io_cache</title><style>.edge>path:hover{stroke-width:8}</style>
<path fill="none" stroke="black" d="M508.83,-98.16C508.83,-90.08 508.83,-81.23 508.83,-72.69"/>
<polygon fill="#3535a1" stroke="black" points="512.33,-72.52 508.83,-62.52 505.33,-72.52 512.33,-72.52"/>
</g>
<!-- vcorelib_io_decode&#45;&gt;vcorelib_io -->
<g id="edge12" class="edge">
<title>vcorelib_io_decode&#45;&gt;vcorelib_io</title><style>.edge>path:hover{stroke-width:8}</style>
<path fill="none" stroke="black" d="M292.87,-113.72C252.92,-96.01 185.83,-66.26 144.64,-47.99"/>
<polygon fill="#303091" stroke="black" points="145.82,-44.68 135.26,-43.83 142.98,-51.08 145.82,-44.68"/>
</g>
<!-- vcorelib_io_encode&#45;&gt;vcorelib_io -->
<g id="edge13" class="edge">
<title>vcorelib_io_encode&#45;&gt;vcorelib_io</title><style>.edge>path:hover{stroke-width:8}</style>
<path fill="none" stroke="black" d="M108.83,-98.16C108.83,-85.83 108.83,-71.68 108.83,-59.64"/>
<polygon fill="#303091" stroke="black" points="112.33,-59.3 108.83,-49.3 105.33,-59.3 112.33,-59.3"/>
</g>
<!-- vcorelib_io_types&#45;&gt;vcorelib_io -->
<g id="edge14" class="edge">
<title>vcorelib_io_types&#45;&gt;vcorelib_io</title><style>.edge>path:hover{stroke-width:8}</style>
<path fill="none" stroke="black" d="M126.75,-222.74C89.77,-206.97 36.71,-176.08 42.83,-130.34"/>
</g>
<!-- vcorelib_io_types&#45;&gt;vcorelib_io_archive -->
<g id="edge15" class="edge">
<title>vcorelib_io_types&#45;&gt;vcorelib_io_archive</title><style>.edge>path:hover{stroke-width:8}</style>
<path fill="none" stroke="black" d="M192.56,-218.99C208.31,-211.45 227.78,-202.76 245.83,-196.45 285.7,-182.52 398.85,-155.64 462.99,-140.81"/>
<polygon fill="#0b0bdf" stroke="black" points="463.89,-144.19 472.85,-138.54 462.32,-137.37 463.89,-144.19"/>
</g>
<!-- vcorelib_io_types&#45;&gt;vcorelib_io_cache -->
<g id="edge16" class="edge">
<title>vcorelib_io_types&#45;&gt;vcorelib_io_cache</title><style>.edge>path:hover{stroke-width:8}</style>
<path fill="none" stroke="black" d="M174.61,-206.63C186.39,-184.22 204.89,-153.06 226.83,-130.34"/>
<path fill="none" stroke="black" d="M226.83,-128.34C289.79,-63.12 398.7,-42.1 461.15,-35.33"/>
<polygon fill="#0b0bdf" stroke="black" points="461.53,-38.81 471.13,-34.32 460.83,-31.84 461.53,-38.81"/>
</g>
<!-- vcorelib_io_types&#45;&gt;vcorelib_io_decode -->
<g id="edge17" class="edge">
<title>vcorelib_io_types&#45;&gt;vcorelib_io_decode</title><style>.edge>path:hover{stroke-width:8}</style>
<path fill="none" stroke="black" d="M190.33,-216.33C217.46,-199.11 257.86,-173.47 287.49,-154.67"/>
<polygon fill="#0b0bdf" stroke="black" points="289.74,-157.39 296.31,-149.07 285.99,-151.48 289.74,-157.39"/>
</g>
<!-- vcorelib_io_types&#45;&gt;vcorelib_io_encode -->
<g id="edge18" class="edge">
<title>vcorelib_io_types&#45;&gt;vcorelib_io_encode</title><style>.edge>path:hover{stroke-width:8}</style>
<path fill="none" stroke="black" d="M146.9,-206.99C140.89,-194.9 133.79,-180.59 127.35,-167.63"/>
<polygon fill="#0b0bdf" stroke="black" points="130.39,-165.88 122.81,-158.48 124.12,-168.99 130.39,-165.88"/>
</g>
<!-- vcorelib_logging -->
<g id="node10" class="node">
<title>vcorelib_logging</title><style>.edge>path:hover{stroke-width:8}</style>
<ellipse fill="#4646a4" stroke="black" cx="601.83" cy="-129.34" rx="37.79" ry="22.76"/>
<text text-anchor="middle" x="601.83" y="-132.34" font-family="Helvetica,sans-Serif" font-size="10.00" fill="#ffffff">vcorelib.</text>
<text text-anchor="middle" x="601.83" y="-120.34" font-family="Helvetica,sans-Serif" font-size="10.00" fill="#ffffff">logging</text>
</g>
<!-- vcorelib_math -->
<g id="node11" class="node">
<title>vcorelib_math</title><style>.edge>path:hover{stroke-width:8}</style>
<ellipse fill="#1010f9" stroke="black" cx="507.83" cy="-342.76" rx="45.26" ry="18"/>
<text text-anchor="middle" x="507.83" y="-339.76" font-family="Helvetica,sans-Serif" font-size="10.00" fill="#ffffff">vcorelib.math</text>
</g>
<!-- vcorelib_math&#45;&gt;vcorelib_io_archive -->
<g id="edge19" class="edge">
<title>vcorelib_math&#45;&gt;vcorelib_io_archive</title><style>.edge>path:hover{stroke-width:8}</style>
<path fill="none" stroke="black" d="M510.83,-235.05C507.77,-214 507.09,-190.33 507.25,-170.82"/>
<polygon fill="#1010f9" stroke="black" points="510.75,-170.8 507.41,-160.74 503.75,-170.69 510.75,-170.8"/>
</g>
<!-- vcorelib_math&#45;&gt;vcorelib_io_cache -->
<g id="edge20" class="edge">
<title>vcorelib_math&#45;&gt;vcorelib_io_cache</title><style>.edge>path:hover{stroke-width:8}</style>
<path fill="none" stroke="black" d="M510.13,-324.61C512.5,-303.78 515.28,-267.64 510.83,-237.05"/>
<path fill="none" stroke="black" d="M510.83,-235.05C505.12,-195.79 473.69,-198.31 461.83,-160.45 453.57,-134.06 453.42,-124.57 461.83,-98.23 465.68,-86.17 472.62,-74.44 480,-64.28"/>
<polygon fill="#1010f9" stroke="black" points="482.93,-66.21 486.25,-56.15 477.38,-61.94 482.93,-66.21"/>
</g>
<!-- vcorelib_math&#45;&gt;vcorelib_io_decode -->
<g id="edge21" class="edge">
<title>vcorelib_math&#45;&gt;vcorelib_io_decode</title><style>.edge>path:hover{stroke-width:8}</style>
<path fill="none" stroke="black" d="M495.17,-325.46C485.04,-312.24 470.64,-293.01 458.83,-275.65 447.47,-258.94 445.61,-254.13 434.83,-237.05"/>
</g>
<!-- vcorelib_math&#45;&gt;vcorelib_io_encode -->
<g id="edge22" class="edge">
<title>vcorelib_math&#45;&gt;vcorelib_io_encode</title><style>.edge>path:hover{stroke-width:8}</style>
<path fill="none" stroke="black" d="M486.52,-326.7C468.54,-313.74 442.37,-294.24 420.83,-275.65 382.71,-242.75 383.39,-221.69 339.83,-196.45 289.07,-167.04 269.23,-176.61 212.83,-160.45 193.47,-154.9 172.09,-148.72 153.78,-143.41"/>
<polygon fill="#1010f9" stroke="black" points="154.54,-139.99 143.96,-140.56 152.59,-146.71 154.54,-139.99"/>
</g>
<!-- vcorelib_math&#45;&gt;vcorelib_logging -->
<g id="edge23" class="edge">
<title>vcorelib_math&#45;&gt;vcorelib_logging</title><style>.edge>path:hover{stroke-width:8}</style>
<path fill="none" stroke="black" d="M528.44,-326.43C550.74,-308.14 584.14,-275.2 591.83,-237.05"/>
<path fill="none" stroke="black" d="M591.83,-235.05C596.68,-210.96 599.2,-183.27 600.49,-162.42"/>
<polygon fill="#1010f9" stroke="black" points="604,-162.37 601.06,-152.19 597.01,-161.98 604,-162.37"/>
</g>
<!-- vcorelib_math&#45;&gt;vcorelib_task -->
<g id="edge24" class="edge">
<title>vcorelib_math&#45;&gt;vcorelib_task</title><style>.edge>path:hover{stroke-width:8}</style>
<path fill="none" stroke="black" d="M534.68,-327.89C555.8,-316.05 585.02,-297.49 605.83,-275.65 634.22,-245.84 626.47,-227.19 653.83,-196.45 669.5,-178.85 690.34,-162.56 707.46,-150.55"/>
<polygon fill="#1010f9" stroke="black" points="709.76,-153.22 716.03,-144.67 705.81,-147.44 709.76,-153.22"/>
</g>
<!-- vcorelib_math_time&#45;&gt;vcorelib_io_archive -->
<g id="edge25" class="edge">
<title>vcorelib_math_time&#45;&gt;vcorelib_io_archive</title><style>.edge>path:hover{stroke-width:8}</style>
<path fill="none" stroke="black" d="M595.35,-313.25C577.59,-275.71 546.33,-209.61 526.64,-167.99"/>
<polygon fill="#0505e5" stroke="black" points="529.7,-166.28 522.26,-158.74 523.38,-169.27 529.7,-166.28"/>
</g>
<!-- vcorelib_math_time&#45;&gt;vcorelib_io_cache -->
<g id="edge26" class="edge">
<title>vcorelib_math_time&#45;&gt;vcorelib_io_cache</title><style>.edge>path:hover{stroke-width:8}</style>
<path fill="none" stroke="black" d="M625.9,-314.97C638.61,-294.26 655.77,-264.57 667.83,-237.05"/>
<path fill="none" stroke="black" d="M667.83,-235.05C692.48,-178.82 685.19,-147.7 648.83,-98.23 626.57,-67.93 586.84,-51.01 555.38,-41.88"/>
<polygon fill="#0505e5" stroke="black" points="556.06,-38.44 545.49,-39.19 554.22,-45.19 556.06,-38.44"/>
</g>
<!-- vcorelib_math_time&#45;&gt;vcorelib_io_decode -->
<g id="edge27" class="edge">
<title>vcorelib_math_time&#45;&gt;vcorelib_io_decode</title><style>.edge>path:hover{stroke-width:8}</style>
<path fill="none" stroke="black" d="M472.83,-235.05C455.41,-224.83 463.56,-210.28 448.83,-196.45 425.87,-174.9 394.54,-158.19 369.25,-146.97"/>
<polygon fill="#0505e5" stroke="black" points="370.45,-143.67 359.88,-142.94 367.68,-150.1 370.45,-143.67"/>
</g>
<!-- vcorelib_math_time&#45;&gt;vcorelib_io_encode -->
<g id="edge28" class="edge">
<title>vcorelib_math_time&#45;&gt;vcorelib_io_encode</title><style>.edge>path:hover{stroke-width:8}</style>
<path fill="none" stroke="black" d="M579.68,-322.67C573.81,-318.95 567.66,-315.12 561.83,-311.65 533.47,-294.73 520.77,-298.4 496.83,-275.65 482.19,-261.73 490.26,-247.27 472.83,-237.05"/>
<path fill="none" stroke="black" d="M472.83,-235.05C439.12,-215.28 430.86,-208.94 393.83,-196.45 316.12,-170.23 292.52,-179.87 212.83,-160.45 193.26,-155.68 171.85,-149.63 153.57,-144.2"/>
<polygon fill="#0505e5" stroke="black" points="154.36,-140.78 143.77,-141.26 152.35,-147.49 154.36,-140.78"/>
</g>
<!-- vcorelib_math_time&#45;&gt;vcorelib_logging -->
<g id="edge29" class="edge">
<title>vcorelib_math_time&#45;&gt;vcorelib_logging</title><style>.edge>path:hover{stroke-width:8}</style>
<path fill="none" stroke="black" d="M598.52,-312.76C592.38,-291.68 586.7,-262.51 591.83,-237.05"/>
</g>
<!-- vcorelib_math_time&#45;&gt;vcorelib_task -->
<g id="edge30" class="edge">
<title>vcorelib_math_time&#45;&gt;vcorelib_task</title><style>.edge>path:hover{stroke-width:8}</style>
<path fill="none" stroke="black" d="M667.83,-235.05C680.87,-205.3 702.54,-174.98 718.51,-154.68"/>
<polygon fill="#0505e5" stroke="black" points="721.45,-156.61 724.97,-146.62 715.98,-152.23 721.45,-156.61"/>
</g>
<!-- vcorelib_paths -->
<g id="node13" class="node">
<title>vcorelib_paths</title><style>.edge>path:hover{stroke-width:8}</style>
<ellipse fill="#2626d9" stroke="black" cx="235.83" cy="-427.87" rx="46.95" ry="18"/>
<text text-anchor="middle" x="235.83" y="-424.87" font-family="Helvetica,sans-Serif" font-size="10.00" fill="#ffffff">vcorelib.paths</text>
</g>
<!-- vcorelib_paths&#45;&gt;vcorelib_io -->
<g id="edge31" class="edge">
<title>vcorelib_paths&#45;&gt;vcorelib_io</title><style>.edge>path:hover{stroke-width:8}</style>
<path fill="none" stroke="black" d="M214.7,-411.71C161.24,-371.34 26.04,-255.75 42.83,-130.34"/>
</g>
<!-- vcorelib_paths&#45;&gt;vcorelib_io_cache -->
<g id="edge32" class="edge">
<title>vcorelib_paths&#45;&gt;vcorelib_io_cache</title><style>.edge>path:hover{stroke-width:8}</style>
<path fill="none" stroke="black" d="M226.83,-341.76C217.38,-295.74 194.2,-164.14 226.83,-130.34"/>
</g>
<!-- vcorelib_paths&#45;&gt;vcorelib_io_types -->
<g id="edge33" class="edge">
<title>vcorelib_paths&#45;&gt;vcorelib_io_types</title><style>.edge>path:hover{stroke-width:8}</style>
<path fill="none" stroke="black" d="M234.93,-409.85C233.82,-392.95 231.48,-366.36 226.83,-343.76"/>
<path fill="none" stroke="black" d="M226.83,-341.76C221.31,-314.87 204.86,-288.74 189.77,-269.31"/>
<polygon fill="#2626d9" stroke="black" points="192.41,-267.01 183.42,-261.41 186.96,-271.4 192.41,-267.01"/>
</g>
<!-- vcorelib_script -->
<g id="node14" class="node">
<title>vcorelib_script</title><style>.edge>path:hover{stroke-width:8}</style>
<ellipse fill="#4747c2" stroke="black" cx="903.83" cy="-236.05" rx="37.79" ry="22.76"/>
<text text-anchor="middle" x="903.83" y="-239.05" font-family="Helvetica,sans-Serif" font-size="10.00" fill="#ffffff">vcorelib.</text>
<text text-anchor="middle" x="903.83" y="-227.05" font-family="Helvetica,sans-Serif" font-size="10.00" fill="#ffffff">script</text>
</g>
<!-- vcorelib_task_manager -->
<g id="node19" class="node">
<title>vcorelib_task_manager</title><style>.edge>path:hover{stroke-width:8}</style>
<ellipse fill="#404096" stroke="black" cx="903.83" cy="-31.11" rx="39.44" ry="31.23"/>
<text text-anchor="middle" x="903.83" y="-40.11" font-family="Helvetica,sans-Serif" font-size="10.00" fill="#ffffff">vcorelib.</text>
<text text-anchor="middle" x="903.83" y="-28.11" font-family="Helvetica,sans-Serif" font-size="10.00" fill="#ffffff">task.</text>
<text text-anchor="middle" x="903.83" y="-16.11" font-family="Helvetica,sans-Serif" font-size="10.00" fill="#ffffff">manager</text>
</g>
<!-- vcorelib_script&#45;&gt;vcorelib_task_manager -->
<g id="edge34" class="edge">
<title>vcorelib_script&#45;&gt;vcorelib_task_manager</title><style>.edge>path:hover{stroke-width:8}</style>
<path fill="none" stroke="black" d="M903.07,-213.37C902.5,-192.17 902.09,-159.01 903.83,-130.34"/>
</g>
<!-- vcorelib_target -->
<g id="node15" class="node">
<title>vcorelib_target</title><style>.edge>path:hover{stroke-width:8}</style>
<ellipse fill="#2f2fdb" stroke="black" cx="771.83" cy="-236.05" rx="37.79" ry="22.76"/>
<text text-anchor="middle" x="771.83" y="-239.05" font-family="Helvetica,sans-Serif" font-size="10.00" fill="#ffffff">vcorelib.</text>
<text text-anchor="middle" x="771.83" y="-227.05" font-family="Helvetica,sans-Serif" font-size="10.00" fill="#ffffff">target</text>
</g>
<!-- vcorelib_target&#45;&gt;vcorelib_task -->
<g id="edge35" class="edge">
<title>vcorelib_target&#45;&gt;vcorelib_task</title><style>.edge>path:hover{stroke-width:8}</style>
<path fill="none" stroke="black" d="M765.07,-213.61C759.9,-197.2 752.75,-174.49 747.21,-156.92"/>
<polygon fill="#2f2fdb" stroke="black" points="750.51,-155.75 744.17,-147.27 743.83,-157.86 750.51,-155.75"/>
</g>
<!-- vcorelib_target&#45;&gt;vcorelib_task_manager -->
<g id="edge36" class="edge">
<title>vcorelib_target&#45;&gt;vcorelib_task_manager</title><style>.edge>path:hover{stroke-width:8}</style>
<path fill="none" stroke="black" d="M798.77,-220.16C836.91,-198.17 902.23,-156.76 903.83,-130.34"/>
<path fill="none" stroke="black" d="M903.83,-128.34C904.94,-110.11 905.1,-89.9 904.92,-72.73"/>
<polygon fill="#2f2fdb" stroke="black" points="908.42,-72.43 904.77,-62.48 901.42,-72.53 908.42,-72.43"/>
</g>
<!-- vcorelib_target_resolver -->
<g id="node16" class="node">
<title>vcorelib_target_resolver</title><style>.edge>path:hover{stroke-width:8}</style>
<ellipse fill="#3d3db8" stroke="black" cx="996.83" cy="-236.05" rx="37.79" ry="31.23"/>
<text text-anchor="middle" x="996.83" y="-245.05" font-family="Helvetica,sans-Serif" font-size="10.00" fill="#ffffff">vcorelib.</text>
<text text-anchor="middle" x="996.83" y="-233.05" font-family="Helvetica,sans-Serif" font-size="10.00" fill="#ffffff">target.</text>
<text text-anchor="middle" x="996.83" y="-221.05" font-family="Helvetica,sans-Serif" font-size="10.00" fill="#ffffff">resolver</text>
</g>
<!-- vcorelib_target_resolver&#45;&gt;vcorelib_task_manager -->
<g id="edge37" class="edge">
<title>vcorelib_target_resolver&#45;&gt;vcorelib_task_manager</title><style>.edge>path:hover{stroke-width:8}</style>
<path fill="none" stroke="black" d="M970.73,-213.45C942.79,-189.22 902.6,-150.66 903.83,-130.34"/>
</g>
</g>
</svg>
