<?xml version="1.0" encoding="UTF-8" standalone="no"?>
<!DOCTYPE svg PUBLIC "-//W3C//DTD SVG 1.1//EN"
 "http://www.w3.org/Graphics/SVG/1.1/DTD/svg11.dtd">
<!-- Generated by graphviz version 3.0.1~dev.20220405.0544 (20220405.0544)
 -->
<!-- Title: G Pages: 1 -->
<svg width="1062pt" height="823pt"
 viewBox="0.00 0.00 1062.18 822.55" xmlns="http://www.w3.org/2000/svg" xmlns:xlink="http://www.w3.org/1999/xlink">
<g id="graph0" class="graph" transform="scale(1 1) rotate(0) translate(4 818.55)">
<title>G</title><style>.edge>path:hover{stroke-width:8}</style>
<polygon fill="white" stroke="transparent" points="-4,4 -4,-818.55 1058.18,-818.55 1058.18,4 -4,4"/>
<!-- tomli -->
<g id="node1" class="node">
<title>tomli</title><style>.edge>path:hover{stroke-width:8}</style>
<ellipse fill="#b65353" stroke="black" cx="499.54" cy="-698.32" rx="27" ry="18"/>
<text text-anchor="middle" x="499.54" y="-695.32" font-family="Helvetica,sans-Serif" font-size="10.00" fill="#ffffff">tomli</text>
</g>
<!-- vcorelib_io_decode -->
<g id="node9" class="node">
<title>vcorelib_io_decode</title><style>.edge>path:hover{stroke-width:8}</style>
<ellipse fill="#303091" stroke="black" cx="448.54" cy="-399.79" rx="37.79" ry="31.23"/>
<text text-anchor="middle" x="448.54" y="-408.79" font-family="Helvetica,sans-Serif" font-size="10.00" fill="#ffffff">vcorelib.</text>
<text text-anchor="middle" x="448.54" y="-396.79" font-family="Helvetica,sans-Serif" font-size="10.00" fill="#ffffff">io.</text>
<text text-anchor="middle" x="448.54" y="-384.79" font-family="Helvetica,sans-Serif" font-size="10.00" fill="#ffffff">decode</text>
</g>
<!-- tomli&#45;&gt;vcorelib_io_decode -->
<g id="edge1" class="edge">
<title>tomli&#45;&gt;vcorelib_io_decode</title><style>.edge>path:hover{stroke-width:8}</style>
<path fill="none" stroke="black" d="M496.58,-680.1C488.63,-633.87 466.66,-506.15 455.4,-440.65"/>
<polygon fill="#b65353" stroke="black" points="458.83,-439.96 453.68,-430.7 451.93,-441.15 458.83,-439.96"/>
</g>
<!-- tomli_w -->
<g id="node2" class="node">
<title>tomli_w</title><style>.edge>path:hover{stroke-width:8}</style>
<ellipse fill="#40c040" stroke="black" cx="365.54" cy="-698.32" rx="30.01" ry="18"/>
<text text-anchor="middle" x="365.54" y="-695.32" font-family="Helvetica,sans-Serif" font-size="10.00" fill="#000000">tomli_w</text>
</g>
<!-- vcorelib_io_encode -->
<g id="node10" class="node">
<title>vcorelib_io_encode</title><style>.edge>path:hover{stroke-width:8}</style>
<ellipse fill="#303091" stroke="black" cx="355.54" cy="-399.79" rx="37.79" ry="31.23"/>
<text text-anchor="middle" x="355.54" y="-408.79" font-family="Helvetica,sans-Serif" font-size="10.00" fill="#ffffff">vcorelib.</text>
<text text-anchor="middle" x="355.54" y="-396.79" font-family="Helvetica,sans-Serif" font-size="10.00" fill="#ffffff">io.</text>
<text text-anchor="middle" x="355.54" y="-384.79" font-family="Helvetica,sans-Serif" font-size="10.00" fill="#ffffff">encode</text>
</g>
<!-- tomli_w&#45;&gt;vcorelib_io_encode -->
<g id="edge2" class="edge">
<title>tomli_w&#45;&gt;vcorelib_io_encode</title><style>.edge>path:hover{stroke-width:8}</style>
<path fill="none" stroke="black" d="M363.92,-680.32C362.7,-663.42 361.79,-636.84 365.54,-614.21"/>
</g>
<!-- vcorelib_dict -->
<g id="node3" class="node">
<title>vcorelib_dict</title><style>.edge>path:hover{stroke-width:8}</style>
<ellipse fill="#1010f9" stroke="black" cx="423.54" cy="-783.44" rx="41.24" ry="18"/>
<text text-anchor="middle" x="423.54" y="-780.44" font-family="Helvetica,sans-Serif" font-size="10.00" fill="#ffffff">vcorelib.dict</text>
</g>
<!-- vcorelib_io -->
<g id="node6" class="node">
<title>vcorelib_io</title><style>.edge>path:hover{stroke-width:8}</style>
<ellipse fill="#0404bd" stroke="black" cx="186.54" cy="-301.56" rx="36.89" ry="18"/>
<text text-anchor="middle" x="186.54" y="-298.56" font-family="Helvetica,sans-Serif" font-size="10.00" fill="#ffffff">vcorelib.io</text>
</g>
<!-- vcorelib_dict&#45;&gt;vcorelib_io -->
<g id="edge3" class="edge">
<title>vcorelib_dict&#45;&gt;vcorelib_io</title><style>.edge>path:hover{stroke-width:8}</style>
<path fill="none" stroke="black" d="M119.54,-505.5C112.78,-458.03 141.79,-448.59 145.54,-400.79"/>
<path fill="none" stroke="black" d="M145.54,-398.79C147.54,-373.24 159.8,-346.61 170.4,-327.86"/>
<polygon fill="#1010f9" stroke="black" points="173.51,-329.47 175.57,-319.07 167.48,-325.92 173.51,-329.47"/>
</g>
<!-- vcorelib_io_cache -->
<g id="node8" class="node">
<title>vcorelib_io_cache</title><style>.edge>path:hover{stroke-width:8}</style>
<ellipse fill="#373781" stroke="black" cx="541.54" cy="-301.56" rx="37.79" ry="31.23"/>
<text text-anchor="middle" x="541.54" y="-310.56" font-family="Helvetica,sans-Serif" font-size="10.00" fill="#ffffff">vcorelib.</text>
<text text-anchor="middle" x="541.54" y="-298.56" font-family="Helvetica,sans-Serif" font-size="10.00" fill="#ffffff">io.</text>
<text text-anchor="middle" x="541.54" y="-286.56" font-family="Helvetica,sans-Serif" font-size="10.00" fill="#ffffff">cache</text>
</g>
<!-- vcorelib_dict&#45;&gt;vcorelib_io_cache -->
<g id="edge4" class="edge">
<title>vcorelib_dict&#45;&gt;vcorelib_io_cache</title><style>.edge>path:hover{stroke-width:8}</style>
<path fill="none" stroke="black" d="M805.54,-612.21C804.23,-582.2 815.76,-575.89 819.54,-546.1 825.98,-495.26 823.43,-482.14 824.54,-430.9 825.14,-403.25 841.73,-390.34 824.54,-368.68 795.7,-332.32 662.18,-314.08 589.31,-306.69"/>
<polygon fill="#1010f9" stroke="black" points="589.32,-303.17 579.02,-305.67 588.63,-310.14 589.32,-303.17"/>
</g>
<!-- vcorelib_dict&#45;&gt;vcorelib_io_decode -->
<g id="edge5" class="edge">
<title>vcorelib_dict&#45;&gt;vcorelib_io_decode</title><style>.edge>path:hover{stroke-width:8}</style>
<path fill="none" stroke="black" d="M424.68,-765.05C428.44,-707.7 440.5,-523.55 445.89,-441.22"/>
<polygon fill="#1010f9" stroke="black" points="449.4,-441.21 446.56,-431 442.41,-440.75 449.4,-441.21"/>
</g>
<!-- vcorelib_dict&#45;&gt;vcorelib_io_encode -->
<g id="edge6" class="edge">
<title>vcorelib_dict&#45;&gt;vcorelib_io_encode</title><style>.edge>path:hover{stroke-width:8}</style>
<path fill="none" stroke="black" d="M393.37,-771.09C370.45,-760.68 340.54,-742.81 326.54,-716.32 303.84,-673.37 357.6,-662.14 365.54,-614.21"/>
<path fill="none" stroke="black" d="M365.54,-612.21C372.75,-552.9 366.77,-483.64 361.44,-441"/>
<polygon fill="#1010f9" stroke="black" points="364.9,-440.48 360.15,-431.02 357.96,-441.38 364.9,-440.48"/>
</g>
<!-- vcorelib_io_types -->
<g id="node11" class="node">
<title>vcorelib_io_types</title><style>.edge>path:hover{stroke-width:8}</style>
<ellipse fill="#0505e5" stroke="black" cx="223.54" cy="-506.5" rx="37.79" ry="31.23"/>
<text text-anchor="middle" x="223.54" y="-515.5" font-family="Helvetica,sans-Serif" font-size="10.00" fill="#ffffff">vcorelib.</text>
<text text-anchor="middle" x="223.54" y="-503.5" font-family="Helvetica,sans-Serif" font-size="10.00" fill="#ffffff">io.</text>
<text text-anchor="middle" x="223.54" y="-491.5" font-family="Helvetica,sans-Serif" font-size="10.00" fill="#ffffff">types</text>
</g>
<!-- vcorelib_dict&#45;&gt;vcorelib_io_types -->
<g id="edge7" class="edge">
<title>vcorelib_dict&#45;&gt;vcorelib_io_types</title><style>.edge>path:hover{stroke-width:8}</style>
<path fill="none" stroke="black" d="M157.54,-697.32C122.22,-648.94 163.95,-580.09 195.28,-539.97"/>
<polygon fill="#1010f9" stroke="black" points="198.06,-542.1 201.57,-532.11 192.59,-537.73 198.06,-542.1"/>
</g>
<!-- vcorelib_math_time -->
<g id="node14" class="node">
<title>vcorelib_math_time</title><style>.edge>path:hover{stroke-width:8}</style>
<ellipse fill="#0505e5" stroke="black" cx="673.54" cy="-613.21" rx="37.79" ry="31.23"/>
<text text-anchor="middle" x="673.54" y="-622.21" font-family="Helvetica,sans-Serif" font-size="10.00" fill="#ffffff">vcorelib.</text>
<text text-anchor="middle" x="673.54" y="-610.21" font-family="Helvetica,sans-Serif" font-size="10.00" fill="#ffffff">math.</text>
<text text-anchor="middle" x="673.54" y="-598.21" font-family="Helvetica,sans-Serif" font-size="10.00" fill="#ffffff">time</text>
</g>
<!-- vcorelib_dict&#45;&gt;vcorelib_math_time -->
<g id="edge8" class="edge">
<title>vcorelib_dict&#45;&gt;vcorelib_math_time</title><style>.edge>path:hover{stroke-width:8}</style>
<path fill="none" stroke="black" d="M464.95,-781.49C559,-778.2 782.35,-763.65 805.54,-699.32"/>
<path fill="none" stroke="black" d="M805.54,-697.32C820.36,-656.2 764.01,-633.89 720.34,-623.02"/>
<polygon fill="#1010f9" stroke="black" points="720.95,-619.57 710.41,-620.69 719.35,-626.38 720.95,-619.57"/>
</g>
<!-- vcorelib_paths_info_cache -->
<g id="node16" class="node">
<title>vcorelib_paths_info_cache</title><style>.edge>path:hover{stroke-width:8}</style>
<ellipse fill="#3d3d8f" stroke="black" cx="121.54" cy="-31.11" rx="45.53" ry="31.23"/>
<text text-anchor="middle" x="121.54" y="-40.11" font-family="Helvetica,sans-Serif" font-size="10.00" fill="#ffffff">vcorelib.</text>
<text text-anchor="middle" x="121.54" y="-28.11" font-family="Helvetica,sans-Serif" font-size="10.00" fill="#ffffff">paths.</text>
<text text-anchor="middle" x="121.54" y="-16.11" font-family="Helvetica,sans-Serif" font-size="10.00" fill="#ffffff">info_cache</text>
</g>
<!-- vcorelib_dict&#45;&gt;vcorelib_paths_info_cache -->
<g id="edge9" class="edge">
<title>vcorelib_dict&#45;&gt;vcorelib_paths_info_cache</title><style>.edge>path:hover{stroke-width:8}</style>
<path fill="none" stroke="black" d="M382.31,-781.65C323.65,-778.21 216.66,-762.94 157.54,-699.32"/>
<path fill="none" stroke="black" d="M157.54,-697.32C98.97,-634.29 131.66,-592.68 119.54,-507.5"/>
<path fill="none" stroke="black" d="M119.54,-505.5C113.72,-468.33 93.97,-465.64 79.54,-430.9 37.94,-330.75 24.49,-304.72 8.54,-197.45 4.47,-170.1 -7.78,-157.55 8.54,-135.23 39.64,-92.67 126.35,-151.71 121.54,-99.23"/>
<path fill="none" stroke="black" d="M121.54,-98.23C120.56,-89.96 120.14,-81.07 120.03,-72.58"/>
<polygon fill="#1010f9" stroke="black" points="123.53,-72.49 120.04,-62.48 116.53,-72.48 123.53,-72.49"/>
</g>
<!-- vcorelib_task -->
<g id="node20" class="node">
<title>vcorelib_task</title><style>.edge>path:hover{stroke-width:8}</style>
<ellipse fill="#1515c1" stroke="black" cx="772.54" cy="-399.79" rx="43.08" ry="18"/>
<text text-anchor="middle" x="772.54" y="-396.79" font-family="Helvetica,sans-Serif" font-size="10.00" fill="#ffffff">vcorelib.task</text>
</g>
<!-- vcorelib_dict&#45;&gt;vcorelib_task -->
<g id="edge10" class="edge">
<title>vcorelib_dict&#45;&gt;vcorelib_task</title><style>.edge>path:hover{stroke-width:8}</style>
<path fill="none" stroke="black" d="M805.54,-612.21C803.51,-565.72 814.21,-553.22 805.54,-507.5"/>
<path fill="none" stroke="black" d="M805.54,-505.5C800.38,-478.3 790.46,-448.26 782.83,-427.36"/>
<polygon fill="#1010f9" stroke="black" points="786.07,-426.03 779.3,-417.88 779.51,-428.48 786.07,-426.03"/>
</g>
<!-- vcorelib_task_dict_melder -->
<g id="node21" class="node">
<title>vcorelib_task_dict_melder</title><style>.edge>path:hover{stroke-width:8}</style>
<ellipse fill="#4646a4" stroke="black" cx="739.54" cy="-506.5" rx="37.79" ry="39.7"/>
<text text-anchor="middle" x="739.54" y="-521.5" font-family="Helvetica,sans-Serif" font-size="10.00" fill="#ffffff">vcorelib.</text>
<text text-anchor="middle" x="739.54" y="-509.5" font-family="Helvetica,sans-Serif" font-size="10.00" fill="#ffffff">task.</text>
<text text-anchor="middle" x="739.54" y="-497.5" font-family="Helvetica,sans-Serif" font-size="10.00" fill="#ffffff">dict.</text>
<text text-anchor="middle" x="739.54" y="-485.5" font-family="Helvetica,sans-Serif" font-size="10.00" fill="#ffffff">melder</text>
</g>
<!-- vcorelib_dict&#45;&gt;vcorelib_task_dict_melder -->
<g id="edge11" class="edge">
<title>vcorelib_dict&#45;&gt;vcorelib_task_dict_melder</title><style>.edge>path:hover{stroke-width:8}</style>
<path fill="none" stroke="black" d="M805.54,-697.32C818.07,-662.57 807.15,-651.11 805.54,-614.21"/>
<path fill="none" stroke="black" d="M805.54,-612.21C804.39,-585.91 789.23,-560.81 773.73,-541.77"/>
<polygon fill="#1010f9" stroke="black" points="776.26,-539.34 767.1,-534 770.93,-543.88 776.26,-539.34"/>
</g>
<!-- vcorelib_task_manager -->
<g id="node22" class="node">
<title>vcorelib_task_manager</title><style>.edge>path:hover{stroke-width:8}</style>
<ellipse fill="#3d3d8f" stroke="black" cx="923.54" cy="-613.21" rx="39.44" ry="31.23"/>
<text text-anchor="middle" x="923.54" y="-622.21" font-family="Helvetica,sans-Serif" font-size="10.00" fill="#ffffff">vcorelib.</text>
<text text-anchor="middle" x="923.54" y="-610.21" font-family="Helvetica,sans-Serif" font-size="10.00" fill="#ffffff">task.</text>
<text text-anchor="middle" x="923.54" y="-598.21" font-family="Helvetica,sans-Serif" font-size="10.00" fill="#ffffff">manager</text>
</g>
<!-- vcorelib_dict&#45;&gt;vcorelib_task_manager -->
<g id="edge12" class="edge">
<title>vcorelib_dict&#45;&gt;vcorelib_task_manager</title><style>.edge>path:hover{stroke-width:8}</style>
<path fill="none" stroke="black" d="M464.08,-779.31C579.32,-769.93 901.94,-740.16 923.54,-699.32"/>
<path fill="none" stroke="black" d="M923.54,-697.32C930.43,-684.29 931.82,-668.42 931.01,-654.05"/>
<polygon fill="#1010f9" stroke="black" points="934.47,-653.55 930.07,-643.91 927.5,-654.19 934.47,-653.55"/>
</g>
<!-- vcorelib_dict_cache -->
<g id="node4" class="node">
<title>vcorelib_dict_cache</title><style>.edge>path:hover{stroke-width:8}</style>
<ellipse fill="#3838a8" stroke="black" cx="187.54" cy="-166.34" rx="37.79" ry="31.23"/>
<text text-anchor="middle" x="187.54" y="-175.34" font-family="Helvetica,sans-Serif" font-size="10.00" fill="#ffffff">vcorelib.</text>
<text text-anchor="middle" x="187.54" y="-163.34" font-family="Helvetica,sans-Serif" font-size="10.00" fill="#ffffff">dict.</text>
<text text-anchor="middle" x="187.54" y="-151.34" font-family="Helvetica,sans-Serif" font-size="10.00" fill="#ffffff">cache</text>
</g>
<!-- vcorelib_dict_cache&#45;&gt;vcorelib_paths_info_cache -->
<g id="edge13" class="edge">
<title>vcorelib_dict_cache&#45;&gt;vcorelib_paths_info_cache</title><style>.edge>path:hover{stroke-width:8}</style>
<path fill="none" stroke="black" d="M156.77,-148.01C140.78,-136.62 124.04,-120 121.54,-99.23"/>
</g>
<!-- vcorelib_dict_config -->
<g id="node5" class="node">
<title>vcorelib_dict_config</title><style>.edge>path:hover{stroke-width:8}</style>
<ellipse fill="#404096" stroke="black" cx="55.54" cy="-166.34" rx="37.79" ry="31.23"/>
<text text-anchor="middle" x="55.54" y="-175.34" font-family="Helvetica,sans-Serif" font-size="10.00" fill="#ffffff">vcorelib.</text>
<text text-anchor="middle" x="55.54" y="-163.34" font-family="Helvetica,sans-Serif" font-size="10.00" fill="#ffffff">dict.</text>
<text text-anchor="middle" x="55.54" y="-151.34" font-family="Helvetica,sans-Serif" font-size="10.00" fill="#ffffff">config</text>
</g>
<!-- vcorelib_io&#45;&gt;vcorelib_dict_cache -->
<g id="edge14" class="edge">
<title>vcorelib_io&#45;&gt;vcorelib_dict_cache</title><style>.edge>path:hover{stroke-width:8}</style>
<path fill="none" stroke="black" d="M190.88,-283.57C193.91,-270.29 197.42,-251.32 197.54,-234.45"/>
</g>
<!-- vcorelib_io&#45;&gt;vcorelib_dict_config -->
<g id="edge15" class="edge">
<title>vcorelib_io&#45;&gt;vcorelib_dict_config</title><style>.edge>path:hover{stroke-width:8}</style>
<path fill="none" stroke="black" d="M175.75,-284.28C166.04,-270.15 150.94,-249.5 135.54,-233.45 122.08,-219.43 105.77,-205.5 91.39,-194.06"/>
<polygon fill="#0404bd" stroke="black" points="93.22,-191.04 83.19,-187.63 88.9,-196.55 93.22,-191.04"/>
</g>
<!-- vcorelib_io&#45;&gt;vcorelib_paths_info_cache -->
<g id="edge16" class="edge">
<title>vcorelib_io&#45;&gt;vcorelib_paths_info_cache</title><style>.edge>path:hover{stroke-width:8}</style>
<path fill="none" stroke="black" d="M199.64,-284.4C223.55,-252.85 268.76,-182.04 234.54,-135.23 203.44,-92.67 127.83,-151.56 121.54,-99.23"/>
</g>
<!-- vcorelib_io_archive -->
<g id="node7" class="node">
<title>vcorelib_io_archive</title><style>.edge>path:hover{stroke-width:8}</style>
<ellipse fill="#3535a1" stroke="black" cx="541.54" cy="-399.79" rx="37.79" ry="31.23"/>
<text text-anchor="middle" x="541.54" y="-408.79" font-family="Helvetica,sans-Serif" font-size="10.00" fill="#ffffff">vcorelib.</text>
<text text-anchor="middle" x="541.54" y="-396.79" font-family="Helvetica,sans-Serif" font-size="10.00" fill="#ffffff">io.</text>
<text text-anchor="middle" x="541.54" y="-384.79" font-family="Helvetica,sans-Serif" font-size="10.00" fill="#ffffff">archive</text>
</g>
<!-- vcorelib_io_archive&#45;&gt;vcorelib_io_cache -->
<g id="edge17" class="edge">
<title>vcorelib_io_archive&#45;&gt;vcorelib_io_cache</title><style>.edge>path:hover{stroke-width:8}</style>
<path fill="none" stroke="black" d="M541.54,-368.61C541.54,-360.53 541.54,-351.68 541.54,-343.14"/>
<polygon fill="#3535a1" stroke="black" points="545.04,-342.97 541.54,-332.97 538.04,-342.97 545.04,-342.97"/>
</g>
<!-- vcorelib_io_decode&#45;&gt;vcorelib_io -->
<g id="edge18" class="edge">
<title>vcorelib_io_decode&#45;&gt;vcorelib_io</title><style>.edge>path:hover{stroke-width:8}</style>
<path fill="none" stroke="black" d="M420.56,-378.69C414.77,-375.05 408.59,-371.51 402.54,-368.68 345.05,-341.73 273.89,-322.43 229.34,-311.87"/>
<polygon fill="#303091" stroke="black" points="229.97,-308.43 219.44,-309.57 228.38,-315.24 229.97,-308.43"/>
</g>
<!-- vcorelib_io_encode&#45;&gt;vcorelib_io -->
<g id="edge19" class="edge">
<title>vcorelib_io_encode&#45;&gt;vcorelib_io</title><style>.edge>path:hover{stroke-width:8}</style>
<path fill="none" stroke="black" d="M324.94,-381.36C294.85,-364.23 249.12,-338.2 218.56,-320.79"/>
<polygon fill="#303091" stroke="black" points="220.02,-317.6 209.6,-315.69 216.55,-323.68 220.02,-317.6"/>
</g>
<!-- vcorelib_io_types&#45;&gt;vcorelib_dict_cache -->
<g id="edge20" class="edge">
<title>vcorelib_io_types&#45;&gt;vcorelib_dict_cache</title><style>.edge>path:hover{stroke-width:8}</style>
<path fill="none" stroke="black" d="M121.54,-300.56C126.62,-285.58 129.35,-281.64 140.54,-270.45 161.72,-249.26 197.32,-264.41 197.54,-234.45"/>
<path fill="none" stroke="black" d="M197.54,-233.45C197.6,-224.86 196.79,-215.7 195.61,-207.04"/>
<polygon fill="#0505e5" stroke="black" points="199.07,-206.49 194.08,-197.14 192.15,-207.56 199.07,-206.49"/>
</g>
<!-- vcorelib_io_types&#45;&gt;vcorelib_dict_config -->
<g id="edge21" class="edge">
<title>vcorelib_io_types&#45;&gt;vcorelib_dict_config</title><style>.edge>path:hover{stroke-width:8}</style>
<path fill="none" stroke="black" d="M196.04,-484.97C170.35,-465.5 135.36,-438.18 131.54,-430.9 104.94,-380.25 103.17,-356.75 121.54,-302.56"/>
<path fill="none" stroke="black" d="M121.54,-300.56C129.12,-272.18 128.15,-263.08 121.54,-234.45"/>
<path fill="none" stroke="black" d="M121.54,-233.45C117.7,-216.83 105.88,-202.71 93.28,-191.84"/>
<polygon fill="#0505e5" stroke="black" points="95.38,-189.04 85.39,-185.49 90.99,-194.49 95.38,-189.04"/>
</g>
<!-- vcorelib_io_types&#45;&gt;vcorelib_io -->
<g id="edge22" class="edge">
<title>vcorelib_io_types&#45;&gt;vcorelib_io</title><style>.edge>path:hover{stroke-width:8}</style>
<path fill="none" stroke="black" d="M194.96,-485.45C171.59,-466.41 142.81,-435.59 145.54,-400.79"/>
</g>
<!-- vcorelib_io_types&#45;&gt;vcorelib_io_archive -->
<g id="edge23" class="edge">
<title>vcorelib_io_types&#45;&gt;vcorelib_io_archive</title><style>.edge>path:hover{stroke-width:8}</style>
<path fill="none" stroke="black" d="M248.76,-483.04C256.82,-476.92 266.12,-470.89 275.54,-466.9 366.78,-428.29 403.2,-466.81 495.54,-430.9 498.75,-429.65 501.97,-428.16 505.13,-426.51"/>
<polygon fill="#0505e5" stroke="black" points="506.89,-429.54 513.84,-421.54 503.42,-423.46 506.89,-429.54"/>
</g>
<!-- vcorelib_io_types&#45;&gt;vcorelib_io_cache -->
<g id="edge24" class="edge">
<title>vcorelib_io_types&#45;&gt;vcorelib_io_cache</title><style>.edge>path:hover{stroke-width:8}</style>
<path fill="none" stroke="black" d="M237.54,-477.29C249.45,-455.01 268.02,-423.91 289.54,-400.79"/>
<path fill="none" stroke="black" d="M289.54,-398.79C300.32,-387.2 295.87,-378.15 308.54,-368.68 363.67,-327.44 443.58,-311.91 494.03,-306.07"/>
<polygon fill="#0505e5" stroke="black" points="494.45,-309.54 504.02,-304.99 493.7,-302.58 494.45,-309.54"/>
</g>
<!-- vcorelib_io_types&#45;&gt;vcorelib_io_decode -->
<g id="edge25" class="edge">
<title>vcorelib_io_types&#45;&gt;vcorelib_io_decode</title><style>.edge>path:hover{stroke-width:8}</style>
<path fill="none" stroke="black" d="M249.33,-483.5C257.34,-477.47 266.46,-471.37 275.54,-466.9 328.18,-440.99 349.16,-455.25 402.54,-430.9 405.67,-429.47 408.84,-427.85 411.96,-426.11"/>
<polygon fill="#0505e5" stroke="black" points="413.79,-429.1 420.6,-420.99 410.22,-423.08 413.79,-429.1"/>
</g>
<!-- vcorelib_io_types&#45;&gt;vcorelib_io_encode -->
<g id="edge26" class="edge">
<title>vcorelib_io_types&#45;&gt;vcorelib_io_encode</title><style>.edge>path:hover{stroke-width:8}</style>
<path fill="none" stroke="black" d="M250.25,-484.31C270.65,-468.13 298.92,-445.71 321.03,-428.17"/>
<polygon fill="#0505e5" stroke="black" points="323.21,-430.9 328.87,-421.95 318.86,-425.42 323.21,-430.9"/>
</g>
<!-- vcorelib_io_types&#45;&gt;vcorelib_paths_info_cache -->
<g id="edge27" class="edge">
<title>vcorelib_io_types&#45;&gt;vcorelib_paths_info_cache</title><style>.edge>path:hover{stroke-width:8}</style>
<path fill="none" stroke="black" d="M121.54,-233.45C108.11,-175.33 127.3,-158.6 121.54,-99.23"/>
</g>
<!-- vcorelib_logging -->
<g id="node12" class="node">
<title>vcorelib_logging</title><style>.edge>path:hover{stroke-width:8}</style>
<ellipse fill="#4646a4" stroke="black" cx="673.54" cy="-399.79" rx="37.79" ry="22.76"/>
<text text-anchor="middle" x="673.54" y="-402.79" font-family="Helvetica,sans-Serif" font-size="10.00" fill="#ffffff">vcorelib.</text>
<text text-anchor="middle" x="673.54" y="-390.79" font-family="Helvetica,sans-Serif" font-size="10.00" fill="#ffffff">logging</text>
</g>
<!-- vcorelib_math -->
<g id="node13" class="node">
<title>vcorelib_math</title><style>.edge>path:hover{stroke-width:8}</style>
<ellipse fill="#1010f9" stroke="black" cx="572.54" cy="-613.21" rx="45.26" ry="18"/>
<text text-anchor="middle" x="572.54" y="-610.21" font-family="Helvetica,sans-Serif" font-size="10.00" fill="#ffffff">vcorelib.math</text>
</g>
<!-- vcorelib_math&#45;&gt;vcorelib_io_archive -->
<g id="edge28" class="edge">
<title>vcorelib_math&#45;&gt;vcorelib_io_archive</title><style>.edge>path:hover{stroke-width:8}</style>
<path fill="none" stroke="black" d="M569.54,-505.5C569.04,-482.97 562.88,-458.6 556.46,-439.05"/>
<polygon fill="#1010f9" stroke="black" points="559.77,-437.9 553.22,-429.58 553.15,-440.17 559.77,-437.9"/>
</g>
<!-- vcorelib_math&#45;&gt;vcorelib_io_cache -->
<g id="edge29" class="edge">
<title>vcorelib_math&#45;&gt;vcorelib_io_cache</title><style>.edge>path:hover{stroke-width:8}</style>
<path fill="none" stroke="black" d="M569.54,-505.5C568.44,-456 617.75,-449.23 607.54,-400.79"/>
<path fill="none" stroke="black" d="M607.54,-398.79C602.4,-374.38 586.93,-351.19 572.26,-333.69"/>
<polygon fill="#1010f9" stroke="black" points="574.83,-331.31 565.62,-326.07 569.55,-335.91 574.83,-331.31"/>
</g>
<!-- vcorelib_math&#45;&gt;vcorelib_io_decode -->
<g id="edge30" class="edge">
<title>vcorelib_math&#45;&gt;vcorelib_io_decode</title><style>.edge>path:hover{stroke-width:8}</style>
<path fill="none" stroke="black" d="M571.98,-595.16C571.32,-574.44 570.23,-538.41 569.54,-507.5"/>
<path fill="none" stroke="black" d="M569.54,-505.5C569.29,-494.15 520.06,-454.63 484.48,-427.53"/>
<polygon fill="#1010f9" stroke="black" points="486.31,-424.52 476.22,-421.27 482.08,-430.09 486.31,-424.52"/>
</g>
<!-- vcorelib_math&#45;&gt;vcorelib_io_encode -->
<g id="edge31" class="edge">
<title>vcorelib_math&#45;&gt;vcorelib_io_encode</title><style>.edge>path:hover{stroke-width:8}</style>
<path fill="none" stroke="black" d="M556.23,-596.32C520.28,-561.3 433.72,-476.96 386.89,-431.33"/>
<polygon fill="#1010f9" stroke="black" points="389.06,-428.56 379.45,-424.09 384.17,-433.57 389.06,-428.56"/>
</g>
<!-- vcorelib_math&#45;&gt;vcorelib_logging -->
<g id="edge32" class="edge">
<title>vcorelib_math&#45;&gt;vcorelib_logging</title><style>.edge>path:hover{stroke-width:8}</style>
<path fill="none" stroke="black" d="M569.54,-505.5C569.07,-484.57 611.57,-447.7 642.38,-423.76"/>
<polygon fill="#1010f9" stroke="black" points="644.51,-426.54 650.32,-417.68 640.25,-420.98 644.51,-426.54"/>
</g>
<!-- vcorelib_math&#45;&gt;vcorelib_task -->
<g id="edge33" class="edge">
<title>vcorelib_math&#45;&gt;vcorelib_task</title><style>.edge>path:hover{stroke-width:8}</style>
<path fill="none" stroke="black" d="M590.93,-596.74C612.83,-577.57 649.47,-543.06 673.54,-507.5"/>
<path fill="none" stroke="black" d="M673.54,-505.5C684.26,-489.66 680.68,-481.9 692.54,-466.9 706.52,-449.21 725.96,-433.01 742.17,-421.07"/>
<polygon fill="#1010f9" stroke="black" points="744.23,-423.91 750.31,-415.24 740.15,-418.22 744.23,-423.91"/>
</g>
<!-- vcorelib_math_time&#45;&gt;vcorelib_io_archive -->
<g id="edge34" class="edge">
<title>vcorelib_math_time&#45;&gt;vcorelib_io_archive</title><style>.edge>path:hover{stroke-width:8}</style>
<path fill="none" stroke="black" d="M607.54,-505.5C596.05,-488.89 594.29,-484 583.54,-466.9 577.27,-456.93 570.44,-446.13 564.14,-436.22"/>
<polygon fill="#0505e5" stroke="black" points="567.08,-434.33 558.76,-427.77 561.18,-438.09 567.08,-434.33"/>
</g>
<!-- vcorelib_math_time&#45;&gt;vcorelib_io_cache -->
<g id="edge35" class="edge">
<title>vcorelib_math_time&#45;&gt;vcorelib_io_cache</title><style>.edge>path:hover{stroke-width:8}</style>
<path fill="none" stroke="black" d="M607.54,-505.5C581.07,-467.23 617.14,-446.33 607.54,-400.79"/>
</g>
<!-- vcorelib_math_time&#45;&gt;vcorelib_io_decode -->
<g id="edge36" class="edge">
<title>vcorelib_math_time&#45;&gt;vcorelib_io_decode</title><style>.edge>path:hover{stroke-width:8}</style>
<path fill="none" stroke="black" d="M607.54,-505.5C596.05,-488.89 599,-479.91 583.54,-466.9 550.89,-439.43 532.35,-450.68 494.54,-430.9 491.49,-429.3 488.38,-427.56 485.3,-425.74"/>
<polygon fill="#0505e5" stroke="black" points="487.08,-422.73 476.73,-420.47 483.41,-428.69 487.08,-422.73"/>
</g>
<!-- vcorelib_math_time&#45;&gt;vcorelib_io_encode -->
<g id="edge37" class="edge">
<title>vcorelib_math_time&#45;&gt;vcorelib_io_encode</title><style>.edge>path:hover{stroke-width:8}</style>
<path fill="none" stroke="black" d="M657.34,-585.12C644.34,-563.73 625.39,-533.3 607.54,-507.5"/>
<path fill="none" stroke="black" d="M607.54,-505.5C596.05,-488.89 600.16,-478.39 583.54,-466.9 515.71,-420.01 477.88,-462.06 401.54,-430.9 398.35,-429.6 395.15,-428.07 391.99,-426.39"/>
<polygon fill="#0505e5" stroke="black" points="393.72,-423.35 383.31,-421.38 390.22,-429.41 393.72,-423.35"/>
</g>
<!-- vcorelib_math_time&#45;&gt;vcorelib_logging -->
<g id="edge38" class="edge">
<title>vcorelib_math_time&#45;&gt;vcorelib_logging</title><style>.edge>path:hover{stroke-width:8}</style>
<path fill="none" stroke="black" d="M607.54,-505.5C588.68,-478.23 616.53,-445.79 641.64,-424.32"/>
<polygon fill="#0505e5" stroke="black" points="644.12,-426.81 649.63,-417.76 639.68,-421.4 644.12,-426.81"/>
</g>
<!-- vcorelib_math_time&#45;&gt;vcorelib_task -->
<g id="edge39" class="edge">
<title>vcorelib_math_time&#45;&gt;vcorelib_task</title><style>.edge>path:hover{stroke-width:8}</style>
<path fill="none" stroke="black" d="M665.21,-582.54C660.73,-560.02 658.77,-529.33 673.54,-507.5"/>
</g>
<!-- vcorelib_paths -->
<g id="node15" class="node">
<title>vcorelib_paths</title><style>.edge>path:hover{stroke-width:8}</style>
<ellipse fill="#0606f9" stroke="black" cx="232.54" cy="-698.32" rx="46.95" ry="18"/>
<text text-anchor="middle" x="232.54" y="-695.32" font-family="Helvetica,sans-Serif" font-size="10.00" fill="#ffffff">vcorelib.paths</text>
</g>
<!-- vcorelib_paths&#45;&gt;vcorelib_dict_cache -->
<g id="edge40" class="edge">
<title>vcorelib_paths&#45;&gt;vcorelib_dict_cache</title><style>.edge>path:hover{stroke-width:8}</style>
<path fill="none" stroke="black" d="M251.54,-398.79C232.81,-344.25 258.09,-322.14 232.54,-270.45 222.65,-250.45 197.38,-256.77 197.54,-234.45"/>
</g>
<!-- vcorelib_paths&#45;&gt;vcorelib_dict_config -->
<g id="edge41" class="edge">
<title>vcorelib_paths&#45;&gt;vcorelib_dict_config</title><style>.edge>path:hover{stroke-width:8}</style>
<path fill="none" stroke="black" d="M226.96,-680.42C213.69,-641.33 178.04,-542.26 133.54,-466.9 123.23,-449.45 113.88,-449.37 105.54,-430.9 72.02,-356.69 60.96,-260.91 57.32,-207.63"/>
<polygon fill="#0606f9" stroke="black" points="60.81,-207.32 56.69,-197.56 53.82,-207.76 60.81,-207.32"/>
</g>
<!-- vcorelib_paths&#45;&gt;vcorelib_io -->
<g id="edge42" class="edge">
<title>vcorelib_paths&#45;&gt;vcorelib_io</title><style>.edge>path:hover{stroke-width:8}</style>
<path fill="none" stroke="black" d="M289.54,-612.21C296.27,-566.16 293.63,-553.86 289.54,-507.5"/>
<path fill="none" stroke="black" d="M289.54,-505.5C285.18,-456.18 267.62,-447.61 251.54,-400.79"/>
<path fill="none" stroke="black" d="M251.54,-398.79C242.11,-371.34 222.74,-344.34 207.58,-325.95"/>
<polygon fill="#0606f9" stroke="black" points="210.1,-323.51 200.96,-318.14 204.76,-328.04 210.1,-323.51"/>
</g>
<!-- vcorelib_paths&#45;&gt;vcorelib_io_cache -->
<g id="edge43" class="edge">
<title>vcorelib_paths&#45;&gt;vcorelib_io_cache</title><style>.edge>path:hover{stroke-width:8}</style>
<path fill="none" stroke="black" d="M289.54,-505.5C285.44,-459.14 257.83,-434.86 289.54,-400.79"/>
</g>
<!-- vcorelib_paths&#45;&gt;vcorelib_io_types -->
<g id="edge44" class="edge">
<title>vcorelib_paths&#45;&gt;vcorelib_io_types</title><style>.edge>path:hover{stroke-width:8}</style>
<path fill="none" stroke="black" d="M250.03,-681.55C265.29,-666.17 285.59,-641.22 289.54,-614.21"/>
<path fill="none" stroke="black" d="M289.54,-612.21C293.73,-583.55 275.21,-556.05 256.74,-536.42"/>
<polygon fill="#0606f9" stroke="black" points="259.22,-533.96 249.71,-529.3 254.24,-538.88 259.22,-533.96"/>
</g>
<!-- vcorelib_script -->
<g id="node17" class="node">
<title>vcorelib_script</title><style>.edge>path:hover{stroke-width:8}</style>
<ellipse fill="#4747c2" stroke="black" cx="923.54" cy="-783.44" rx="37.79" ry="22.76"/>
<text text-anchor="middle" x="923.54" y="-786.44" font-family="Helvetica,sans-Serif" font-size="10.00" fill="#ffffff">vcorelib.</text>
<text text-anchor="middle" x="923.54" y="-774.44" font-family="Helvetica,sans-Serif" font-size="10.00" fill="#ffffff">script</text>
</g>
<!-- vcorelib_script&#45;&gt;vcorelib_task_manager -->
<g id="edge45" class="edge">
<title>vcorelib_script&#45;&gt;vcorelib_task_manager</title><style>.edge>path:hover{stroke-width:8}</style>
<path fill="none" stroke="black" d="M918.27,-760.97C915.14,-743.37 913.49,-718.33 923.54,-699.32"/>
</g>
<!-- vcorelib_target -->
<g id="node18" class="node">
<title>vcorelib_target</title><style>.edge>path:hover{stroke-width:8}</style>
<ellipse fill="#2f2fdb" stroke="black" cx="830.54" cy="-783.44" rx="37.79" ry="22.76"/>
<text text-anchor="middle" x="830.54" y="-786.44" font-family="Helvetica,sans-Serif" font-size="10.00" fill="#ffffff">vcorelib.</text>
<text text-anchor="middle" x="830.54" y="-774.44" font-family="Helvetica,sans-Serif" font-size="10.00" fill="#ffffff">target</text>
</g>
<!-- vcorelib_target&#45;&gt;vcorelib_task -->
<g id="edge46" class="edge">
<title>vcorelib_target&#45;&gt;vcorelib_task</title><style>.edge>path:hover{stroke-width:8}</style>
<path fill="none" stroke="black" d="M830.28,-760.71C829.62,-723.86 827.35,-646.77 819.54,-582.1 815.5,-548.61 813.49,-540.28 805.54,-507.5"/>
</g>
<!-- vcorelib_target&#45;&gt;vcorelib_task_manager -->
<g id="edge47" class="edge">
<title>vcorelib_target&#45;&gt;vcorelib_task_manager</title><style>.edge>path:hover{stroke-width:8}</style>
<path fill="none" stroke="black" d="M856.5,-766.84C878.25,-752.26 908.15,-728.42 923.54,-699.32"/>
</g>
<!-- vcorelib_target_resolver -->
<g id="node19" class="node">
<title>vcorelib_target_resolver</title><style>.edge>path:hover{stroke-width:8}</style>
<ellipse fill="#3d3db8" stroke="black" cx="1016.54" cy="-783.44" rx="37.79" ry="31.23"/>
<text text-anchor="middle" x="1016.54" y="-792.44" font-family="Helvetica,sans-Serif" font-size="10.00" fill="#ffffff">vcorelib.</text>
<text text-anchor="middle" x="1016.54" y="-780.44" font-family="Helvetica,sans-Serif" font-size="10.00" fill="#ffffff">target.</text>
<text text-anchor="middle" x="1016.54" y="-768.44" font-family="Helvetica,sans-Serif" font-size="10.00" fill="#ffffff">resolver</text>
</g>
<!-- vcorelib_target_resolver&#45;&gt;vcorelib_task_manager -->
<g id="edge48" class="edge">
<title>vcorelib_target_resolver&#45;&gt;vcorelib_task_manager</title><style>.edge>path:hover{stroke-width:8}</style>
<path fill="none" stroke="black" d="M988.84,-761.98C959.93,-740.05 919.33,-707.29 923.54,-699.32"/>
</g>
</g>
</svg>
