<?xml version="1.0" encoding="UTF-8" standalone="no"?>
<!DOCTYPE svg PUBLIC "-//W3C//DTD SVG 1.1//EN"
 "http://www.w3.org/Graphics/SVG/1.1/DTD/svg11.dtd">
<!-- Generated by graphviz version 2.38.0 (20140413.2041)
 -->
<!-- Title: G Pages: 1 -->
<svg width="1435pt" height="1043pt"
 viewBox="0.00 0.00 1435.26 1042.97" xmlns="http://www.w3.org/2000/svg" xmlns:xlink="http://www.w3.org/1999/xlink">
<g id="graph0" class="graph" transform="scale(1 1) rotate(0) translate(4 1038.97)">
<title>G</title><style>.edge>path:hover{stroke-width:8}</style>
<polygon fill="white" stroke="none" points="-4,4 -4,-1038.97 1431.26,-1038.97 1431.26,4 -4,4"/>
<!-- __main__ -->
<g id="node1" class="node"><title>__main__</title><style>.edge>path:hover{stroke-width:8}</style>
<ellipse fill="#6b2e2e" stroke="black" cx="217.788" cy="-1016.97" rx="34.9638" ry="18"/>
<text text-anchor="middle" x="217.788" y="-1014.47" font-family="Helvetica,sans-Serif" font-size="10.00" fill="#ffffff">__main__</text>
</g>
<!-- pkg_resources -->
<g id="node4" class="node"><title>pkg_resources</title><style>.edge>path:hover{stroke-width:8}</style>
<ellipse fill="#31c485" stroke="black" cx="217.788" cy="-944.975" rx="47.1863" ry="18"/>
<text text-anchor="middle" x="217.788" y="-942.475" font-family="Helvetica,sans-Serif" font-size="10.00" fill="#000000">pkg_resources</text>
</g>
<!-- __main__&#45;&gt;pkg_resources -->
<g id="edge1" class="edge"><title>__main__&#45;&gt;pkg_resources</title><style>.edge>path:hover{stroke-width:8}</style>
<path fill="none" stroke="black" d="M217.788,-998.671C217.788,-990.957 217.788,-981.687 217.788,-973.087"/>
<polygon fill="#6b2e2e" stroke="black" points="221.288,-973.079 217.788,-963.079 214.288,-973.079 221.288,-973.079"/>
</g>
<!-- cerberus -->
<g id="node2" class="node"><title>cerberus</title><style>.edge>path:hover{stroke-width:8}</style>
<ellipse fill="#b8a63d" stroke="black" cx="31.7878" cy="-299.948" rx="31.577" ry="18"/>
<text text-anchor="middle" x="31.7878" y="-297.448" font-family="Helvetica,sans-Serif" font-size="10.00" fill="#000000">cerberus</text>
</g>
<!-- vcorelib_schemas -->
<g id="node23" class="node"><title>vcorelib_schemas</title><style>.edge>path:hover{stroke-width:8}</style>
<ellipse fill="#ac2b99" stroke="black" cx="194.788" cy="-122.974" rx="39.6962" ry="21.4286"/>
<text text-anchor="middle" x="194.788" y="-125.974" font-family="Helvetica,sans-Serif" font-size="10.00" fill="#ffffff">vcorelib.</text>
<text text-anchor="middle" x="194.788" y="-114.974" font-family="Helvetica,sans-Serif" font-size="10.00" fill="#ffffff">schemas</text>
</g>
<!-- cerberus&#45;&gt;vcorelib_schemas -->
<g id="edge2" class="edge"><title>cerberus&#45;&gt;vcorelib_schemas</title><style>.edge>path:hover{stroke-width:8}</style>
<path fill="none" stroke="black" d="M54.0547,-286.815C77.0495,-273.118 112.248,-248.686 131.788,-217.957"/>
<path fill="none" stroke="black" d="M131.788,-215.957C145.801,-193.92 162.543,-169.561 175.244,-151.45"/>
<polygon fill="#b8a63d" stroke="black" points="178.23,-153.29 181.126,-143.098 172.506,-149.259 178.23,-153.29"/>
</g>
<!-- fastjsonschema -->
<g id="node3" class="node"><title>fastjsonschema</title><style>.edge>path:hover{stroke-width:8}</style>
<ellipse fill="#70b653" stroke="black" cx="131.788" cy="-299.948" rx="50.7503" ry="18"/>
<text text-anchor="middle" x="131.788" y="-297.448" font-family="Helvetica,sans-Serif" font-size="10.00" fill="#000000">fastjsonschema</text>
</g>
<!-- fastjsonschema&#45;&gt;vcorelib_schemas -->
<g id="edge3" class="edge"><title>fastjsonschema&#45;&gt;vcorelib_schemas</title><style>.edge>path:hover{stroke-width:8}</style>
<path fill="none" stroke="black" d="M126.844,-281.983C122.812,-264.506 119.565,-237.179 131.788,-217.957"/>
</g>
<!-- pkg_resources&#45;&gt;cerberus -->
<g id="edge4" class="edge"><title>pkg_resources&#45;&gt;cerberus</title><style>.edge>path:hover{stroke-width:8}</style>
<path fill="none" stroke="black" d="M215.172,-926.865C213.233,-910.223 211.838,-884.388 217.788,-862.983"/>
<path fill="none" stroke="black" d="M217.788,-860.983C237.306,-790.764 217.788,-769.882 217.788,-697.001 217.788,-697.001 217.788,-697.001 217.788,-483.701 217.788,-399.569 119.767,-341.278 66.0402,-315.646"/>
<polygon fill="#31c485" stroke="black" points="67.4161,-312.426 56.8726,-311.384 64.4649,-318.774 67.4161,-312.426"/>
</g>
<!-- vcorelib_paths -->
<g id="node21" class="node"><title>vcorelib_paths</title><style>.edge>path:hover{stroke-width:8}</style>
<ellipse fill="#ef06ce" stroke="black" cx="317.788" cy="-778.992" rx="45.1548" ry="18"/>
<text text-anchor="middle" x="317.788" y="-776.492" font-family="Helvetica,sans-Serif" font-size="10.00" fill="#ffffff">vcorelib.paths</text>
</g>
<!-- pkg_resources&#45;&gt;vcorelib_paths -->
<g id="edge5" class="edge"><title>pkg_resources&#45;&gt;vcorelib_paths</title><style>.edge>path:hover{stroke-width:8}</style>
<path fill="none" stroke="black" d="M217.788,-860.983C225.985,-831.495 254.047,-810.373 278.365,-797.108"/>
<polygon fill="#31c485" stroke="black" points="280.178,-800.111 287.453,-792.408 276.962,-793.893 280.178,-800.111"/>
</g>
<!-- tomli -->
<g id="node5" class="node"><title>tomli</title><style>.edge>path:hover{stroke-width:8}</style>
<ellipse fill="#538cb6" stroke="black" cx="634.788" cy="-778.992" rx="27" ry="18"/>
<text text-anchor="middle" x="634.788" y="-776.492" font-family="Helvetica,sans-Serif" font-size="10.00" fill="#000000">tomli</text>
</g>
<!-- vcorelib_io_decode -->
<g id="node13" class="node"><title>vcorelib_io_decode</title><style>.edge>path:hover{stroke-width:8}</style>
<ellipse fill="#913084" stroke="black" cx="523.788" cy="-484.701" rx="37.4533" ry="28.9828"/>
<text text-anchor="middle" x="523.788" y="-493.201" font-family="Helvetica,sans-Serif" font-size="10.00" fill="#ffffff">vcorelib.</text>
<text text-anchor="middle" x="523.788" y="-482.201" font-family="Helvetica,sans-Serif" font-size="10.00" fill="#ffffff">io.</text>
<text text-anchor="middle" x="523.788" y="-471.201" font-family="Helvetica,sans-Serif" font-size="10.00" fill="#ffffff">decode</text>
</g>
<!-- tomli&#45;&gt;vcorelib_io_decode -->
<g id="edge6" class="edge"><title>tomli&#45;&gt;vcorelib_io_decode</title><style>.edge>path:hover{stroke-width:8}</style>
<path fill="none" stroke="black" d="M646.747,-762.686C672.605,-727.685 727.741,-641.283 680.788,-595.24"/>
<path fill="none" stroke="black" d="M680.788,-593.24C667.855,-580.718 675.206,-569.469 661.788,-557.47 629.366,-528.478 608.67,-542.841 570.788,-521.47 566.216,-518.891 561.594,-515.914 557.124,-512.8"/>
<polygon fill="#538cb6" stroke="black" points="558.912,-509.772 548.768,-506.713 554.79,-515.43 558.912,-509.772"/>
</g>
<!-- tomli_w -->
<g id="node6" class="node"><title>tomli_w</title><style>.edge>path:hover{stroke-width:8}</style>
<ellipse fill="#6440c0" stroke="black" cx="746.788" cy="-778.992" rx="29.3664" ry="18"/>
<text text-anchor="middle" x="746.788" y="-776.492" font-family="Helvetica,sans-Serif" font-size="10.00" fill="#ffffff">tomli_w</text>
</g>
<!-- vcorelib_io_encode -->
<g id="node14" class="node"><title>vcorelib_io_encode</title><style>.edge>path:hover{stroke-width:8}</style>
<ellipse fill="#913084" stroke="black" cx="616.788" cy="-484.701" rx="37.4533" ry="28.9828"/>
<text text-anchor="middle" x="616.788" y="-493.201" font-family="Helvetica,sans-Serif" font-size="10.00" fill="#ffffff">vcorelib.</text>
<text text-anchor="middle" x="616.788" y="-482.201" font-family="Helvetica,sans-Serif" font-size="10.00" fill="#ffffff">io.</text>
<text text-anchor="middle" x="616.788" y="-471.201" font-family="Helvetica,sans-Serif" font-size="10.00" fill="#ffffff">encode</text>
</g>
<!-- tomli_w&#45;&gt;vcorelib_io_encode -->
<g id="edge7" class="edge"><title>tomli_w&#45;&gt;vcorelib_io_encode</title><style>.edge>path:hover{stroke-width:8}</style>
<path fill="none" stroke="black" d="M737.588,-761.807C729.399,-745.849 718.717,-720.507 718.788,-697.001"/>
</g>
<!-- vcorelib_dict -->
<g id="node7" class="node"><title>vcorelib_dict</title><style>.edge>path:hover{stroke-width:8}</style>
<ellipse fill="#f910d8" stroke="black" cx="883.788" cy="-861.983" rx="40.7358" ry="18"/>
<text text-anchor="middle" x="883.788" y="-859.483" font-family="Helvetica,sans-Serif" font-size="10.00" fill="#ffffff">vcorelib.dict</text>
</g>
<!-- vcorelib_io -->
<g id="node10" class="node"><title>vcorelib_io</title><style>.edge>path:hover{stroke-width:8}</style>
<ellipse fill="#bd04a3" stroke="black" cx="401.788" cy="-382.94" rx="35.8171" ry="18"/>
<text text-anchor="middle" x="401.788" y="-380.44" font-family="Helvetica,sans-Serif" font-size="10.00" fill="#ffffff">vcorelib.io</text>
</g>
<!-- vcorelib_dict&#45;&gt;vcorelib_io -->
<g id="edge8" class="edge"><title>vcorelib_dict&#45;&gt;vcorelib_io</title><style>.edge>path:hover{stroke-width:8}</style>
<path fill="none" stroke="black" d="M843.827,-858.237C778.632,-852.289 647.014,-834.045 550.788,-779.992"/>
<path fill="none" stroke="black" d="M550.788,-777.992C491.329,-744.592 446.212,-780.639 406.788,-724.992 337.859,-627.701 374.266,-472.47 392.951,-410.629"/>
<polygon fill="#f910d8" stroke="black" points="396.36,-411.451 395.992,-400.863 389.677,-409.37 396.36,-411.451"/>
</g>
<!-- vcorelib_io_cache -->
<g id="node12" class="node"><title>vcorelib_io_cache</title><style>.edge>path:hover{stroke-width:8}</style>
<ellipse fill="#813776" stroke="black" cx="703.788" cy="-382.94" rx="37.4533" ry="28.9828"/>
<text text-anchor="middle" x="703.788" y="-391.44" font-family="Helvetica,sans-Serif" font-size="10.00" fill="#ffffff">vcorelib.</text>
<text text-anchor="middle" x="703.788" y="-380.44" font-family="Helvetica,sans-Serif" font-size="10.00" fill="#ffffff">io.</text>
<text text-anchor="middle" x="703.788" y="-369.44" font-family="Helvetica,sans-Serif" font-size="10.00" fill="#ffffff">cache</text>
</g>
<!-- vcorelib_dict&#45;&gt;vcorelib_io_cache -->
<g id="edge9" class="edge"><title>vcorelib_dict&#45;&gt;vcorelib_io_cache</title><style>.edge>path:hover{stroke-width:8}</style>
<path fill="none" stroke="black" d="M1179.79,-593.24C1181.35,-528.127 1206.63,-494.195 1160.79,-447.931 1104.37,-391 856.971,-383.971 751.592,-383.617"/>
<polygon fill="#f910d8" stroke="black" points="751.555,-380.117 741.55,-383.602 751.544,-387.117 751.555,-380.117"/>
</g>
<!-- vcorelib_dict&#45;&gt;vcorelib_io_decode -->
<g id="edge10" class="edge"><title>vcorelib_dict&#45;&gt;vcorelib_io_decode</title><style>.edge>path:hover{stroke-width:8}</style>
<path fill="none" stroke="black" d="M550.788,-695.001C550.788,-634.711 539.632,-565.45 531.662,-523.661"/>
<polygon fill="#f910d8" stroke="black" points="535.06,-522.798 529.713,-513.651 528.189,-524.136 535.06,-522.798"/>
</g>
<!-- vcorelib_dict&#45;&gt;vcorelib_io_encode -->
<g id="edge11" class="edge"><title>vcorelib_dict&#45;&gt;vcorelib_io_encode</title><style>.edge>path:hover{stroke-width:8}</style>
<path fill="none" stroke="black" d="M843.625,-858.936C802.071,-854.42 739.093,-840.341 708.788,-796.992 699.98,-784.393 718.745,-711.349 718.788,-697.001"/>
<path fill="none" stroke="black" d="M718.788,-695.001C716.526,-650.72 744.645,-631.257 718.788,-595.24"/>
<path fill="none" stroke="black" d="M718.788,-593.24C707.623,-577.688 707.252,-572.001 694.788,-557.47 681.242,-541.678 664.447,-525.836 649.915,-513.069"/>
<polygon fill="#f910d8" stroke="black" points="651.961,-510.21 642.109,-506.312 647.379,-515.503 651.961,-510.21"/>
</g>
<!-- vcorelib_io_types -->
<g id="node15" class="node"><title>vcorelib_io_types</title><style>.edge>path:hover{stroke-width:8}</style>
<ellipse fill="#e505c5" stroke="black" cx="485.788" cy="-594.24" rx="37.4533" ry="28.9828"/>
<text text-anchor="middle" x="485.788" y="-602.74" font-family="Helvetica,sans-Serif" font-size="10.00" fill="#ffffff">vcorelib.</text>
<text text-anchor="middle" x="485.788" y="-591.74" font-family="Helvetica,sans-Serif" font-size="10.00" fill="#ffffff">io.</text>
<text text-anchor="middle" x="485.788" y="-580.74" font-family="Helvetica,sans-Serif" font-size="10.00" fill="#ffffff">types</text>
</g>
<!-- vcorelib_dict&#45;&gt;vcorelib_io_types -->
<g id="edge12" class="edge"><title>vcorelib_dict&#45;&gt;vcorelib_io_types</title><style>.edge>path:hover{stroke-width:8}</style>
<path fill="none" stroke="black" d="M550.788,-777.992C519.404,-760.363 550.788,-732.997 550.788,-697.001"/>
<path fill="none" stroke="black" d="M550.788,-695.001C550.788,-667.869 533.702,-642.335 517.05,-623.892"/>
<polygon fill="#f910d8" stroke="black" points="519.409,-621.293 509.991,-616.439 514.326,-626.106 519.409,-621.293"/>
</g>
<!-- vcorelib_math_time -->
<g id="node20" class="node"><title>vcorelib_math_time</title><style>.edge>path:hover{stroke-width:8}</style>
<ellipse fill="#e505c5" stroke="black" cx="1077.79" cy="-696.001" rx="37.4533" ry="28.9828"/>
<text text-anchor="middle" x="1077.79" y="-704.501" font-family="Helvetica,sans-Serif" font-size="10.00" fill="#ffffff">vcorelib.</text>
<text text-anchor="middle" x="1077.79" y="-693.501" font-family="Helvetica,sans-Serif" font-size="10.00" fill="#ffffff">math.</text>
<text text-anchor="middle" x="1077.79" y="-682.501" font-family="Helvetica,sans-Serif" font-size="10.00" fill="#ffffff">time</text>
</g>
<!-- vcorelib_dict&#45;&gt;vcorelib_math_time -->
<g id="edge13" class="edge"><title>vcorelib_dict&#45;&gt;vcorelib_math_time</title><style>.edge>path:hover{stroke-width:8}</style>
<path fill="none" stroke="black" d="M1077.79,-777.992C1080.37,-764.111 1080.92,-748.66 1080.64,-735.005"/>
<polygon fill="#f910d8" stroke="black" points="1084.14,-734.84 1080.29,-724.97 1077.15,-735.087 1084.14,-734.84"/>
</g>
<!-- vcorelib_paths_info_cache -->
<g id="node22" class="node"><title>vcorelib_paths_info_cache</title><style>.edge>path:hover{stroke-width:8}</style>
<ellipse fill="#8f3d83" stroke="black" cx="428.788" cy="-28.9914" rx="45.011" ry="28.9828"/>
<text text-anchor="middle" x="428.788" y="-37.4914" font-family="Helvetica,sans-Serif" font-size="10.00" fill="#ffffff">vcorelib.</text>
<text text-anchor="middle" x="428.788" y="-26.4914" font-family="Helvetica,sans-Serif" font-size="10.00" fill="#ffffff">paths.</text>
<text text-anchor="middle" x="428.788" y="-15.4914" font-family="Helvetica,sans-Serif" font-size="10.00" fill="#ffffff">info_cache</text>
</g>
<!-- vcorelib_dict&#45;&gt;vcorelib_paths_info_cache -->
<g id="edge14" class="edge"><title>vcorelib_dict&#45;&gt;vcorelib_paths_info_cache</title><style>.edge>path:hover{stroke-width:8}</style>
<path fill="none" stroke="black" d="M924.457,-860.754C977.805,-857.917 1066.05,-843.519 1077.79,-779.992"/>
<path fill="none" stroke="black" d="M1077.79,-777.992C1090.16,-710.989 825.799,-771.269 775.788,-724.992 719.368,-672.786 768.893,-625.331 732.788,-557.47 722.733,-538.571 712.907,-539.117 700.788,-521.47 679.96,-491.144 682.185,-479.192 662.788,-447.931 595.913,-340.152 544.937,-334.028 493.788,-217.957"/>
</g>
<!-- vcorelib_task -->
<g id="node29" class="node"><title>vcorelib_task</title><style>.edge>path:hover{stroke-width:8}</style>
<ellipse fill="#c115a8" stroke="black" cx="1109.79" cy="-484.701" rx="42.2678" ry="18"/>
<text text-anchor="middle" x="1109.79" y="-482.201" font-family="Helvetica,sans-Serif" font-size="10.00" fill="#ffffff">vcorelib.task</text>
</g>
<!-- vcorelib_dict&#45;&gt;vcorelib_task -->
<g id="edge15" class="edge"><title>vcorelib_dict&#45;&gt;vcorelib_task</title><style>.edge>path:hover{stroke-width:8}</style>
<path fill="none" stroke="black" d="M1077.79,-777.992C1083.48,-747.326 1107.19,-751.4 1123.79,-724.992 1157.21,-671.814 1178.55,-658.037 1179.79,-595.24"/>
<path fill="none" stroke="black" d="M1179.79,-593.24C1180.6,-559.669 1156.18,-528.347 1135.97,-508.265"/>
<polygon fill="#f910d8" stroke="black" points="1138.14,-505.502 1128.49,-501.137 1133.31,-510.57 1138.14,-505.502"/>
</g>
<!-- vcorelib_task_dict_melder -->
<g id="node30" class="node"><title>vcorelib_task_dict_melder</title><style>.edge>path:hover{stroke-width:8}</style>
<ellipse fill="#a44697" stroke="black" cx="615.788" cy="-594.24" rx="37.4533" ry="36.5405"/>
<text text-anchor="middle" x="615.788" y="-608.24" font-family="Helvetica,sans-Serif" font-size="10.00" fill="#ffffff">vcorelib.</text>
<text text-anchor="middle" x="615.788" y="-597.24" font-family="Helvetica,sans-Serif" font-size="10.00" fill="#ffffff">task.</text>
<text text-anchor="middle" x="615.788" y="-586.24" font-family="Helvetica,sans-Serif" font-size="10.00" fill="#ffffff">dict.</text>
<text text-anchor="middle" x="615.788" y="-575.24" font-family="Helvetica,sans-Serif" font-size="10.00" fill="#ffffff">melder</text>
</g>
<!-- vcorelib_dict&#45;&gt;vcorelib_task_dict_melder -->
<g id="edge16" class="edge"><title>vcorelib_dict&#45;&gt;vcorelib_task_dict_melder</title><style>.edge>path:hover{stroke-width:8}</style>
<path fill="none" stroke="black" d="M550.788,-695.001C550.788,-669.725 565.616,-645.835 581.108,-627.774"/>
<polygon fill="#f910d8" stroke="black" points="584.114,-629.668 588.222,-619.902 578.921,-624.975 584.114,-629.668"/>
</g>
<!-- vcorelib_task_manager -->
<g id="node31" class="node"><title>vcorelib_task_manager</title><style>.edge>path:hover{stroke-width:8}</style>
<ellipse fill="#8f3d83" stroke="black" cx="1296.79" cy="-696.001" rx="38.3684" ry="28.9828"/>
<text text-anchor="middle" x="1296.79" y="-704.501" font-family="Helvetica,sans-Serif" font-size="10.00" fill="#ffffff">vcorelib.</text>
<text text-anchor="middle" x="1296.79" y="-693.501" font-family="Helvetica,sans-Serif" font-size="10.00" fill="#ffffff">task.</text>
<text text-anchor="middle" x="1296.79" y="-682.501" font-family="Helvetica,sans-Serif" font-size="10.00" fill="#ffffff">manager</text>
</g>
<!-- vcorelib_dict&#45;&gt;vcorelib_task_manager -->
<g id="edge17" class="edge"><title>vcorelib_dict&#45;&gt;vcorelib_task_manager</title><style>.edge>path:hover{stroke-width:8}</style>
<path fill="none" stroke="black" d="M923.037,-856.805C1023.01,-845.691 1280.53,-813.926 1296.79,-779.992"/>
<path fill="none" stroke="black" d="M1296.79,-777.992C1303.03,-764.957 1304.26,-749.331 1303.5,-735.297"/>
<polygon fill="#f910d8" stroke="black" points="1306.95,-734.594 1302.58,-724.945 1299.98,-735.216 1306.95,-734.594"/>
</g>
<!-- vcorelib_dict_cache -->
<g id="node8" class="node"><title>vcorelib_dict_cache</title><style>.edge>path:hover{stroke-width:8}</style>
<ellipse fill="#a83898" stroke="black" cx="428.788" cy="-216.957" rx="37.4533" ry="28.9828"/>
<text text-anchor="middle" x="428.788" y="-225.457" font-family="Helvetica,sans-Serif" font-size="10.00" fill="#ffffff">vcorelib.</text>
<text text-anchor="middle" x="428.788" y="-214.457" font-family="Helvetica,sans-Serif" font-size="10.00" fill="#ffffff">dict.</text>
<text text-anchor="middle" x="428.788" y="-203.457" font-family="Helvetica,sans-Serif" font-size="10.00" fill="#ffffff">cache</text>
</g>
<!-- vcorelib_dict_cache&#45;&gt;vcorelib_paths_info_cache -->
<g id="edge18" class="edge"><title>vcorelib_dict_cache&#45;&gt;vcorelib_paths_info_cache</title><style>.edge>path:hover{stroke-width:8}</style>
<path fill="none" stroke="black" d="M428.788,-187.777C428.788,-169.572 428.788,-145.373 428.788,-123.974"/>
</g>
<!-- vcorelib_dict_config -->
<g id="node9" class="node"><title>vcorelib_dict_config</title><style>.edge>path:hover{stroke-width:8}</style>
<ellipse fill="#96408a" stroke="black" cx="196.788" cy="-216.957" rx="37.4533" ry="28.9828"/>
<text text-anchor="middle" x="196.788" y="-225.457" font-family="Helvetica,sans-Serif" font-size="10.00" fill="#ffffff">vcorelib.</text>
<text text-anchor="middle" x="196.788" y="-214.457" font-family="Helvetica,sans-Serif" font-size="10.00" fill="#ffffff">dict.</text>
<text text-anchor="middle" x="196.788" y="-203.457" font-family="Helvetica,sans-Serif" font-size="10.00" fill="#ffffff">config</text>
</g>
<!-- vcorelib_io&#45;&gt;vcorelib_dict_cache -->
<g id="edge19" class="edge"><title>vcorelib_io&#45;&gt;vcorelib_dict_cache</title><style>.edge>path:hover{stroke-width:8}</style>
<path fill="none" stroke="black" d="M398.565,-364.942C396.117,-348.157 394.305,-322.016 401.788,-300.948"/>
</g>
<!-- vcorelib_io&#45;&gt;vcorelib_dict_config -->
<g id="edge20" class="edge"><title>vcorelib_io&#45;&gt;vcorelib_dict_config</title><style>.edge>path:hover{stroke-width:8}</style>
<path fill="none" stroke="black" d="M395.641,-364.995C389.08,-348.02 377.718,-321.527 363.788,-300.948"/>
<path fill="none" stroke="black" d="M363.788,-298.948C330.876,-250.33 294.87,-273.046 242.788,-245.948 239.885,-244.438 236.916,-242.818 233.954,-241.145"/>
<polygon fill="#bd04a3" stroke="black" points="235.561,-238.031 225.157,-236.031 232.043,-244.083 235.561,-238.031"/>
</g>
<!-- vcorelib_io&#45;&gt;vcorelib_paths_info_cache -->
<g id="edge21" class="edge"><title>vcorelib_io&#45;&gt;vcorelib_paths_info_cache</title><style>.edge>path:hover{stroke-width:8}</style>
<path fill="none" stroke="black" d="M363.788,-298.948C335.735,-257.507 363.466,-234.128 382.788,-187.966 396.312,-155.655 428.788,-159 428.788,-123.974"/>
<path fill="none" stroke="black" d="M428.788,-121.974C428.601,-104.421 428.575,-84.9836 428.605,-68.5157"/>
<polygon fill="#bd04a3" stroke="black" points="432.106,-68.1817 428.633,-58.1724 425.106,-68.1631 432.106,-68.1817"/>
</g>
<!-- vcorelib_schemas_base -->
<g id="node24" class="node"><title>vcorelib_schemas_base</title><style>.edge>path:hover{stroke-width:8}</style>
<ellipse fill="#bc2fa8" stroke="black" cx="293.788" cy="-216.957" rx="41.9398" ry="28.9828"/>
<text text-anchor="middle" x="293.788" y="-225.457" font-family="Helvetica,sans-Serif" font-size="10.00" fill="#ffffff">vcorelib.</text>
<text text-anchor="middle" x="293.788" y="-214.457" font-family="Helvetica,sans-Serif" font-size="10.00" fill="#ffffff">schemas.</text>
<text text-anchor="middle" x="293.788" y="-203.457" font-family="Helvetica,sans-Serif" font-size="10.00" fill="#ffffff">base</text>
</g>
<!-- vcorelib_io&#45;&gt;vcorelib_schemas_base -->
<g id="edge22" class="edge"><title>vcorelib_io&#45;&gt;vcorelib_schemas_base</title><style>.edge>path:hover{stroke-width:8}</style>
<path fill="none" stroke="black" d="M363.788,-298.948C352.009,-281.548 336.98,-263.719 323.87,-249.235"/>
<polygon fill="#bd04a3" stroke="black" points="326.159,-246.553 316.817,-241.556 321.004,-251.288 326.159,-246.553"/>
</g>
<!-- vcorelib_io_archive -->
<g id="node11" class="node"><title>vcorelib_io_archive</title><style>.edge>path:hover{stroke-width:8}</style>
<ellipse fill="#a13591" stroke="black" cx="746.788" cy="-484.701" rx="37.4533" ry="28.9828"/>
<text text-anchor="middle" x="746.788" y="-493.201" font-family="Helvetica,sans-Serif" font-size="10.00" fill="#ffffff">vcorelib.</text>
<text text-anchor="middle" x="746.788" y="-482.201" font-family="Helvetica,sans-Serif" font-size="10.00" fill="#ffffff">io.</text>
<text text-anchor="middle" x="746.788" y="-471.201" font-family="Helvetica,sans-Serif" font-size="10.00" fill="#ffffff">archive</text>
</g>
<!-- vcorelib_io_archive&#45;&gt;vcorelib_io_cache -->
<g id="edge23" class="edge"><title>vcorelib_io_archive&#45;&gt;vcorelib_io_cache</title><style>.edge>path:hover{stroke-width:8}</style>
<path fill="none" stroke="black" d="M735.265,-456.966C730.396,-445.672 724.651,-432.344 719.411,-420.186"/>
<polygon fill="#a13591" stroke="black" points="722.515,-418.545 715.343,-410.748 716.087,-421.316 722.515,-418.545"/>
</g>
<!-- vcorelib_io_decode&#45;&gt;vcorelib_io -->
<g id="edge24" class="edge"><title>vcorelib_io_decode&#45;&gt;vcorelib_io</title><style>.edge>path:hover{stroke-width:8}</style>
<path fill="none" stroke="black" d="M498.509,-463.03C477.807,-446.101 448.628,-422.242 427.744,-405.164"/>
<polygon fill="#913084" stroke="black" points="429.861,-402.374 419.904,-398.754 425.43,-407.793 429.861,-402.374"/>
</g>
<!-- vcorelib_io_encode&#45;&gt;vcorelib_io -->
<g id="edge25" class="edge"><title>vcorelib_io_encode&#45;&gt;vcorelib_io</title><style>.edge>path:hover{stroke-width:8}</style>
<path fill="none" stroke="black" d="M591.844,-462.623C584.965,-457.405 577.317,-452.115 569.788,-447.931 528.446,-424.956 477.18,-406.758 442.226,-395.732"/>
<polygon fill="#913084" stroke="black" points="442.964,-392.297 432.377,-392.679 440.892,-398.983 442.964,-392.297"/>
</g>
<!-- vcorelib_io_types&#45;&gt;vcorelib_dict_cache -->
<g id="edge26" class="edge"><title>vcorelib_io_types&#45;&gt;vcorelib_dict_cache</title><style>.edge>path:hover{stroke-width:8}</style>
<path fill="none" stroke="black" d="M458.788,-483.701C472.239,-402.102 495.767,-383.624 493.788,-300.948"/>
<path fill="none" stroke="black" d="M493.788,-298.948C491.092,-277.778 476.993,-258.87 462.612,-244.658"/>
<polygon fill="#e505c5" stroke="black" points="464.823,-241.934 455.125,-237.667 460.045,-247.05 464.823,-241.934"/>
</g>
<!-- vcorelib_io_types&#45;&gt;vcorelib_dict_config -->
<g id="edge27" class="edge"><title>vcorelib_io_types&#45;&gt;vcorelib_dict_config</title><style>.edge>path:hover{stroke-width:8}</style>
<path fill="none" stroke="black" d="M450.715,-584.018C416.661,-573.579 365.204,-553.699 330.788,-521.47 318.083,-509.573 258.429,-401.144 255.788,-383.94"/>
</g>
<!-- vcorelib_io_types&#45;&gt;vcorelib_io -->
<g id="edge28" class="edge"><title>vcorelib_io_types&#45;&gt;vcorelib_io</title><style>.edge>path:hover{stroke-width:8}</style>
<path fill="none" stroke="black" d="M472.952,-566.979C463.902,-545.361 454.154,-513.81 458.788,-485.701"/>
<path fill="none" stroke="black" d="M458.788,-483.701C463.607,-454.466 443.645,-425.572 426.036,-406.465"/>
<polygon fill="#e505c5" stroke="black" points="428.43,-403.905 418.963,-399.149 423.397,-408.771 428.43,-403.905"/>
</g>
<!-- vcorelib_io_types&#45;&gt;vcorelib_io_archive -->
<g id="edge29" class="edge"><title>vcorelib_io_types&#45;&gt;vcorelib_io_archive</title><style>.edge>path:hover{stroke-width:8}</style>
<path fill="none" stroke="black" d="M517.993,-579.23C533.585,-572.523 552.607,-564.451 569.788,-557.47 610.85,-540.785 621.726,-538.155 662.788,-521.47 676.613,-515.852 691.631,-509.529 705.094,-503.778"/>
<polygon fill="#e505c5" stroke="black" points="706.77,-506.868 714.583,-499.711 704.012,-500.434 706.77,-506.868"/>
</g>
<!-- vcorelib_io_types&#45;&gt;vcorelib_io_cache -->
<g id="edge30" class="edge"><title>vcorelib_io_types&#45;&gt;vcorelib_io_cache</title><style>.edge>path:hover{stroke-width:8}</style>
<path fill="none" stroke="black" d="M458.788,-483.701C472.26,-401.976 588.348,-385.888 655.78,-383.516"/>
<polygon fill="#e505c5" stroke="black" points="656.256,-387.005 666.161,-383.245 656.073,-380.007 656.256,-387.005"/>
</g>
<!-- vcorelib_io_types&#45;&gt;vcorelib_io_decode -->
<g id="edge31" class="edge"><title>vcorelib_io_types&#45;&gt;vcorelib_io_decode</title><style>.edge>path:hover{stroke-width:8}</style>
<path fill="none" stroke="black" d="M495.377,-566.103C500.057,-552.858 505.757,-536.727 510.819,-522.401"/>
<polygon fill="#e505c5" stroke="black" points="514.17,-523.423 514.202,-512.829 507.57,-521.091 514.17,-523.423"/>
</g>
<!-- vcorelib_io_types&#45;&gt;vcorelib_io_encode -->
<g id="edge32" class="edge"><title>vcorelib_io_types&#45;&gt;vcorelib_io_encode</title><style>.edge>path:hover{stroke-width:8}</style>
<path fill="none" stroke="black" d="M511.046,-572.505C531.706,-555.545 561.087,-531.426 583.637,-512.914"/>
<polygon fill="#e505c5" stroke="black" points="586.099,-515.422 591.607,-506.372 581.657,-510.011 586.099,-515.422"/>
</g>
<!-- vcorelib_io_types&#45;&gt;vcorelib_paths_info_cache -->
<g id="edge33" class="edge"><title>vcorelib_io_types&#45;&gt;vcorelib_paths_info_cache</title><style>.edge>path:hover{stroke-width:8}</style>
<path fill="none" stroke="black" d="M493.788,-298.948C489.24,-263.24 508.303,-250.897 493.788,-217.957"/>
<path fill="none" stroke="black" d="M493.788,-215.957C487.725,-202.198 483.399,-200.291 474.788,-187.966 454.728,-159.252 429.16,-158.998 428.788,-123.974"/>
</g>
<!-- vcorelib_logging -->
<g id="node16" class="node"><title>vcorelib_logging</title><style>.edge>path:hover{stroke-width:8}</style>
<ellipse fill="#a44697" stroke="black" cx="876.788" cy="-484.701" rx="37.4533" ry="21.4286"/>
<text text-anchor="middle" x="876.788" y="-487.701" font-family="Helvetica,sans-Serif" font-size="10.00" fill="#ffffff">vcorelib.</text>
<text text-anchor="middle" x="876.788" y="-476.701" font-family="Helvetica,sans-Serif" font-size="10.00" fill="#ffffff">logging</text>
</g>
<!-- vcorelib_math -->
<g id="node17" class="node"><title>vcorelib_math</title><style>.edge>path:hover{stroke-width:8}</style>
<ellipse fill="#f910d8" stroke="black" cx="828.788" cy="-696.001" rx="44.3" ry="18"/>
<text text-anchor="middle" x="828.788" y="-693.501" font-family="Helvetica,sans-Serif" font-size="10.00" fill="#ffffff">vcorelib.math</text>
</g>
<!-- vcorelib_math&#45;&gt;vcorelib_io_archive -->
<g id="edge34" class="edge"><title>vcorelib_math&#45;&gt;vcorelib_io_archive</title><style>.edge>path:hover{stroke-width:8}</style>
<path fill="none" stroke="black" d="M822.077,-677.873C808.821,-644.037 779.014,-567.957 761.137,-522.326"/>
<polygon fill="#f910d8" stroke="black" points="764.312,-520.836 757.405,-512.801 757.795,-523.389 764.312,-520.836"/>
</g>
<!-- vcorelib_math&#45;&gt;vcorelib_io_cache -->
<g id="edge35" class="edge"><title>vcorelib_math&#45;&gt;vcorelib_io_cache</title><style>.edge>path:hover{stroke-width:8}</style>
<path fill="none" stroke="black" d="M839.821,-678.212C851.44,-659.055 868.387,-626.342 870.788,-595.24"/>
<path fill="none" stroke="black" d="M870.788,-593.24C873.598,-556.831 848.061,-553.644 830.788,-521.47 813.386,-489.056 816.83,-475.778 792.788,-447.931 778.597,-431.494 759.374,-416.996 742.424,-405.974"/>
<polygon fill="#f910d8" stroke="black" points="744.132,-402.913 733.807,-400.536 740.396,-408.833 744.132,-402.913"/>
</g>
<!-- vcorelib_math&#45;&gt;vcorelib_io_decode -->
<g id="edge36" class="edge"><title>vcorelib_math&#45;&gt;vcorelib_io_decode</title><style>.edge>path:hover{stroke-width:8}</style>
<path fill="none" stroke="black" d="M796.566,-683.61C769.822,-673.004 731.912,-655.191 704.788,-631.009 690.498,-618.269 694.457,-608.644 680.788,-595.24"/>
</g>
<!-- vcorelib_math&#45;&gt;vcorelib_io_encode -->
<g id="edge37" class="edge"><title>vcorelib_math&#45;&gt;vcorelib_io_encode</title><style>.edge>path:hover{stroke-width:8}</style>
<path fill="none" stroke="black" d="M807.251,-679.893C783.057,-662.012 743.897,-630.215 718.788,-595.24"/>
</g>
<!-- vcorelib_math&#45;&gt;vcorelib_logging -->
<g id="edge38" class="edge"><title>vcorelib_math&#45;&gt;vcorelib_logging</title><style>.edge>path:hover{stroke-width:8}</style>
<path fill="none" stroke="black" d="M870.788,-593.24C872.794,-567.243 874.395,-537.661 875.437,-516.112"/>
<polygon fill="#f910d8" stroke="black" points="878.942,-516.088 875.916,-505.934 871.95,-515.758 878.942,-516.088"/>
</g>
<!-- vcorelib_math&#45;&gt;vcorelib_task -->
<g id="edge39" class="edge"><title>vcorelib_math&#45;&gt;vcorelib_task</title><style>.edge>path:hover{stroke-width:8}</style>
<path fill="none" stroke="black" d="M868.404,-688.006C941.524,-674.097 1092.39,-640.373 1115.79,-595.24"/>
<path fill="none" stroke="black" d="M1115.79,-593.24C1128.77,-568.191 1124.37,-535.31 1118.56,-512.532"/>
<polygon fill="#f910d8" stroke="black" points="1121.91,-511.53 1115.85,-502.842 1115.17,-513.415 1121.91,-511.53"/>
</g>
<!-- vcorelib_math_analysis_average -->
<g id="node18" class="node"><title>vcorelib_math_analysis_average</title><style>.edge>path:hover{stroke-width:8}</style>
<ellipse fill="#c247b1" stroke="black" cx="1009.79" cy="-594.24" rx="39.6962" ry="36.5405"/>
<text text-anchor="middle" x="1009.79" y="-608.24" font-family="Helvetica,sans-Serif" font-size="10.00" fill="#ffffff">vcorelib.</text>
<text text-anchor="middle" x="1009.79" y="-597.24" font-family="Helvetica,sans-Serif" font-size="10.00" fill="#ffffff">math.</text>
<text text-anchor="middle" x="1009.79" y="-586.24" font-family="Helvetica,sans-Serif" font-size="10.00" fill="#ffffff">analysis.</text>
<text text-anchor="middle" x="1009.79" y="-575.24" font-family="Helvetica,sans-Serif" font-size="10.00" fill="#ffffff">average</text>
</g>
<!-- vcorelib_math_analysis_rate -->
<g id="node19" class="node"><title>vcorelib_math_analysis_rate</title><style>.edge>path:hover{stroke-width:8}</style>
<ellipse fill="#96408a" stroke="black" cx="1009.79" cy="-484.701" rx="39.6962" ry="36.5405"/>
<text text-anchor="middle" x="1009.79" y="-498.701" font-family="Helvetica,sans-Serif" font-size="10.00" fill="#ffffff">vcorelib.</text>
<text text-anchor="middle" x="1009.79" y="-487.701" font-family="Helvetica,sans-Serif" font-size="10.00" fill="#ffffff">math.</text>
<text text-anchor="middle" x="1009.79" y="-476.701" font-family="Helvetica,sans-Serif" font-size="10.00" fill="#ffffff">analysis.</text>
<text text-anchor="middle" x="1009.79" y="-465.701" font-family="Helvetica,sans-Serif" font-size="10.00" fill="#ffffff">rate</text>
</g>
<!-- vcorelib_math_analysis_average&#45;&gt;vcorelib_math_analysis_rate -->
<g id="edge40" class="edge"><title>vcorelib_math_analysis_average&#45;&gt;vcorelib_math_analysis_rate</title><style>.edge>path:hover{stroke-width:8}</style>
<path fill="none" stroke="black" d="M1009.79,-557.431C1009.79,-549.264 1009.79,-540.473 1009.79,-531.941"/>
<polygon fill="#c247b1" stroke="black" points="1013.29,-531.72 1009.79,-521.72 1006.29,-531.72 1013.29,-531.72"/>
</g>
<!-- vcorelib_math_time&#45;&gt;vcorelib_io_archive -->
<g id="edge41" class="edge"><title>vcorelib_math_time&#45;&gt;vcorelib_io_archive</title><style>.edge>path:hover{stroke-width:8}</style>
<path fill="none" stroke="black" d="M832.788,-593.24C832.238,-592.978 797.549,-549.485 772.401,-517.898"/>
<polygon fill="#e505c5" stroke="black" points="774.885,-515.398 765.919,-509.754 769.408,-519.758 774.885,-515.398"/>
</g>
<!-- vcorelib_math_time&#45;&gt;vcorelib_io_cache -->
<g id="edge42" class="edge"><title>vcorelib_math_time&#45;&gt;vcorelib_io_cache</title><style>.edge>path:hover{stroke-width:8}</style>
<path fill="none" stroke="black" d="M941.788,-593.24C904.56,-539.796 965.157,-497.398 922.788,-447.931 880.36,-398.396 801.912,-386.109 751.331,-383.647"/>
<polygon fill="#e505c5" stroke="black" points="751.42,-380.148 741.295,-383.269 751.156,-387.143 751.42,-380.148"/>
</g>
<!-- vcorelib_math_time&#45;&gt;vcorelib_io_decode -->
<g id="edge43" class="edge"><title>vcorelib_math_time&#45;&gt;vcorelib_io_decode</title><style>.edge>path:hover{stroke-width:8}</style>
<path fill="none" stroke="black" d="M1040.35,-691.989C993.429,-686.576 912.43,-671.65 856.788,-631.009 841.328,-619.717 850.08,-603.456 832.788,-595.24"/>
<path fill="none" stroke="black" d="M832.788,-593.24C723.737,-541.425 679.028,-574.957 570.788,-521.47 565.847,-519.028 560.908,-516.035 556.19,-512.83"/>
<polygon fill="#e505c5" stroke="black" points="558.137,-509.919 547.98,-506.904 554.04,-515.595 558.137,-509.919"/>
</g>
<!-- vcorelib_math_time&#45;&gt;vcorelib_io_encode -->
<g id="edge44" class="edge"><title>vcorelib_math_time&#45;&gt;vcorelib_io_encode</title><style>.edge>path:hover{stroke-width:8}</style>
<path fill="none" stroke="black" d="M832.788,-593.24C770.924,-563.846 699.973,-528.132 656.778,-506.161"/>
<polygon fill="#e505c5" stroke="black" points="658.231,-502.974 647.732,-501.554 655.055,-509.211 658.231,-502.974"/>
</g>
<!-- vcorelib_math_time&#45;&gt;vcorelib_logging -->
<g id="edge45" class="edge"><title>vcorelib_math_time&#45;&gt;vcorelib_logging</title><style>.edge>path:hover{stroke-width:8}</style>
<path fill="none" stroke="black" d="M1044.18,-682.812C1018.78,-672.249 984.38,-654.892 960.788,-631.009 948.137,-618.203 952.077,-610.011 941.788,-595.24"/>
<path fill="none" stroke="black" d="M941.788,-593.24C923.676,-567.239 905.192,-536.124 892.589,-514.068"/>
<polygon fill="#e505c5" stroke="black" points="895.543,-512.183 887.565,-505.211 889.455,-515.636 895.543,-512.183"/>
</g>
<!-- vcorelib_math_time&#45;&gt;vcorelib_math_analysis_rate -->
<g id="edge46" class="edge"><title>vcorelib_math_time&#45;&gt;vcorelib_math_analysis_rate</title><style>.edge>path:hover{stroke-width:8}</style>
<path fill="none" stroke="black" d="M1077.64,-666.931C1076.64,-638.459 1072.71,-593.564 1058.79,-557.47 1054.12,-545.364 1047.05,-533.291 1039.73,-522.596"/>
<polygon fill="#e505c5" stroke="black" points="1042.5,-520.451 1033.85,-514.34 1036.8,-524.514 1042.5,-520.451"/>
</g>
<!-- vcorelib_math_time&#45;&gt;vcorelib_task -->
<g id="edge47" class="edge"><title>vcorelib_math_time&#45;&gt;vcorelib_task</title><style>.edge>path:hover{stroke-width:8}</style>
<path fill="none" stroke="black" d="M1086.33,-667.601C1093.16,-647.139 1103.59,-618.768 1115.79,-595.24"/>
</g>
<!-- vcorelib_paths&#45;&gt;vcorelib_dict_cache -->
<g id="edge48" class="edge"><title>vcorelib_paths&#45;&gt;vcorelib_dict_cache</title><style>.edge>path:hover{stroke-width:8}</style>
<path fill="none" stroke="black" d="M344.788,-593.24C336.845,-546.109 339.045,-533.149 344.788,-485.701"/>
<path fill="none" stroke="black" d="M344.788,-483.701C351.747,-426.206 334.337,-407.334 356.788,-353.948 368.767,-325.464 391.446,-330.067 401.788,-300.948"/>
<path fill="none" stroke="black" d="M401.788,-298.948C406.316,-284.494 411.531,-268.673 416.164,-254.88"/>
<polygon fill="#ef06ce" stroke="black" points="419.534,-255.838 419.416,-245.244 412.902,-253.599 419.534,-255.838"/>
</g>
<!-- vcorelib_paths&#45;&gt;vcorelib_dict_config -->
<g id="edge49" class="edge"><title>vcorelib_paths&#45;&gt;vcorelib_dict_config</title><style>.edge>path:hover{stroke-width:8}</style>
<path fill="none" stroke="black" d="M323.925,-760.822C334.717,-728.399 355.021,-655.962 344.788,-595.24"/>
<path fill="none" stroke="black" d="M344.788,-593.24C338.601,-551.545 304.56,-557.564 282.788,-521.47 273.97,-506.852 274.205,-501.89 268.788,-485.701"/>
<path fill="none" stroke="black" d="M268.788,-483.701C254.598,-441.299 262.77,-428.104 255.788,-383.94"/>
<path fill="none" stroke="black" d="M255.788,-381.94C248.521,-335.972 228.686,-286.043 214.011,-253.508"/>
<polygon fill="#ef06ce" stroke="black" points="217.184,-252.031 209.832,-244.402 210.822,-254.951 217.184,-252.031"/>
</g>
<!-- vcorelib_paths&#45;&gt;vcorelib_io -->
<g id="edge50" class="edge"><title>vcorelib_paths&#45;&gt;vcorelib_io</title><style>.edge>path:hover{stroke-width:8}</style>
<path fill="none" stroke="black" d="M344.788,-483.701C348.275,-454.893 366.205,-426.611 381.037,-407.56"/>
<polygon fill="#ef06ce" stroke="black" points="383.796,-409.714 387.362,-399.737 378.353,-405.314 383.796,-409.714"/>
</g>
<!-- vcorelib_paths&#45;&gt;vcorelib_io_cache -->
<g id="edge51" class="edge"><title>vcorelib_paths&#45;&gt;vcorelib_io_cache</title><style>.edge>path:hover{stroke-width:8}</style>
<path fill="none" stroke="black" d="M343.475,-763.972C366.866,-749.944 400.725,-726.272 420.788,-697.001"/>
<path fill="none" stroke="black" d="M420.788,-695.001C451.974,-649.499 408.718,-489.667 444.788,-447.931 472.099,-416.33 589.475,-397.495 656.46,-389.122"/>
<polygon fill="#ef06ce" stroke="black" points="657.253,-392.552 666.756,-387.868 656.407,-385.603 657.253,-392.552"/>
</g>
<!-- vcorelib_paths&#45;&gt;vcorelib_io_types -->
<g id="edge52" class="edge"><title>vcorelib_paths&#45;&gt;vcorelib_io_types</title><style>.edge>path:hover{stroke-width:8}</style>
<path fill="none" stroke="black" d="M420.788,-695.001C435.584,-673.412 451.644,-648.777 464.098,-629.388"/>
<polygon fill="#ef06ce" stroke="black" points="467.102,-631.187 469.549,-620.879 461.207,-627.411 467.102,-631.187"/>
</g>
<!-- vcorelib_paths&#45;&gt;vcorelib_schemas_base -->
<g id="edge53" class="edge"><title>vcorelib_paths&#45;&gt;vcorelib_schemas_base</title><style>.edge>path:hover{stroke-width:8}</style>
<path fill="none" stroke="black" d="M268.788,-483.701C262.783,-462.324 279.783,-324.002 288.706,-255.825"/>
<polygon fill="#ef06ce" stroke="black" points="292.177,-256.277 290.013,-245.905 285.237,-255.363 292.177,-256.277"/>
</g>
<!-- vcorelib_schemas_base&#45;&gt;vcorelib_schemas -->
<g id="edge54" class="edge"><title>vcorelib_schemas_base&#45;&gt;vcorelib_schemas</title><style>.edge>path:hover{stroke-width:8}</style>
<path fill="none" stroke="black" d="M269.316,-193.22C254.785,-179.719 236.35,-162.591 221.451,-148.747"/>
<polygon fill="#bc2fa8" stroke="black" points="223.729,-146.087 214.021,-141.844 218.965,-151.215 223.729,-146.087"/>
</g>
<!-- vcorelib_schemas_mixins -->
<g id="node25" class="node"><title>vcorelib_schemas_mixins</title><style>.edge>path:hover{stroke-width:8}</style>
<ellipse fill="#a44697" stroke="black" cx="293.788" cy="-122.974" rx="41.9398" ry="28.9828"/>
<text text-anchor="middle" x="293.788" y="-131.474" font-family="Helvetica,sans-Serif" font-size="10.00" fill="#ffffff">vcorelib.</text>
<text text-anchor="middle" x="293.788" y="-120.474" font-family="Helvetica,sans-Serif" font-size="10.00" fill="#ffffff">schemas.</text>
<text text-anchor="middle" x="293.788" y="-109.474" font-family="Helvetica,sans-Serif" font-size="10.00" fill="#ffffff">mixins</text>
</g>
<!-- vcorelib_schemas_base&#45;&gt;vcorelib_schemas_mixins -->
<g id="edge55" class="edge"><title>vcorelib_schemas_base&#45;&gt;vcorelib_schemas_mixins</title><style>.edge>path:hover{stroke-width:8}</style>
<path fill="none" stroke="black" d="M293.788,-187.859C293.788,-179.821 293.788,-170.919 293.788,-162.377"/>
<polygon fill="#bc2fa8" stroke="black" points="297.288,-162.217 293.788,-152.217 290.288,-162.217 297.288,-162.217"/>
</g>
<!-- vcorelib_script -->
<g id="node26" class="node"><title>vcorelib_script</title><style>.edge>path:hover{stroke-width:8}</style>
<ellipse fill="#c247b1" stroke="black" cx="1296.79" cy="-861.983" rx="37.4533" ry="21.4286"/>
<text text-anchor="middle" x="1296.79" y="-864.983" font-family="Helvetica,sans-Serif" font-size="10.00" fill="#ffffff">vcorelib.</text>
<text text-anchor="middle" x="1296.79" y="-853.983" font-family="Helvetica,sans-Serif" font-size="10.00" fill="#ffffff">script</text>
</g>
<!-- vcorelib_script&#45;&gt;vcorelib_task_manager -->
<g id="edge56" class="edge"><title>vcorelib_script&#45;&gt;vcorelib_task_manager</title><style>.edge>path:hover{stroke-width:8}</style>
<path fill="none" stroke="black" d="M1292.1,-840.608C1289.24,-823.549 1287.67,-799.012 1296.79,-779.992"/>
</g>
<!-- vcorelib_target -->
<g id="node27" class="node"><title>vcorelib_target</title><style>.edge>path:hover{stroke-width:8}</style>
<ellipse fill="#db2fc2" stroke="black" cx="1203.79" cy="-861.983" rx="37.4533" ry="21.4286"/>
<text text-anchor="middle" x="1203.79" y="-864.983" font-family="Helvetica,sans-Serif" font-size="10.00" fill="#ffffff">vcorelib.</text>
<text text-anchor="middle" x="1203.79" y="-853.983" font-family="Helvetica,sans-Serif" font-size="10.00" fill="#ffffff">target</text>
</g>
<!-- vcorelib_target&#45;&gt;vcorelib_task -->
<g id="edge57" class="edge"><title>vcorelib_target&#45;&gt;vcorelib_task</title><style>.edge>path:hover{stroke-width:8}</style>
<path fill="none" stroke="black" d="M1208.41,-840.872C1218.97,-790.242 1240.52,-654.63 1193.79,-557.47 1183.14,-535.336 1162.13,-517.389 1143.79,-504.978"/>
<polygon fill="#db2fc2" stroke="black" points="1145.35,-501.822 1135.05,-499.335 1141.55,-507.702 1145.35,-501.822"/>
</g>
<!-- vcorelib_target&#45;&gt;vcorelib_task_manager -->
<g id="edge58" class="edge"><title>vcorelib_target&#45;&gt;vcorelib_task_manager</title><style>.edge>path:hover{stroke-width:8}</style>
<path fill="none" stroke="black" d="M1229.96,-846.547C1252.18,-832.693 1282.63,-809.533 1296.79,-779.992"/>
</g>
<!-- vcorelib_target_resolver -->
<g id="node28" class="node"><title>vcorelib_target_resolver</title><style>.edge>path:hover{stroke-width:8}</style>
<ellipse fill="#b83da6" stroke="black" cx="1389.79" cy="-861.983" rx="37.4533" ry="28.9828"/>
<text text-anchor="middle" x="1389.79" y="-870.483" font-family="Helvetica,sans-Serif" font-size="10.00" fill="#ffffff">vcorelib.</text>
<text text-anchor="middle" x="1389.79" y="-859.483" font-family="Helvetica,sans-Serif" font-size="10.00" fill="#ffffff">target.</text>
<text text-anchor="middle" x="1389.79" y="-848.483" font-family="Helvetica,sans-Serif" font-size="10.00" fill="#ffffff">resolver</text>
</g>
<!-- vcorelib_target_resolver&#45;&gt;vcorelib_task_manager -->
<g id="edge59" class="edge"><title>vcorelib_target_resolver&#45;&gt;vcorelib_task_manager</title><style>.edge>path:hover{stroke-width:8}</style>
<path fill="none" stroke="black" d="M1360.27,-843.765C1330.24,-825.138 1289.13,-795.969 1296.79,-779.992"/>
</g>
</g>
</svg>
