<?xml version="1.0" encoding="UTF-8" standalone="no"?>
<!DOCTYPE svg PUBLIC "-//W3C//DTD SVG 1.1//EN"
 "http://www.w3.org/Graphics/SVG/1.1/DTD/svg11.dtd">
<!-- Generated by graphviz version 3.0.1~dev.20220405.0544 (20220405.0544)
 -->
<!-- Title: G Pages: 1 -->
<svg width="567pt" height="509pt"
 viewBox="0.00 0.00 567.30 508.90" xmlns="http://www.w3.org/2000/svg" xmlns:xlink="http://www.w3.org/1999/xlink">
<g id="graph0" class="graph" transform="scale(1 1) rotate(0) translate(4 504.9)">
<title>G</title><style>.edge>path:hover{stroke-width:8}</style>
<polygon fill="white" stroke="transparent" points="-4,4 -4,-504.9 563.3,-504.9 563.3,4 -4,4"/>
<!-- tomli -->
<g id="node1" class="node">
<title>tomli</title><style>.edge>path:hover{stroke-width:8}</style>
<ellipse fill="#b65353" stroke="black" cx="27" cy="-410.9" rx="27" ry="18"/>
<text text-anchor="middle" x="27" y="-407.9" font-family="Helvetica,sans-Serif" font-size="10.00" fill="#ffffff">tomli</text>
</g>
<!-- vcorelib_io_decode -->
<g id="node7" class="node">
<title>vcorelib_io_decode</title><style>.edge>path:hover{stroke-width:8}</style>
<ellipse fill="#303091" stroke="black" cx="103" cy="-129.34" rx="37.79" ry="31.23"/>
<text text-anchor="middle" x="103" y="-138.34" font-family="Helvetica,sans-Serif" font-size="10.00" fill="#ffffff">vcorelib.</text>
<text text-anchor="middle" x="103" y="-126.34" font-family="Helvetica,sans-Serif" font-size="10.00" fill="#ffffff">io.</text>
<text text-anchor="middle" x="103" y="-114.34" font-family="Helvetica,sans-Serif" font-size="10.00" fill="#ffffff">decode</text>
</g>
<!-- tomli&#45;&gt;vcorelib_io_decode -->
<g id="edge1" class="edge">
<title>tomli&#45;&gt;vcorelib_io_decode</title><style>.edge>path:hover{stroke-width:8}</style>
<path fill="none" stroke="black" d="M31.64,-392.83C43.55,-349.04 75.42,-231.78 92.25,-169.87"/>
<polygon fill="#b65353" stroke="black" points="95.67,-170.64 94.92,-160.07 88.92,-168.8 95.67,-170.64"/>
</g>
<!-- tomli_w -->
<g id="node2" class="node">
<title>tomli_w</title><style>.edge>path:hover{stroke-width:8}</style>
<ellipse fill="#40c040" stroke="black" cx="298" cy="-410.9" rx="30.01" ry="18"/>
<text text-anchor="middle" x="298" y="-407.9" font-family="Helvetica,sans-Serif" font-size="10.00" fill="#000000">tomli_w</text>
</g>
<!-- vcorelib_io_encode -->
<g id="node8" class="node">
<title>vcorelib_io_encode</title><style>.edge>path:hover{stroke-width:8}</style>
<ellipse fill="#303091" stroke="black" cx="235" cy="-129.34" rx="37.79" ry="31.23"/>
<text text-anchor="middle" x="235" y="-138.34" font-family="Helvetica,sans-Serif" font-size="10.00" fill="#ffffff">vcorelib.</text>
<text text-anchor="middle" x="235" y="-126.34" font-family="Helvetica,sans-Serif" font-size="10.00" fill="#ffffff">io.</text>
<text text-anchor="middle" x="235" y="-114.34" font-family="Helvetica,sans-Serif" font-size="10.00" fill="#ffffff">encode</text>
</g>
<!-- tomli_w&#45;&gt;vcorelib_io_encode -->
<g id="edge2" class="edge">
<title>tomli_w&#45;&gt;vcorelib_io_encode</title><style>.edge>path:hover{stroke-width:8}</style>
<path fill="none" stroke="black" d="M282.17,-395.55C266.9,-380.31 245.34,-354.61 240,-326.79"/>
</g>
<!-- vcorelib_dict -->
<g id="node3" class="node">
<title>vcorelib_dict</title><style>.edge>path:hover{stroke-width:8}</style>
<ellipse fill="#2222e7" stroke="black" cx="240" cy="-482.9" rx="41.24" ry="18"/>
<text text-anchor="middle" x="240" y="-479.9" font-family="Helvetica,sans-Serif" font-size="10.00" fill="#ffffff">vcorelib.dict</text>
</g>
<!-- vcorelib_io_cache -->
<g id="node6" class="node">
<title>vcorelib_io_cache</title><style>.edge>path:hover{stroke-width:8}</style>
<ellipse fill="#373781" stroke="black" cx="281" cy="-31.11" rx="37.79" ry="31.23"/>
<text text-anchor="middle" x="281" y="-40.11" font-family="Helvetica,sans-Serif" font-size="10.00" fill="#ffffff">vcorelib.</text>
<text text-anchor="middle" x="281" y="-28.11" font-family="Helvetica,sans-Serif" font-size="10.00" fill="#ffffff">io.</text>
<text text-anchor="middle" x="281" y="-16.11" font-family="Helvetica,sans-Serif" font-size="10.00" fill="#ffffff">cache</text>
</g>
<!-- vcorelib_dict&#45;&gt;vcorelib_io_cache -->
<g id="edge3" class="edge">
<title>vcorelib_dict&#45;&gt;vcorelib_io_cache</title><style>.edge>path:hover{stroke-width:8}</style>
<path fill="none" stroke="black" d="M526,-409.9C551.41,-288.28 585.48,-239.43 526,-130.34"/>
</g>
<!-- vcorelib_dict&#45;&gt;vcorelib_io_decode -->
<g id="edge4" class="edge">
<title>vcorelib_dict&#45;&gt;vcorelib_io_decode</title><style>.edge>path:hover{stroke-width:8}</style>
<path fill="none" stroke="black" d="M200.49,-477.42C170.01,-471.67 129.68,-458.6 109,-428.9 58.11,-355.79 147.19,-305.91 103,-228.56"/>
<path fill="none" stroke="black" d="M103,-226.56C93.34,-209.79 92.42,-188.48 94.32,-170.18"/>
<polygon fill="#2222e7" stroke="black" points="97.81,-170.47 95.67,-160.09 90.87,-169.54 97.81,-170.47"/>
</g>
<!-- vcorelib_dict&#45;&gt;vcorelib_io_encode -->
<g id="edge5" class="edge">
<title>vcorelib_dict&#45;&gt;vcorelib_io_encode</title><style>.edge>path:hover{stroke-width:8}</style>
<path fill="none" stroke="black" d="M242.12,-464.49C245.16,-435.57 249.44,-375.98 240,-326.79"/>
<path fill="none" stroke="black" d="M240,-324.79C229.24,-272.41 229.88,-210.43 231.93,-170.77"/>
<polygon fill="#2222e7" stroke="black" points="235.43,-170.88 232.51,-160.69 228.44,-170.48 235.43,-170.88"/>
</g>
<!-- vcorelib_math_time -->
<g id="node12" class="node">
<title>vcorelib_math_time</title><style>.edge>path:hover{stroke-width:8}</style>
<ellipse fill="#0b0bdf" stroke="black" cx="306" cy="-325.79" rx="37.79" ry="31.23"/>
<text text-anchor="middle" x="306" y="-334.79" font-family="Helvetica,sans-Serif" font-size="10.00" fill="#ffffff">vcorelib.</text>
<text text-anchor="middle" x="306" y="-322.79" font-family="Helvetica,sans-Serif" font-size="10.00" fill="#ffffff">math.</text>
<text text-anchor="middle" x="306" y="-310.79" font-family="Helvetica,sans-Serif" font-size="10.00" fill="#ffffff">time</text>
</g>
<!-- vcorelib_dict&#45;&gt;vcorelib_math_time -->
<g id="edge6" class="edge">
<title>vcorelib_dict&#45;&gt;vcorelib_math_time</title><style>.edge>path:hover{stroke-width:8}</style>
<path fill="none" stroke="black" d="M281.01,-480.08C357.66,-475.53 515.89,-460.31 526,-411.9"/>
<path fill="none" stroke="black" d="M526,-409.9C542.45,-331.18 425.98,-390.68 353,-356.9 349.64,-355.34 346.23,-353.58 342.86,-351.71"/>
<polygon fill="#2222e7" stroke="black" points="344.52,-348.62 334.12,-346.55 340.96,-354.65 344.52,-348.62"/>
</g>
<!-- vcorelib_io -->
<g id="node4" class="node">
<title>vcorelib_io</title><style>.edge>path:hover{stroke-width:8}</style>
<ellipse fill="#0a0ac2" stroke="black" cx="169" cy="-31.11" rx="36.89" ry="18"/>
<text text-anchor="middle" x="169" y="-28.11" font-family="Helvetica,sans-Serif" font-size="10.00" fill="#ffffff">vcorelib.io</text>
</g>
<!-- vcorelib_io_archive -->
<g id="node5" class="node">
<title>vcorelib_io_archive</title><style>.edge>path:hover{stroke-width:8}</style>
<ellipse fill="#3535a1" stroke="black" cx="367" cy="-129.34" rx="37.79" ry="31.23"/>
<text text-anchor="middle" x="367" y="-138.34" font-family="Helvetica,sans-Serif" font-size="10.00" fill="#ffffff">vcorelib.</text>
<text text-anchor="middle" x="367" y="-126.34" font-family="Helvetica,sans-Serif" font-size="10.00" fill="#ffffff">io.</text>
<text text-anchor="middle" x="367" y="-114.34" font-family="Helvetica,sans-Serif" font-size="10.00" fill="#ffffff">archive</text>
</g>
<!-- vcorelib_io_archive&#45;&gt;vcorelib_io_cache -->
<g id="edge7" class="edge">
<title>vcorelib_io_archive&#45;&gt;vcorelib_io_cache</title><style>.edge>path:hover{stroke-width:8}</style>
<path fill="none" stroke="black" d="M345.08,-103.81C334.36,-91.82 321.33,-77.23 309.82,-64.36"/>
<polygon fill="#3535a1" stroke="black" points="312.16,-61.72 302.88,-56.6 306.94,-66.39 312.16,-61.72"/>
</g>
<!-- vcorelib_io_decode&#45;&gt;vcorelib_io -->
<g id="edge8" class="edge">
<title>vcorelib_io_decode&#45;&gt;vcorelib_io</title><style>.edge>path:hover{stroke-width:8}</style>
<path fill="none" stroke="black" d="M121.21,-101.79C130.85,-87.73 142.61,-70.58 152.06,-56.82"/>
<polygon fill="#303091" stroke="black" points="155.11,-58.55 157.88,-48.32 149.34,-54.59 155.11,-58.55"/>
</g>
<!-- vcorelib_io_encode&#45;&gt;vcorelib_io -->
<g id="edge9" class="edge">
<title>vcorelib_io_encode&#45;&gt;vcorelib_io</title><style>.edge>path:hover{stroke-width:8}</style>
<path fill="none" stroke="black" d="M216.79,-101.79C207.15,-87.73 195.39,-70.58 185.94,-56.82"/>
<polygon fill="#303091" stroke="black" points="188.66,-54.59 180.12,-48.32 182.89,-58.55 188.66,-54.59"/>
</g>
<!-- vcorelib_io_types -->
<g id="node9" class="node">
<title>vcorelib_io_types</title><style>.edge>path:hover{stroke-width:8}</style>
<ellipse fill="#0c0ce9" stroke="black" cx="169" cy="-227.56" rx="37.79" ry="31.23"/>
<text text-anchor="middle" x="169" y="-236.56" font-family="Helvetica,sans-Serif" font-size="10.00" fill="#ffffff">vcorelib.</text>
<text text-anchor="middle" x="169" y="-224.56" font-family="Helvetica,sans-Serif" font-size="10.00" fill="#ffffff">io.</text>
<text text-anchor="middle" x="169" y="-212.56" font-family="Helvetica,sans-Serif" font-size="10.00" fill="#ffffff">types</text>
</g>
<!-- vcorelib_io_types&#45;&gt;vcorelib_io -->
<g id="edge10" class="edge">
<title>vcorelib_io_types&#45;&gt;vcorelib_io</title><style>.edge>path:hover{stroke-width:8}</style>
<path fill="none" stroke="black" d="M165.09,-196.57C163.53,-177.33 163.26,-151.98 169,-130.34"/>
<path fill="none" stroke="black" d="M169,-128.34C175.03,-105.58 174.42,-78.73 172.66,-59.18"/>
<polygon fill="#0c0ce9" stroke="black" points="176.13,-58.71 171.59,-49.14 169.17,-59.45 176.13,-58.71"/>
</g>
<!-- vcorelib_io_types&#45;&gt;vcorelib_io_archive -->
<g id="edge11" class="edge">
<title>vcorelib_io_types&#45;&gt;vcorelib_io_archive</title><style>.edge>path:hover{stroke-width:8}</style>
<path fill="none" stroke="black" d="M202.21,-212.65C232.09,-199.86 277.02,-179.99 315,-160.45 319.3,-158.24 323.74,-155.85 328.14,-153.4"/>
<polygon fill="#0c0ce9" stroke="black" points="330.05,-156.34 337.04,-148.37 326.61,-150.25 330.05,-156.34"/>
</g>
<!-- vcorelib_io_types&#45;&gt;vcorelib_io_cache -->
<g id="edge12" class="edge">
<title>vcorelib_io_types&#45;&gt;vcorelib_io_cache</title><style>.edge>path:hover{stroke-width:8}</style>
<path fill="none" stroke="black" d="M169,-128.34C178.3,-93.23 211.61,-67.51 239.5,-51.54"/>
<polygon fill="#0c0ce9" stroke="black" points="241.25,-54.58 248.33,-46.7 237.88,-48.44 241.25,-54.58"/>
</g>
<!-- vcorelib_io_types&#45;&gt;vcorelib_io_decode -->
<g id="edge13" class="edge">
<title>vcorelib_io_types&#45;&gt;vcorelib_io_decode</title><style>.edge>path:hover{stroke-width:8}</style>
<path fill="none" stroke="black" d="M150.79,-200.01C143.43,-189.29 134.84,-176.76 126.98,-165.3"/>
<polygon fill="#0c0ce9" stroke="black" points="129.69,-163.07 121.15,-156.8 123.92,-167.03 129.69,-163.07"/>
</g>
<!-- vcorelib_io_types&#45;&gt;vcorelib_io_encode -->
<g id="edge14" class="edge">
<title>vcorelib_io_types&#45;&gt;vcorelib_io_encode</title><style>.edge>path:hover{stroke-width:8}</style>
<path fill="none" stroke="black" d="M187.21,-200.01C194.57,-189.29 203.16,-176.76 211.02,-165.3"/>
<polygon fill="#0c0ce9" stroke="black" points="214.08,-167.03 216.85,-156.8 208.31,-163.07 214.08,-167.03"/>
</g>
<!-- vcorelib_logging -->
<g id="node10" class="node">
<title>vcorelib_logging</title><style>.edge>path:hover{stroke-width:8}</style>
<ellipse fill="#4646a4" stroke="black" cx="460" cy="-129.34" rx="37.79" ry="22.76"/>
<text text-anchor="middle" x="460" y="-132.34" font-family="Helvetica,sans-Serif" font-size="10.00" fill="#ffffff">vcorelib.</text>
<text text-anchor="middle" x="460" y="-120.34" font-family="Helvetica,sans-Serif" font-size="10.00" fill="#ffffff">logging</text>
</g>
<!-- vcorelib_math -->
<g id="node11" class="node">
<title>vcorelib_math</title><style>.edge>path:hover{stroke-width:8}</style>
<ellipse fill="#1010f9" stroke="black" cx="407" cy="-325.79" rx="45.26" ry="18"/>
<text text-anchor="middle" x="407" y="-322.79" font-family="Helvetica,sans-Serif" font-size="10.00" fill="#ffffff">vcorelib.math</text>
</g>
<!-- vcorelib_math&#45;&gt;vcorelib_io_archive -->
<g id="edge15" class="edge">
<title>vcorelib_math&#45;&gt;vcorelib_io_archive</title><style>.edge>path:hover{stroke-width:8}</style>
<path fill="none" stroke="black" d="M405.4,-307.75C403.8,-288.52 401.74,-256.29 403,-228.56"/>
</g>
<!-- vcorelib_math&#45;&gt;vcorelib_io_cache -->
<g id="edge16" class="edge">
<title>vcorelib_math&#45;&gt;vcorelib_io_cache</title><style>.edge>path:hover{stroke-width:8}</style>
<path fill="none" stroke="black" d="M488,-226.56C504.64,-183.7 548.01,-170.71 526,-130.34"/>
<path fill="none" stroke="black" d="M526,-128.34C518.42,-114.44 519.63,-107.76 507,-98.23 454.14,-58.35 377.69,-42.47 328.67,-36.18"/>
<polygon fill="#1010f9" stroke="black" points="328.99,-32.69 318.64,-34.98 328.16,-39.64 328.99,-32.69"/>
</g>
<!-- vcorelib_math&#45;&gt;vcorelib_io_decode -->
<g id="edge17" class="edge">
<title>vcorelib_math&#45;&gt;vcorelib_io_decode</title><style>.edge>path:hover{stroke-width:8}</style>
<path fill="none" stroke="black" d="M384.71,-310.02C375.28,-304.4 363.96,-298.45 353,-294.68 254.76,-260.84 208.84,-315.73 122,-258.68 108.77,-249.99 110.85,-242.3 103,-228.56"/>
</g>
<!-- vcorelib_math&#45;&gt;vcorelib_io_encode -->
<g id="edge18" class="edge">
<title>vcorelib_math&#45;&gt;vcorelib_io_encode</title><style>.edge>path:hover{stroke-width:8}</style>
<path fill="none" stroke="black" d="M398.87,-308.05C385.77,-282.17 358.08,-231.76 325,-196.45 309.99,-180.43 290.64,-165.64 273.74,-154.14"/>
<polygon fill="#1010f9" stroke="black" points="275.42,-151.05 265.15,-148.43 271.54,-156.88 275.42,-151.05"/>
</g>
<!-- vcorelib_math&#45;&gt;vcorelib_logging -->
<g id="edge19" class="edge">
<title>vcorelib_math&#45;&gt;vcorelib_logging</title><style>.edge>path:hover{stroke-width:8}</style>
<path fill="none" stroke="black" d="M425.84,-309.37C445.44,-292.05 475.04,-261.95 488,-228.56"/>
<path fill="none" stroke="black" d="M488,-226.56C496.55,-204.54 488.15,-178.81 478.38,-159.5"/>
<polygon fill="#1010f9" stroke="black" points="481.39,-157.7 473.54,-150.58 475.23,-161.04 481.39,-157.7"/>
</g>
<!-- vcorelib_math_time&#45;&gt;vcorelib_io_archive -->
<g id="edge20" class="edge">
<title>vcorelib_math_time&#45;&gt;vcorelib_io_archive</title><style>.edge>path:hover{stroke-width:8}</style>
<path fill="none" stroke="black" d="M333.72,-304.37C362.07,-282.44 402.11,-248.11 403,-228.56"/>
<path fill="none" stroke="black" d="M403,-226.56C403.94,-205.97 396.69,-184.35 388.45,-166.84"/>
<polygon fill="#0b0bdf" stroke="black" points="391.42,-164.95 383.82,-157.56 385.16,-168.07 391.42,-164.95"/>
</g>
<!-- vcorelib_math_time&#45;&gt;vcorelib_io_cache -->
<g id="edge21" class="edge">
<title>vcorelib_math_time&#45;&gt;vcorelib_io_cache</title><style>.edge>path:hover{stroke-width:8}</style>
<path fill="none" stroke="black" d="M311,-226.56C303.26,-184.27 303.35,-173.27 301,-130.34"/>
</g>
<!-- vcorelib_math_time&#45;&gt;vcorelib_io_decode -->
<g id="edge22" class="edge">
<title>vcorelib_math_time&#45;&gt;vcorelib_io_decode</title><style>.edge>path:hover{stroke-width:8}</style>
<path fill="none" stroke="black" d="M268.97,-318.89C229.1,-310.96 165.54,-293.63 122,-258.68 109.66,-248.77 110.85,-242.3 103,-228.56"/>
</g>
<!-- vcorelib_math_time&#45;&gt;vcorelib_io_encode -->
<g id="edge23" class="edge">
<title>vcorelib_math_time&#45;&gt;vcorelib_io_encode</title><style>.edge>path:hover{stroke-width:8}</style>
<path fill="none" stroke="black" d="M311.13,-294.65C313.5,-275.57 315,-250.45 311,-228.56"/>
<path fill="none" stroke="black" d="M311,-226.56C306.11,-199.81 287.17,-175.8 269.43,-158.45"/>
<polygon fill="#0b0bdf" stroke="black" points="271.63,-155.72 261.94,-151.43 266.84,-160.83 271.63,-155.72"/>
</g>
<!-- vcorelib_math_time&#45;&gt;vcorelib_logging -->
<g id="edge24" class="edge">
<title>vcorelib_math_time&#45;&gt;vcorelib_logging</title><style>.edge>path:hover{stroke-width:8}</style>
<path fill="none" stroke="black" d="M335.17,-305.73C341.04,-302 347.19,-298.17 353,-294.68 380.97,-277.87 396.2,-283.83 417,-258.68 439.97,-230.89 450.85,-190.33 455.88,-162.27"/>
<polygon fill="#0b0bdf" stroke="black" points="459.37,-162.62 457.54,-152.18 452.47,-161.48 459.37,-162.62"/>
</g>
<!-- vcorelib_paths -->
<g id="node13" class="node">
<title>vcorelib_paths</title><style>.edge>path:hover{stroke-width:8}</style>
<ellipse fill="#2f2fdb" stroke="black" cx="165" cy="-410.9" rx="46.95" ry="18"/>
<text text-anchor="middle" x="165" y="-407.9" font-family="Helvetica,sans-Serif" font-size="10.00" fill="#ffffff">vcorelib.paths</text>
</g>
<!-- vcorelib_paths&#45;&gt;vcorelib_io -->
<g id="edge25" class="edge">
<title>vcorelib_paths&#45;&gt;vcorelib_io</title><style>.edge>path:hover{stroke-width:8}</style>
<path fill="none" stroke="black" d="M166.07,-392.72C167.07,-375.92 168.46,-349.61 169,-326.79"/>
<path fill="none" stroke="black" d="M169,-324.79C170.08,-278.68 115.13,-296.69 89,-258.68 62.92,-220.72 63.43,-205.9 56,-160.45 51.54,-133.16 42.24,-122.22 56,-98.23 71.44,-71.3 102.56,-54.29 128.24,-44.28"/>
<polygon fill="#2f2fdb" stroke="black" points="129.59,-47.51 137.77,-40.77 127.18,-40.94 129.59,-47.51"/>
</g>
<!-- vcorelib_paths&#45;&gt;vcorelib_io_cache -->
<g id="edge26" class="edge">
<title>vcorelib_paths&#45;&gt;vcorelib_io_cache</title><style>.edge>path:hover{stroke-width:8}</style>
<path fill="none" stroke="black" d="M169,-324.79C170.46,-288.77 195.5,-288.33 216,-258.68 245.91,-215.41 253.3,-204.52 282,-160.45 290.64,-147.19 301.87,-146.14 301,-130.34"/>
<path fill="none" stroke="black" d="M301,-128.34C301.64,-109.24 297.9,-88.43 293.47,-71.06"/>
<polygon fill="#2f2fdb" stroke="black" points="296.82,-70.01 290.82,-61.28 290.06,-71.84 296.82,-70.01"/>
</g>
<!-- vcorelib_paths&#45;&gt;vcorelib_io_types -->
<g id="edge27" class="edge">
<title>vcorelib_paths&#45;&gt;vcorelib_io_types</title><style>.edge>path:hover{stroke-width:8}</style>
<path fill="none" stroke="black" d="M169,-324.79C169.43,-306.53 169.49,-286.32 169.42,-269.16"/>
<polygon fill="#2f2fdb" stroke="black" points="172.92,-268.88 169.36,-258.9 165.92,-268.92 172.92,-268.88"/>
</g>
</g>
</svg>
