<?xml version="1.0" encoding="UTF-8" standalone="no"?>
<!DOCTYPE svg PUBLIC "-//W3C//DTD SVG 1.1//EN"
 "http://www.w3.org/Graphics/SVG/1.1/DTD/svg11.dtd">
<!-- Generated by graphviz version 3.0.1~dev.20220405.0544 (20220405.0544)
 -->
<!-- Title: G Pages: 1 -->
<svg width="935pt" height="552pt"
 viewBox="0.00 0.00 934.65 552.10" xmlns="http://www.w3.org/2000/svg" xmlns:xlink="http://www.w3.org/1999/xlink">
<g id="graph0" class="graph" transform="scale(1 1) rotate(0) translate(4 548.1)">
<title>G</title><style>.edge>path:hover{stroke-width:8}</style>
<polygon fill="white" stroke="transparent" points="-4,4 -4,-548.1 930.65,-548.1 930.65,4 -4,4"/>
<!-- tomli -->
<g id="node1" class="node">
<title>tomli</title><style>.edge>path:hover{stroke-width:8}</style>
<ellipse fill="#b65353" stroke="black" cx="276.01" cy="-427.87" rx="27" ry="18"/>
<text text-anchor="middle" x="276.01" y="-424.87" font-family="Helvetica,sans-Serif" font-size="10.00" fill="#ffffff">tomli</text>
</g>
<!-- vcorelib_io_decode -->
<g id="node7" class="node">
<title>vcorelib_io_decode</title><style>.edge>path:hover{stroke-width:8}</style>
<ellipse fill="#303091" stroke="black" cx="342.01" cy="-129.34" rx="37.79" ry="31.23"/>
<text text-anchor="middle" x="342.01" y="-138.34" font-family="Helvetica,sans-Serif" font-size="10.00" fill="#ffffff">vcorelib.</text>
<text text-anchor="middle" x="342.01" y="-126.34" font-family="Helvetica,sans-Serif" font-size="10.00" fill="#ffffff">io.</text>
<text text-anchor="middle" x="342.01" y="-114.34" font-family="Helvetica,sans-Serif" font-size="10.00" fill="#ffffff">decode</text>
</g>
<!-- tomli&#45;&gt;vcorelib_io_decode -->
<g id="edge1" class="edge">
<title>tomli&#45;&gt;vcorelib_io_decode</title><style>.edge>path:hover{stroke-width:8}</style>
<path fill="none" stroke="black" d="M274.41,-409.74C271.38,-370.57 267.4,-272.05 295.01,-196.45 299.31,-184.67 306.31,-173.08 313.6,-162.98"/>
<polygon fill="#b65353" stroke="black" points="316.5,-164.96 319.75,-154.88 310.92,-160.73 316.5,-164.96"/>
</g>
<!-- tomli_w -->
<g id="node2" class="node">
<title>tomli_w</title><style>.edge>path:hover{stroke-width:8}</style>
<ellipse fill="#40c040" stroke="black" cx="124.01" cy="-427.87" rx="30.01" ry="18"/>
<text text-anchor="middle" x="124.01" y="-424.87" font-family="Helvetica,sans-Serif" font-size="10.00" fill="#000000">tomli_w</text>
</g>
<!-- vcorelib_io_encode -->
<g id="node8" class="node">
<title>vcorelib_io_encode</title><style>.edge>path:hover{stroke-width:8}</style>
<ellipse fill="#303091" stroke="black" cx="249.01" cy="-129.34" rx="37.79" ry="31.23"/>
<text text-anchor="middle" x="249.01" y="-138.34" font-family="Helvetica,sans-Serif" font-size="10.00" fill="#ffffff">vcorelib.</text>
<text text-anchor="middle" x="249.01" y="-126.34" font-family="Helvetica,sans-Serif" font-size="10.00" fill="#ffffff">io.</text>
<text text-anchor="middle" x="249.01" y="-114.34" font-family="Helvetica,sans-Serif" font-size="10.00" fill="#ffffff">encode</text>
</g>
<!-- tomli_w&#45;&gt;vcorelib_io_encode -->
<g id="edge2" class="edge">
<title>tomli_w&#45;&gt;vcorelib_io_encode</title><style>.edge>path:hover{stroke-width:8}</style>
<path fill="none" stroke="black" d="M122.87,-409.76C121.39,-374.02 122.7,-290.33 162.01,-237.05"/>
</g>
<!-- vcorelib_dict -->
<g id="node3" class="node">
<title>vcorelib_dict</title><style>.edge>path:hover{stroke-width:8}</style>
<ellipse fill="#1010f9" stroke="black" cx="200.01" cy="-512.98" rx="41.24" ry="18"/>
<text text-anchor="middle" x="200.01" y="-509.98" font-family="Helvetica,sans-Serif" font-size="10.00" fill="#ffffff">vcorelib.dict</text>
</g>
<!-- vcorelib_io -->
<g id="node4" class="node">
<title>vcorelib_io</title><style>.edge>path:hover{stroke-width:8}</style>
<ellipse fill="#0909b8" stroke="black" cx="342.01" cy="-31.11" rx="36.89" ry="18"/>
<text text-anchor="middle" x="342.01" y="-28.11" font-family="Helvetica,sans-Serif" font-size="10.00" fill="#ffffff">vcorelib.io</text>
</g>
<!-- vcorelib_dict&#45;&gt;vcorelib_io -->
<g id="edge3" class="edge">
<title>vcorelib_dict&#45;&gt;vcorelib_io</title><style>.edge>path:hover{stroke-width:8}</style>
<path fill="none" stroke="black" d="M167.99,-501.47C141.89,-491.28 106.02,-473.29 85.01,-445.87 56.46,-408.61 55.23,-390.62 58.01,-343.76"/>
<path fill="none" stroke="black" d="M58.01,-341.76C56.58,-305.74 21.97,-309.99 11.01,-275.65 0.3,-242.12 -6.5,-226.98 11.01,-196.45 39.95,-145.98 80.94,-169.46 124.01,-130.34"/>
<path fill="none" stroke="black" d="M124.01,-128.34C173.84,-80.7 251.17,-54.31 299.09,-41.69"/>
<polygon fill="#1010f9" stroke="black" points="300.02,-45.06 308.84,-39.2 298.29,-38.28 300.02,-45.06"/>
</g>
<!-- vcorelib_io_cache -->
<g id="node6" class="node">
<title>vcorelib_io_cache</title><style>.edge>path:hover{stroke-width:8}</style>
<ellipse fill="#373781" stroke="black" cx="446.01" cy="-31.11" rx="37.79" ry="31.23"/>
<text text-anchor="middle" x="446.01" y="-40.11" font-family="Helvetica,sans-Serif" font-size="10.00" fill="#ffffff">vcorelib.</text>
<text text-anchor="middle" x="446.01" y="-28.11" font-family="Helvetica,sans-Serif" font-size="10.00" fill="#ffffff">io.</text>
<text text-anchor="middle" x="446.01" y="-16.11" font-family="Helvetica,sans-Serif" font-size="10.00" fill="#ffffff">cache</text>
</g>
<!-- vcorelib_dict&#45;&gt;vcorelib_io_cache -->
<g id="edge4" class="edge">
<title>vcorelib_dict&#45;&gt;vcorelib_io_cache</title><style>.edge>path:hover{stroke-width:8}</style>
<path fill="none" stroke="black" d="M686.01,-426.87C707.94,-402.21 721.72,-402.57 738.01,-373.87 799.71,-265.15 873.73,-194.52 794.01,-98.23 756.41,-52.82 579.97,-38.34 493.72,-33.94"/>
<polygon fill="#1010f9" stroke="black" points="493.82,-30.44 483.66,-33.45 493.48,-37.43 493.82,-30.44"/>
</g>
<!-- vcorelib_dict&#45;&gt;vcorelib_io_decode -->
<g id="edge5" class="edge">
<title>vcorelib_dict&#45;&gt;vcorelib_io_decode</title><style>.edge>path:hover{stroke-width:8}</style>
<path fill="none" stroke="black" d="M200.49,-494.65C202.57,-444.9 213.6,-298.66 272.01,-196.45 280.59,-181.43 293.68,-167.74 306.22,-156.77"/>
<polygon fill="#1010f9" stroke="black" points="308.52,-159.42 313.92,-150.3 304.01,-154.06 308.52,-159.42"/>
</g>
<!-- vcorelib_dict&#45;&gt;vcorelib_io_encode -->
<g id="edge6" class="edge">
<title>vcorelib_dict&#45;&gt;vcorelib_io_encode</title><style>.edge>path:hover{stroke-width:8}</style>
<path fill="none" stroke="black" d="M58.01,-341.76C61.88,-276.28 123.33,-290.02 162.01,-237.05"/>
<path fill="none" stroke="black" d="M162.01,-235.05C173.92,-218.73 173.64,-212.42 186.01,-196.45 195.55,-184.13 207.05,-171.52 217.6,-160.66"/>
<polygon fill="#1010f9" stroke="black" points="220.19,-163.02 224.72,-153.45 215.21,-158.11 220.19,-163.02"/>
</g>
<!-- vcorelib_io_types -->
<g id="node9" class="node">
<title>vcorelib_io_types</title><style>.edge>path:hover{stroke-width:8}</style>
<ellipse fill="#0b0bdf" stroke="black" cx="342.01" cy="-236.05" rx="37.79" ry="31.23"/>
<text text-anchor="middle" x="342.01" y="-245.05" font-family="Helvetica,sans-Serif" font-size="10.00" fill="#ffffff">vcorelib.</text>
<text text-anchor="middle" x="342.01" y="-233.05" font-family="Helvetica,sans-Serif" font-size="10.00" fill="#ffffff">io.</text>
<text text-anchor="middle" x="342.01" y="-221.05" font-family="Helvetica,sans-Serif" font-size="10.00" fill="#ffffff">types</text>
</g>
<!-- vcorelib_dict&#45;&gt;vcorelib_io_types -->
<g id="edge7" class="edge">
<title>vcorelib_dict&#45;&gt;vcorelib_io_types</title><style>.edge>path:hover{stroke-width:8}</style>
<path fill="none" stroke="black" d="M241.26,-511.24C347.66,-508.38 627.11,-494.63 686.01,-428.87"/>
<path fill="none" stroke="black" d="M686.01,-426.87C742.5,-363.8 571.72,-423.35 503.01,-373.87 475.72,-354.23 485.07,-334.05 460.01,-311.65 434.81,-289.11 421.46,-293.9 393.01,-275.65 387.61,-272.18 382.05,-268.32 376.68,-264.41"/>
<polygon fill="#1010f9" stroke="black" points="378.56,-261.44 368.44,-258.28 374.38,-267.06 378.56,-261.44"/>
</g>
<!-- vcorelib_math_time -->
<g id="node12" class="node">
<title>vcorelib_math_time</title><style>.edge>path:hover{stroke-width:8}</style>
<ellipse fill="#0505e5" stroke="black" cx="658.01" cy="-342.76" rx="37.79" ry="31.23"/>
<text text-anchor="middle" x="658.01" y="-351.76" font-family="Helvetica,sans-Serif" font-size="10.00" fill="#ffffff">vcorelib.</text>
<text text-anchor="middle" x="658.01" y="-339.76" font-family="Helvetica,sans-Serif" font-size="10.00" fill="#ffffff">math.</text>
<text text-anchor="middle" x="658.01" y="-327.76" font-family="Helvetica,sans-Serif" font-size="10.00" fill="#ffffff">time</text>
</g>
<!-- vcorelib_dict&#45;&gt;vcorelib_math_time -->
<g id="edge8" class="edge">
<title>vcorelib_dict&#45;&gt;vcorelib_math_time</title><style>.edge>path:hover{stroke-width:8}</style>
<path fill="none" stroke="black" d="M686.01,-426.87C698.09,-413.38 692.9,-394.48 683.87,-378.11"/>
<polygon fill="#1010f9" stroke="black" points="686.73,-376.06 678.55,-369.33 680.74,-379.69 686.73,-376.06"/>
</g>
<!-- vcorelib_task -->
<g id="node17" class="node">
<title>vcorelib_task</title><style>.edge>path:hover{stroke-width:8}</style>
<ellipse fill="#1515c1" stroke="black" cx="742.01" cy="-129.34" rx="43.08" ry="18"/>
<text text-anchor="middle" x="742.01" y="-126.34" font-family="Helvetica,sans-Serif" font-size="10.00" fill="#ffffff">vcorelib.task</text>
</g>
<!-- vcorelib_dict&#45;&gt;vcorelib_task -->
<g id="edge9" class="edge">
<title>vcorelib_dict&#45;&gt;vcorelib_task</title><style>.edge>path:hover{stroke-width:8}</style>
<path fill="none" stroke="black" d="M686.01,-426.87C713,-396.52 719.55,-384.13 724.01,-343.76"/>
<path fill="none" stroke="black" d="M724.01,-341.76C729.11,-295.5 705.96,-279.95 724.01,-237.05"/>
</g>
<!-- vcorelib_task_dict_melder -->
<g id="node18" class="node">
<title>vcorelib_task_dict_melder</title><style>.edge>path:hover{stroke-width:8}</style>
<ellipse fill="#4646a4" stroke="black" cx="58.01" cy="-236.05" rx="37.79" ry="39.7"/>
<text text-anchor="middle" x="58.01" y="-251.05" font-family="Helvetica,sans-Serif" font-size="10.00" fill="#ffffff">vcorelib.</text>
<text text-anchor="middle" x="58.01" y="-239.05" font-family="Helvetica,sans-Serif" font-size="10.00" fill="#ffffff">task.</text>
<text text-anchor="middle" x="58.01" y="-227.05" font-family="Helvetica,sans-Serif" font-size="10.00" fill="#ffffff">dict.</text>
<text text-anchor="middle" x="58.01" y="-215.05" font-family="Helvetica,sans-Serif" font-size="10.00" fill="#ffffff">melder</text>
</g>
<!-- vcorelib_dict&#45;&gt;vcorelib_task_dict_melder -->
<g id="edge10" class="edge">
<title>vcorelib_dict&#45;&gt;vcorelib_task_dict_melder</title><style>.edge>path:hover{stroke-width:8}</style>
<path fill="none" stroke="black" d="M58.01,-341.76C59.08,-323.56 59.32,-303.54 59.2,-285.93"/>
<polygon fill="#1010f9" stroke="black" points="62.7,-285.83 59.1,-275.87 55.7,-285.9 62.7,-285.83"/>
</g>
<!-- vcorelib_task_manager -->
<g id="node19" class="node">
<title>vcorelib_task_manager</title><style>.edge>path:hover{stroke-width:8}</style>
<ellipse fill="#3d3d8f" stroke="black" cx="829.01" cy="-342.76" rx="39.44" ry="31.23"/>
<text text-anchor="middle" x="829.01" y="-351.76" font-family="Helvetica,sans-Serif" font-size="10.00" fill="#ffffff">vcorelib.</text>
<text text-anchor="middle" x="829.01" y="-339.76" font-family="Helvetica,sans-Serif" font-size="10.00" fill="#ffffff">task.</text>
<text text-anchor="middle" x="829.01" y="-327.76" font-family="Helvetica,sans-Serif" font-size="10.00" fill="#ffffff">manager</text>
</g>
<!-- vcorelib_dict&#45;&gt;vcorelib_task_manager -->
<g id="edge11" class="edge">
<title>vcorelib_dict&#45;&gt;vcorelib_task_manager</title><style>.edge>path:hover{stroke-width:8}</style>
<path fill="none" stroke="black" d="M686.01,-426.87C702.84,-408.08 767.02,-378.88 776.01,-373.87 780.18,-371.55 784.53,-369.11 788.86,-366.67"/>
<polygon fill="#1010f9" stroke="black" points="790.69,-369.65 797.67,-361.68 787.24,-363.56 790.69,-369.65"/>
</g>
<!-- vcorelib_io_archive -->
<g id="node5" class="node">
<title>vcorelib_io_archive</title><style>.edge>path:hover{stroke-width:8}</style>
<ellipse fill="#3535a1" stroke="black" cx="512.01" cy="-129.34" rx="37.79" ry="31.23"/>
<text text-anchor="middle" x="512.01" y="-138.34" font-family="Helvetica,sans-Serif" font-size="10.00" fill="#ffffff">vcorelib.</text>
<text text-anchor="middle" x="512.01" y="-126.34" font-family="Helvetica,sans-Serif" font-size="10.00" fill="#ffffff">io.</text>
<text text-anchor="middle" x="512.01" y="-114.34" font-family="Helvetica,sans-Serif" font-size="10.00" fill="#ffffff">archive</text>
</g>
<!-- vcorelib_io_archive&#45;&gt;vcorelib_io_cache -->
<g id="edge12" class="edge">
<title>vcorelib_io_archive&#45;&gt;vcorelib_io_cache</title><style>.edge>path:hover{stroke-width:8}</style>
<path fill="none" stroke="black" d="M493.8,-101.79C486.44,-91.06 477.84,-78.53 469.99,-67.08"/>
<polygon fill="#3535a1" stroke="black" points="472.7,-64.84 464.16,-58.57 466.93,-68.8 472.7,-64.84"/>
</g>
<!-- vcorelib_io_decode&#45;&gt;vcorelib_io -->
<g id="edge13" class="edge">
<title>vcorelib_io_decode&#45;&gt;vcorelib_io</title><style>.edge>path:hover{stroke-width:8}</style>
<path fill="none" stroke="black" d="M342.01,-98.16C342.01,-85.83 342.01,-71.68 342.01,-59.64"/>
<polygon fill="#303091" stroke="black" points="345.51,-59.3 342.01,-49.3 338.51,-59.3 345.51,-59.3"/>
</g>
<!-- vcorelib_io_encode&#45;&gt;vcorelib_io -->
<g id="edge14" class="edge">
<title>vcorelib_io_encode&#45;&gt;vcorelib_io</title><style>.edge>path:hover{stroke-width:8}</style>
<path fill="none" stroke="black" d="M271.99,-104.55C286.56,-89.48 305.3,-70.09 319.73,-55.16"/>
<polygon fill="#303091" stroke="black" points="322.4,-57.43 326.84,-47.81 317.37,-52.57 322.4,-57.43"/>
</g>
<!-- vcorelib_io_types&#45;&gt;vcorelib_io -->
<g id="edge15" class="edge">
<title>vcorelib_io_types&#45;&gt;vcorelib_io</title><style>.edge>path:hover{stroke-width:8}</style>
<path fill="none" stroke="black" d="M364.53,-210.67C381.02,-190.79 401.58,-161.05 408.01,-130.34"/>
<path fill="none" stroke="black" d="M408.01,-128.34C414.22,-98.62 390.54,-70.72 369.84,-52.7"/>
<polygon fill="#0b0bdf" stroke="black" points="372.05,-49.98 362.12,-46.29 367.58,-55.37 372.05,-49.98"/>
</g>
<!-- vcorelib_io_types&#45;&gt;vcorelib_io_archive -->
<g id="edge16" class="edge">
<title>vcorelib_io_types&#45;&gt;vcorelib_io_archive</title><style>.edge>path:hover{stroke-width:8}</style>
<path fill="none" stroke="black" d="M371.62,-216.81C399.84,-199.42 442.5,-173.15 473.39,-154.13"/>
<polygon fill="#0b0bdf" stroke="black" points="475.48,-156.94 482.16,-148.72 471.81,-150.98 475.48,-156.94"/>
</g>
<!-- vcorelib_io_types&#45;&gt;vcorelib_io_cache -->
<g id="edge17" class="edge">
<title>vcorelib_io_types&#45;&gt;vcorelib_io_cache</title><style>.edge>path:hover{stroke-width:8}</style>
<path fill="none" stroke="black" d="M408.01,-128.34C412.19,-108.31 420.18,-87.06 427.75,-69.63"/>
<polygon fill="#0b0bdf" stroke="black" points="431,-70.93 431.89,-60.38 424.61,-68.08 431,-70.93"/>
</g>
<!-- vcorelib_io_types&#45;&gt;vcorelib_io_decode -->
<g id="edge18" class="edge">
<title>vcorelib_io_types&#45;&gt;vcorelib_io_decode</title><style>.edge>path:hover{stroke-width:8}</style>
<path fill="none" stroke="black" d="M342.01,-204.76C342.01,-194.13 342.01,-182 342.01,-170.67"/>
<polygon fill="#0b0bdf" stroke="black" points="345.51,-170.56 342.01,-160.56 338.51,-170.56 345.51,-170.56"/>
</g>
<!-- vcorelib_io_types&#45;&gt;vcorelib_io_encode -->
<g id="edge19" class="edge">
<title>vcorelib_io_types&#45;&gt;vcorelib_io_encode</title><style>.edge>path:hover{stroke-width:8}</style>
<path fill="none" stroke="black" d="M320.2,-210.5C307.58,-196.29 291.55,-178.24 277.89,-162.86"/>
<polygon fill="#0b0bdf" stroke="black" points="280.25,-160.25 271,-155.1 275.02,-164.9 280.25,-160.25"/>
</g>
<!-- vcorelib_logging -->
<g id="node10" class="node">
<title>vcorelib_logging</title><style>.edge>path:hover{stroke-width:8}</style>
<ellipse fill="#4646a4" stroke="black" cx="605.01" cy="-129.34" rx="37.79" ry="22.76"/>
<text text-anchor="middle" x="605.01" y="-132.34" font-family="Helvetica,sans-Serif" font-size="10.00" fill="#ffffff">vcorelib.</text>
<text text-anchor="middle" x="605.01" y="-120.34" font-family="Helvetica,sans-Serif" font-size="10.00" fill="#ffffff">logging</text>
</g>
<!-- vcorelib_math -->
<g id="node11" class="node">
<title>vcorelib_math</title><style>.edge>path:hover{stroke-width:8}</style>
<ellipse fill="#1010f9" stroke="black" cx="557.01" cy="-342.76" rx="45.26" ry="18"/>
<text text-anchor="middle" x="557.01" y="-339.76" font-family="Helvetica,sans-Serif" font-size="10.00" fill="#ffffff">vcorelib.math</text>
</g>
<!-- vcorelib_math&#45;&gt;vcorelib_io_archive -->
<g id="edge20" class="edge">
<title>vcorelib_math&#45;&gt;vcorelib_io_archive</title><style>.edge>path:hover{stroke-width:8}</style>
<path fill="none" stroke="black" d="M522.01,-235.05C514.54,-214.6 511.86,-190.49 511.13,-170.56"/>
<polygon fill="#1010f9" stroke="black" points="514.63,-170.48 510.91,-160.56 507.63,-170.63 514.63,-170.48"/>
</g>
<!-- vcorelib_math&#45;&gt;vcorelib_io_cache -->
<g id="edge21" class="edge">
<title>vcorelib_math&#45;&gt;vcorelib_io_cache</title><style>.edge>path:hover{stroke-width:8}</style>
<path fill="none" stroke="black" d="M551.59,-324.61C544.95,-303.79 533.18,-267.66 522.01,-237.05"/>
<path fill="none" stroke="black" d="M522.01,-235.05C515.75,-217.91 518.47,-211.4 508.01,-196.45 484.9,-163.45 452.86,-170.03 446.01,-130.34"/>
</g>
<!-- vcorelib_math&#45;&gt;vcorelib_io_decode -->
<g id="edge22" class="edge">
<title>vcorelib_math&#45;&gt;vcorelib_io_decode</title><style>.edge>path:hover{stroke-width:8}</style>
<path fill="none" stroke="black" d="M534.96,-326.85C516.78,-314.14 490.7,-294.9 470.01,-275.65 431.82,-240.12 392.91,-194.29 368.17,-163.69"/>
<polygon fill="#1010f9" stroke="black" points="370.88,-161.48 361.89,-155.87 365.43,-165.86 370.88,-161.48"/>
</g>
<!-- vcorelib_math&#45;&gt;vcorelib_io_encode -->
<g id="edge23" class="edge">
<title>vcorelib_math&#45;&gt;vcorelib_io_encode</title><style>.edge>path:hover{stroke-width:8}</style>
<path fill="none" stroke="black" d="M523.54,-330.59C504.94,-324.58 481.32,-317.27 460.01,-311.65 359.36,-285.1 296.22,-323.34 238.01,-237.05"/>
<path fill="none" stroke="black" d="M238.01,-235.05C225.03,-215.82 227.63,-189.92 233.54,-168.7"/>
<polygon fill="#1010f9" stroke="black" points="236.92,-169.6 236.55,-159.01 230.24,-167.52 236.92,-169.6"/>
</g>
<!-- vcorelib_math&#45;&gt;vcorelib_logging -->
<g id="edge24" class="edge">
<title>vcorelib_math&#45;&gt;vcorelib_logging</title><style>.edge>path:hover{stroke-width:8}</style>
<path fill="none" stroke="black" d="M560.85,-324.82C568.88,-289.45 587.53,-207.32 597.84,-161.92"/>
<polygon fill="#1010f9" stroke="black" points="601.28,-162.54 600.08,-152.02 594.46,-160.99 601.28,-162.54"/>
</g>
<!-- vcorelib_math&#45;&gt;vcorelib_task -->
<g id="edge25" class="edge">
<title>vcorelib_math&#45;&gt;vcorelib_task</title><style>.edge>path:hover{stroke-width:8}</style>
<path fill="none" stroke="black" d="M581.43,-327.45C627.03,-300.6 720.8,-244.68 724.01,-237.05"/>
<path fill="none" stroke="black" d="M724.01,-235.05C734.47,-210.18 738.85,-179.54 740.69,-157.85"/>
<polygon fill="#1010f9" stroke="black" points="744.19,-157.91 741.42,-147.69 737.21,-157.41 744.19,-157.91"/>
</g>
<!-- vcorelib_math_time&#45;&gt;vcorelib_io_archive -->
<g id="edge26" class="edge">
<title>vcorelib_math_time&#45;&gt;vcorelib_io_archive</title><style>.edge>path:hover{stroke-width:8}</style>
<path fill="none" stroke="black" d="M639.81,-315.41C613.56,-277.4 565.05,-207.14 535.93,-164.98"/>
<polygon fill="#0505e5" stroke="black" points="538.76,-162.93 530.2,-156.69 533,-166.9 538.76,-162.93"/>
</g>
<!-- vcorelib_math_time&#45;&gt;vcorelib_io_cache -->
<g id="edge27" class="edge">
<title>vcorelib_math_time&#45;&gt;vcorelib_io_cache</title><style>.edge>path:hover{stroke-width:8}</style>
<path fill="none" stroke="black" d="M671.01,-235.05C665.53,-173.9 691.52,-145.22 652.01,-98.23 613.05,-51.89 541.49,-37.69 493.82,-33.53"/>
<polygon fill="#0505e5" stroke="black" points="493.98,-30.03 483.74,-32.77 493.45,-37.01 493.98,-30.03"/>
</g>
<!-- vcorelib_math_time&#45;&gt;vcorelib_io_decode -->
<g id="edge28" class="edge">
<title>vcorelib_math_time&#45;&gt;vcorelib_io_decode</title><style>.edge>path:hover{stroke-width:8}</style>
<path fill="none" stroke="black" d="M628.63,-322.93C598.82,-303.83 556.81,-276.88 555.01,-275.65 505.94,-241.96 496.22,-229.93 447.01,-196.45 425.44,-181.78 400.78,-166.2 380.79,-153.85"/>
<polygon fill="#0505e5" stroke="black" points="382.59,-150.85 372.24,-148.59 378.92,-156.81 382.59,-150.85"/>
</g>
<!-- vcorelib_math_time&#45;&gt;vcorelib_io_encode -->
<g id="edge29" class="edge">
<title>vcorelib_math_time&#45;&gt;vcorelib_io_encode</title><style>.edge>path:hover{stroke-width:8}</style>
<path fill="none" stroke="black" d="M630.51,-321.23C624.36,-317.48 617.67,-314.02 611.01,-311.65 451.72,-255.01 332.55,-377.2 238.01,-237.05"/>
</g>
<!-- vcorelib_math_time&#45;&gt;vcorelib_logging -->
<g id="edge30" class="edge">
<title>vcorelib_math_time&#45;&gt;vcorelib_logging</title><style>.edge>path:hover{stroke-width:8}</style>
<path fill="none" stroke="black" d="M665.09,-312.03C669.25,-291.1 673.28,-262.41 671.01,-237.05"/>
<path fill="none" stroke="black" d="M671.01,-235.05C668.31,-204.95 648.66,-176.32 631.5,-156.63"/>
<polygon fill="#0505e5" stroke="black" points="633.91,-154.08 624.59,-149.02 628.72,-158.78 633.91,-154.08"/>
</g>
<!-- vcorelib_math_time&#45;&gt;vcorelib_task -->
<g id="edge31" class="edge">
<title>vcorelib_math_time&#45;&gt;vcorelib_task</title><style>.edge>path:hover{stroke-width:8}</style>
<path fill="none" stroke="black" d="M677.66,-315.97C692.36,-295.55 711.93,-265.77 724.01,-237.05"/>
</g>
<!-- vcorelib_paths -->
<g id="node13" class="node">
<title>vcorelib_paths</title><style>.edge>path:hover{stroke-width:8}</style>
<ellipse fill="#2626d9" stroke="black" cx="407.01" cy="-427.87" rx="46.95" ry="18"/>
<text text-anchor="middle" x="407.01" y="-424.87" font-family="Helvetica,sans-Serif" font-size="10.00" fill="#ffffff">vcorelib.paths</text>
</g>
<!-- vcorelib_paths&#45;&gt;vcorelib_io -->
<g id="edge32" class="edge">
<title>vcorelib_paths&#45;&gt;vcorelib_io</title><style>.edge>path:hover{stroke-width:8}</style>
<path fill="none" stroke="black" d="M370.43,-416.59C312.97,-398.39 202.49,-354.77 148.01,-275.65 129.45,-248.69 99.4,-151.92 124.01,-130.34"/>
</g>
<!-- vcorelib_paths&#45;&gt;vcorelib_io_cache -->
<g id="edge33" class="edge">
<title>vcorelib_paths&#45;&gt;vcorelib_io_cache</title><style>.edge>path:hover{stroke-width:8}</style>
<path fill="none" stroke="black" d="M446.01,-341.76C444.89,-247.8 462,-222.93 446.01,-130.34"/>
<path fill="none" stroke="black" d="M446.01,-128.34C442.72,-110.23 442.27,-89.9 442.81,-72.6"/>
<polygon fill="#2626d9" stroke="black" points="446.32,-72.41 443.26,-62.27 439.33,-72.1 446.32,-72.41"/>
</g>
<!-- vcorelib_paths&#45;&gt;vcorelib_io_types -->
<g id="edge34" class="edge">
<title>vcorelib_paths&#45;&gt;vcorelib_io_types</title><style>.edge>path:hover{stroke-width:8}</style>
<path fill="none" stroke="black" d="M420.13,-410.42C431.57,-394.37 446.3,-368.78 446.01,-343.76"/>
<path fill="none" stroke="black" d="M446.01,-341.76C445.77,-321.91 407.73,-287.74 377.73,-263.84"/>
<polygon fill="#2626d9" stroke="black" points="379.54,-260.82 369.51,-257.4 375.22,-266.33 379.54,-260.82"/>
</g>
<!-- vcorelib_script -->
<g id="node14" class="node">
<title>vcorelib_script</title><style>.edge>path:hover{stroke-width:8}</style>
<ellipse fill="#4747c2" stroke="black" cx="889.01" cy="-512.98" rx="37.79" ry="22.76"/>
<text text-anchor="middle" x="889.01" y="-515.98" font-family="Helvetica,sans-Serif" font-size="10.00" fill="#ffffff">vcorelib.</text>
<text text-anchor="middle" x="889.01" y="-503.98" font-family="Helvetica,sans-Serif" font-size="10.00" fill="#ffffff">script</text>
</g>
<!-- vcorelib_script&#45;&gt;vcorelib_task_manager -->
<g id="edge35" class="edge">
<title>vcorelib_script&#45;&gt;vcorelib_task_manager</title><style>.edge>path:hover{stroke-width:8}</style>
<path fill="none" stroke="black" d="M874.2,-492.05C863.57,-475.94 850.81,-452.18 849.01,-428.87"/>
</g>
<!-- vcorelib_target -->
<g id="node15" class="node">
<title>vcorelib_target</title><style>.edge>path:hover{stroke-width:8}</style>
<ellipse fill="#2f2fdb" stroke="black" cx="703.01" cy="-512.98" rx="37.79" ry="22.76"/>
<text text-anchor="middle" x="703.01" y="-515.98" font-family="Helvetica,sans-Serif" font-size="10.00" fill="#ffffff">vcorelib.</text>
<text text-anchor="middle" x="703.01" y="-503.98" font-family="Helvetica,sans-Serif" font-size="10.00" fill="#ffffff">target</text>
</g>
<!-- vcorelib_target&#45;&gt;vcorelib_task -->
<g id="edge36" class="edge">
<title>vcorelib_target&#45;&gt;vcorelib_task</title><style>.edge>path:hover{stroke-width:8}</style>
<path fill="none" stroke="black" d="M706.65,-490.23C709.95,-473.12 715.6,-448.91 724.01,-428.87"/>
<path fill="none" stroke="black" d="M724.01,-426.87C738.3,-392.81 719.96,-380.48 724.01,-343.76"/>
</g>
<!-- vcorelib_target&#45;&gt;vcorelib_task_manager -->
<g id="edge37" class="edge">
<title>vcorelib_target&#45;&gt;vcorelib_task_manager</title><style>.edge>path:hover{stroke-width:8}</style>
<path fill="none" stroke="black" d="M724.01,-426.87C730.5,-411.4 763.07,-386.94 790.23,-368.56"/>
<polygon fill="#2f2fdb" stroke="black" points="792.45,-371.29 798.82,-362.82 788.56,-365.46 792.45,-371.29"/>
</g>
<!-- vcorelib_target_resolver -->
<g id="node16" class="node">
<title>vcorelib_target_resolver</title><style>.edge>path:hover{stroke-width:8}</style>
<ellipse fill="#3d3db8" stroke="black" cx="796.01" cy="-512.98" rx="37.79" ry="31.23"/>
<text text-anchor="middle" x="796.01" y="-521.98" font-family="Helvetica,sans-Serif" font-size="10.00" fill="#ffffff">vcorelib.</text>
<text text-anchor="middle" x="796.01" y="-509.98" font-family="Helvetica,sans-Serif" font-size="10.00" fill="#ffffff">target.</text>
<text text-anchor="middle" x="796.01" y="-497.98" font-family="Helvetica,sans-Serif" font-size="10.00" fill="#ffffff">resolver</text>
</g>
<!-- vcorelib_target_resolver&#45;&gt;vcorelib_task_manager -->
<g id="edge38" class="edge">
<title>vcorelib_target_resolver&#45;&gt;vcorelib_task_manager</title><style>.edge>path:hover{stroke-width:8}</style>
<path fill="none" stroke="black" d="M821.21,-489.62C835.73,-474.08 850.8,-452.08 849.01,-428.87"/>
<path fill="none" stroke="black" d="M849.01,-426.87C847.87,-412.23 844.63,-396.48 841.07,-382.68"/>
<polygon fill="#3d3db8" stroke="black" points="844.44,-381.75 838.45,-373.01 837.69,-383.58 844.44,-381.75"/>
</g>
</g>
</svg>
