<?xml version="1.0" encoding="UTF-8" standalone="no"?>
<!DOCTYPE svg PUBLIC "-//W3C//DTD SVG 1.1//EN"
 "http://www.w3.org/Graphics/SVG/1.1/DTD/svg11.dtd">
<!-- Generated by graphviz version 3.0.1~dev.20220405.0544 (20220405.0544)
 -->
<!-- Title: G Pages: 1 -->
<svg width="681pt" height="509pt"
 viewBox="0.00 0.00 681.13 508.90" xmlns="http://www.w3.org/2000/svg" xmlns:xlink="http://www.w3.org/1999/xlink">
<g id="graph0" class="graph" transform="scale(1 1) rotate(0) translate(4 504.9)">
<title>G</title><style>.edge>path:hover{stroke-width:8}</style>
<polygon fill="white" stroke="transparent" points="-4,4 -4,-504.9 677.13,-504.9 677.13,4 -4,4"/>
<!-- tomli -->
<g id="node1" class="node">
<title>tomli</title><style>.edge>path:hover{stroke-width:8}</style>
<ellipse fill="#b65353" stroke="black" cx="420.53" cy="-410.9" rx="27" ry="18"/>
<text text-anchor="middle" x="420.53" y="-407.9" font-family="Helvetica,sans-Serif" font-size="10.00" fill="#ffffff">tomli</text>
</g>
<!-- vcorelib_io_decode -->
<g id="node7" class="node">
<title>vcorelib_io_decode</title><style>.edge>path:hover{stroke-width:8}</style>
<ellipse fill="#303091" stroke="black" cx="368.53" cy="-129.34" rx="37.79" ry="31.23"/>
<text text-anchor="middle" x="368.53" y="-138.34" font-family="Helvetica,sans-Serif" font-size="10.00" fill="#ffffff">vcorelib.</text>
<text text-anchor="middle" x="368.53" y="-126.34" font-family="Helvetica,sans-Serif" font-size="10.00" fill="#ffffff">io.</text>
<text text-anchor="middle" x="368.53" y="-114.34" font-family="Helvetica,sans-Serif" font-size="10.00" fill="#ffffff">decode</text>
</g>
<!-- tomli&#45;&gt;vcorelib_io_decode -->
<g id="edge1" class="edge">
<title>tomli&#45;&gt;vcorelib_io_decode</title><style>.edge>path:hover{stroke-width:8}</style>
<path fill="none" stroke="black" d="M422.2,-392.78C424.98,-360.46 429.44,-288.35 420.53,-228.56"/>
</g>
<!-- tomli_w -->
<g id="node2" class="node">
<title>tomli_w</title><style>.edge>path:hover{stroke-width:8}</style>
<ellipse fill="#40c040" stroke="black" cx="533.53" cy="-410.9" rx="30.01" ry="18"/>
<text text-anchor="middle" x="533.53" y="-407.9" font-family="Helvetica,sans-Serif" font-size="10.00" fill="#000000">tomli_w</text>
</g>
<!-- vcorelib_io_encode -->
<g id="node8" class="node">
<title>vcorelib_io_encode</title><style>.edge>path:hover{stroke-width:8}</style>
<ellipse fill="#303091" stroke="black" cx="461.53" cy="-129.34" rx="37.79" ry="31.23"/>
<text text-anchor="middle" x="461.53" y="-138.34" font-family="Helvetica,sans-Serif" font-size="10.00" fill="#ffffff">vcorelib.</text>
<text text-anchor="middle" x="461.53" y="-126.34" font-family="Helvetica,sans-Serif" font-size="10.00" fill="#ffffff">io.</text>
<text text-anchor="middle" x="461.53" y="-114.34" font-family="Helvetica,sans-Serif" font-size="10.00" fill="#ffffff">encode</text>
</g>
<!-- tomli_w&#45;&gt;vcorelib_io_encode -->
<g id="edge2" class="edge">
<title>tomli_w&#45;&gt;vcorelib_io_encode</title><style>.edge>path:hover{stroke-width:8}</style>
<path fill="none" stroke="black" d="M531.92,-392.9C530.69,-376 529.78,-349.42 533.53,-326.79"/>
</g>
<!-- vcorelib_dict -->
<g id="node3" class="node">
<title>vcorelib_dict</title><style>.edge>path:hover{stroke-width:8}</style>
<ellipse fill="#1010f9" stroke="black" cx="420.53" cy="-482.9" rx="41.24" ry="18"/>
<text text-anchor="middle" x="420.53" y="-479.9" font-family="Helvetica,sans-Serif" font-size="10.00" fill="#ffffff">vcorelib.dict</text>
</g>
<!-- vcorelib_io -->
<g id="node4" class="node">
<title>vcorelib_io</title><style>.edge>path:hover{stroke-width:8}</style>
<ellipse fill="#0909b8" stroke="black" cx="368.53" cy="-31.11" rx="36.89" ry="18"/>
<text text-anchor="middle" x="368.53" y="-28.11" font-family="Helvetica,sans-Serif" font-size="10.00" fill="#ffffff">vcorelib.io</text>
</g>
<!-- vcorelib_dict&#45;&gt;vcorelib_io -->
<g id="edge3" class="edge">
<title>vcorelib_dict&#45;&gt;vcorelib_io</title><style>.edge>path:hover{stroke-width:8}</style>
<path fill="none" stroke="black" d="M461.47,-480.11C497.34,-476.12 547.53,-464.1 572.53,-428.9 607.44,-379.76 789.28,-610.23 556.53,-130.34"/>
</g>
<!-- vcorelib_io_cache -->
<g id="node6" class="node">
<title>vcorelib_io_cache</title><style>.edge>path:hover{stroke-width:8}</style>
<ellipse fill="#373781" stroke="black" cx="231.53" cy="-31.11" rx="37.79" ry="31.23"/>
<text text-anchor="middle" x="231.53" y="-40.11" font-family="Helvetica,sans-Serif" font-size="10.00" fill="#ffffff">vcorelib.</text>
<text text-anchor="middle" x="231.53" y="-28.11" font-family="Helvetica,sans-Serif" font-size="10.00" fill="#ffffff">io.</text>
<text text-anchor="middle" x="231.53" y="-16.11" font-family="Helvetica,sans-Serif" font-size="10.00" fill="#ffffff">cache</text>
</g>
<!-- vcorelib_dict&#45;&gt;vcorelib_io_cache -->
<g id="edge4" class="edge">
<title>vcorelib_dict&#45;&gt;vcorelib_io_cache</title><style>.edge>path:hover{stroke-width:8}</style>
<path fill="none" stroke="black" d="M379.62,-479.54C290.96,-473.93 83.94,-458.05 20.53,-428.9 10.23,-424.17 4.32,-422.88 1.53,-411.9"/>
<path fill="none" stroke="black" d="M1.53,-409.9C-10.71,-361.68 75.17,-376.53 76.53,-326.79"/>
<path fill="none" stroke="black" d="M76.53,-324.79C78.94,-236.85 0.99,-209.42 39.53,-130.34"/>
<path fill="none" stroke="black" d="M39.53,-128.34C46.18,-113.98 46.29,-108.26 58.53,-98.23 95.36,-68.05 147.46,-50.66 184.85,-41.37"/>
<polygon fill="#1010f9" stroke="black" points="186.06,-44.67 194.98,-38.95 184.44,-37.87 186.06,-44.67"/>
</g>
<!-- vcorelib_dict&#45;&gt;vcorelib_io_decode -->
<g id="edge5" class="edge">
<title>vcorelib_dict&#45;&gt;vcorelib_io_decode</title><style>.edge>path:hover{stroke-width:8}</style>
<path fill="none" stroke="black" d="M382.53,-324.79C379.82,-278.89 427.75,-273.97 420.53,-228.56"/>
<path fill="none" stroke="black" d="M420.53,-226.56C417,-204.37 405.62,-182.12 394.4,-164.62"/>
<polygon fill="#1010f9" stroke="black" points="397.05,-162.3 388.59,-155.93 391.23,-166.19 397.05,-162.3"/>
</g>
<!-- vcorelib_dict&#45;&gt;vcorelib_io_encode -->
<g id="edge6" class="edge">
<title>vcorelib_dict&#45;&gt;vcorelib_io_encode</title><style>.edge>path:hover{stroke-width:8}</style>
<path fill="none" stroke="black" d="M433.56,-465.79C462.69,-429.51 530.79,-343.31 533.53,-326.79"/>
<path fill="none" stroke="black" d="M533.53,-324.79C543.05,-266.4 510.68,-202.85 486.28,-164.82"/>
<polygon fill="#1010f9" stroke="black" points="489.01,-162.61 480.59,-156.19 483.17,-166.46 489.01,-162.61"/>
</g>
<!-- vcorelib_io_types -->
<g id="node9" class="node">
<title>vcorelib_io_types</title><style>.edge>path:hover{stroke-width:8}</style>
<ellipse fill="#0b0bdf" stroke="black" cx="316.53" cy="-227.56" rx="37.79" ry="31.23"/>
<text text-anchor="middle" x="316.53" y="-236.56" font-family="Helvetica,sans-Serif" font-size="10.00" fill="#ffffff">vcorelib.</text>
<text text-anchor="middle" x="316.53" y="-224.56" font-family="Helvetica,sans-Serif" font-size="10.00" fill="#ffffff">io.</text>
<text text-anchor="middle" x="316.53" y="-212.56" font-family="Helvetica,sans-Serif" font-size="10.00" fill="#ffffff">types</text>
</g>
<!-- vcorelib_dict&#45;&gt;vcorelib_io_types -->
<g id="edge7" class="edge">
<title>vcorelib_dict&#45;&gt;vcorelib_io_types</title><style>.edge>path:hover{stroke-width:8}</style>
<path fill="none" stroke="black" d="M405.77,-465.58C397.85,-455.72 388.85,-442.47 384.53,-428.9 370.76,-385.65 381.27,-372.16 382.53,-326.79"/>
<path fill="none" stroke="black" d="M382.53,-324.79C381.03,-299.36 365.08,-275.7 349.24,-258.2"/>
<polygon fill="#1010f9" stroke="black" points="351.45,-255.44 342.02,-250.61 346.37,-260.27 351.45,-255.44"/>
</g>
<!-- vcorelib_math_time -->
<g id="node12" class="node">
<title>vcorelib_math_time</title><style>.edge>path:hover{stroke-width:8}</style>
<ellipse fill="#0b0bdf" stroke="black" cx="142.53" cy="-325.79" rx="37.79" ry="31.23"/>
<text text-anchor="middle" x="142.53" y="-334.79" font-family="Helvetica,sans-Serif" font-size="10.00" fill="#ffffff">vcorelib.</text>
<text text-anchor="middle" x="142.53" y="-322.79" font-family="Helvetica,sans-Serif" font-size="10.00" fill="#ffffff">math.</text>
<text text-anchor="middle" x="142.53" y="-310.79" font-family="Helvetica,sans-Serif" font-size="10.00" fill="#ffffff">time</text>
</g>
<!-- vcorelib_dict&#45;&gt;vcorelib_math_time -->
<g id="edge8" class="edge">
<title>vcorelib_dict&#45;&gt;vcorelib_math_time</title><style>.edge>path:hover{stroke-width:8}</style>
<path fill="none" stroke="black" d="M1.53,-409.9C-1.26,-398.92 11.19,-399.32 20.53,-392.9 49.36,-373.08 59.83,-373.67 90.53,-356.9 94.77,-354.59 99.18,-352.12 103.55,-349.64"/>
<polygon fill="#1010f9" stroke="black" points="105.49,-352.57 112.43,-344.56 102.01,-346.49 105.49,-352.57"/>
</g>
<!-- vcorelib_io_archive -->
<g id="node5" class="node">
<title>vcorelib_io_archive</title><style>.edge>path:hover{stroke-width:8}</style>
<ellipse fill="#3535a1" stroke="black" cx="198.53" cy="-129.34" rx="37.79" ry="31.23"/>
<text text-anchor="middle" x="198.53" y="-138.34" font-family="Helvetica,sans-Serif" font-size="10.00" fill="#ffffff">vcorelib.</text>
<text text-anchor="middle" x="198.53" y="-126.34" font-family="Helvetica,sans-Serif" font-size="10.00" fill="#ffffff">io.</text>
<text text-anchor="middle" x="198.53" y="-114.34" font-family="Helvetica,sans-Serif" font-size="10.00" fill="#ffffff">archive</text>
</g>
<!-- vcorelib_io_archive&#45;&gt;vcorelib_io_cache -->
<g id="edge9" class="edge">
<title>vcorelib_io_archive&#45;&gt;vcorelib_io_cache</title><style>.edge>path:hover{stroke-width:8}</style>
<path fill="none" stroke="black" d="M208.52,-99.21C211.59,-90.26 215.02,-80.26 218.27,-70.78"/>
<polygon fill="#3535a1" stroke="black" points="221.64,-71.74 221.57,-61.15 215.02,-69.47 221.64,-71.74"/>
</g>
<!-- vcorelib_io_decode&#45;&gt;vcorelib_io -->
<g id="edge10" class="edge">
<title>vcorelib_io_decode&#45;&gt;vcorelib_io</title><style>.edge>path:hover{stroke-width:8}</style>
<path fill="none" stroke="black" d="M368.53,-98.16C368.53,-85.83 368.53,-71.68 368.53,-59.64"/>
<polygon fill="#303091" stroke="black" points="372.03,-59.3 368.53,-49.3 365.03,-59.3 372.03,-59.3"/>
</g>
<!-- vcorelib_io_encode&#45;&gt;vcorelib_io -->
<g id="edge11" class="edge">
<title>vcorelib_io_encode&#45;&gt;vcorelib_io</title><style>.edge>path:hover{stroke-width:8}</style>
<path fill="none" stroke="black" d="M438.54,-104.55C423.98,-89.48 405.23,-70.09 390.81,-55.16"/>
<polygon fill="#303091" stroke="black" points="393.17,-52.57 383.7,-47.81 388.13,-57.43 393.17,-52.57"/>
</g>
<!-- vcorelib_io_types&#45;&gt;vcorelib_io -->
<g id="edge12" class="edge">
<title>vcorelib_io_types&#45;&gt;vcorelib_io</title><style>.edge>path:hover{stroke-width:8}</style>
<path fill="none" stroke="black" d="M302.53,-128.34C300.05,-98.71 322.11,-71.42 341.39,-53.53"/>
<polygon fill="#0b0bdf" stroke="black" points="343.95,-55.94 349.12,-46.69 339.31,-50.69 343.95,-55.94"/>
</g>
<!-- vcorelib_io_types&#45;&gt;vcorelib_io_archive -->
<g id="edge13" class="edge">
<title>vcorelib_io_types&#45;&gt;vcorelib_io_archive</title><style>.edge>path:hover{stroke-width:8}</style>
<path fill="none" stroke="black" d="M290.34,-205.21C273.5,-191.48 251.43,-173.48 233.15,-158.57"/>
<polygon fill="#0b0bdf" stroke="black" points="235.02,-155.57 225.05,-151.97 230.59,-161 235.02,-155.57"/>
</g>
<!-- vcorelib_io_types&#45;&gt;vcorelib_io_cache -->
<g id="edge14" class="edge">
<title>vcorelib_io_types&#45;&gt;vcorelib_io_cache</title><style>.edge>path:hover{stroke-width:8}</style>
<path fill="none" stroke="black" d="M311.17,-196.34C308.05,-177.43 304.39,-152.54 302.53,-130.34"/>
<path fill="none" stroke="black" d="M302.53,-128.34C300.32,-101.91 282.63,-77.89 265.47,-60.47"/>
<polygon fill="#0b0bdf" stroke="black" points="267.81,-57.86 258.19,-53.41 262.94,-62.89 267.81,-57.86"/>
</g>
<!-- vcorelib_io_types&#45;&gt;vcorelib_io_decode -->
<g id="edge15" class="edge">
<title>vcorelib_io_types&#45;&gt;vcorelib_io_decode</title><style>.edge>path:hover{stroke-width:8}</style>
<path fill="none" stroke="black" d="M331.43,-198.99C336.82,-189.02 342.98,-177.61 348.72,-166.99"/>
<polygon fill="#0b0bdf" stroke="black" points="351.95,-168.38 353.63,-157.92 345.79,-165.05 351.95,-168.38"/>
</g>
<!-- vcorelib_io_types&#45;&gt;vcorelib_io_encode -->
<g id="edge16" class="edge">
<title>vcorelib_io_types&#45;&gt;vcorelib_io_encode</title><style>.edge>path:hover{stroke-width:8}</style>
<path fill="none" stroke="black" d="M345.52,-207.32C368.15,-192.31 399.74,-171.35 424.24,-155.08"/>
<polygon fill="#0b0bdf" stroke="black" points="426.19,-157.99 432.59,-149.55 422.32,-152.16 426.19,-157.99"/>
</g>
<!-- vcorelib_logging -->
<g id="node10" class="node">
<title>vcorelib_logging</title><style>.edge>path:hover{stroke-width:8}</style>
<ellipse fill="#4646a4" stroke="black" cx="105.53" cy="-129.34" rx="37.79" ry="22.76"/>
<text text-anchor="middle" x="105.53" y="-132.34" font-family="Helvetica,sans-Serif" font-size="10.00" fill="#ffffff">vcorelib.</text>
<text text-anchor="middle" x="105.53" y="-120.34" font-family="Helvetica,sans-Serif" font-size="10.00" fill="#ffffff">logging</text>
</g>
<!-- vcorelib_math -->
<g id="node11" class="node">
<title>vcorelib_math</title><style>.edge>path:hover{stroke-width:8}</style>
<ellipse fill="#1010f9" stroke="black" cx="243.53" cy="-325.79" rx="45.26" ry="18"/>
<text text-anchor="middle" x="243.53" y="-322.79" font-family="Helvetica,sans-Serif" font-size="10.00" fill="#ffffff">vcorelib.math</text>
</g>
<!-- vcorelib_math&#45;&gt;vcorelib_io_archive -->
<g id="edge17" class="edge">
<title>vcorelib_math&#45;&gt;vcorelib_io_archive</title><style>.edge>path:hover{stroke-width:8}</style>
<path fill="none" stroke="black" d="M222.85,-309.5C202.2,-292.28 173.63,-262.26 174.53,-228.56"/>
</g>
<!-- vcorelib_math&#45;&gt;vcorelib_io_cache -->
<g id="edge18" class="edge">
<title>vcorelib_math&#45;&gt;vcorelib_io_cache</title><style>.edge>path:hover{stroke-width:8}</style>
<path fill="none" stroke="black" d="M242.18,-307.58C241.22,-287.9 241.43,-255.01 250.53,-228.56"/>
<path fill="none" stroke="black" d="M250.53,-226.56C268.33,-174.82 256.15,-111.07 244.71,-70.99"/>
<polygon fill="#1010f9" stroke="black" points="248.04,-69.92 241.83,-61.34 241.33,-71.92 248.04,-69.92"/>
</g>
<!-- vcorelib_math&#45;&gt;vcorelib_io_decode -->
<g id="edge19" class="edge">
<title>vcorelib_math&#45;&gt;vcorelib_io_decode</title><style>.edge>path:hover{stroke-width:8}</style>
<path fill="none" stroke="black" d="M250.53,-226.56C262.75,-191.04 297.77,-165.3 326.51,-149.43"/>
<polygon fill="#1010f9" stroke="black" points="328.38,-152.4 335.58,-144.63 325.11,-146.22 328.38,-152.4"/>
</g>
<!-- vcorelib_math&#45;&gt;vcorelib_io_encode -->
<g id="edge20" class="edge">
<title>vcorelib_math&#45;&gt;vcorelib_io_encode</title><style>.edge>path:hover{stroke-width:8}</style>
<path fill="none" stroke="black" d="M274.86,-312.76C300.83,-301.64 337.56,-283.15 363.53,-258.68 375.05,-247.82 370.28,-238.59 382.53,-228.56"/>
</g>
<!-- vcorelib_math&#45;&gt;vcorelib_logging -->
<g id="edge21" class="edge">
<title>vcorelib_math&#45;&gt;vcorelib_logging</title><style>.edge>path:hover{stroke-width:8}</style>
<path fill="none" stroke="black" d="M219.39,-310.26C201.21,-298.31 176.73,-279.92 160.53,-258.68 138.11,-229.28 122.88,-189.36 114.24,-161.89"/>
<polygon fill="#1010f9" stroke="black" points="117.49,-160.57 111.24,-152.01 110.8,-162.6 117.49,-160.57"/>
</g>
<!-- vcorelib_math_time&#45;&gt;vcorelib_io_archive -->
<g id="edge22" class="edge">
<title>vcorelib_math_time&#45;&gt;vcorelib_io_archive</title><style>.edge>path:hover{stroke-width:8}</style>
<path fill="none" stroke="black" d="M156.79,-296.54C165.03,-277.78 173.89,-252.32 174.53,-228.56"/>
<path fill="none" stroke="black" d="M174.53,-226.56C175.05,-207.28 179.71,-186.45 184.78,-169.12"/>
<polygon fill="#0b0bdf" stroke="black" points="188.19,-169.94 187.79,-159.36 181.5,-167.88 188.19,-169.94"/>
</g>
<!-- vcorelib_math_time&#45;&gt;vcorelib_io_cache -->
<g id="edge23" class="edge">
<title>vcorelib_math_time&#45;&gt;vcorelib_io_cache</title><style>.edge>path:hover{stroke-width:8}</style>
<path fill="none" stroke="black" d="M120.34,-300.33C105.23,-282.01 86.41,-255.57 77.53,-228.56"/>
<path fill="none" stroke="black" d="M77.53,-226.56C63.17,-182.88 19.39,-171.67 39.53,-130.34"/>
</g>
<!-- vcorelib_math_time&#45;&gt;vcorelib_io_decode -->
<g id="edge24" class="edge">
<title>vcorelib_math_time&#45;&gt;vcorelib_io_decode</title><style>.edge>path:hover{stroke-width:8}</style>
<path fill="none" stroke="black" d="M160.78,-298.52C185.36,-263.33 227.14,-204.38 236.53,-196.45 262.71,-174.33 297.56,-157.28 324.88,-146.04"/>
<polygon fill="#0b0bdf" stroke="black" points="326.22,-149.27 334.2,-142.31 323.62,-142.77 326.22,-149.27"/>
</g>
<!-- vcorelib_math_time&#45;&gt;vcorelib_io_encode -->
<g id="edge25" class="edge">
<title>vcorelib_math_time&#45;&gt;vcorelib_io_encode</title><style>.edge>path:hover{stroke-width:8}</style>
<path fill="none" stroke="black" d="M170.45,-304.56C176.52,-300.84 183.07,-297.31 189.53,-294.68 262.66,-264.88 298.62,-303.65 363.53,-258.68 376.54,-249.66 370.28,-238.59 382.53,-228.56"/>
<path fill="none" stroke="black" d="M382.53,-226.56C403.9,-209.08 423.61,-185.08 438,-165.42"/>
<polygon fill="#0b0bdf" stroke="black" points="440.85,-167.46 443.83,-157.3 435.16,-163.38 440.85,-167.46"/>
</g>
<!-- vcorelib_math_time&#45;&gt;vcorelib_logging -->
<g id="edge26" class="edge">
<title>vcorelib_math_time&#45;&gt;vcorelib_logging</title><style>.edge>path:hover{stroke-width:8}</style>
<path fill="none" stroke="black" d="M77.53,-226.56C70.23,-204.37 78.3,-178.97 87.62,-159.85"/>
<polygon fill="#0b0bdf" stroke="black" points="90.85,-161.22 92.38,-150.74 84.64,-157.98 90.85,-161.22"/>
</g>
<!-- vcorelib_paths -->
<g id="node13" class="node">
<title>vcorelib_paths</title><style>.edge>path:hover{stroke-width:8}</style>
<ellipse fill="#2626d9" stroke="black" cx="76.53" cy="-410.9" rx="46.95" ry="18"/>
<text text-anchor="middle" x="76.53" y="-407.9" font-family="Helvetica,sans-Serif" font-size="10.00" fill="#ffffff">vcorelib.paths</text>
</g>
<!-- vcorelib_paths&#45;&gt;vcorelib_io -->
<g id="edge27" class="edge">
<title>vcorelib_paths&#45;&gt;vcorelib_io</title><style>.edge>path:hover{stroke-width:8}</style>
<path fill="none" stroke="black" d="M122.34,-406.94C173.54,-402.1 257.74,-389.49 322.53,-356.9 387.19,-324.37 586.68,-196.14 556.53,-130.34"/>
<path fill="none" stroke="black" d="M556.53,-128.34C530.15,-73.94 459.75,-49.69 412.98,-39.33"/>
<polygon fill="#2626d9" stroke="black" points="413.6,-35.88 403.1,-37.27 412.17,-42.74 413.6,-35.88"/>
</g>
<!-- vcorelib_paths&#45;&gt;vcorelib_io_cache -->
<g id="edge28" class="edge">
<title>vcorelib_paths&#45;&gt;vcorelib_io_cache</title><style>.edge>path:hover{stroke-width:8}</style>
<path fill="none" stroke="black" d="M76.26,-392.71C76.05,-375.9 75.91,-349.58 76.53,-326.79"/>
</g>
<!-- vcorelib_paths&#45;&gt;vcorelib_io_types -->
<g id="edge29" class="edge">
<title>vcorelib_paths&#45;&gt;vcorelib_io_types</title><style>.edge>path:hover{stroke-width:8}</style>
<path fill="none" stroke="black" d="M120.92,-405.11C178.42,-397.96 274.09,-382.51 297.53,-356.9 318.97,-333.48 322.56,-296.93 321.45,-268.81"/>
<polygon fill="#2626d9" stroke="black" points="324.93,-268.27 320.83,-258.5 317.94,-268.69 324.93,-268.27"/>
</g>
</g>
</svg>
