<?xml version="1.0" encoding="UTF-8" standalone="no"?>
<!DOCTYPE svg PUBLIC "-//W3C//DTD SVG 1.1//EN"
 "http://www.w3.org/Graphics/SVG/1.1/DTD/svg11.dtd">
<!-- Generated by graphviz version 2.38.0 (20140413.2041)
 -->
<!-- Title: G Pages: 1 -->
<svg width="1277pt" height="992pt"
 viewBox="0.00 0.00 1277.39 992.42" xmlns="http://www.w3.org/2000/svg" xmlns:xlink="http://www.w3.org/1999/xlink">
<g id="graph0" class="graph" transform="scale(1 1) rotate(0) translate(4 988.418)">
<title>G</title><style>.edge>path:hover{stroke-width:8}</style>
<polygon fill="white" stroke="none" points="-4,4 -4,-988.418 1273.39,-988.418 1273.39,4 -4,4"/>
<!-- __main__ -->
<g id="node1" class="node"><title>__main__</title><style>.edge>path:hover{stroke-width:8}</style>
<ellipse fill="#6b2e2e" stroke="black" cx="286.917" cy="-966.418" rx="34.9638" ry="18"/>
<text text-anchor="middle" x="286.917" y="-963.918" font-family="Helvetica,sans-Serif" font-size="10.00" fill="#ffffff">__main__</text>
</g>
<!-- pkg_resources -->
<g id="node3" class="node"><title>pkg_resources</title><style>.edge>path:hover{stroke-width:8}</style>
<ellipse fill="#3db83d" stroke="black" cx="286.917" cy="-894.418" rx="47.1863" ry="18"/>
<text text-anchor="middle" x="286.917" y="-891.918" font-family="Helvetica,sans-Serif" font-size="10.00" fill="#000000">pkg_resources</text>
</g>
<!-- __main__&#45;&gt;pkg_resources -->
<g id="edge1" class="edge"><title>__main__&#45;&gt;pkg_resources</title><style>.edge>path:hover{stroke-width:8}</style>
<path fill="none" stroke="black" d="M286.917,-948.115C286.917,-940.401 286.917,-931.131 286.917,-922.531"/>
<polygon fill="#6b2e2e" stroke="black" points="290.417,-922.523 286.917,-912.523 283.417,-922.523 290.417,-922.523"/>
</g>
<!-- fastjsonschema -->
<g id="node2" class="node"><title>fastjsonschema</title><style>.edge>path:hover{stroke-width:8}</style>
<ellipse fill="#b6b653" stroke="black" cx="134.917" cy="-434.144" rx="50.7503" ry="18"/>
<text text-anchor="middle" x="134.917" y="-431.644" font-family="Helvetica,sans-Serif" font-size="10.00" fill="#000000">fastjsonschema</text>
</g>
<!-- vcorelib_schemas -->
<g id="node22" class="node"><title>vcorelib_schemas</title><style>.edge>path:hover{stroke-width:8}</style>
<ellipse fill="#a838a8" stroke="black" cx="55.9173" cy="-246.179" rx="39.6962" ry="21.4286"/>
<text text-anchor="middle" x="55.9173" y="-249.179" font-family="Helvetica,sans-Serif" font-size="10.00" fill="#ffffff">vcorelib.</text>
<text text-anchor="middle" x="55.9173" y="-238.179" font-family="Helvetica,sans-Serif" font-size="10.00" fill="#ffffff">schemas</text>
</g>
<!-- fastjsonschema&#45;&gt;vcorelib_schemas -->
<g id="edge2" class="edge"><title>fastjsonschema&#45;&gt;vcorelib_schemas</title><style>.edge>path:hover{stroke-width:8}</style>
<path fill="none" stroke="black" d="M127.767,-416.313C114.322,-384.662 85.1216,-315.925 68.38,-276.516"/>
<polygon fill="#b6b653" stroke="black" points="71.5406,-275.004 64.4092,-267.169 65.0978,-277.741 71.5406,-275.004"/>
</g>
<!-- vcorelib_paths -->
<g id="node20" class="node"><title>vcorelib_paths</title><style>.edge>path:hover{stroke-width:8}</style>
<ellipse fill="#ef06ef" stroke="black" cx="286.917" cy="-728.436" rx="45.1548" ry="18"/>
<text text-anchor="middle" x="286.917" y="-725.936" font-family="Helvetica,sans-Serif" font-size="10.00" fill="#ffffff">vcorelib.paths</text>
</g>
<!-- pkg_resources&#45;&gt;vcorelib_paths -->
<g id="edge3" class="edge"><title>pkg_resources&#45;&gt;vcorelib_paths</title><style>.edge>path:hover{stroke-width:8}</style>
<path fill="none" stroke="black" d="M286.917,-876.179C286.917,-847.686 286.917,-790.55 286.917,-756.59"/>
<polygon fill="#3db83d" stroke="black" points="290.417,-756.444 286.917,-746.444 283.417,-756.444 290.417,-756.444"/>
</g>
<!-- tomli -->
<g id="node4" class="node"><title>tomli</title><style>.edge>path:hover{stroke-width:8}</style>
<ellipse fill="#53b6b6" stroke="black" cx="468.917" cy="-728.436" rx="27" ry="18"/>
<text text-anchor="middle" x="468.917" y="-725.936" font-family="Helvetica,sans-Serif" font-size="10.00" fill="#000000">tomli</text>
</g>
<!-- vcorelib_io_decode -->
<g id="node12" class="node"><title>vcorelib_io_decode</title><style>.edge>path:hover{stroke-width:8}</style>
<ellipse fill="#913091" stroke="black" cx="468.917" cy="-434.144" rx="37.4533" ry="28.9828"/>
<text text-anchor="middle" x="468.917" y="-442.644" font-family="Helvetica,sans-Serif" font-size="10.00" fill="#ffffff">vcorelib.</text>
<text text-anchor="middle" x="468.917" y="-431.644" font-family="Helvetica,sans-Serif" font-size="10.00" fill="#ffffff">io.</text>
<text text-anchor="middle" x="468.917" y="-420.644" font-family="Helvetica,sans-Serif" font-size="10.00" fill="#ffffff">decode</text>
</g>
<!-- tomli&#45;&gt;vcorelib_io_decode -->
<g id="edge4" class="edge"><title>tomli&#45;&gt;vcorelib_io_decode</title><style>.edge>path:hover{stroke-width:8}</style>
<path fill="none" stroke="black" d="M468.917,-710.027C468.917,-663.925 468.917,-537.825 468.917,-473.695"/>
<polygon fill="#53b6b6" stroke="black" points="472.417,-473.586 468.917,-463.586 465.417,-473.586 472.417,-473.586"/>
</g>
<!-- tomli_w -->
<g id="node5" class="node"><title>tomli_w</title><style>.edge>path:hover{stroke-width:8}</style>
<ellipse fill="#4040c0" stroke="black" cx="681.917" cy="-728.436" rx="29.3664" ry="18"/>
<text text-anchor="middle" x="681.917" y="-725.936" font-family="Helvetica,sans-Serif" font-size="10.00" fill="#ffffff">tomli_w</text>
</g>
<!-- vcorelib_io_encode -->
<g id="node13" class="node"><title>vcorelib_io_encode</title><style>.edge>path:hover{stroke-width:8}</style>
<ellipse fill="#913091" stroke="black" cx="561.917" cy="-434.144" rx="37.4533" ry="28.9828"/>
<text text-anchor="middle" x="561.917" y="-442.644" font-family="Helvetica,sans-Serif" font-size="10.00" fill="#ffffff">vcorelib.</text>
<text text-anchor="middle" x="561.917" y="-431.644" font-family="Helvetica,sans-Serif" font-size="10.00" fill="#ffffff">io.</text>
<text text-anchor="middle" x="561.917" y="-420.644" font-family="Helvetica,sans-Serif" font-size="10.00" fill="#ffffff">encode</text>
</g>
<!-- tomli_w&#45;&gt;vcorelib_io_encode -->
<g id="edge5" class="edge"><title>tomli_w&#45;&gt;vcorelib_io_encode</title><style>.edge>path:hover{stroke-width:8}</style>
<path fill="none" stroke="black" d="M684.458,-710.269C689.355,-671.191 696.47,-573.815 657.917,-506.914 644.425,-483.5 630.559,-487.097 608.917,-470.914 604.814,-467.845 600.522,-464.612 596.271,-461.395"/>
<polygon fill="#4040c0" stroke="black" points="598.289,-458.533 588.207,-455.276 594.058,-464.109 598.289,-458.533"/>
</g>
<!-- vcorelib_dict -->
<g id="node6" class="node"><title>vcorelib_dict</title><style>.edge>path:hover{stroke-width:8}</style>
<ellipse fill="#f910f9" stroke="black" cx="578.917" cy="-811.427" rx="40.7358" ry="18"/>
<text text-anchor="middle" x="578.917" y="-808.927" font-family="Helvetica,sans-Serif" font-size="10.00" fill="#ffffff">vcorelib.dict</text>
</g>
<!-- vcorelib_io -->
<g id="node9" class="node"><title>vcorelib_io</title><style>.edge>path:hover{stroke-width:8}</style>
<ellipse fill="#bd04bd" stroke="black" cx="339.917" cy="-332.383" rx="35.8171" ry="18"/>
<text text-anchor="middle" x="339.917" y="-329.883" font-family="Helvetica,sans-Serif" font-size="10.00" fill="#ffffff">vcorelib.io</text>
</g>
<!-- vcorelib_dict&#45;&gt;vcorelib_io -->
<g id="edge6" class="edge"><title>vcorelib_dict&#45;&gt;vcorelib_io</title><style>.edge>path:hover{stroke-width:8}</style>
<path fill="none" stroke="black" d="M542.201,-803.543C509.066,-795.449 461.294,-778.789 432.917,-746.436 402.406,-711.648 413.481,-691.717 403.917,-646.444"/>
<path fill="none" stroke="black" d="M403.917,-644.444C392.876,-611.204 374.79,-611.147 357.917,-580.453 332.644,-534.476 323.876,-522.425 313.917,-470.914 307.713,-438.824 307.65,-429.452 313.917,-397.375 316.461,-384.358 321.66,-370.644 326.745,-359.265"/>
<polygon fill="#f910f9" stroke="black" points="330.039,-360.483 331.114,-349.943 323.701,-357.512 330.039,-360.483"/>
</g>
<!-- vcorelib_io_cache -->
<g id="node11" class="node"><title>vcorelib_io_cache</title><style>.edge>path:hover{stroke-width:8}</style>
<ellipse fill="#813781" stroke="black" cx="561.917" cy="-332.383" rx="37.4533" ry="28.9828"/>
<text text-anchor="middle" x="561.917" y="-340.883" font-family="Helvetica,sans-Serif" font-size="10.00" fill="#ffffff">vcorelib.</text>
<text text-anchor="middle" x="561.917" y="-329.883" font-family="Helvetica,sans-Serif" font-size="10.00" fill="#ffffff">io.</text>
<text text-anchor="middle" x="561.917" y="-318.883" font-family="Helvetica,sans-Serif" font-size="10.00" fill="#ffffff">cache</text>
</g>
<!-- vcorelib_dict&#45;&gt;vcorelib_io_cache -->
<g id="edge7" class="edge"><title>vcorelib_dict&#45;&gt;vcorelib_io_cache</title><style>.edge>path:hover{stroke-width:8}</style>
<path fill="none" stroke="black" d="M1007.92,-727.436C1025.77,-699.682 1044.74,-703.739 1059.92,-674.436 1117.05,-564.12 1179.38,-490.29 1096.92,-397.375 1064.76,-361.138 734.26,-341.642 609.365,-335.524"/>
<polygon fill="#f910f9" stroke="black" points="609.488,-332.026 599.331,-335.04 609.15,-339.018 609.488,-332.026"/>
</g>
<!-- vcorelib_dict&#45;&gt;vcorelib_io_decode -->
<g id="edge8" class="edge"><title>vcorelib_dict&#45;&gt;vcorelib_io_decode</title><style>.edge>path:hover{stroke-width:8}</style>
<path fill="none" stroke="black" d="M580.661,-793.057C583.295,-762.976 587.157,-699.328 578.917,-646.444"/>
<path fill="none" stroke="black" d="M578.917,-644.444C572.486,-610.013 551.397,-610.208 532.917,-580.453 523.42,-565.161 518.846,-561.996 513.917,-544.683"/>
<path fill="none" stroke="black" d="M513.917,-542.683C506.885,-517.982 495.766,-491.344 486.341,-470.76"/>
<polygon fill="#f910f9" stroke="black" points="489.408,-469.055 482.014,-461.467 483.063,-472.01 489.408,-469.055"/>
</g>
<!-- vcorelib_dict&#45;&gt;vcorelib_io_encode -->
<g id="edge9" class="edge"><title>vcorelib_dict&#45;&gt;vcorelib_io_encode</title><style>.edge>path:hover{stroke-width:8}</style>
<path fill="none" stroke="black" d="M513.917,-542.683C506.34,-516.068 520.193,-487.535 534.934,-466.552"/>
<polygon fill="#f910f9" stroke="black" points="537.882,-468.452 541.023,-458.334 532.257,-464.285 537.882,-468.452"/>
</g>
<!-- vcorelib_io_types -->
<g id="node14" class="node"><title>vcorelib_io_types</title><style>.edge>path:hover{stroke-width:8}</style>
<ellipse fill="#e505e5" stroke="black" cx="403.917" cy="-543.683" rx="37.4533" ry="28.9828"/>
<text text-anchor="middle" x="403.917" y="-552.183" font-family="Helvetica,sans-Serif" font-size="10.00" fill="#ffffff">vcorelib.</text>
<text text-anchor="middle" x="403.917" y="-541.183" font-family="Helvetica,sans-Serif" font-size="10.00" fill="#ffffff">io.</text>
<text text-anchor="middle" x="403.917" y="-530.183" font-family="Helvetica,sans-Serif" font-size="10.00" fill="#ffffff">types</text>
</g>
<!-- vcorelib_dict&#45;&gt;vcorelib_io_types -->
<g id="edge10" class="edge"><title>vcorelib_dict&#45;&gt;vcorelib_io_types</title><style>.edge>path:hover{stroke-width:8}</style>
<path fill="none" stroke="black" d="M403.917,-644.444C399.709,-624.52 399.366,-601.853 400.226,-583.167"/>
<polygon fill="#f910f9" stroke="black" points="403.733,-583.146 400.83,-572.957 396.745,-582.732 403.733,-583.146"/>
</g>
<!-- vcorelib_math_time -->
<g id="node19" class="node"><title>vcorelib_math_time</title><style>.edge>path:hover{stroke-width:8}</style>
<ellipse fill="#e505e5" stroke="black" cx="833.917" cy="-645.444" rx="37.4533" ry="28.9828"/>
<text text-anchor="middle" x="833.917" y="-653.944" font-family="Helvetica,sans-Serif" font-size="10.00" fill="#ffffff">vcorelib.</text>
<text text-anchor="middle" x="833.917" y="-642.944" font-family="Helvetica,sans-Serif" font-size="10.00" fill="#ffffff">math.</text>
<text text-anchor="middle" x="833.917" y="-631.944" font-family="Helvetica,sans-Serif" font-size="10.00" fill="#ffffff">time</text>
</g>
<!-- vcorelib_dict&#45;&gt;vcorelib_math_time -->
<g id="edge11" class="edge"><title>vcorelib_dict&#45;&gt;vcorelib_math_time</title><style>.edge>path:hover{stroke-width:8}</style>
<path fill="none" stroke="black" d="M619.651,-809.808C718.507,-807.281 966.093,-794.456 1007.92,-729.436"/>
<path fill="none" stroke="black" d="M1007.92,-727.436C1041.01,-675.996 935.551,-701.931 880.917,-674.436 877.812,-672.873 874.633,-671.184 871.466,-669.438"/>
<polygon fill="#f910f9" stroke="black" points="873.064,-666.321 862.64,-664.422 869.604,-672.406 873.064,-666.321"/>
</g>
<!-- vcorelib_paths_info_cache -->
<g id="node21" class="node"><title>vcorelib_paths_info_cache</title><style>.edge>path:hover{stroke-width:8}</style>
<ellipse fill="#8f3d8f" stroke="black" cx="246.917" cy="-28.9914" rx="45.011" ry="28.9828"/>
<text text-anchor="middle" x="246.917" y="-37.4914" font-family="Helvetica,sans-Serif" font-size="10.00" fill="#ffffff">vcorelib.</text>
<text text-anchor="middle" x="246.917" y="-26.4914" font-family="Helvetica,sans-Serif" font-size="10.00" fill="#ffffff">paths.</text>
<text text-anchor="middle" x="246.917" y="-15.4914" font-family="Helvetica,sans-Serif" font-size="10.00" fill="#ffffff">info_cache</text>
</g>
<!-- vcorelib_dict&#45;&gt;vcorelib_paths_info_cache -->
<g id="edge12" class="edge"><title>vcorelib_dict&#45;&gt;vcorelib_paths_info_cache</title><style>.edge>path:hover{stroke-width:8}</style>
<path fill="none" stroke="black" d="M538.74,-808.542C457.009,-803.856 275.515,-788.825 232.917,-746.436 200.853,-714.528 213.917,-691.68 213.917,-646.444 213.917,-646.444 213.917,-646.444 213.917,-542.683 213.917,-451.149 160.825,-213.27 200.917,-130.983 212.288,-107.644 252.289,-120.382 246.917,-94.9828"/>
<path fill="none" stroke="black" d="M246.917,-93.9828C244.946,-85.7647 244.147,-76.7803 243.996,-68.2107"/>
<polygon fill="#f910f9" stroke="black" points="247.498,-68.0778 244.1,-58.0427 240.498,-68.0065 247.498,-68.0778"/>
</g>
<!-- vcorelib_task -->
<g id="node26" class="node"><title>vcorelib_task</title><style>.edge>path:hover{stroke-width:8}</style>
<ellipse fill="#c115c1" stroke="black" cx="1045.92" cy="-434.144" rx="42.2678" ry="18"/>
<text text-anchor="middle" x="1045.92" y="-431.644" font-family="Helvetica,sans-Serif" font-size="10.00" fill="#ffffff">vcorelib.task</text>
</g>
<!-- vcorelib_dict&#45;&gt;vcorelib_task -->
<g id="edge13" class="edge"><title>vcorelib_dict&#45;&gt;vcorelib_task</title><style>.edge>path:hover{stroke-width:8}</style>
<path fill="none" stroke="black" d="M1007.92,-727.436C1029.43,-693.995 1041.11,-685.914 1045.92,-646.444"/>
<path fill="none" stroke="black" d="M1045.92,-644.444C1051.27,-600.431 1028.34,-585.39 1045.92,-544.683"/>
</g>
<!-- vcorelib_task_dict_melder -->
<g id="node27" class="node"><title>vcorelib_task_dict_melder</title><style>.edge>path:hover{stroke-width:8}</style>
<ellipse fill="#a446a4" stroke="black" cx="578.917" cy="-543.683" rx="37.4533" ry="36.5405"/>
<text text-anchor="middle" x="578.917" y="-557.683" font-family="Helvetica,sans-Serif" font-size="10.00" fill="#ffffff">vcorelib.</text>
<text text-anchor="middle" x="578.917" y="-546.683" font-family="Helvetica,sans-Serif" font-size="10.00" fill="#ffffff">task.</text>
<text text-anchor="middle" x="578.917" y="-535.683" font-family="Helvetica,sans-Serif" font-size="10.00" fill="#ffffff">dict.</text>
<text text-anchor="middle" x="578.917" y="-524.683" font-family="Helvetica,sans-Serif" font-size="10.00" fill="#ffffff">melder</text>
</g>
<!-- vcorelib_dict&#45;&gt;vcorelib_task_dict_melder -->
<g id="edge14" class="edge"><title>vcorelib_dict&#45;&gt;vcorelib_task_dict_melder</title><style>.edge>path:hover{stroke-width:8}</style>
<path fill="none" stroke="black" d="M578.917,-644.444C576.201,-627.013 575.647,-607.659 575.963,-590.673"/>
<polygon fill="#f910f9" stroke="black" points="579.469,-590.538 576.262,-580.441 572.472,-590.334 579.469,-590.538"/>
</g>
<!-- vcorelib_task_manager -->
<g id="node28" class="node"><title>vcorelib_task_manager</title><style>.edge>path:hover{stroke-width:8}</style>
<ellipse fill="#8f3d8f" stroke="black" cx="1149.92" cy="-645.444" rx="38.3684" ry="28.9828"/>
<text text-anchor="middle" x="1149.92" y="-653.944" font-family="Helvetica,sans-Serif" font-size="10.00" fill="#ffffff">vcorelib.</text>
<text text-anchor="middle" x="1149.92" y="-642.944" font-family="Helvetica,sans-Serif" font-size="10.00" fill="#ffffff">task.</text>
<text text-anchor="middle" x="1149.92" y="-631.944" font-family="Helvetica,sans-Serif" font-size="10.00" fill="#ffffff">manager</text>
</g>
<!-- vcorelib_dict&#45;&gt;vcorelib_task_manager -->
<g id="edge15" class="edge"><title>vcorelib_dict&#45;&gt;vcorelib_task_manager</title><style>.edge>path:hover{stroke-width:8}</style>
<path fill="none" stroke="black" d="M619.002,-808.006C742.422,-800.103 1110.12,-773.032 1138.92,-729.436"/>
<path fill="none" stroke="black" d="M1138.92,-727.436C1147.16,-714.954 1150.48,-699.019 1151.53,-684.591"/>
<polygon fill="#f910f9" stroke="black" points="1155.04,-684.553 1151.94,-674.422 1148.04,-684.275 1155.04,-684.553"/>
</g>
<!-- vcorelib_dict_cache -->
<g id="node7" class="node"><title>vcorelib_dict_cache</title><style>.edge>path:hover{stroke-width:8}</style>
<ellipse fill="#a838a8" stroke="black" cx="246.917" cy="-159.974" rx="37.4533" ry="28.9828"/>
<text text-anchor="middle" x="246.917" y="-168.474" font-family="Helvetica,sans-Serif" font-size="10.00" fill="#ffffff">vcorelib.</text>
<text text-anchor="middle" x="246.917" y="-157.474" font-family="Helvetica,sans-Serif" font-size="10.00" fill="#ffffff">dict.</text>
<text text-anchor="middle" x="246.917" y="-146.474" font-family="Helvetica,sans-Serif" font-size="10.00" fill="#ffffff">cache</text>
</g>
<!-- vcorelib_dict_cache&#45;&gt;vcorelib_paths_info_cache -->
<g id="edge16" class="edge"><title>vcorelib_dict_cache&#45;&gt;vcorelib_paths_info_cache</title><style>.edge>path:hover{stroke-width:8}</style>
<path fill="none" stroke="black" d="M249.566,-130.962C249.951,-119.663 249.524,-106.581 246.917,-94.9828"/>
</g>
<!-- vcorelib_dict_config -->
<g id="node8" class="node"><title>vcorelib_dict_config</title><style>.edge>path:hover{stroke-width:8}</style>
<ellipse fill="#964096" stroke="black" cx="339.917" cy="-159.974" rx="37.4533" ry="28.9828"/>
<text text-anchor="middle" x="339.917" y="-168.474" font-family="Helvetica,sans-Serif" font-size="10.00" fill="#ffffff">vcorelib.</text>
<text text-anchor="middle" x="339.917" y="-157.474" font-family="Helvetica,sans-Serif" font-size="10.00" fill="#ffffff">dict.</text>
<text text-anchor="middle" x="339.917" y="-146.474" font-family="Helvetica,sans-Serif" font-size="10.00" fill="#ffffff">config</text>
</g>
<!-- vcorelib_io&#45;&gt;vcorelib_dict_cache -->
<g id="edge17" class="edge"><title>vcorelib_io&#45;&gt;vcorelib_dict_cache</title><style>.edge>path:hover{stroke-width:8}</style>
<path fill="none" stroke="black" d="M323.508,-316.132C307.984,-300.52 285.653,-274.703 275.917,-247.179"/>
</g>
<!-- vcorelib_io&#45;&gt;vcorelib_dict_config -->
<g id="edge18" class="edge"><title>vcorelib_io&#45;&gt;vcorelib_dict_config</title><style>.edge>path:hover{stroke-width:8}</style>
<path fill="none" stroke="black" d="M339.188,-314.262C338.634,-297.229 338.223,-270.361 339.917,-247.179"/>
</g>
<!-- vcorelib_io&#45;&gt;vcorelib_paths_info_cache -->
<g id="edge19" class="edge"><title>vcorelib_io&#45;&gt;vcorelib_paths_info_cache</title><style>.edge>path:hover{stroke-width:8}</style>
<path fill="none" stroke="black" d="M358.225,-316.641C375.191,-301.415 398.589,-275.884 403.917,-247.179"/>
<path fill="none" stroke="black" d="M403.917,-245.179C413.294,-194.661 420.443,-169.034 385.917,-130.983 343.035,-83.7215 260.909,-157.246 246.917,-94.9828"/>
</g>
<!-- vcorelib_io&#45;&gt;vcorelib_schemas -->
<g id="edge20" class="edge"><title>vcorelib_io&#45;&gt;vcorelib_schemas</title><style>.edge>path:hover{stroke-width:8}</style>
<path fill="none" stroke="black" d="M309.793,-322.452C259.457,-307.527 158.045,-277.459 99.7794,-260.184"/>
<polygon fill="#bd04bd" stroke="black" points="100.701,-256.806 90.1187,-257.319 98.7112,-263.518 100.701,-256.806"/>
</g>
<!-- vcorelib_io_archive -->
<g id="node10" class="node"><title>vcorelib_io_archive</title><style>.edge>path:hover{stroke-width:8}</style>
<ellipse fill="#a135a1" stroke="black" cx="654.917" cy="-434.144" rx="37.4533" ry="28.9828"/>
<text text-anchor="middle" x="654.917" y="-442.644" font-family="Helvetica,sans-Serif" font-size="10.00" fill="#ffffff">vcorelib.</text>
<text text-anchor="middle" x="654.917" y="-431.644" font-family="Helvetica,sans-Serif" font-size="10.00" fill="#ffffff">io.</text>
<text text-anchor="middle" x="654.917" y="-420.644" font-family="Helvetica,sans-Serif" font-size="10.00" fill="#ffffff">archive</text>
</g>
<!-- vcorelib_io_archive&#45;&gt;vcorelib_io_cache -->
<g id="edge21" class="edge"><title>vcorelib_io_archive&#45;&gt;vcorelib_io_cache</title><style>.edge>path:hover{stroke-width:8}</style>
<path fill="none" stroke="black" d="M633.348,-410.006C620.553,-396.282 604.184,-378.723 590.345,-363.877"/>
<polygon fill="#a135a1" stroke="black" points="592.749,-361.324 583.37,-356.396 587.629,-366.097 592.749,-361.324"/>
</g>
<!-- vcorelib_io_decode&#45;&gt;vcorelib_io -->
<g id="edge22" class="edge"><title>vcorelib_io_decode&#45;&gt;vcorelib_io</title><style>.edge>path:hover{stroke-width:8}</style>
<path fill="none" stroke="black" d="M442.812,-412.956C420.747,-395.892 389.257,-371.539 366.936,-354.278"/>
<polygon fill="#913091" stroke="black" points="368.921,-351.389 358.869,-348.04 364.639,-356.926 368.921,-351.389"/>
</g>
<!-- vcorelib_io_encode&#45;&gt;vcorelib_io -->
<g id="edge23" class="edge"><title>vcorelib_io_encode&#45;&gt;vcorelib_io</title><style>.edge>path:hover{stroke-width:8}</style>
<path fill="none" stroke="black" d="M537.691,-412.009C530.687,-406.668 522.798,-401.333 514.917,-397.375 463.255,-371.425 443.271,-383.642 389.917,-361.375 383.502,-358.697 376.864,-355.396 370.603,-352.011"/>
<polygon fill="#913091" stroke="black" points="372.202,-348.895 361.768,-347.055 368.777,-355 372.202,-348.895"/>
</g>
<!-- vcorelib_io_types&#45;&gt;vcorelib_dict_cache -->
<g id="edge24" class="edge"><title>vcorelib_io_types&#45;&gt;vcorelib_dict_cache</title><style>.edge>path:hover{stroke-width:8}</style>
<path fill="none" stroke="black" d="M382.839,-519.295C365.395,-498.638 341.371,-466.936 327.917,-435.144"/>
<path fill="none" stroke="black" d="M327.917,-433.144C314.235,-400.812 305.223,-394.936 294.917,-361.375 279.814,-312.19 293.075,-295.685 275.917,-247.179"/>
<path fill="none" stroke="black" d="M275.917,-245.179C269.904,-229.995 263.916,-213.006 258.956,-198.286"/>
<polygon fill="#e505e5" stroke="black" points="262.18,-196.89 255.699,-188.508 255.539,-199.102 262.18,-196.89"/>
</g>
<!-- vcorelib_io_types&#45;&gt;vcorelib_dict_config -->
<g id="edge25" class="edge"><title>vcorelib_io_types&#45;&gt;vcorelib_dict_config</title><style>.edge>path:hover{stroke-width:8}</style>
<path fill="none" stroke="black" d="M399.08,-514.919C396.343,-492.712 395.022,-461.108 403.917,-435.144"/>
<path fill="none" stroke="black" d="M403.917,-433.144C418.288,-391.199 411.756,-377.023 403.917,-333.383"/>
<path fill="none" stroke="black" d="M403.917,-331.383C395.607,-285.117 336.491,-294.061 339.917,-247.179"/>
</g>
<!-- vcorelib_io_types&#45;&gt;vcorelib_io -->
<g id="edge26" class="edge"><title>vcorelib_io_types&#45;&gt;vcorelib_io</title><style>.edge>path:hover{stroke-width:8}</style>
<path fill="none" stroke="black" d="M327.917,-433.144C318.031,-409.781 323.25,-380.767 329.602,-360.063"/>
<polygon fill="#e505e5" stroke="black" points="332.999,-360.942 332.852,-350.348 326.36,-358.721 332.999,-360.942"/>
</g>
<!-- vcorelib_io_types&#45;&gt;vcorelib_io_archive -->
<g id="edge27" class="edge"><title>vcorelib_io_types&#45;&gt;vcorelib_io_archive</title><style>.edge>path:hover{stroke-width:8}</style>
<path fill="none" stroke="black" d="M437.135,-529.981C455.572,-523.013 478.952,-514.311 499.917,-506.914 547.631,-490.078 563.183,-494.553 607.917,-470.914 612.558,-468.461 617.222,-465.56 621.714,-462.486"/>
<polygon fill="#e505e5" stroke="black" points="624.032,-465.13 630.091,-456.438 619.934,-459.455 624.032,-465.13"/>
</g>
<!-- vcorelib_io_types&#45;&gt;vcorelib_io_cache -->
<g id="edge28" class="edge"><title>vcorelib_io_types&#45;&gt;vcorelib_io_cache</title><style>.edge>path:hover{stroke-width:8}</style>
<path fill="none" stroke="black" d="M403.917,-433.144C409.752,-416.115 409.832,-409.737 422.917,-397.375 449.376,-372.378 487.329,-355.808 516.893,-345.805"/>
<polygon fill="#e505e5" stroke="black" points="518.14,-349.08 526.569,-342.662 515.977,-342.423 518.14,-349.08"/>
</g>
<!-- vcorelib_io_types&#45;&gt;vcorelib_io_decode -->
<g id="edge29" class="edge"><title>vcorelib_io_types&#45;&gt;vcorelib_io_decode</title><style>.edge>path:hover{stroke-width:8}</style>
<path fill="none" stroke="black" d="M419.321,-517.198C427.92,-502.972 438.751,-485.053 448.096,-469.592"/>
<polygon fill="#e505e5" stroke="black" points="451.221,-471.188 453.399,-460.819 445.23,-467.567 451.221,-471.188"/>
</g>
<!-- vcorelib_io_types&#45;&gt;vcorelib_io_encode -->
<g id="edge30" class="edge"><title>vcorelib_io_types&#45;&gt;vcorelib_io_encode</title><style>.edge>path:hover{stroke-width:8}</style>
<path fill="none" stroke="black" d="M432.601,-524.983C455.251,-510.805 487.499,-490.169 514.917,-470.914 519.11,-467.969 523.457,-464.811 527.738,-461.635"/>
<polygon fill="#e505e5" stroke="black" points="529.937,-464.361 535.831,-455.558 525.733,-458.764 529.937,-464.361"/>
</g>
<!-- vcorelib_io_types&#45;&gt;vcorelib_paths_info_cache -->
<g id="edge31" class="edge"><title>vcorelib_io_types&#45;&gt;vcorelib_paths_info_cache</title><style>.edge>path:hover{stroke-width:8}</style>
<path fill="none" stroke="black" d="M403.917,-331.383C397.301,-294.549 398.371,-284.19 403.917,-247.179"/>
</g>
<!-- vcorelib_logging -->
<g id="node15" class="node"><title>vcorelib_logging</title><style>.edge>path:hover{stroke-width:8}</style>
<ellipse fill="#a446a4" stroke="black" cx="812.917" cy="-434.144" rx="37.4533" ry="21.4286"/>
<text text-anchor="middle" x="812.917" y="-437.144" font-family="Helvetica,sans-Serif" font-size="10.00" fill="#ffffff">vcorelib.</text>
<text text-anchor="middle" x="812.917" y="-426.144" font-family="Helvetica,sans-Serif" font-size="10.00" fill="#ffffff">logging</text>
</g>
<!-- vcorelib_math -->
<g id="node16" class="node"><title>vcorelib_math</title><style>.edge>path:hover{stroke-width:8}</style>
<ellipse fill="#f910f9" stroke="black" cx="933.917" cy="-645.444" rx="44.3" ry="18"/>
<text text-anchor="middle" x="933.917" y="-642.944" font-family="Helvetica,sans-Serif" font-size="10.00" fill="#ffffff">vcorelib.math</text>
</g>
<!-- vcorelib_math&#45;&gt;vcorelib_io_archive -->
<g id="edge32" class="edge"><title>vcorelib_math&#45;&gt;vcorelib_io_archive</title><style>.edge>path:hover{stroke-width:8}</style>
<path fill="none" stroke="black" d="M917.35,-628.48C897.277,-609.011 862.586,-574.95 833.917,-544.683"/>
<path fill="none" stroke="black" d="M833.917,-542.683C794.961,-501.555 736.872,-470.57 697.52,-452.668"/>
<polygon fill="#f910f9" stroke="black" points="698.501,-449.273 687.942,-448.4 695.652,-455.667 698.501,-449.273"/>
</g>
<!-- vcorelib_math&#45;&gt;vcorelib_io_cache -->
<g id="edge33" class="edge"><title>vcorelib_math&#45;&gt;vcorelib_io_cache</title><style>.edge>path:hover{stroke-width:8}</style>
<path fill="none" stroke="black" d="M952.896,-629.031C965.782,-617.266 981.738,-599.82 988.917,-580.453 1003.27,-541.727 987.87,-424.719 956.917,-397.375 906.108,-352.487 703.16,-338.849 609.601,-334.902"/>
<polygon fill="#f910f9" stroke="black" points="609.687,-331.403 599.554,-334.498 609.405,-338.397 609.687,-331.403"/>
</g>
<!-- vcorelib_math&#45;&gt;vcorelib_io_decode -->
<g id="edge34" class="edge"><title>vcorelib_math&#45;&gt;vcorelib_io_decode</title><style>.edge>path:hover{stroke-width:8}</style>
<path fill="none" stroke="black" d="M909.823,-630.155C900.702,-625.232 890.068,-620.056 879.917,-616.453 805.497,-590.033 779.724,-608.542 705.917,-580.453 676.185,-569.138 672.133,-559.378 643.917,-544.683"/>
</g>
<!-- vcorelib_math&#45;&gt;vcorelib_io_encode -->
<g id="edge35" class="edge"><title>vcorelib_math&#45;&gt;vcorelib_io_encode</title><style>.edge>path:hover{stroke-width:8}</style>
<path fill="none" stroke="black" d="M908.053,-630.69C879.497,-615.371 835.503,-591.334 819.917,-580.453 778.681,-551.664 778.197,-530.756 733.917,-506.914 683.014,-479.505 660.58,-496.863 608.917,-470.914 603.992,-468.44 599.063,-465.428 594.349,-462.213"/>
<polygon fill="#f910f9" stroke="black" points="596.298,-459.303 586.144,-456.279 592.196,-464.975 596.298,-459.303"/>
</g>
<!-- vcorelib_math&#45;&gt;vcorelib_logging -->
<g id="edge36" class="edge"><title>vcorelib_math&#45;&gt;vcorelib_logging</title><style>.edge>path:hover{stroke-width:8}</style>
<path fill="none" stroke="black" d="M833.917,-542.683C823.594,-531.784 818.017,-493.446 815.259,-465.647"/>
<polygon fill="#f910f9" stroke="black" points="818.735,-465.226 814.335,-455.587 811.764,-465.865 818.735,-465.226"/>
</g>
<!-- vcorelib_math&#45;&gt;vcorelib_task -->
<g id="edge37" class="edge"><title>vcorelib_math&#45;&gt;vcorelib_task</title><style>.edge>path:hover{stroke-width:8}</style>
<path fill="none" stroke="black" d="M959.857,-630.542C987.283,-614.17 1028.89,-584.129 1045.92,-544.683"/>
</g>
<!-- vcorelib_math_analysis_average -->
<g id="node17" class="node"><title>vcorelib_math_analysis_average</title><style>.edge>path:hover{stroke-width:8}</style>
<ellipse fill="#c247c2" stroke="black" cx="939.917" cy="-543.683" rx="39.6962" ry="36.5405"/>
<text text-anchor="middle" x="939.917" y="-557.683" font-family="Helvetica,sans-Serif" font-size="10.00" fill="#ffffff">vcorelib.</text>
<text text-anchor="middle" x="939.917" y="-546.683" font-family="Helvetica,sans-Serif" font-size="10.00" fill="#ffffff">math.</text>
<text text-anchor="middle" x="939.917" y="-535.683" font-family="Helvetica,sans-Serif" font-size="10.00" fill="#ffffff">analysis.</text>
<text text-anchor="middle" x="939.917" y="-524.683" font-family="Helvetica,sans-Serif" font-size="10.00" fill="#ffffff">average</text>
</g>
<!-- vcorelib_math_analysis_rate -->
<g id="node18" class="node"><title>vcorelib_math_analysis_rate</title><style>.edge>path:hover{stroke-width:8}</style>
<ellipse fill="#964096" stroke="black" cx="907.917" cy="-434.144" rx="39.6962" ry="36.5405"/>
<text text-anchor="middle" x="907.917" y="-448.144" font-family="Helvetica,sans-Serif" font-size="10.00" fill="#ffffff">vcorelib.</text>
<text text-anchor="middle" x="907.917" y="-437.144" font-family="Helvetica,sans-Serif" font-size="10.00" fill="#ffffff">math.</text>
<text text-anchor="middle" x="907.917" y="-426.144" font-family="Helvetica,sans-Serif" font-size="10.00" fill="#ffffff">analysis.</text>
<text text-anchor="middle" x="907.917" y="-415.144" font-family="Helvetica,sans-Serif" font-size="10.00" fill="#ffffff">rate</text>
</g>
<!-- vcorelib_math_analysis_average&#45;&gt;vcorelib_math_analysis_rate -->
<g id="edge38" class="edge"><title>vcorelib_math_analysis_average&#45;&gt;vcorelib_math_analysis_rate</title><style>.edge>path:hover{stroke-width:8}</style>
<path fill="none" stroke="black" d="M929.616,-508.065C926.904,-498.951 923.941,-488.993 921.1,-479.445"/>
<polygon fill="#c247c2" stroke="black" points="924.406,-478.284 918.199,-469.697 917.697,-480.28 924.406,-478.284"/>
</g>
<!-- vcorelib_math_time&#45;&gt;vcorelib_io_archive -->
<g id="edge39" class="edge"><title>vcorelib_math_time&#45;&gt;vcorelib_io_archive</title><style>.edge>path:hover{stroke-width:8}</style>
<path fill="none" stroke="black" d="M719.917,-542.683C714.366,-536.343 691.836,-498.479 674.846,-469.456"/>
<polygon fill="#e505e5" stroke="black" points="677.842,-467.646 669.776,-460.777 671.798,-471.177 677.842,-467.646"/>
</g>
<!-- vcorelib_math_time&#45;&gt;vcorelib_io_cache -->
<g id="edge40" class="edge"><title>vcorelib_math_time&#45;&gt;vcorelib_io_cache</title><style>.edge>path:hover{stroke-width:8}</style>
<path fill="none" stroke="black" d="M719.917,-542.683C677.013,-493.68 739.535,-449.822 700.917,-397.375 678.886,-367.454 639.438,-351.126 608.18,-342.47"/>
<polygon fill="#e505e5" stroke="black" points="608.911,-339.044 598.352,-339.921 607.153,-345.819 608.911,-339.044"/>
</g>
<!-- vcorelib_math_time&#45;&gt;vcorelib_io_decode -->
<g id="edge41" class="edge"><title>vcorelib_math_time&#45;&gt;vcorelib_io_decode</title><style>.edge>path:hover{stroke-width:8}</style>
<path fill="none" stroke="black" d="M802.613,-629.441C776.532,-616.788 738.52,-597.987 705.917,-580.453 677.9,-565.385 672.133,-559.378 643.917,-544.683"/>
<path fill="none" stroke="black" d="M643.917,-542.683C627.952,-534.368 638.677,-518.521 624.917,-506.914 585.921,-474.017 561.057,-494.688 515.917,-470.914 511.273,-468.468 506.607,-465.57 502.114,-462.499"/>
<polygon fill="#e505e5" stroke="black" points="503.893,-459.467 493.737,-456.452 499.797,-465.143 503.893,-459.467"/>
</g>
<!-- vcorelib_math_time&#45;&gt;vcorelib_io_encode -->
<g id="edge42" class="edge"><title>vcorelib_math_time&#45;&gt;vcorelib_io_encode</title><style>.edge>path:hover{stroke-width:8}</style>
<path fill="none" stroke="black" d="M804.287,-627.24C785.654,-615.533 761.835,-598.863 743.917,-580.453 730.565,-566.733 732.529,-559.087 719.917,-544.683"/>
<path fill="none" stroke="black" d="M719.917,-542.683C707.306,-528.28 710.73,-519.042 695.917,-506.914 663.539,-480.404 645.202,-491.759 608.917,-470.914 604.366,-468.299 599.756,-465.3 595.292,-462.175"/>
<polygon fill="#e505e5" stroke="black" points="597.083,-459.149 586.943,-456.077 592.954,-464.801 597.083,-459.149"/>
</g>
<!-- vcorelib_math_time&#45;&gt;vcorelib_logging -->
<g id="edge43" class="edge"><title>vcorelib_math_time&#45;&gt;vcorelib_logging</title><style>.edge>path:hover{stroke-width:8}</style>
<path fill="none" stroke="black" d="M826.835,-616.905C824.224,-605.674 821.516,-592.516 819.917,-580.453 814.687,-540.984 813.243,-495.024 812.907,-465.533"/>
<polygon fill="#e505e5" stroke="black" points="816.406,-465.428 812.828,-455.456 809.406,-465.483 816.406,-465.428"/>
</g>
<!-- vcorelib_math_time&#45;&gt;vcorelib_math_analysis_rate -->
<g id="edge44" class="edge"><title>vcorelib_math_time&#45;&gt;vcorelib_math_analysis_rate</title><style>.edge>path:hover{stroke-width:8}</style>
<path fill="none" stroke="black" d="M843.592,-617.082C855.996,-581.998 877.657,-520.731 892.384,-479.08"/>
<polygon fill="#e505e5" stroke="black" points="895.75,-480.059 895.783,-469.464 889.15,-477.726 895.75,-480.059"/>
</g>
<!-- vcorelib_math_time&#45;&gt;vcorelib_task -->
<g id="edge45" class="edge"><title>vcorelib_math_time&#45;&gt;vcorelib_task</title><style>.edge>path:hover{stroke-width:8}</style>
<path fill="none" stroke="black" d="M862.22,-626.262C868.263,-622.76 874.7,-619.3 880.917,-616.453 953.626,-583.156 1014.22,-618.103 1045.92,-544.683"/>
<path fill="none" stroke="black" d="M1045.92,-542.683C1056.97,-517.084 1055.13,-484.753 1051.67,-462.258"/>
<polygon fill="#e505e5" stroke="black" points="1055.12,-461.629 1049.95,-452.376 1048.22,-462.827 1055.12,-461.629"/>
</g>
<!-- vcorelib_paths&#45;&gt;vcorelib_dict_cache -->
<g id="edge46" class="edge"><title>vcorelib_paths&#45;&gt;vcorelib_dict_cache</title><style>.edge>path:hover{stroke-width:8}</style>
<path fill="none" stroke="black" d="M273.958,-711.177C262.833,-695.37 249.01,-670.317 251.917,-646.444"/>
<path fill="none" stroke="black" d="M251.917,-644.444C257.278,-600.431 257.325,-588.691 251.917,-544.683"/>
<path fill="none" stroke="black" d="M251.917,-542.683C241.564,-458.429 127.059,-537.9 74.9173,-470.914 37.0152,-422.221 67.44,-394.003 55.9173,-333.383"/>
<path fill="none" stroke="black" d="M55.9173,-331.383C47.5134,-296.562 18.4145,-301.318 6.91734,-267.392 0.865213,-249.533 -4.57078,-239.918 6.91734,-224.966 30.2487,-194.598 136.731,-175.566 199.754,-166.758"/>
<polygon fill="#ef06ef" stroke="black" points="200.417,-170.2 209.853,-165.381 199.472,-163.264 200.417,-170.2"/>
</g>
<!-- vcorelib_paths&#45;&gt;vcorelib_dict_config -->
<g id="edge47" class="edge"><title>vcorelib_paths&#45;&gt;vcorelib_dict_config</title><style>.edge>path:hover{stroke-width:8}</style>
<path fill="none" stroke="black" d="M251.917,-542.683C246.773,-495.166 243.626,-482.215 251.917,-435.144"/>
<path fill="none" stroke="black" d="M251.917,-433.144C262.457,-373.314 265.923,-356.778 294.917,-303.392 310.191,-275.269 337.585,-279.096 339.917,-247.179"/>
<path fill="none" stroke="black" d="M339.917,-245.179C339.743,-230.122 339.709,-213.551 339.73,-199.12"/>
<polygon fill="#ef06ef" stroke="black" points="343.23,-199.052 339.755,-189.043 336.23,-199.035 343.23,-199.052"/>
</g>
<!-- vcorelib_paths&#45;&gt;vcorelib_io -->
<g id="edge48" class="edge"><title>vcorelib_paths&#45;&gt;vcorelib_io</title><style>.edge>path:hover{stroke-width:8}</style>
<path fill="none" stroke="black" d="M251.917,-433.144C257.912,-399.112 286.961,-370.783 310.067,-353.115"/>
<polygon fill="#ef06ef" stroke="black" points="312.271,-355.839 318.257,-347.098 308.126,-350.198 312.271,-355.839"/>
</g>
<!-- vcorelib_paths&#45;&gt;vcorelib_io_cache -->
<g id="edge49" class="edge"><title>vcorelib_paths&#45;&gt;vcorelib_io_cache</title><style>.edge>path:hover{stroke-width:8}</style>
<path fill="none" stroke="black" d="M251.917,-542.683C245.678,-491.904 307.498,-508.765 341.917,-470.914 368.176,-442.037 359.43,-421.745 389.917,-397.375 426.769,-367.917 478.537,-351.127 515.635,-342.207"/>
<polygon fill="#ef06ef" stroke="black" points="516.723,-345.548 525.684,-339.895 515.154,-338.726 516.723,-345.548"/>
</g>
<!-- vcorelib_paths&#45;&gt;vcorelib_io_types -->
<g id="edge50" class="edge"><title>vcorelib_paths&#45;&gt;vcorelib_io_types</title><style>.edge>path:hover{stroke-width:8}</style>
<path fill="none" stroke="black" d="M251.917,-644.444C258.024,-594.3 315.896,-567.864 358.427,-555.09"/>
<polygon fill="#ef06ef" stroke="black" points="359.395,-558.454 368.054,-552.349 357.478,-551.721 359.395,-558.454"/>
</g>
<!-- vcorelib_paths&#45;&gt;vcorelib_schemas -->
<g id="edge51" class="edge"><title>vcorelib_paths&#45;&gt;vcorelib_schemas</title><style>.edge>path:hover{stroke-width:8}</style>
<path fill="none" stroke="black" d="M55.9173,-331.383C52.5903,-313.88 52.4311,-293.958 53.1775,-277.887"/>
<polygon fill="#ef06ef" stroke="black" points="56.6985,-277.647 53.8112,-267.453 49.7113,-277.223 56.6985,-277.647"/>
</g>
<!-- vcorelib_script -->
<g id="node23" class="node"><title>vcorelib_script</title><style>.edge>path:hover{stroke-width:8}</style>
<ellipse fill="#c247c2" stroke="black" cx="1138.92" cy="-811.427" rx="37.4533" ry="21.4286"/>
<text text-anchor="middle" x="1138.92" y="-814.427" font-family="Helvetica,sans-Serif" font-size="10.00" fill="#ffffff">vcorelib.</text>
<text text-anchor="middle" x="1138.92" y="-803.427" font-family="Helvetica,sans-Serif" font-size="10.00" fill="#ffffff">script</text>
</g>
<!-- vcorelib_script&#45;&gt;vcorelib_task_manager -->
<g id="edge52" class="edge"><title>vcorelib_script&#45;&gt;vcorelib_task_manager</title><style>.edge>path:hover{stroke-width:8}</style>
<path fill="none" stroke="black" d="M1133.16,-790.362C1129.38,-772.81 1127.06,-747.387 1138.92,-729.436"/>
</g>
<!-- vcorelib_target -->
<g id="node24" class="node"><title>vcorelib_target</title><style>.edge>path:hover{stroke-width:8}</style>
<ellipse fill="#db2fdb" stroke="black" cx="1045.92" cy="-811.427" rx="37.4533" ry="21.4286"/>
<text text-anchor="middle" x="1045.92" y="-814.427" font-family="Helvetica,sans-Serif" font-size="10.00" fill="#ffffff">vcorelib.</text>
<text text-anchor="middle" x="1045.92" y="-803.427" font-family="Helvetica,sans-Serif" font-size="10.00" fill="#ffffff">target</text>
</g>
<!-- vcorelib_target&#45;&gt;vcorelib_task -->
<g id="edge53" class="edge"><title>vcorelib_target&#45;&gt;vcorelib_task</title><style>.edge>path:hover{stroke-width:8}</style>
<path fill="none" stroke="black" d="M1044.46,-790.149C1042.55,-759.092 1040.1,-697.931 1045.92,-646.444"/>
</g>
<!-- vcorelib_target&#45;&gt;vcorelib_task_manager -->
<g id="edge54" class="edge"><title>vcorelib_target&#45;&gt;vcorelib_task_manager</title><style>.edge>path:hover{stroke-width:8}</style>
<path fill="none" stroke="black" d="M1070.2,-794.919C1091.17,-780.36 1120.86,-756.769 1138.92,-729.436"/>
</g>
<!-- vcorelib_target_resolver -->
<g id="node25" class="node"><title>vcorelib_target_resolver</title><style>.edge>path:hover{stroke-width:8}</style>
<ellipse fill="#b83db8" stroke="black" cx="1231.92" cy="-811.427" rx="37.4533" ry="28.9828"/>
<text text-anchor="middle" x="1231.92" y="-819.927" font-family="Helvetica,sans-Serif" font-size="10.00" fill="#ffffff">vcorelib.</text>
<text text-anchor="middle" x="1231.92" y="-808.927" font-family="Helvetica,sans-Serif" font-size="10.00" fill="#ffffff">target.</text>
<text text-anchor="middle" x="1231.92" y="-797.927" font-family="Helvetica,sans-Serif" font-size="10.00" fill="#ffffff">resolver</text>
</g>
<!-- vcorelib_target_resolver&#45;&gt;vcorelib_task_manager -->
<g id="edge55" class="edge"><title>vcorelib_target_resolver&#45;&gt;vcorelib_task_manager</title><style>.edge>path:hover{stroke-width:8}</style>
<path fill="none" stroke="black" d="M1202.44,-793.275C1171.64,-774.274 1129.06,-744.353 1138.92,-729.436"/>
</g>
</g>
</svg>
