<?xml version="1.0" encoding="UTF-8" standalone="no"?>
<!DOCTYPE svg PUBLIC "-//W3C//DTD SVG 1.1//EN"
 "http://www.w3.org/Graphics/SVG/1.1/DTD/svg11.dtd">
<!-- Generated by graphviz version 2.38.0 (20140413.2041)
 -->
<!-- Title: G Pages: 1 -->
<svg width="1582pt" height="1043pt"
 viewBox="0.00 0.00 1582.26 1042.97" xmlns="http://www.w3.org/2000/svg" xmlns:xlink="http://www.w3.org/1999/xlink">
<g id="graph0" class="graph" transform="scale(1 1) rotate(0) translate(4 1038.97)">
<title>G</title><style>.edge>path:hover{stroke-width:8}</style>
<polygon fill="white" stroke="none" points="-4,4 -4,-1038.97 1578.26,-1038.97 1578.26,4 -4,4"/>
<!-- __main__ -->
<g id="node1" class="node"><title>__main__</title><style>.edge>path:hover{stroke-width:8}</style>
<ellipse fill="#6b2e2e" stroke="black" cx="172.788" cy="-1016.97" rx="34.9638" ry="18"/>
<text text-anchor="middle" x="172.788" y="-1014.47" font-family="Helvetica,sans-Serif" font-size="10.00" fill="#ffffff">__main__</text>
</g>
<!-- pkg_resources -->
<g id="node4" class="node"><title>pkg_resources</title><style>.edge>path:hover{stroke-width:8}</style>
<ellipse fill="#31c485" stroke="black" cx="172.788" cy="-944.975" rx="47.1863" ry="18"/>
<text text-anchor="middle" x="172.788" y="-942.475" font-family="Helvetica,sans-Serif" font-size="10.00" fill="#000000">pkg_resources</text>
</g>
<!-- __main__&#45;&gt;pkg_resources -->
<g id="edge1" class="edge"><title>__main__&#45;&gt;pkg_resources</title><style>.edge>path:hover{stroke-width:8}</style>
<path fill="none" stroke="black" d="M172.788,-998.671C172.788,-990.957 172.788,-981.687 172.788,-973.087"/>
<polygon fill="#6b2e2e" stroke="black" points="176.288,-973.079 172.788,-963.079 169.288,-973.079 176.288,-973.079"/>
</g>
<!-- cerberus -->
<g id="node2" class="node"><title>cerberus</title><style>.edge>path:hover{stroke-width:8}</style>
<ellipse fill="#b8a63d" stroke="black" cx="31.7878" cy="-299.948" rx="31.577" ry="18"/>
<text text-anchor="middle" x="31.7878" y="-297.448" font-family="Helvetica,sans-Serif" font-size="10.00" fill="#000000">cerberus</text>
</g>
<!-- vcorelib_schemas -->
<g id="node24" class="node"><title>vcorelib_schemas</title><style>.edge>path:hover{stroke-width:8}</style>
<ellipse fill="#ac2b99" stroke="black" cx="142.788" cy="-122.974" rx="39.6962" ry="21.4286"/>
<text text-anchor="middle" x="142.788" y="-125.974" font-family="Helvetica,sans-Serif" font-size="10.00" fill="#ffffff">vcorelib.</text>
<text text-anchor="middle" x="142.788" y="-114.974" font-family="Helvetica,sans-Serif" font-size="10.00" fill="#ffffff">schemas</text>
</g>
<!-- cerberus&#45;&gt;vcorelib_schemas -->
<g id="edge2" class="edge"><title>cerberus&#45;&gt;vcorelib_schemas</title><style>.edge>path:hover{stroke-width:8}</style>
<path fill="none" stroke="black" d="M56.6586,-288.519C82.2299,-276.115 119.937,-252.627 131.788,-217.957"/>
<path fill="none" stroke="black" d="M131.788,-215.957C138.572,-196.111 141.298,-172.616 142.341,-154.339"/>
<polygon fill="#b8a63d" stroke="black" points="145.842,-154.39 142.779,-144.248 138.849,-154.087 145.842,-154.39"/>
</g>
<!-- fastjsonschema -->
<g id="node3" class="node"><title>fastjsonschema</title><style>.edge>path:hover{stroke-width:8}</style>
<ellipse fill="#70b653" stroke="black" cx="131.788" cy="-299.948" rx="50.7503" ry="18"/>
<text text-anchor="middle" x="131.788" y="-297.448" font-family="Helvetica,sans-Serif" font-size="10.00" fill="#000000">fastjsonschema</text>
</g>
<!-- fastjsonschema&#45;&gt;vcorelib_schemas -->
<g id="edge3" class="edge"><title>fastjsonschema&#45;&gt;vcorelib_schemas</title><style>.edge>path:hover{stroke-width:8}</style>
<path fill="none" stroke="black" d="M128.629,-281.671C126.286,-264.903 124.602,-238.979 131.788,-217.957"/>
</g>
<!-- pkg_resources&#45;&gt;cerberus -->
<g id="edge4" class="edge"><title>pkg_resources&#45;&gt;cerberus</title><style>.edge>path:hover{stroke-width:8}</style>
<path fill="none" stroke="black" d="M169.951,-926.801C167.847,-910.111 166.335,-884.242 172.788,-862.983"/>
<path fill="none" stroke="black" d="M172.788,-860.983C193.958,-791.245 172.788,-769.882 172.788,-697.001 172.788,-697.001 172.788,-697.001 172.788,-483.701 172.788,-410.934 101.847,-349.449 60.6043,-319.851"/>
<polygon fill="#31c485" stroke="black" points="62.4888,-316.898 52.2904,-314.027 58.4724,-322.631 62.4888,-316.898"/>
</g>
<!-- vcorelib_paths -->
<g id="node22" class="node"><title>vcorelib_paths</title><style>.edge>path:hover{stroke-width:8}</style>
<ellipse fill="#ef06ce" stroke="black" cx="283.788" cy="-778.992" rx="45.1548" ry="18"/>
<text text-anchor="middle" x="283.788" y="-776.492" font-family="Helvetica,sans-Serif" font-size="10.00" fill="#ffffff">vcorelib.paths</text>
</g>
<!-- pkg_resources&#45;&gt;vcorelib_paths -->
<g id="edge5" class="edge"><title>pkg_resources&#45;&gt;vcorelib_paths</title><style>.edge>path:hover{stroke-width:8}</style>
<path fill="none" stroke="black" d="M172.788,-860.983C182.395,-829.334 214.157,-808.209 241.256,-795.493"/>
<polygon fill="#31c485" stroke="black" points="242.884,-798.6 250.603,-791.343 240.043,-792.202 242.884,-798.6"/>
</g>
<!-- tomli -->
<g id="node5" class="node"><title>tomli</title><style>.edge>path:hover{stroke-width:8}</style>
<ellipse fill="#538cb6" stroke="black" cx="640.788" cy="-778.992" rx="27" ry="18"/>
<text text-anchor="middle" x="640.788" y="-776.492" font-family="Helvetica,sans-Serif" font-size="10.00" fill="#000000">tomli</text>
</g>
<!-- vcorelib_io_decode -->
<g id="node14" class="node"><title>vcorelib_io_decode</title><style>.edge>path:hover{stroke-width:8}</style>
<ellipse fill="#913084" stroke="black" cx="670.788" cy="-484.701" rx="37.4533" ry="28.9828"/>
<text text-anchor="middle" x="670.788" y="-493.201" font-family="Helvetica,sans-Serif" font-size="10.00" fill="#ffffff">vcorelib.</text>
<text text-anchor="middle" x="670.788" y="-482.201" font-family="Helvetica,sans-Serif" font-size="10.00" fill="#ffffff">io.</text>
<text text-anchor="middle" x="670.788" y="-471.201" font-family="Helvetica,sans-Serif" font-size="10.00" fill="#ffffff">decode</text>
</g>
<!-- tomli&#45;&gt;vcorelib_io_decode -->
<g id="edge6" class="edge"><title>tomli&#45;&gt;vcorelib_io_decode</title><style>.edge>path:hover{stroke-width:8}</style>
<path fill="none" stroke="black" d="M656.088,-763.971C670.799,-749.085 691.428,-724.016 695.788,-697.001"/>
<path fill="none" stroke="black" d="M695.788,-695.001C705.455,-635.091 692.108,-564.974 681.506,-523.012"/>
<polygon fill="#538cb6" stroke="black" points="684.865,-522.021 678.954,-513.228 678.092,-523.788 684.865,-522.021"/>
</g>
<!-- tomli_w -->
<g id="node6" class="node"><title>tomli_w</title><style>.edge>path:hover{stroke-width:8}</style>
<ellipse fill="#6440c0" stroke="black" cx="752.788" cy="-778.992" rx="29.3664" ry="18"/>
<text text-anchor="middle" x="752.788" y="-776.492" font-family="Helvetica,sans-Serif" font-size="10.00" fill="#ffffff">tomli_w</text>
</g>
<!-- vcorelib_io_encode -->
<g id="node15" class="node"><title>vcorelib_io_encode</title><style>.edge>path:hover{stroke-width:8}</style>
<ellipse fill="#913084" stroke="black" cx="763.788" cy="-484.701" rx="37.4533" ry="28.9828"/>
<text text-anchor="middle" x="763.788" y="-493.201" font-family="Helvetica,sans-Serif" font-size="10.00" fill="#ffffff">vcorelib.</text>
<text text-anchor="middle" x="763.788" y="-482.201" font-family="Helvetica,sans-Serif" font-size="10.00" fill="#ffffff">io.</text>
<text text-anchor="middle" x="763.788" y="-471.201" font-family="Helvetica,sans-Serif" font-size="10.00" fill="#ffffff">encode</text>
</g>
<!-- tomli_w&#45;&gt;vcorelib_io_encode -->
<g id="edge7" class="edge"><title>tomli_w&#45;&gt;vcorelib_io_encode</title><style>.edge>path:hover{stroke-width:8}</style>
<path fill="none" stroke="black" d="M753.443,-760.583C755.182,-714.365 759.948,-587.744 762.355,-523.767"/>
<polygon fill="#6440c0" stroke="black" points="765.856,-523.814 762.734,-513.689 758.861,-523.551 765.856,-523.814"/>
</g>
<!-- vcorelib_asyncio -->
<g id="node7" class="node"><title>vcorelib_asyncio</title><style>.edge>path:hover{stroke-width:8}</style>
<ellipse fill="#c247b1" stroke="black" cx="1536.79" cy="-861.983" rx="37.4533" ry="21.4286"/>
<text text-anchor="middle" x="1536.79" y="-864.983" font-family="Helvetica,sans-Serif" font-size="10.00" fill="#ffffff">vcorelib.</text>
<text text-anchor="middle" x="1536.79" y="-853.983" font-family="Helvetica,sans-Serif" font-size="10.00" fill="#ffffff">asyncio</text>
</g>
<!-- vcorelib_task_manager -->
<g id="node32" class="node"><title>vcorelib_task_manager</title><style>.edge>path:hover{stroke-width:8}</style>
<ellipse fill="#883a7d" stroke="black" cx="1383.79" cy="-696.001" rx="38.3684" ry="28.9828"/>
<text text-anchor="middle" x="1383.79" y="-704.501" font-family="Helvetica,sans-Serif" font-size="10.00" fill="#ffffff">vcorelib.</text>
<text text-anchor="middle" x="1383.79" y="-693.501" font-family="Helvetica,sans-Serif" font-size="10.00" fill="#ffffff">task.</text>
<text text-anchor="middle" x="1383.79" y="-682.501" font-family="Helvetica,sans-Serif" font-size="10.00" fill="#ffffff">manager</text>
</g>
<!-- vcorelib_asyncio&#45;&gt;vcorelib_task_manager -->
<g id="edge8" class="edge"><title>vcorelib_asyncio&#45;&gt;vcorelib_task_manager</title><style>.edge>path:hover{stroke-width:8}</style>
<path fill="none" stroke="black" d="M1513.34,-844.918C1487.65,-826.636 1449.33,-797.103 1443.79,-779.992"/>
</g>
<!-- vcorelib_dict -->
<g id="node8" class="node"><title>vcorelib_dict</title><style>.edge>path:hover{stroke-width:8}</style>
<ellipse fill="#f910d8" stroke="black" cx="640.788" cy="-861.983" rx="40.7358" ry="18"/>
<text text-anchor="middle" x="640.788" y="-859.483" font-family="Helvetica,sans-Serif" font-size="10.00" fill="#ffffff">vcorelib.dict</text>
</g>
<!-- vcorelib_io -->
<g id="node11" class="node"><title>vcorelib_io</title><style>.edge>path:hover{stroke-width:8}</style>
<ellipse fill="#bd04a3" stroke="black" cx="669.788" cy="-382.94" rx="35.8171" ry="18"/>
<text text-anchor="middle" x="669.788" y="-380.44" font-family="Helvetica,sans-Serif" font-size="10.00" fill="#ffffff">vcorelib.io</text>
</g>
<!-- vcorelib_dict&#45;&gt;vcorelib_io -->
<g id="edge9" class="edge"><title>vcorelib_dict&#45;&gt;vcorelib_io</title><style>.edge>path:hover{stroke-width:8}</style>
<path fill="none" stroke="black" d="M828.788,-593.24C820.069,-546.246 844.348,-530.892 828.788,-485.701"/>
<path fill="none" stroke="black" d="M828.788,-483.701C822.927,-466.68 822.89,-460.275 809.788,-447.931 781.914,-421.67 741.378,-404.758 711.09,-394.957"/>
<polygon fill="#f910d8" stroke="black" points="711.832,-391.523 701.244,-391.903 709.758,-398.209 711.832,-391.523"/>
</g>
<!-- vcorelib_io_cache -->
<g id="node13" class="node"><title>vcorelib_io_cache</title><style>.edge>path:hover{stroke-width:8}</style>
<ellipse fill="#813776" stroke="black" cx="828.788" cy="-382.94" rx="37.4533" ry="28.9828"/>
<text text-anchor="middle" x="828.788" y="-391.44" font-family="Helvetica,sans-Serif" font-size="10.00" fill="#ffffff">vcorelib.</text>
<text text-anchor="middle" x="828.788" y="-380.44" font-family="Helvetica,sans-Serif" font-size="10.00" fill="#ffffff">io.</text>
<text text-anchor="middle" x="828.788" y="-369.44" font-family="Helvetica,sans-Serif" font-size="10.00" fill="#ffffff">cache</text>
</g>
<!-- vcorelib_dict&#45;&gt;vcorelib_io_cache -->
<g id="edge10" class="edge"><title>vcorelib_dict&#45;&gt;vcorelib_io_cache</title><style>.edge>path:hover{stroke-width:8}</style>
<path fill="none" stroke="black" d="M828.788,-483.701C822.032,-464.08 821.6,-440.973 823.052,-421.941"/>
<polygon fill="#f910d8" stroke="black" points="826.551,-422.124 824.025,-411.835 819.583,-421.454 826.551,-422.124"/>
</g>
<!-- vcorelib_dict&#45;&gt;vcorelib_io_decode -->
<g id="edge11" class="edge"><title>vcorelib_dict&#45;&gt;vcorelib_io_decode</title><style>.edge>path:hover{stroke-width:8}</style>
<path fill="none" stroke="black" d="M651.984,-844.595C660.035,-832.075 670.535,-814.114 676.788,-796.992 692.304,-754.5 688.801,-741.694 695.788,-697.001"/>
</g>
<!-- vcorelib_dict&#45;&gt;vcorelib_io_encode -->
<g id="edge12" class="edge"><title>vcorelib_dict&#45;&gt;vcorelib_io_encode</title><style>.edge>path:hover{stroke-width:8}</style>
<path fill="none" stroke="black" d="M681.278,-859.334C811.562,-853.522 1212.71,-831.503 1233.79,-779.992"/>
<path fill="none" stroke="black" d="M1233.79,-777.992C1266.57,-697.857 909.284,-785.941 847.788,-724.992 806.392,-683.965 837.164,-652.917 828.788,-595.24"/>
<path fill="none" stroke="black" d="M828.788,-593.24C823.542,-564.962 806.46,-537.289 791.125,-517.097"/>
<polygon fill="#f910d8" stroke="black" points="793.849,-514.9 784.921,-509.196 788.344,-519.223 793.849,-514.9"/>
</g>
<!-- vcorelib_io_types -->
<g id="node16" class="node"><title>vcorelib_io_types</title><style>.edge>path:hover{stroke-width:8}</style>
<ellipse fill="#e505c5" stroke="black" cx="630.788" cy="-594.24" rx="37.4533" ry="28.9828"/>
<text text-anchor="middle" x="630.788" y="-602.74" font-family="Helvetica,sans-Serif" font-size="10.00" fill="#ffffff">vcorelib.</text>
<text text-anchor="middle" x="630.788" y="-591.74" font-family="Helvetica,sans-Serif" font-size="10.00" fill="#ffffff">io.</text>
<text text-anchor="middle" x="630.788" y="-580.74" font-family="Helvetica,sans-Serif" font-size="10.00" fill="#ffffff">types</text>
</g>
<!-- vcorelib_dict&#45;&gt;vcorelib_io_types -->
<g id="edge13" class="edge"><title>vcorelib_dict&#45;&gt;vcorelib_io_types</title><style>.edge>path:hover{stroke-width:8}</style>
<path fill="none" stroke="black" d="M628.458,-844.633C619.95,-832.275 609.375,-814.502 604.788,-796.992 589.987,-740.498 605.157,-672.806 617.753,-631.956"/>
<polygon fill="#f910d8" stroke="black" points="621.09,-633.011 620.798,-622.42 614.422,-630.881 621.09,-633.011"/>
</g>
<!-- vcorelib_math_time -->
<g id="node21" class="node"><title>vcorelib_math_time</title><style>.edge>path:hover{stroke-width:8}</style>
<ellipse fill="#e505c5" stroke="black" cx="1187.79" cy="-696.001" rx="37.4533" ry="28.9828"/>
<text text-anchor="middle" x="1187.79" y="-704.501" font-family="Helvetica,sans-Serif" font-size="10.00" fill="#ffffff">vcorelib.</text>
<text text-anchor="middle" x="1187.79" y="-693.501" font-family="Helvetica,sans-Serif" font-size="10.00" fill="#ffffff">math.</text>
<text text-anchor="middle" x="1187.79" y="-682.501" font-family="Helvetica,sans-Serif" font-size="10.00" fill="#ffffff">time</text>
</g>
<!-- vcorelib_dict&#45;&gt;vcorelib_math_time -->
<g id="edge14" class="edge"><title>vcorelib_dict&#45;&gt;vcorelib_math_time</title><style>.edge>path:hover{stroke-width:8}</style>
<path fill="none" stroke="black" d="M1233.79,-777.992C1241.19,-759.894 1231.34,-740.823 1218.88,-725.736"/>
<polygon fill="#f910d8" stroke="black" points="1221.47,-723.378 1212.2,-718.236 1216.24,-728.032 1221.47,-723.378"/>
</g>
<!-- vcorelib_paths_info_cache -->
<g id="node23" class="node"><title>vcorelib_paths_info_cache</title><style>.edge>path:hover{stroke-width:8}</style>
<ellipse fill="#8f3d83" stroke="black" cx="414.788" cy="-28.9914" rx="45.011" ry="28.9828"/>
<text text-anchor="middle" x="414.788" y="-37.4914" font-family="Helvetica,sans-Serif" font-size="10.00" fill="#ffffff">vcorelib.</text>
<text text-anchor="middle" x="414.788" y="-26.4914" font-family="Helvetica,sans-Serif" font-size="10.00" fill="#ffffff">paths.</text>
<text text-anchor="middle" x="414.788" y="-15.4914" font-family="Helvetica,sans-Serif" font-size="10.00" fill="#ffffff">info_cache</text>
</g>
<!-- vcorelib_dict&#45;&gt;vcorelib_paths_info_cache -->
<g id="edge15" class="edge"><title>vcorelib_dict&#45;&gt;vcorelib_paths_info_cache</title><style>.edge>path:hover{stroke-width:8}</style>
<path fill="none" stroke="black" d="M600.294,-860.403C507.243,-858.2 282.148,-847.636 229.788,-796.992 197.273,-765.543 210.788,-742.236 210.788,-697.001 210.788,-697.001 210.788,-697.001 210.788,-215.957 210.788,-161.092 194.605,-136.081 229.788,-93.9828 261.7,-55.7986 317.63,-40.3601 359.663,-34.1395"/>
<polygon fill="#f910d8" stroke="black" points="360.312,-37.5839 369.755,-32.7812 359.378,-30.6464 360.312,-37.5839"/>
</g>
<!-- vcorelib_task -->
<g id="node30" class="node"><title>vcorelib_task</title><style>.edge>path:hover{stroke-width:8}</style>
<ellipse fill="#c115a8" stroke="black" cx="1257.79" cy="-484.701" rx="42.2678" ry="18"/>
<text text-anchor="middle" x="1257.79" y="-482.201" font-family="Helvetica,sans-Serif" font-size="10.00" fill="#ffffff">vcorelib.task</text>
</g>
<!-- vcorelib_dict&#45;&gt;vcorelib_task -->
<g id="edge16" class="edge"><title>vcorelib_dict&#45;&gt;vcorelib_task</title><style>.edge>path:hover{stroke-width:8}</style>
<path fill="none" stroke="black" d="M1279.79,-695.001C1292.9,-649.403 1326.27,-641.921 1317.79,-595.24"/>
<path fill="none" stroke="black" d="M1317.79,-593.24C1312.1,-561.951 1292.77,-530.715 1277.56,-510.035"/>
<polygon fill="#f910d8" stroke="black" points="1280.18,-507.7 1271.35,-501.849 1274.61,-511.931 1280.18,-507.7"/>
</g>
<!-- vcorelib_task_dict_melder -->
<g id="node31" class="node"><title>vcorelib_task_dict_melder</title><style>.edge>path:hover{stroke-width:8}</style>
<ellipse fill="#a44697" stroke="black" cx="1252.79" cy="-594.24" rx="37.4533" ry="36.5405"/>
<text text-anchor="middle" x="1252.79" y="-608.24" font-family="Helvetica,sans-Serif" font-size="10.00" fill="#ffffff">vcorelib.</text>
<text text-anchor="middle" x="1252.79" y="-597.24" font-family="Helvetica,sans-Serif" font-size="10.00" fill="#ffffff">task.</text>
<text text-anchor="middle" x="1252.79" y="-586.24" font-family="Helvetica,sans-Serif" font-size="10.00" fill="#ffffff">dict.</text>
<text text-anchor="middle" x="1252.79" y="-575.24" font-family="Helvetica,sans-Serif" font-size="10.00" fill="#ffffff">melder</text>
</g>
<!-- vcorelib_dict&#45;&gt;vcorelib_task_dict_melder -->
<g id="edge17" class="edge"><title>vcorelib_dict&#45;&gt;vcorelib_task_dict_melder</title><style>.edge>path:hover{stroke-width:8}</style>
<path fill="none" stroke="black" d="M1233.79,-777.992C1249.46,-739.678 1268.35,-736.785 1279.79,-697.001"/>
<path fill="none" stroke="black" d="M1279.79,-695.001C1285.27,-675.941 1280.98,-654.742 1274.34,-636.805"/>
<polygon fill="#f910d8" stroke="black" points="1277.46,-635.166 1270.46,-627.21 1270.97,-637.792 1277.46,-635.166"/>
</g>
<!-- vcorelib_dict&#45;&gt;vcorelib_task_manager -->
<g id="edge18" class="edge"><title>vcorelib_dict&#45;&gt;vcorelib_task_manager</title><style>.edge>path:hover{stroke-width:8}</style>
<path fill="none" stroke="black" d="M1233.79,-777.992C1242.76,-756.057 1299.22,-729.868 1340.23,-713.333"/>
<polygon fill="#f910d8" stroke="black" points="1341.76,-716.491 1349.77,-709.549 1339.18,-709.985 1341.76,-716.491"/>
</g>
<!-- vcorelib_dict_cache -->
<g id="node9" class="node"><title>vcorelib_dict_cache</title><style>.edge>path:hover{stroke-width:8}</style>
<ellipse fill="#a83898" stroke="black" cx="618.788" cy="-216.957" rx="37.4533" ry="28.9828"/>
<text text-anchor="middle" x="618.788" y="-225.457" font-family="Helvetica,sans-Serif" font-size="10.00" fill="#ffffff">vcorelib.</text>
<text text-anchor="middle" x="618.788" y="-214.457" font-family="Helvetica,sans-Serif" font-size="10.00" fill="#ffffff">dict.</text>
<text text-anchor="middle" x="618.788" y="-203.457" font-family="Helvetica,sans-Serif" font-size="10.00" fill="#ffffff">cache</text>
</g>
<!-- vcorelib_dict_cache&#45;&gt;vcorelib_paths_info_cache -->
<g id="edge19" class="edge"><title>vcorelib_dict_cache&#45;&gt;vcorelib_paths_info_cache</title><style>.edge>path:hover{stroke-width:8}</style>
<path fill="none" stroke="black" d="M626.138,-188.428C629.697,-168.915 630.93,-142.936 618.788,-123.974"/>
</g>
<!-- vcorelib_dict_config -->
<g id="node10" class="node"><title>vcorelib_dict_config</title><style>.edge>path:hover{stroke-width:8}</style>
<ellipse fill="#96408a" stroke="black" cx="377.788" cy="-216.957" rx="37.4533" ry="28.9828"/>
<text text-anchor="middle" x="377.788" y="-225.457" font-family="Helvetica,sans-Serif" font-size="10.00" fill="#ffffff">vcorelib.</text>
<text text-anchor="middle" x="377.788" y="-214.457" font-family="Helvetica,sans-Serif" font-size="10.00" fill="#ffffff">dict.</text>
<text text-anchor="middle" x="377.788" y="-203.457" font-family="Helvetica,sans-Serif" font-size="10.00" fill="#ffffff">config</text>
</g>
<!-- vcorelib_io&#45;&gt;vcorelib_dict_cache -->
<g id="edge20" class="edge"><title>vcorelib_io&#45;&gt;vcorelib_dict_cache</title><style>.edge>path:hover{stroke-width:8}</style>
<path fill="none" stroke="black" d="M675.484,-364.969C680.305,-348.646 686.093,-323.233 683.788,-300.948"/>
<path fill="none" stroke="black" d="M683.788,-298.948C681.592,-277.721 667.531,-258.808 653.046,-244.608"/>
<polygon fill="#bd04a3" stroke="black" points="655.212,-241.844 645.493,-237.625 650.459,-246.984 655.212,-241.844"/>
</g>
<!-- vcorelib_io&#45;&gt;vcorelib_dict_config -->
<g id="edge21" class="edge"><title>vcorelib_io&#45;&gt;vcorelib_dict_config</title><style>.edge>path:hover{stroke-width:8}</style>
<path fill="none" stroke="black" d="M646.875,-369.072C597.129,-341.136 478.752,-274.657 416.919,-239.932"/>
<polygon fill="#bd04a3" stroke="black" points="418.293,-236.69 407.86,-234.845 414.866,-242.794 418.293,-236.69"/>
</g>
<!-- vcorelib_io&#45;&gt;vcorelib_paths_info_cache -->
<g id="edge22" class="edge"><title>vcorelib_io&#45;&gt;vcorelib_paths_info_cache</title><style>.edge>path:hover{stroke-width:8}</style>
<path fill="none" stroke="black" d="M683.788,-298.948C678.639,-249.171 684.11,-234.128 664.788,-187.966 651.264,-155.655 637.676,-153.472 618.788,-123.974"/>
</g>
<!-- vcorelib_schemas_base -->
<g id="node25" class="node"><title>vcorelib_schemas_base</title><style>.edge>path:hover{stroke-width:8}</style>
<ellipse fill="#bc2fa8" stroke="black" cx="280.788" cy="-216.957" rx="41.9398" ry="28.9828"/>
<text text-anchor="middle" x="280.788" y="-225.457" font-family="Helvetica,sans-Serif" font-size="10.00" fill="#ffffff">vcorelib.</text>
<text text-anchor="middle" x="280.788" y="-214.457" font-family="Helvetica,sans-Serif" font-size="10.00" fill="#ffffff">schemas.</text>
<text text-anchor="middle" x="280.788" y="-203.457" font-family="Helvetica,sans-Serif" font-size="10.00" fill="#ffffff">base</text>
</g>
<!-- vcorelib_io&#45;&gt;vcorelib_schemas_base -->
<g id="edge23" class="edge"><title>vcorelib_io&#45;&gt;vcorelib_schemas_base</title><style>.edge>path:hover{stroke-width:8}</style>
<path fill="none" stroke="black" d="M640.9,-372.128C605.838,-360.061 545.045,-338.628 493.788,-317.948 420.72,-288.469 402.385,-280.934 331.788,-245.948 328.47,-244.304 325.058,-242.557 321.644,-240.77"/>
<polygon fill="#bd04a3" stroke="black" points="323.146,-237.604 312.674,-235.99 319.854,-243.782 323.146,-237.604"/>
</g>
<!-- vcorelib_io_archive -->
<g id="node12" class="node"><title>vcorelib_io_archive</title><style>.edge>path:hover{stroke-width:8}</style>
<ellipse fill="#a13591" stroke="black" cx="931.788" cy="-484.701" rx="37.4533" ry="28.9828"/>
<text text-anchor="middle" x="931.788" y="-493.201" font-family="Helvetica,sans-Serif" font-size="10.00" fill="#ffffff">vcorelib.</text>
<text text-anchor="middle" x="931.788" y="-482.201" font-family="Helvetica,sans-Serif" font-size="10.00" fill="#ffffff">io.</text>
<text text-anchor="middle" x="931.788" y="-471.201" font-family="Helvetica,sans-Serif" font-size="10.00" fill="#ffffff">archive</text>
</g>
<!-- vcorelib_io_archive&#45;&gt;vcorelib_io_cache -->
<g id="edge24" class="edge"><title>vcorelib_io_archive&#45;&gt;vcorelib_io_cache</title><style>.edge>path:hover{stroke-width:8}</style>
<path fill="none" stroke="black" d="M908.929,-461.56C894.26,-447.353 875.046,-428.743 859.109,-413.307"/>
<polygon fill="#a13591" stroke="black" points="861.201,-410.461 851.583,-406.018 856.331,-415.489 861.201,-410.461"/>
</g>
<!-- vcorelib_io_decode&#45;&gt;vcorelib_io -->
<g id="edge25" class="edge"><title>vcorelib_io_decode&#45;&gt;vcorelib_io</title><style>.edge>path:hover{stroke-width:8}</style>
<path fill="none" stroke="black" d="M670.507,-455.646C670.368,-441.822 670.202,-425.212 670.064,-411.461"/>
<polygon fill="#913084" stroke="black" points="673.561,-411.117 669.96,-401.153 666.561,-411.188 673.561,-411.117"/>
</g>
<!-- vcorelib_io_encode&#45;&gt;vcorelib_io -->
<g id="edge26" class="edge"><title>vcorelib_io_encode&#45;&gt;vcorelib_io</title><style>.edge>path:hover{stroke-width:8}</style>
<path fill="none" stroke="black" d="M741.986,-460.563C726.792,-444.437 706.609,-423.017 691.446,-406.925"/>
<polygon fill="#913084" stroke="black" points="693.855,-404.378 684.449,-399.5 688.76,-409.178 693.855,-404.378"/>
</g>
<!-- vcorelib_io_types&#45;&gt;vcorelib_dict_cache -->
<g id="edge27" class="edge"><title>vcorelib_io_types&#45;&gt;vcorelib_dict_cache</title><style>.edge>path:hover{stroke-width:8}</style>
<path fill="none" stroke="black" d="M617.415,-567.029C608.002,-545.171 598.306,-513.263 605.788,-485.701"/>
<path fill="none" stroke="black" d="M605.788,-483.701C627.129,-405.087 625.236,-308.676 621.993,-256.293"/>
<polygon fill="#e505c5" stroke="black" points="625.472,-255.857 621.311,-246.114 618.487,-256.326 625.472,-255.857"/>
</g>
<!-- vcorelib_io_types&#45;&gt;vcorelib_dict_config -->
<g id="edge28" class="edge"><title>vcorelib_io_types&#45;&gt;vcorelib_dict_config</title><style>.edge>path:hover{stroke-width:8}</style>
<path fill="none" stroke="black" d="M605.815,-572.575C590.023,-558.899 569.671,-540.108 553.788,-521.47 541.371,-506.899 539.813,-502.01 529.788,-485.701"/>
<path fill="none" stroke="black" d="M529.788,-483.701C479.744,-402.283 425.013,-304.137 396.867,-252.928"/>
<polygon fill="#e505c5" stroke="black" points="399.807,-251.01 391.928,-243.927 393.67,-254.377 399.807,-251.01"/>
</g>
<!-- vcorelib_io_types&#45;&gt;vcorelib_io -->
<g id="edge29" class="edge"><title>vcorelib_io_types&#45;&gt;vcorelib_io</title><style>.edge>path:hover{stroke-width:8}</style>
<path fill="none" stroke="black" d="M605.788,-483.701C613.63,-454.812 633.226,-426.541 648.685,-407.515"/>
<polygon fill="#e505c5" stroke="black" points="651.489,-409.618 655.225,-399.704 646.122,-405.124 651.489,-409.618"/>
</g>
<!-- vcorelib_io_types&#45;&gt;vcorelib_io_archive -->
<g id="edge30" class="edge"><title>vcorelib_io_types&#45;&gt;vcorelib_io_archive</title><style>.edge>path:hover{stroke-width:8}</style>
<path fill="none" stroke="black" d="M665.141,-582.262C707.244,-568.658 780.65,-544.454 842.788,-521.47 858.162,-515.783 874.872,-509.181 889.618,-503.208"/>
<polygon fill="#e505c5" stroke="black" points="891.049,-506.404 898.99,-499.39 888.408,-499.922 891.049,-506.404"/>
</g>
<!-- vcorelib_io_types&#45;&gt;vcorelib_io_cache -->
<g id="edge31" class="edge"><title>vcorelib_io_types&#45;&gt;vcorelib_io_cache</title><style>.edge>path:hover{stroke-width:8}</style>
<path fill="none" stroke="black" d="M605.788,-483.701C610.504,-466.328 610.942,-459.434 624.788,-447.931 637.245,-437.582 727.526,-411.603 783.733,-396.115"/>
<polygon fill="#e505c5" stroke="black" points="784.747,-399.466 793.464,-393.444 782.894,-392.716 784.747,-399.466"/>
</g>
<!-- vcorelib_io_types&#45;&gt;vcorelib_io_decode -->
<g id="edge32" class="edge"><title>vcorelib_io_types&#45;&gt;vcorelib_io_decode</title><style>.edge>path:hover{stroke-width:8}</style>
<path fill="none" stroke="black" d="M640.881,-566.103C645.808,-552.858 651.808,-536.727 657.137,-522.401"/>
<polygon fill="#e505c5" stroke="black" points="660.491,-523.421 660.697,-512.829 653.931,-520.981 660.491,-523.421"/>
</g>
<!-- vcorelib_io_types&#45;&gt;vcorelib_io_encode -->
<g id="edge33" class="edge"><title>vcorelib_io_types&#45;&gt;vcorelib_io_encode</title><style>.edge>path:hover{stroke-width:8}</style>
<path fill="none" stroke="black" d="M656.117,-572.759C677.152,-555.751 707.248,-531.417 730.276,-512.797"/>
<polygon fill="#e505c5" stroke="black" points="732.524,-515.48 738.1,-506.471 728.123,-510.037 732.524,-515.48"/>
</g>
<!-- vcorelib_io_types&#45;&gt;vcorelib_paths_info_cache -->
<g id="edge34" class="edge"><title>vcorelib_io_types&#45;&gt;vcorelib_paths_info_cache</title><style>.edge>path:hover{stroke-width:8}</style>
<path fill="none" stroke="black" d="M529.788,-483.701C464.542,-368.011 523.051,-311.121 572.788,-187.966 585.904,-155.488 637.097,-153.834 618.788,-123.974"/>
<path fill="none" stroke="black" d="M618.788,-121.974C586.487,-70.7333 517.865,-47.7889 469.143,-37.6803"/>
<polygon fill="#e505c5" stroke="black" points="469.554,-34.1945 459.068,-35.7125 468.212,-41.0647 469.554,-34.1945"/>
</g>
<!-- vcorelib_logging -->
<g id="node17" class="node"><title>vcorelib_logging</title><style>.edge>path:hover{stroke-width:8}</style>
<ellipse fill="#a44697" stroke="black" cx="1024.79" cy="-484.701" rx="37.4533" ry="21.4286"/>
<text text-anchor="middle" x="1024.79" y="-487.701" font-family="Helvetica,sans-Serif" font-size="10.00" fill="#ffffff">vcorelib.</text>
<text text-anchor="middle" x="1024.79" y="-476.701" font-family="Helvetica,sans-Serif" font-size="10.00" fill="#ffffff">logging</text>
</g>
<!-- vcorelib_math -->
<g id="node18" class="node"><title>vcorelib_math</title><style>.edge>path:hover{stroke-width:8}</style>
<ellipse fill="#f910d8" stroke="black" cx="900.788" cy="-696.001" rx="44.3" ry="18"/>
<text text-anchor="middle" x="900.788" y="-693.501" font-family="Helvetica,sans-Serif" font-size="10.00" fill="#ffffff">vcorelib.math</text>
</g>
<!-- vcorelib_math&#45;&gt;vcorelib_io_archive -->
<g id="edge35" class="edge"><title>vcorelib_math&#45;&gt;vcorelib_io_archive</title><style>.edge>path:hover{stroke-width:8}</style>
<path fill="none" stroke="black" d="M866.788,-593.24C865.976,-563.785 884.115,-535.475 901.434,-515.301"/>
<polygon fill="#f910d8" stroke="black" points="904.168,-517.495 908.241,-507.714 898.958,-512.82 904.168,-517.495"/>
</g>
<!-- vcorelib_math&#45;&gt;vcorelib_io_cache -->
<g id="edge36" class="edge"><title>vcorelib_math&#45;&gt;vcorelib_io_cache</title><style>.edge>path:hover{stroke-width:8}</style>
<path fill="none" stroke="black" d="M866.788,-593.24C865.104,-532.192 849.74,-462.68 839.072,-421.112"/>
<polygon fill="#f910d8" stroke="black" points="842.453,-420.21 836.539,-411.42 835.681,-421.98 842.453,-420.21"/>
</g>
<!-- vcorelib_math&#45;&gt;vcorelib_io_decode -->
<g id="edge37" class="edge"><title>vcorelib_math&#45;&gt;vcorelib_io_decode</title><style>.edge>path:hover{stroke-width:8}</style>
<path fill="none" stroke="black" d="M878.89,-680.083C861.082,-667.63 835.589,-649.063 814.788,-631.009 772.191,-594.038 727.029,-547.018 698.876,-516.644"/>
<polygon fill="#f910d8" stroke="black" points="701.103,-513.896 691.75,-508.919 695.958,-518.642 701.103,-513.896"/>
</g>
<!-- vcorelib_math&#45;&gt;vcorelib_io_encode -->
<g id="edge38" class="edge"><title>vcorelib_math&#45;&gt;vcorelib_io_encode</title><style>.edge>path:hover{stroke-width:8}</style>
<path fill="none" stroke="black" d="M891.622,-678.287C881.842,-658.932 867.63,-625.785 866.788,-595.24"/>
<path fill="none" stroke="black" d="M866.788,-593.24C866.227,-572.898 827.403,-536.905 797.589,-512.205"/>
<polygon fill="#f910d8" stroke="black" points="799.803,-509.494 789.846,-505.872 795.371,-514.912 799.803,-509.494"/>
</g>
<!-- vcorelib_math&#45;&gt;vcorelib_logging -->
<g id="edge39" class="edge"><title>vcorelib_math&#45;&gt;vcorelib_logging</title><style>.edge>path:hover{stroke-width:8}</style>
<path fill="none" stroke="black" d="M866.788,-593.24C866.534,-584.024 976.263,-522.503 977.788,-521.47 983.605,-517.529 989.677,-513.134 995.448,-508.811"/>
<polygon fill="#f910d8" stroke="black" points="997.786,-511.431 1003.63,-502.591 993.548,-505.859 997.786,-511.431"/>
</g>
<!-- vcorelib_math&#45;&gt;vcorelib_task -->
<g id="edge40" class="edge"><title>vcorelib_math&#45;&gt;vcorelib_task</title><style>.edge>path:hover{stroke-width:8}</style>
<path fill="none" stroke="black" d="M944.529,-692.538C994.302,-687.702 1075.8,-673.383 1130.79,-631.009 1160.78,-607.9 1149.5,-586.515 1173.79,-557.47 1189.86,-538.249 1211.4,-519.957 1228.64,-506.651"/>
<polygon fill="#f910d8" stroke="black" points="1230.86,-509.363 1236.72,-500.537 1226.64,-503.782 1230.86,-509.363"/>
</g>
<!-- vcorelib_math_analysis_average -->
<g id="node19" class="node"><title>vcorelib_math_analysis_average</title><style>.edge>path:hover{stroke-width:8}</style>
<ellipse fill="#c247b1" stroke="black" cx="1081.79" cy="-594.24" rx="39.6962" ry="36.5405"/>
<text text-anchor="middle" x="1081.79" y="-608.24" font-family="Helvetica,sans-Serif" font-size="10.00" fill="#ffffff">vcorelib.</text>
<text text-anchor="middle" x="1081.79" y="-597.24" font-family="Helvetica,sans-Serif" font-size="10.00" fill="#ffffff">math.</text>
<text text-anchor="middle" x="1081.79" y="-586.24" font-family="Helvetica,sans-Serif" font-size="10.00" fill="#ffffff">analysis.</text>
<text text-anchor="middle" x="1081.79" y="-575.24" font-family="Helvetica,sans-Serif" font-size="10.00" fill="#ffffff">average</text>
</g>
<!-- vcorelib_math_analysis_rate -->
<g id="node20" class="node"><title>vcorelib_math_analysis_rate</title><style>.edge>path:hover{stroke-width:8}</style>
<ellipse fill="#96408a" stroke="black" cx="1119.79" cy="-484.701" rx="39.6962" ry="36.5405"/>
<text text-anchor="middle" x="1119.79" y="-498.701" font-family="Helvetica,sans-Serif" font-size="10.00" fill="#ffffff">vcorelib.</text>
<text text-anchor="middle" x="1119.79" y="-487.701" font-family="Helvetica,sans-Serif" font-size="10.00" fill="#ffffff">math.</text>
<text text-anchor="middle" x="1119.79" y="-476.701" font-family="Helvetica,sans-Serif" font-size="10.00" fill="#ffffff">analysis.</text>
<text text-anchor="middle" x="1119.79" y="-465.701" font-family="Helvetica,sans-Serif" font-size="10.00" fill="#ffffff">rate</text>
</g>
<!-- vcorelib_math_analysis_average&#45;&gt;vcorelib_math_analysis_rate -->
<g id="edge41" class="edge"><title>vcorelib_math_analysis_average&#45;&gt;vcorelib_math_analysis_rate</title><style>.edge>path:hover{stroke-width:8}</style>
<path fill="none" stroke="black" d="M1093.92,-558.918C1097.21,-549.605 1100.81,-539.393 1104.27,-529.63"/>
<polygon fill="#c247b1" stroke="black" points="1107.61,-530.66 1107.64,-520.065 1101.01,-528.328 1107.61,-530.66"/>
</g>
<!-- vcorelib_math_time&#45;&gt;vcorelib_io_archive -->
<g id="edge42" class="edge"><title>vcorelib_math_time&#45;&gt;vcorelib_io_archive</title><style>.edge>path:hover{stroke-width:8}</style>
<path fill="none" stroke="black" d="M931.788,-593.24C910.978,-577.503 912.887,-546.901 918.913,-522.353"/>
<polygon fill="#e505c5" stroke="black" points="922.317,-523.176 921.59,-512.607 915.567,-521.323 922.317,-523.176"/>
</g>
<!-- vcorelib_math_time&#45;&gt;vcorelib_io_cache -->
<g id="edge43" class="edge"><title>vcorelib_math_time&#45;&gt;vcorelib_io_cache</title><style>.edge>path:hover{stroke-width:8}</style>
<path fill="none" stroke="black" d="M1187.79,-593.24C1187.99,-528.109 1213.53,-495.258 1168.79,-447.931 1129.47,-406.348 960.308,-391.215 876.383,-386.195"/>
<polygon fill="#e505c5" stroke="black" points="876.526,-382.698 866.342,-385.618 876.125,-389.686 876.526,-382.698"/>
</g>
<!-- vcorelib_math_time&#45;&gt;vcorelib_io_decode -->
<g id="edge44" class="edge"><title>vcorelib_math_time&#45;&gt;vcorelib_io_decode</title><style>.edge>path:hover{stroke-width:8}</style>
<path fill="none" stroke="black" d="M1151.6,-687.537C1099.01,-675.309 1000.27,-647.028 931.788,-595.24"/>
<path fill="none" stroke="black" d="M931.788,-593.24C909.705,-576.54 906.129,-568.62 880.788,-557.47 812.88,-527.591 785.101,-552.664 717.788,-521.47 712.787,-519.153 707.814,-516.232 703.078,-513.062"/>
<polygon fill="#e505c5" stroke="black" points="705.021,-510.149 694.854,-507.167 700.942,-515.838 705.021,-510.149"/>
</g>
<!-- vcorelib_math_time&#45;&gt;vcorelib_io_encode -->
<g id="edge45" class="edge"><title>vcorelib_math_time&#45;&gt;vcorelib_io_encode</title><style>.edge>path:hover{stroke-width:8}</style>
<path fill="none" stroke="black" d="M931.788,-593.24C909.705,-576.54 904.311,-572.071 880.788,-557.47 852.399,-539.849 843.177,-539.091 814.788,-521.47 809.608,-518.255 804.236,-514.721 799.008,-511.165"/>
<polygon fill="#e505c5" stroke="black" points="800.619,-508.024 790.405,-505.212 796.636,-513.78 800.619,-508.024"/>
</g>
<!-- vcorelib_math_time&#45;&gt;vcorelib_logging -->
<g id="edge46" class="edge"><title>vcorelib_math_time&#45;&gt;vcorelib_logging</title><style>.edge>path:hover{stroke-width:8}</style>
<path fill="none" stroke="black" d="M931.788,-593.24C914.909,-580.475 962.364,-536.565 995.543,-508.958"/>
<polygon fill="#e505c5" stroke="black" points="998.119,-511.372 1003.62,-502.319 993.675,-505.963 998.119,-511.372"/>
</g>
<!-- vcorelib_math_time&#45;&gt;vcorelib_math_analysis_rate -->
<g id="edge47" class="edge"><title>vcorelib_math_time&#45;&gt;vcorelib_math_analysis_rate</title><style>.edge>path:hover{stroke-width:8}</style>
<path fill="none" stroke="black" d="M1187.74,-666.62C1187.72,-646.656 1187.71,-619.314 1187.79,-595.24"/>
<path fill="none" stroke="black" d="M1187.79,-593.24C1187.87,-565.159 1171.11,-538.448 1154.2,-518.672"/>
<polygon fill="#e505c5" stroke="black" points="1156.78,-516.299 1147.5,-511.176 1151.56,-520.964 1156.78,-516.299"/>
</g>
<!-- vcorelib_math_time&#45;&gt;vcorelib_task -->
<g id="edge48" class="edge"><title>vcorelib_math_time&#45;&gt;vcorelib_task</title><style>.edge>path:hover{stroke-width:8}</style>
<path fill="none" stroke="black" d="M1187.79,-593.24C1187.89,-559.659 1212.14,-528.339 1232.07,-508.26"/>
<polygon fill="#e505c5" stroke="black" points="1234.68,-510.602 1239.44,-501.134 1229.81,-505.571 1234.68,-510.602"/>
</g>
<!-- vcorelib_paths&#45;&gt;vcorelib_dict_cache -->
<g id="edge49" class="edge"><title>vcorelib_paths&#45;&gt;vcorelib_dict_cache</title><style>.edge>path:hover{stroke-width:8}</style>
<path fill="none" stroke="black" d="M491.788,-483.701C477.631,-391.49 548.157,-295.738 589.853,-248.328"/>
<polygon fill="#ef06ce" stroke="black" points="592.714,-250.379 596.778,-240.595 587.5,-245.709 592.714,-250.379"/>
</g>
<!-- vcorelib_paths&#45;&gt;vcorelib_dict_config -->
<g id="edge50" class="edge"><title>vcorelib_paths&#45;&gt;vcorelib_dict_config</title><style>.edge>path:hover{stroke-width:8}</style>
<path fill="none" stroke="black" d="M377.788,-298.948C370.224,-286.201 368.889,-270.219 369.936,-255.828"/>
<polygon fill="#ef06ce" stroke="black" points="373.436,-256.025 371.064,-245.699 366.479,-255.25 373.436,-256.025"/>
</g>
<!-- vcorelib_paths&#45;&gt;vcorelib_io -->
<g id="edge51" class="edge"><title>vcorelib_paths&#45;&gt;vcorelib_io</title><style>.edge>path:hover{stroke-width:8}</style>
<path fill="none" stroke="black" d="M491.788,-593.24C491.728,-553.85 521.255,-553.779 543.788,-521.47 554.739,-505.767 553.619,-498.576 567.788,-485.701"/>
<path fill="none" stroke="black" d="M567.788,-483.701C581.956,-470.825 578.916,-462.103 591.788,-447.931 606.593,-431.63 625.668,-415.907 641.248,-404.125"/>
<polygon fill="#ef06ce" stroke="black" points="643.55,-406.776 649.496,-398.007 639.379,-401.154 643.55,-406.776"/>
</g>
<!-- vcorelib_paths&#45;&gt;vcorelib_io_cache -->
<g id="edge52" class="edge"><title>vcorelib_paths&#45;&gt;vcorelib_io_cache</title><style>.edge>path:hover{stroke-width:8}</style>
<path fill="none" stroke="black" d="M567.788,-483.701C581.956,-470.825 576.226,-459.082 591.788,-447.931 599.696,-442.264 716.933,-412.117 783.488,-395.3"/>
<polygon fill="#ef06ce" stroke="black" points="784.475,-398.661 793.315,-392.821 782.763,-391.874 784.475,-398.661"/>
</g>
<!-- vcorelib_paths&#45;&gt;vcorelib_io_types -->
<g id="edge53" class="edge"><title>vcorelib_paths&#45;&gt;vcorelib_io_types</title><style>.edge>path:hover{stroke-width:8}</style>
<path fill="none" stroke="black" d="M491.788,-695.001C525.607,-667.897 566.028,-639.282 594.541,-619.683"/>
<polygon fill="#ef06ce" stroke="black" points="596.711,-622.439 602.986,-613.902 592.757,-616.663 596.711,-622.439"/>
</g>
<!-- vcorelib_paths&#45;&gt;vcorelib_schemas_base -->
<g id="edge54" class="edge"><title>vcorelib_paths&#45;&gt;vcorelib_schemas_base</title><style>.edge>path:hover{stroke-width:8}</style>
<path fill="none" stroke="black" d="M491.788,-593.24C491.715,-545.445 502.142,-532.361 491.788,-485.701"/>
<path fill="none" stroke="black" d="M491.788,-483.701C487.888,-466.127 481.904,-463.453 472.788,-447.931 433.397,-380.86 406.42,-373.27 377.788,-300.948"/>
<path fill="none" stroke="black" d="M377.788,-298.948C363.975,-275.671 340.947,-256.019 320.794,-241.904"/>
<polygon fill="#ef06ce" stroke="black" points="322.611,-238.908 312.368,-236.2 318.686,-244.704 322.611,-238.908"/>
</g>
<!-- vcorelib_task_subprocess_run -->
<g id="node33" class="node"><title>vcorelib_task_subprocess_run</title><style>.edge>path:hover{stroke-width:8}</style>
<ellipse fill="#a44697" stroke="black" cx="414.788" cy="-484.701" rx="49.4949" ry="36.5405"/>
<text text-anchor="middle" x="414.788" y="-498.701" font-family="Helvetica,sans-Serif" font-size="10.00" fill="#ffffff">vcorelib.</text>
<text text-anchor="middle" x="414.788" y="-487.701" font-family="Helvetica,sans-Serif" font-size="10.00" fill="#ffffff">task.</text>
<text text-anchor="middle" x="414.788" y="-476.701" font-family="Helvetica,sans-Serif" font-size="10.00" fill="#ffffff">subprocess.</text>
<text text-anchor="middle" x="414.788" y="-465.701" font-family="Helvetica,sans-Serif" font-size="10.00" fill="#ffffff">run</text>
</g>
<!-- vcorelib_paths&#45;&gt;vcorelib_task_subprocess_run -->
<g id="edge55" class="edge"><title>vcorelib_paths&#45;&gt;vcorelib_task_subprocess_run</title><style>.edge>path:hover{stroke-width:8}</style>
<path fill="none" stroke="black" d="M323.417,-770.106C368.16,-759.607 441.288,-737.473 491.788,-697.001"/>
<path fill="none" stroke="black" d="M491.788,-695.001C526.386,-667.273 491.855,-639.578 491.788,-595.24"/>
<path fill="none" stroke="black" d="M491.788,-593.24C491.744,-564.734 473.636,-538.587 454.994,-519.213"/>
<polygon fill="#ef06ce" stroke="black" points="457.422,-516.692 447.859,-512.129 452.49,-521.659 457.422,-516.692"/>
</g>
<!-- vcorelib_schemas_base&#45;&gt;vcorelib_schemas -->
<g id="edge56" class="edge"><title>vcorelib_schemas_base&#45;&gt;vcorelib_schemas</title><style>.edge>path:hover{stroke-width:8}</style>
<path fill="none" stroke="black" d="M251.183,-196.224C228.852,-181.339 198.24,-160.935 175.242,-145.606"/>
<polygon fill="#bc2fa8" stroke="black" points="177.096,-142.636 166.834,-140.002 173.214,-148.461 177.096,-142.636"/>
</g>
<!-- vcorelib_schemas_mixins -->
<g id="node26" class="node"><title>vcorelib_schemas_mixins</title><style>.edge>path:hover{stroke-width:8}</style>
<ellipse fill="#a44697" stroke="black" cx="280.788" cy="-122.974" rx="41.9398" ry="28.9828"/>
<text text-anchor="middle" x="280.788" y="-131.474" font-family="Helvetica,sans-Serif" font-size="10.00" fill="#ffffff">vcorelib.</text>
<text text-anchor="middle" x="280.788" y="-120.474" font-family="Helvetica,sans-Serif" font-size="10.00" fill="#ffffff">schemas.</text>
<text text-anchor="middle" x="280.788" y="-109.474" font-family="Helvetica,sans-Serif" font-size="10.00" fill="#ffffff">mixins</text>
</g>
<!-- vcorelib_schemas_base&#45;&gt;vcorelib_schemas_mixins -->
<g id="edge57" class="edge"><title>vcorelib_schemas_base&#45;&gt;vcorelib_schemas_mixins</title><style>.edge>path:hover{stroke-width:8}</style>
<path fill="none" stroke="black" d="M280.788,-187.859C280.788,-179.821 280.788,-170.919 280.788,-162.377"/>
<polygon fill="#bc2fa8" stroke="black" points="284.288,-162.217 280.788,-152.217 277.288,-162.217 284.288,-162.217"/>
</g>
<!-- vcorelib_script -->
<g id="node27" class="node"><title>vcorelib_script</title><style>.edge>path:hover{stroke-width:8}</style>
<ellipse fill="#c247b1" stroke="black" cx="1350.79" cy="-861.983" rx="37.4533" ry="21.4286"/>
<text text-anchor="middle" x="1350.79" y="-864.983" font-family="Helvetica,sans-Serif" font-size="10.00" fill="#ffffff">vcorelib.</text>
<text text-anchor="middle" x="1350.79" y="-853.983" font-family="Helvetica,sans-Serif" font-size="10.00" fill="#ffffff">script</text>
</g>
<!-- vcorelib_script&#45;&gt;vcorelib_task_manager -->
<g id="edge58" class="edge"><title>vcorelib_script&#45;&gt;vcorelib_task_manager</title><style>.edge>path:hover{stroke-width:8}</style>
<path fill="none" stroke="black" d="M1376.09,-846.204C1405.53,-828.049 1449.46,-797.51 1443.79,-779.992"/>
<path fill="none" stroke="black" d="M1443.79,-777.992C1437.75,-759.343 1425.51,-741.507 1413.65,-727.344"/>
<polygon fill="#c247b1" stroke="black" points="1415.97,-724.683 1406.76,-719.451 1410.7,-729.286 1415.97,-724.683"/>
</g>
<!-- vcorelib_target -->
<g id="node28" class="node"><title>vcorelib_target</title><style>.edge>path:hover{stroke-width:8}</style>
<ellipse fill="#db2fc2" stroke="black" cx="1257.79" cy="-861.983" rx="37.4533" ry="21.4286"/>
<text text-anchor="middle" x="1257.79" y="-864.983" font-family="Helvetica,sans-Serif" font-size="10.00" fill="#ffffff">vcorelib.</text>
<text text-anchor="middle" x="1257.79" y="-853.983" font-family="Helvetica,sans-Serif" font-size="10.00" fill="#ffffff">target</text>
</g>
<!-- vcorelib_target&#45;&gt;vcorelib_task -->
<g id="edge59" class="edge"><title>vcorelib_target&#45;&gt;vcorelib_task</title><style>.edge>path:hover{stroke-width:8}</style>
<path fill="none" stroke="black" d="M1273.63,-842.659C1286.72,-826.851 1305.15,-802.999 1317.79,-779.992"/>
<path fill="none" stroke="black" d="M1317.79,-777.992C1337.34,-742.395 1324.19,-635.344 1317.79,-595.24"/>
</g>
<!-- vcorelib_target&#45;&gt;vcorelib_task_manager -->
<g id="edge60" class="edge"><title>vcorelib_target&#45;&gt;vcorelib_task_manager</title><style>.edge>path:hover{stroke-width:8}</style>
<path fill="none" stroke="black" d="M1317.79,-777.992C1327.73,-759.882 1341.89,-741.854 1354.55,-727.42"/>
<polygon fill="#db2fc2" stroke="black" points="1357.32,-729.574 1361.39,-719.793 1352.11,-724.9 1357.32,-729.574"/>
</g>
<!-- vcorelib_target_resolver -->
<g id="node29" class="node"><title>vcorelib_target_resolver</title><style>.edge>path:hover{stroke-width:8}</style>
<ellipse fill="#b83da6" stroke="black" cx="1443.79" cy="-861.983" rx="37.4533" ry="28.9828"/>
<text text-anchor="middle" x="1443.79" y="-870.483" font-family="Helvetica,sans-Serif" font-size="10.00" fill="#ffffff">vcorelib.</text>
<text text-anchor="middle" x="1443.79" y="-859.483" font-family="Helvetica,sans-Serif" font-size="10.00" fill="#ffffff">target.</text>
<text text-anchor="middle" x="1443.79" y="-848.483" font-family="Helvetica,sans-Serif" font-size="10.00" fill="#ffffff">resolver</text>
</g>
<!-- vcorelib_target_resolver&#45;&gt;vcorelib_task_manager -->
<g id="edge61" class="edge"><title>vcorelib_target_resolver&#45;&gt;vcorelib_task_manager</title><style>.edge>path:hover{stroke-width:8}</style>
<path fill="none" stroke="black" d="M1447.98,-832.955C1449.33,-817.047 1449.29,-796.982 1443.79,-779.992"/>
</g>
</g>
</svg>
