<?xml version="1.0" encoding="UTF-8" standalone="no"?>
<!DOCTYPE svg PUBLIC "-//W3C//DTD SVG 1.1//EN"
 "http://www.w3.org/Graphics/SVG/1.1/DTD/svg11.dtd">
<!-- Generated by graphviz version 3.0.1~dev.20220405.0544 (20220405.0544)
 -->
<!-- Title: G Pages: 1 -->
<svg width="525pt" height="437pt"
 viewBox="0.00 0.00 524.89 436.90" xmlns="http://www.w3.org/2000/svg" xmlns:xlink="http://www.w3.org/1999/xlink">
<g id="graph0" class="graph" transform="scale(1 1) rotate(0) translate(4 432.9)">
<title>G</title><style>.edge>path:hover{stroke-width:8}</style>
<polygon fill="white" stroke="transparent" points="-4,4 -4,-432.9 520.89,-432.9 520.89,4 -4,4"/>
<!-- tomli -->
<g id="node1" class="node">
<title>tomli</title><style>.edge>path:hover{stroke-width:8}</style>
<ellipse fill="#b65353" stroke="black" cx="76.91" cy="-410.9" rx="27" ry="18"/>
<text text-anchor="middle" x="76.91" y="-407.9" font-family="Helvetica,sans-Serif" font-size="10.00" fill="#ffffff">tomli</text>
</g>
<!-- vcorelib_io_decode -->
<g id="node7" class="node">
<title>vcorelib_io_decode</title><style>.edge>path:hover{stroke-width:8}</style>
<ellipse fill="#3535a1" stroke="black" cx="76.91" cy="-129.34" rx="37.79" ry="31.23"/>
<text text-anchor="middle" x="76.91" y="-138.34" font-family="Helvetica,sans-Serif" font-size="10.00" fill="#ffffff">vcorelib.</text>
<text text-anchor="middle" x="76.91" y="-126.34" font-family="Helvetica,sans-Serif" font-size="10.00" fill="#ffffff">io.</text>
<text text-anchor="middle" x="76.91" y="-114.34" font-family="Helvetica,sans-Serif" font-size="10.00" fill="#ffffff">decode</text>
</g>
<!-- tomli&#45;&gt;vcorelib_io_decode -->
<g id="edge1" class="edge">
<title>tomli&#45;&gt;vcorelib_io_decode</title><style>.edge>path:hover{stroke-width:8}</style>
<path fill="none" stroke="black" d="M76.91,-392.83C76.91,-349.24 76.91,-232.86 76.91,-170.74"/>
<polygon fill="#b65353" stroke="black" points="80.41,-170.52 76.91,-160.52 73.41,-170.52 80.41,-170.52"/>
</g>
<!-- tomli_w -->
<g id="node2" class="node">
<title>tomli_w</title><style>.edge>path:hover{stroke-width:8}</style>
<ellipse fill="#40c040" stroke="black" cx="221.91" cy="-410.9" rx="30.01" ry="18"/>
<text text-anchor="middle" x="221.91" y="-407.9" font-family="Helvetica,sans-Serif" font-size="10.00" fill="#000000">tomli_w</text>
</g>
<!-- vcorelib_io_encode -->
<g id="node8" class="node">
<title>vcorelib_io_encode</title><style>.edge>path:hover{stroke-width:8}</style>
<ellipse fill="#3535a1" stroke="black" cx="169.91" cy="-129.34" rx="37.79" ry="31.23"/>
<text text-anchor="middle" x="169.91" y="-138.34" font-family="Helvetica,sans-Serif" font-size="10.00" fill="#ffffff">vcorelib.</text>
<text text-anchor="middle" x="169.91" y="-126.34" font-family="Helvetica,sans-Serif" font-size="10.00" fill="#ffffff">io.</text>
<text text-anchor="middle" x="169.91" y="-114.34" font-family="Helvetica,sans-Serif" font-size="10.00" fill="#ffffff">encode</text>
</g>
<!-- tomli_w&#45;&gt;vcorelib_io_encode -->
<g id="edge2" class="edge">
<title>tomli_w&#45;&gt;vcorelib_io_encode</title><style>.edge>path:hover{stroke-width:8}</style>
<path fill="none" stroke="black" d="M219.26,-392.69C215.75,-370.14 209.25,-329.38 202.91,-294.68 195.11,-252 185.2,-203.3 178.29,-170.06"/>
<polygon fill="#40c040" stroke="black" points="181.71,-169.34 176.24,-160.27 174.86,-170.77 181.71,-169.34"/>
</g>
<!-- vcorelib_dict -->
<g id="node3" class="node">
<title>vcorelib_dict</title><style>.edge>path:hover{stroke-width:8}</style>
<ellipse fill="#2f2fdb" stroke="black" cx="152.91" cy="-325.79" rx="41.24" ry="18"/>
<text text-anchor="middle" x="152.91" y="-322.79" font-family="Helvetica,sans-Serif" font-size="10.00" fill="#ffffff">vcorelib.dict</text>
</g>
<!-- vcorelib_io_cache -->
<g id="node6" class="node">
<title>vcorelib_io_cache</title><style>.edge>path:hover{stroke-width:8}</style>
<ellipse fill="#373781" stroke="black" cx="281.91" cy="-31.11" rx="37.79" ry="31.23"/>
<text text-anchor="middle" x="281.91" y="-40.11" font-family="Helvetica,sans-Serif" font-size="10.00" fill="#ffffff">vcorelib.</text>
<text text-anchor="middle" x="281.91" y="-28.11" font-family="Helvetica,sans-Serif" font-size="10.00" fill="#ffffff">io.</text>
<text text-anchor="middle" x="281.91" y="-16.11" font-family="Helvetica,sans-Serif" font-size="10.00" fill="#ffffff">cache</text>
</g>
<!-- vcorelib_dict&#45;&gt;vcorelib_io_cache -->
<g id="edge3" class="edge">
<title>vcorelib_dict&#45;&gt;vcorelib_io_cache</title><style>.edge>path:hover{stroke-width:8}</style>
<path fill="none" stroke="black" d="M187.28,-315.61C219.27,-305.71 266.85,-287.4 299.91,-258.68 311.85,-248.3 311.73,-242.66 318.91,-228.56"/>
</g>
<!-- vcorelib_dict&#45;&gt;vcorelib_io_decode -->
<g id="edge4" class="edge">
<title>vcorelib_dict&#45;&gt;vcorelib_io_decode</title><style>.edge>path:hover{stroke-width:8}</style>
<path fill="none" stroke="black" d="M153.28,-307.65C153.45,-288.33 152.98,-256.02 148.91,-228.56"/>
<path fill="none" stroke="black" d="M148.91,-226.56C145.02,-200.38 127.3,-176.51 110.42,-159.1"/>
<polygon fill="#2f2fdb" stroke="black" points="112.85,-156.58 103.27,-152.04 107.93,-161.56 112.85,-156.58"/>
</g>
<!-- vcorelib_dict&#45;&gt;vcorelib_io_encode -->
<g id="edge5" class="edge">
<title>vcorelib_dict&#45;&gt;vcorelib_io_encode</title><style>.edge>path:hover{stroke-width:8}</style>
<path fill="none" stroke="black" d="M148.91,-226.56C146.07,-207.48 149.82,-186.52 154.89,-169.05"/>
<polygon fill="#2f2fdb" stroke="black" points="158.33,-169.79 158,-159.2 151.65,-167.69 158.33,-169.79"/>
</g>
<!-- vcorelib_io -->
<g id="node4" class="node">
<title>vcorelib_io</title><style>.edge>path:hover{stroke-width:8}</style>
<ellipse fill="#0a0ac2" stroke="black" cx="169.91" cy="-31.11" rx="36.89" ry="18"/>
<text text-anchor="middle" x="169.91" y="-28.11" font-family="Helvetica,sans-Serif" font-size="10.00" fill="#ffffff">vcorelib.io</text>
</g>
<!-- vcorelib_io_archive -->
<g id="node5" class="node">
<title>vcorelib_io_archive</title><style>.edge>path:hover{stroke-width:8}</style>
<ellipse fill="#3a3ab0" stroke="black" cx="301.91" cy="-129.34" rx="37.79" ry="31.23"/>
<text text-anchor="middle" x="301.91" y="-138.34" font-family="Helvetica,sans-Serif" font-size="10.00" fill="#ffffff">vcorelib.</text>
<text text-anchor="middle" x="301.91" y="-126.34" font-family="Helvetica,sans-Serif" font-size="10.00" fill="#ffffff">io.</text>
<text text-anchor="middle" x="301.91" y="-114.34" font-family="Helvetica,sans-Serif" font-size="10.00" fill="#ffffff">archive</text>
</g>
<!-- vcorelib_io_archive&#45;&gt;vcorelib_io_cache -->
<g id="edge6" class="edge">
<title>vcorelib_io_archive&#45;&gt;vcorelib_io_cache</title><style>.edge>path:hover{stroke-width:8}</style>
<path fill="none" stroke="black" d="M295.69,-98.42C293.94,-90 292.01,-80.71 290.16,-71.82"/>
<polygon fill="#3a3ab0" stroke="black" points="293.58,-71.09 288.12,-62.01 286.73,-72.52 293.58,-71.09"/>
</g>
<!-- vcorelib_io_decode&#45;&gt;vcorelib_io -->
<g id="edge7" class="edge">
<title>vcorelib_io_decode&#45;&gt;vcorelib_io</title><style>.edge>path:hover{stroke-width:8}</style>
<path fill="none" stroke="black" d="M99.9,-104.55C114.46,-89.48 133.2,-70.09 147.63,-55.16"/>
<polygon fill="#3535a1" stroke="black" points="150.3,-57.43 154.74,-47.81 145.27,-52.57 150.3,-57.43"/>
</g>
<!-- vcorelib_io_encode&#45;&gt;vcorelib_io -->
<g id="edge8" class="edge">
<title>vcorelib_io_encode&#45;&gt;vcorelib_io</title><style>.edge>path:hover{stroke-width:8}</style>
<path fill="none" stroke="black" d="M169.91,-98.16C169.91,-85.83 169.91,-71.68 169.91,-59.64"/>
<polygon fill="#3535a1" stroke="black" points="173.41,-59.3 169.91,-49.3 166.41,-59.3 173.41,-59.3"/>
</g>
<!-- vcorelib_io_types -->
<g id="node9" class="node">
<title>vcorelib_io_types</title><style>.edge>path:hover{stroke-width:8}</style>
<ellipse fill="#0c0ce9" stroke="black" cx="252.91" cy="-227.56" rx="37.79" ry="31.23"/>
<text text-anchor="middle" x="252.91" y="-236.56" font-family="Helvetica,sans-Serif" font-size="10.00" fill="#ffffff">vcorelib.</text>
<text text-anchor="middle" x="252.91" y="-224.56" font-family="Helvetica,sans-Serif" font-size="10.00" fill="#ffffff">io.</text>
<text text-anchor="middle" x="252.91" y="-212.56" font-family="Helvetica,sans-Serif" font-size="10.00" fill="#ffffff">types</text>
</g>
<!-- vcorelib_io_types&#45;&gt;vcorelib_io -->
<g id="edge9" class="edge">
<title>vcorelib_io_types&#45;&gt;vcorelib_io</title><style>.edge>path:hover{stroke-width:8}</style>
<path fill="none" stroke="black" d="M247.03,-196.75C243.44,-177.79 238.98,-152.69 235.91,-130.34"/>
<path fill="none" stroke="black" d="M235.91,-128.34C231.91,-99.19 211.2,-72.14 194.03,-54.19"/>
<polygon fill="#0c0ce9" stroke="black" points="196.48,-51.69 186.95,-47.08 191.52,-56.63 196.48,-51.69"/>
</g>
<!-- vcorelib_io_types&#45;&gt;vcorelib_io_archive -->
<g id="edge10" class="edge">
<title>vcorelib_io_types&#45;&gt;vcorelib_io_archive</title><style>.edge>path:hover{stroke-width:8}</style>
<path fill="none" stroke="black" d="M267.08,-198.73C272.06,-188.94 277.75,-177.78 283.06,-167.36"/>
<polygon fill="#0c0ce9" stroke="black" points="286.18,-168.94 287.6,-158.44 279.94,-165.76 286.18,-168.94"/>
</g>
<!-- vcorelib_io_types&#45;&gt;vcorelib_io_cache -->
<g id="edge11" class="edge">
<title>vcorelib_io_types&#45;&gt;vcorelib_io_cache</title><style>.edge>path:hover{stroke-width:8}</style>
<path fill="none" stroke="black" d="M235.91,-128.34C232.83,-105.95 243.14,-83.04 254.78,-65.2"/>
<polygon fill="#0c0ce9" stroke="black" points="257.73,-67.08 260.54,-56.87 251.97,-63.1 257.73,-67.08"/>
</g>
<!-- vcorelib_io_types&#45;&gt;vcorelib_io_decode -->
<g id="edge12" class="edge">
<title>vcorelib_io_types&#45;&gt;vcorelib_io_decode</title><style>.edge>path:hover{stroke-width:8}</style>
<path fill="none" stroke="black" d="M220.6,-211.35C193.98,-198.53 155.44,-179.3 122.91,-160.45 120.1,-158.82 117.23,-157.1 114.35,-155.33"/>
<polygon fill="#0c0ce9" stroke="black" points="116.13,-152.31 105.81,-149.94 112.4,-158.24 116.13,-152.31"/>
</g>
<!-- vcorelib_io_types&#45;&gt;vcorelib_io_encode -->
<g id="edge13" class="edge">
<title>vcorelib_io_types&#45;&gt;vcorelib_io_encode</title><style>.edge>path:hover{stroke-width:8}</style>
<path fill="none" stroke="black" d="M231.53,-201.78C221.27,-189.89 208.84,-175.48 197.84,-162.72"/>
<polygon fill="#0c0ce9" stroke="black" points="200.39,-160.32 191.21,-155.03 195.09,-164.89 200.39,-160.32"/>
</g>
<!-- vcorelib_logging -->
<g id="node10" class="node">
<title>vcorelib_logging</title><style>.edge>path:hover{stroke-width:8}</style>
<ellipse fill="#4646a4" stroke="black" cx="433.91" cy="-129.34" rx="37.79" ry="22.76"/>
<text text-anchor="middle" x="433.91" y="-132.34" font-family="Helvetica,sans-Serif" font-size="10.00" fill="#ffffff">vcorelib.</text>
<text text-anchor="middle" x="433.91" y="-120.34" font-family="Helvetica,sans-Serif" font-size="10.00" fill="#ffffff">logging</text>
</g>
<!-- vcorelib_math -->
<g id="node11" class="node">
<title>vcorelib_math</title><style>.edge>path:hover{stroke-width:8}</style>
<ellipse fill="#2f2fdb" stroke="black" cx="429.91" cy="-227.56" rx="45.26" ry="18"/>
<text text-anchor="middle" x="429.91" y="-224.56" font-family="Helvetica,sans-Serif" font-size="10.00" fill="#ffffff">vcorelib.math</text>
</g>
<!-- vcorelib_math&#45;&gt;vcorelib_io_cache -->
<g id="edge14" class="edge">
<title>vcorelib_math&#45;&gt;vcorelib_io_cache</title><style>.edge>path:hover{stroke-width:8}</style>
<path fill="none" stroke="black" d="M454.23,-212.09C480.44,-194.47 516.66,-163 502.91,-130.34"/>
<path fill="none" stroke="black" d="M502.91,-128.34C475.17,-62.44 386.01,-41.64 329.77,-35.1"/>
<polygon fill="#2f2fdb" stroke="black" points="329.99,-31.6 319.68,-34.03 329.26,-38.56 329.99,-31.6"/>
</g>
<!-- vcorelib_math&#45;&gt;vcorelib_logging -->
<g id="edge15" class="edge">
<title>vcorelib_math&#45;&gt;vcorelib_logging</title><style>.edge>path:hover{stroke-width:8}</style>
<path fill="none" stroke="black" d="M430.62,-209.36C431.16,-196.36 431.92,-178.14 432.57,-162.47"/>
<polygon fill="#2f2fdb" stroke="black" points="436.08,-162.26 433,-152.12 429.09,-161.97 436.08,-162.26"/>
</g>
<!-- vcorelib_math_time -->
<g id="node12" class="node">
<title>vcorelib_math_time</title><style>.edge>path:hover{stroke-width:8}</style>
<ellipse fill="#3131c4" stroke="black" cx="347.91" cy="-325.79" rx="37.79" ry="31.23"/>
<text text-anchor="middle" x="347.91" y="-334.79" font-family="Helvetica,sans-Serif" font-size="10.00" fill="#ffffff">vcorelib.</text>
<text text-anchor="middle" x="347.91" y="-322.79" font-family="Helvetica,sans-Serif" font-size="10.00" fill="#ffffff">math.</text>
<text text-anchor="middle" x="347.91" y="-310.79" font-family="Helvetica,sans-Serif" font-size="10.00" fill="#ffffff">time</text>
</g>
<!-- vcorelib_math_time&#45;&gt;vcorelib_io_cache -->
<g id="edge16" class="edge">
<title>vcorelib_math_time&#45;&gt;vcorelib_io_cache</title><style>.edge>path:hover{stroke-width:8}</style>
<path fill="none" stroke="black" d="M328.99,-298.47C317.01,-278.3 305.99,-250.32 318.91,-228.56"/>
<path fill="none" stroke="black" d="M318.91,-226.56C348.81,-176.2 371.5,-152.27 348.91,-98.23 342.44,-82.77 330.41,-69.08 318.3,-58.24"/>
<polygon fill="#3131c4" stroke="black" points="320.28,-55.33 310.39,-51.53 315.76,-60.66 320.28,-55.33"/>
</g>
<!-- vcorelib_math_time&#45;&gt;vcorelib_logging -->
<g id="edge17" class="edge">
<title>vcorelib_math_time&#45;&gt;vcorelib_logging</title><style>.edge>path:hover{stroke-width:8}</style>
<path fill="none" stroke="black" d="M350.19,-294.57C353.21,-267.62 360.13,-227.7 375.91,-196.45 383.4,-181.61 395.01,-167.43 405.88,-156.04"/>
<polygon fill="#3131c4" stroke="black" points="408.67,-158.19 413.23,-148.63 403.7,-153.27 408.67,-158.19"/>
</g>
<!-- vcorelib_paths -->
<g id="node13" class="node">
<title>vcorelib_paths</title><style>.edge>path:hover{stroke-width:8}</style>
<ellipse fill="#2f2fdb" stroke="black" cx="316.91" cy="-410.9" rx="46.95" ry="18"/>
<text text-anchor="middle" x="316.91" y="-407.9" font-family="Helvetica,sans-Serif" font-size="10.00" fill="#ffffff">vcorelib.paths</text>
</g>
<!-- vcorelib_paths&#45;&gt;vcorelib_io -->
<g id="edge18" class="edge">
<title>vcorelib_paths&#45;&gt;vcorelib_io</title><style>.edge>path:hover{stroke-width:8}</style>
<path fill="none" stroke="black" d="M282.07,-398.91C275.08,-396.82 267.78,-394.73 260.91,-392.9 191.29,-374.43 157.08,-404.37 102.91,-356.9 13.06,-278.18 -34.03,-199.13 29.91,-98.23 50.83,-65.2 93.18,-48.36 125.84,-39.98"/>
<polygon fill="#2f2fdb" stroke="black" points="126.72,-43.36 135.64,-37.64 125.1,-36.56 126.72,-43.36"/>
</g>
<!-- vcorelib_paths&#45;&gt;vcorelib_io_cache -->
<g id="edge19" class="edge">
<title>vcorelib_paths&#45;&gt;vcorelib_io_cache</title><style>.edge>path:hover{stroke-width:8}</style>
<path fill="none" stroke="black" d="M341.18,-395.51C357.14,-385.56 378.11,-371.51 394.91,-356.9 479.08,-283.71 546.18,-233.15 502.91,-130.34"/>
</g>
<!-- vcorelib_paths&#45;&gt;vcorelib_io_types -->
<g id="edge20" class="edge">
<title>vcorelib_paths&#45;&gt;vcorelib_io_types</title><style>.edge>path:hover{stroke-width:8}</style>
<path fill="none" stroke="black" d="M310.89,-392.84C300.79,-364.23 280.2,-305.9 266.48,-267.01"/>
<polygon fill="#2f2fdb" stroke="black" points="269.77,-265.84 263.15,-257.57 263.17,-268.17 269.77,-265.84"/>
</g>
</g>
</svg>
