<?xml version="1.0" encoding="UTF-8" standalone="no"?>
<!DOCTYPE svg PUBLIC "-//W3C//DTD SVG 1.1//EN"
 "http://www.w3.org/Graphics/SVG/1.1/DTD/svg11.dtd">
<!-- Generated by graphviz version 3.0.1~dev.20220405.0544 (20220405.0544)
 -->
<!-- Title: G Pages: 1 -->
<svg width="164pt" height="223pt"
 viewBox="0.00 0.00 164.03 223.48" xmlns="http://www.w3.org/2000/svg" xmlns:xlink="http://www.w3.org/1999/xlink">
<g id="graph0" class="graph" transform="scale(1 1) rotate(0) translate(4 219.48)">
<title>G</title><style>.edge>path:hover{stroke-width:8}</style>
<polygon fill="white" stroke="transparent" points="-4,4 -4,-219.48 160.03,-219.48 160.03,4 -4,4"/>
<!-- vcorelib_logging -->
<g id="node1" class="node">
<title>vcorelib_logging</title><style>.edge>path:hover{stroke-width:8}</style>
<ellipse fill="#a44646" stroke="black" cx="81.38" cy="-22.63" rx="37.79" ry="22.76"/>
<text text-anchor="middle" x="81.38" y="-25.63" font-family="Helvetica,sans-Serif" font-size="10.00" fill="#ffffff">vcorelib.</text>
<text text-anchor="middle" x="81.38" y="-13.63" font-family="Helvetica,sans-Serif" font-size="10.00" fill="#ffffff">logging</text>
</g>
<!-- vcorelib_math -->
<g id="node2" class="node">
<title>vcorelib_math</title><style>.edge>path:hover{stroke-width:8}</style>
<ellipse fill="#ce3b3b" stroke="black" cx="45.38" cy="-99.25" rx="45.26" ry="18"/>
<text text-anchor="middle" x="45.38" y="-96.25" font-family="Helvetica,sans-Serif" font-size="10.00" fill="#ffffff">vcorelib.math</text>
</g>
<!-- vcorelib_math&#45;&gt;vcorelib_logging -->
<g id="edge1" class="edge">
<title>vcorelib_math&#45;&gt;vcorelib_logging</title><style>.edge>path:hover{stroke-width:8}</style>
<path fill="none" stroke="black" d="M53.55,-81.32C57.5,-73.13 62.37,-63.05 66.92,-53.61"/>
<polygon fill="#ce3b3b" stroke="black" points="70.12,-55.02 71.32,-44.49 63.82,-51.98 70.12,-55.02"/>
</g>
<!-- vcorelib_math_time -->
<g id="node3" class="node">
<title>vcorelib_math_time</title><style>.edge>path:hover{stroke-width:8}</style>
<ellipse fill="#b83d3d" stroke="black" cx="118.38" cy="-184.37" rx="37.79" ry="31.23"/>
<text text-anchor="middle" x="118.38" y="-193.37" font-family="Helvetica,sans-Serif" font-size="10.00" fill="#ffffff">vcorelib.</text>
<text text-anchor="middle" x="118.38" y="-181.37" font-family="Helvetica,sans-Serif" font-size="10.00" fill="#ffffff">math.</text>
<text text-anchor="middle" x="118.38" y="-169.37" font-family="Helvetica,sans-Serif" font-size="10.00" fill="#ffffff">time</text>
</g>
<!-- vcorelib_math_time&#45;&gt;vcorelib_logging -->
<g id="edge2" class="edge">
<title>vcorelib_math_time&#45;&gt;vcorelib_logging</title><style>.edge>path:hover{stroke-width:8}</style>
<path fill="none" stroke="black" d="M113.74,-153.23C110.36,-132.79 105.33,-105.23 99.38,-81.25 97.22,-72.55 94.5,-63.23 91.82,-54.68"/>
<polygon fill="#b83d3d" stroke="black" points="95.13,-53.53 88.75,-45.07 88.46,-55.67 95.13,-53.53"/>
</g>
</g>
</svg>
