<?xml version="1.0" encoding="UTF-8" standalone="no"?>
<!DOCTYPE svg PUBLIC "-//W3C//DTD SVG 1.1//EN"
 "http://www.w3.org/Graphics/SVG/1.1/DTD/svg11.dtd">
<!-- Generated by graphviz version 3.0.1~dev.20220405.0544 (20220405.0544)
 -->
<!-- Title: G Pages: 1 -->
<svg width="1073pt" height="687pt"
 viewBox="0.00 0.00 1073.37 687.32" xmlns="http://www.w3.org/2000/svg" xmlns:xlink="http://www.w3.org/1999/xlink">
<g id="graph0" class="graph" transform="scale(1 1) rotate(0) translate(4 683.32)">
<title>G</title><style>.edge>path:hover{stroke-width:8}</style>
<polygon fill="white" stroke="transparent" points="-4,4 -4,-683.32 1069.37,-683.32 1069.37,4 -4,4"/>
<!-- tomli -->
<g id="node1" class="node">
<title>tomli</title><style>.edge>path:hover{stroke-width:8}</style>
<ellipse fill="#b65353" stroke="black" cx="176.72" cy="-563.1" rx="27" ry="18"/>
<text text-anchor="middle" x="176.72" y="-560.1" font-family="Helvetica,sans-Serif" font-size="10.00" fill="#ffffff">tomli</text>
</g>
<!-- vcorelib_io_decode -->
<g id="node8" class="node">
<title>vcorelib_io_decode</title><style>.edge>path:hover{stroke-width:8}</style>
<ellipse fill="#303091" stroke="black" cx="135.72" cy="-264.56" rx="37.79" ry="31.23"/>
<text text-anchor="middle" x="135.72" y="-273.56" font-family="Helvetica,sans-Serif" font-size="10.00" fill="#ffffff">vcorelib.</text>
<text text-anchor="middle" x="135.72" y="-261.56" font-family="Helvetica,sans-Serif" font-size="10.00" fill="#ffffff">io.</text>
<text text-anchor="middle" x="135.72" y="-249.56" font-family="Helvetica,sans-Serif" font-size="10.00" fill="#ffffff">decode</text>
</g>
<!-- tomli&#45;&gt;vcorelib_io_decode -->
<g id="edge1" class="edge">
<title>tomli&#45;&gt;vcorelib_io_decode</title><style>.edge>path:hover{stroke-width:8}</style>
<path fill="none" stroke="black" d="M171.96,-545.29C167.77,-528.54 162.64,-502.07 164.72,-478.98"/>
</g>
<!-- tomli_w -->
<g id="node2" class="node">
<title>tomli_w</title><style>.edge>path:hover{stroke-width:8}</style>
<ellipse fill="#40c040" stroke="black" cx="354.72" cy="-563.1" rx="30.01" ry="18"/>
<text text-anchor="middle" x="354.72" y="-560.1" font-family="Helvetica,sans-Serif" font-size="10.00" fill="#000000">tomli_w</text>
</g>
<!-- vcorelib_io_encode -->
<g id="node9" class="node">
<title>vcorelib_io_encode</title><style>.edge>path:hover{stroke-width:8}</style>
<ellipse fill="#303091" stroke="black" cx="267.72" cy="-264.56" rx="37.79" ry="31.23"/>
<text text-anchor="middle" x="267.72" y="-273.56" font-family="Helvetica,sans-Serif" font-size="10.00" fill="#ffffff">vcorelib.</text>
<text text-anchor="middle" x="267.72" y="-261.56" font-family="Helvetica,sans-Serif" font-size="10.00" fill="#ffffff">io.</text>
<text text-anchor="middle" x="267.72" y="-249.56" font-family="Helvetica,sans-Serif" font-size="10.00" fill="#ffffff">encode</text>
</g>
<!-- tomli_w&#45;&gt;vcorelib_io_encode -->
<g id="edge2" class="edge">
<title>tomli_w&#45;&gt;vcorelib_io_encode</title><style>.edge>path:hover{stroke-width:8}</style>
<path fill="none" stroke="black" d="M348.65,-545.31C336.99,-512.49 311.33,-437.33 296.72,-372.27"/>
</g>
<!-- vcorelib_dict -->
<g id="node3" class="node">
<title>vcorelib_dict</title><style>.edge>path:hover{stroke-width:8}</style>
<ellipse fill="#1010f9" stroke="black" cx="296.72" cy="-648.21" rx="41.24" ry="18"/>
<text text-anchor="middle" x="296.72" y="-645.21" font-family="Helvetica,sans-Serif" font-size="10.00" fill="#ffffff">vcorelib.dict</text>
</g>
<!-- vcorelib_io -->
<g id="node5" class="node">
<title>vcorelib_io</title><style>.edge>path:hover{stroke-width:8}</style>
<ellipse fill="#0404bd" stroke="black" cx="70.72" cy="-166.34" rx="36.89" ry="18"/>
<text text-anchor="middle" x="70.72" y="-163.34" font-family="Helvetica,sans-Serif" font-size="10.00" fill="#ffffff">vcorelib.io</text>
</g>
<!-- vcorelib_dict&#45;&gt;vcorelib_io -->
<g id="edge3" class="edge">
<title>vcorelib_dict&#45;&gt;vcorelib_io</title><style>.edge>path:hover{stroke-width:8}</style>
<path fill="none" stroke="black" d="M335.58,-641.76C411.03,-630.44 573.53,-602.22 613.72,-564.1"/>
<path fill="none" stroke="black" d="M613.72,-562.1C675.47,-503.53 493.25,-565.72 429.72,-509.1 380.18,-464.94 365.55,-276.13 314.72,-233.45 258.9,-186.58 224.72,-217.79 154.72,-197.45 139.25,-192.96 122.49,-187.14 108.03,-181.83"/>
<polygon fill="#1010f9" stroke="black" points="109.03,-178.46 98.44,-178.24 106.59,-185.02 109.03,-178.46"/>
</g>
<!-- vcorelib_io_cache -->
<g id="node7" class="node">
<title>vcorelib_io_cache</title><style>.edge>path:hover{stroke-width:8}</style>
<ellipse fill="#373781" stroke="black" cx="201.72" cy="-166.34" rx="37.79" ry="31.23"/>
<text text-anchor="middle" x="201.72" y="-175.34" font-family="Helvetica,sans-Serif" font-size="10.00" fill="#ffffff">vcorelib.</text>
<text text-anchor="middle" x="201.72" y="-163.34" font-family="Helvetica,sans-Serif" font-size="10.00" fill="#ffffff">io.</text>
<text text-anchor="middle" x="201.72" y="-151.34" font-family="Helvetica,sans-Serif" font-size="10.00" fill="#ffffff">cache</text>
</g>
<!-- vcorelib_dict&#45;&gt;vcorelib_io_cache -->
<g id="edge4" class="edge">
<title>vcorelib_dict&#45;&gt;vcorelib_io_cache</title><style>.edge>path:hover{stroke-width:8}</style>
<path fill="none" stroke="black" d="M739.72,-370.27C729.91,-309.67 764.38,-276.62 720.72,-233.45 687.46,-200.56 371.68,-177.79 249.58,-170.16"/>
<polygon fill="#1010f9" stroke="black" points="249.61,-166.65 239.41,-169.53 249.18,-173.64 249.61,-166.65"/>
</g>
<!-- vcorelib_dict&#45;&gt;vcorelib_io_decode -->
<g id="edge5" class="edge">
<title>vcorelib_dict&#45;&gt;vcorelib_io_decode</title><style>.edge>path:hover{stroke-width:8}</style>
<path fill="none" stroke="black" d="M257.28,-642.66C220.13,-636.05 166.47,-619.97 140.72,-581.1 114.98,-542.23 160.53,-525.42 164.72,-478.98"/>
<path fill="none" stroke="black" d="M164.72,-476.98C166.77,-430.49 191.69,-410.2 164.72,-372.27"/>
<path fill="none" stroke="black" d="M164.72,-370.27C151.35,-351.47 144.14,-326.72 140.25,-306.01"/>
<polygon fill="#1010f9" stroke="black" points="143.66,-305.19 138.55,-295.91 136.76,-306.35 143.66,-305.19"/>
</g>
<!-- vcorelib_dict&#45;&gt;vcorelib_io_encode -->
<g id="edge6" class="edge">
<title>vcorelib_dict&#45;&gt;vcorelib_io_encode</title><style>.edge>path:hover{stroke-width:8}</style>
<path fill="none" stroke="black" d="M296.72,-476.98C288.69,-431.14 306.08,-417.86 296.72,-372.27"/>
<path fill="none" stroke="black" d="M296.72,-370.27C292.23,-348.4 285.7,-324.37 279.96,-304.85"/>
<polygon fill="#1010f9" stroke="black" points="283.26,-303.68 277.05,-295.09 276.56,-305.68 283.26,-303.68"/>
</g>
<!-- vcorelib_io_types -->
<g id="node10" class="node">
<title>vcorelib_io_types</title><style>.edge>path:hover{stroke-width:8}</style>
<ellipse fill="#0505e5" stroke="black" cx="230.72" cy="-371.27" rx="37.79" ry="31.23"/>
<text text-anchor="middle" x="230.72" y="-380.27" font-family="Helvetica,sans-Serif" font-size="10.00" fill="#ffffff">vcorelib.</text>
<text text-anchor="middle" x="230.72" y="-368.27" font-family="Helvetica,sans-Serif" font-size="10.00" fill="#ffffff">io.</text>
<text text-anchor="middle" x="230.72" y="-356.27" font-family="Helvetica,sans-Serif" font-size="10.00" fill="#ffffff">types</text>
</g>
<!-- vcorelib_dict&#45;&gt;vcorelib_io_types -->
<g id="edge7" class="edge">
<title>vcorelib_dict&#45;&gt;vcorelib_io_types</title><style>.edge>path:hover{stroke-width:8}</style>
<path fill="none" stroke="black" d="M298.42,-629.89C301.04,-599.25 304.97,-533.56 296.72,-478.98"/>
<path fill="none" stroke="black" d="M296.72,-476.98C291.95,-449.76 275.32,-423.46 259.94,-404.03"/>
<polygon fill="#1010f9" stroke="black" points="262.51,-401.65 253.46,-396.14 257.1,-406.09 262.51,-401.65"/>
</g>
<!-- vcorelib_math_time -->
<g id="node13" class="node">
<title>vcorelib_math_time</title><style>.edge>path:hover{stroke-width:8}</style>
<ellipse fill="#0505e5" stroke="black" cx="476.72" cy="-477.98" rx="37.79" ry="31.23"/>
<text text-anchor="middle" x="476.72" y="-486.98" font-family="Helvetica,sans-Serif" font-size="10.00" fill="#ffffff">vcorelib.</text>
<text text-anchor="middle" x="476.72" y="-474.98" font-family="Helvetica,sans-Serif" font-size="10.00" fill="#ffffff">math.</text>
<text text-anchor="middle" x="476.72" y="-462.98" font-family="Helvetica,sans-Serif" font-size="10.00" fill="#ffffff">time</text>
</g>
<!-- vcorelib_dict&#45;&gt;vcorelib_math_time -->
<g id="edge8" class="edge">
<title>vcorelib_dict&#45;&gt;vcorelib_math_time</title><style>.edge>path:hover{stroke-width:8}</style>
<path fill="none" stroke="black" d="M613.72,-562.1C647.4,-530.15 563.27,-533.4 523.72,-509.1 520.74,-507.27 517.67,-505.35 514.59,-503.42"/>
<polygon fill="#1010f9" stroke="black" points="516.27,-500.34 505.95,-497.95 512.53,-506.26 516.27,-500.34"/>
</g>
<!-- vcorelib_task -->
<g id="node18" class="node">
<title>vcorelib_task</title><style>.edge>path:hover{stroke-width:8}</style>
<ellipse fill="#1515c1" stroke="black" cx="668.72" cy="-264.56" rx="43.08" ry="18"/>
<text text-anchor="middle" x="668.72" y="-261.56" font-family="Helvetica,sans-Serif" font-size="10.00" fill="#ffffff">vcorelib.task</text>
</g>
<!-- vcorelib_dict&#45;&gt;vcorelib_task -->
<g id="edge9" class="edge">
<title>vcorelib_dict&#45;&gt;vcorelib_task</title><style>.edge>path:hover{stroke-width:8}</style>
<path fill="none" stroke="black" d="M613.72,-562.1C662.4,-515.93 699.75,-532.86 739.72,-478.98"/>
<path fill="none" stroke="black" d="M739.72,-476.98C767.45,-439.61 747.16,-418.21 739.72,-372.27"/>
<path fill="none" stroke="black" d="M739.72,-370.27C734.52,-338.12 711.51,-308.08 693.08,-288.49"/>
<polygon fill="#1010f9" stroke="black" points="695.52,-285.98 686.03,-281.26 690.51,-290.87 695.52,-285.98"/>
</g>
<!-- vcorelib_task_dict_melder -->
<g id="node19" class="node">
<title>vcorelib_task_dict_melder</title><style>.edge>path:hover{stroke-width:8}</style>
<ellipse fill="#4646a4" stroke="black" cx="805.72" cy="-371.27" rx="37.79" ry="39.7"/>
<text text-anchor="middle" x="805.72" y="-386.27" font-family="Helvetica,sans-Serif" font-size="10.00" fill="#ffffff">vcorelib.</text>
<text text-anchor="middle" x="805.72" y="-374.27" font-family="Helvetica,sans-Serif" font-size="10.00" fill="#ffffff">task.</text>
<text text-anchor="middle" x="805.72" y="-362.27" font-family="Helvetica,sans-Serif" font-size="10.00" fill="#ffffff">dict.</text>
<text text-anchor="middle" x="805.72" y="-350.27" font-family="Helvetica,sans-Serif" font-size="10.00" fill="#ffffff">melder</text>
</g>
<!-- vcorelib_dict&#45;&gt;vcorelib_task_dict_melder -->
<g id="edge10" class="edge">
<title>vcorelib_dict&#45;&gt;vcorelib_task_dict_melder</title><style>.edge>path:hover{stroke-width:8}</style>
<path fill="none" stroke="black" d="M739.72,-476.98C754.49,-457.08 769.35,-433.86 781.22,-414.35"/>
<polygon fill="#1010f9" stroke="black" points="784.28,-416.04 786.45,-405.67 778.29,-412.42 784.28,-416.04"/>
</g>
<!-- vcorelib_task_manager -->
<g id="node20" class="node">
<title>vcorelib_task_manager</title><style>.edge>path:hover{stroke-width:8}</style>
<ellipse fill="#3d3d8f" stroke="black" cx="938.72" cy="-477.98" rx="39.44" ry="31.23"/>
<text text-anchor="middle" x="938.72" y="-486.98" font-family="Helvetica,sans-Serif" font-size="10.00" fill="#ffffff">vcorelib.</text>
<text text-anchor="middle" x="938.72" y="-474.98" font-family="Helvetica,sans-Serif" font-size="10.00" fill="#ffffff">task.</text>
<text text-anchor="middle" x="938.72" y="-462.98" font-family="Helvetica,sans-Serif" font-size="10.00" fill="#ffffff">manager</text>
</g>
<!-- vcorelib_dict&#45;&gt;vcorelib_task_manager -->
<g id="edge11" class="edge">
<title>vcorelib_dict&#45;&gt;vcorelib_task_manager</title><style>.edge>path:hover{stroke-width:8}</style>
<path fill="none" stroke="black" d="M613.72,-562.1C653.38,-524.48 809.64,-497.34 890.16,-485.54"/>
<polygon fill="#1010f9" stroke="black" points="890.67,-489 900.06,-484.11 889.67,-482.08 890.67,-489"/>
</g>
<!-- vcorelib_dict_cache -->
<g id="node4" class="node">
<title>vcorelib_dict_cache</title><style>.edge>path:hover{stroke-width:8}</style>
<ellipse fill="#43439d" stroke="black" cx="70.72" cy="-31.11" rx="37.79" ry="31.23"/>
<text text-anchor="middle" x="70.72" y="-40.11" font-family="Helvetica,sans-Serif" font-size="10.00" fill="#ffffff">vcorelib.</text>
<text text-anchor="middle" x="70.72" y="-28.11" font-family="Helvetica,sans-Serif" font-size="10.00" fill="#ffffff">dict.</text>
<text text-anchor="middle" x="70.72" y="-16.11" font-family="Helvetica,sans-Serif" font-size="10.00" fill="#ffffff">cache</text>
</g>
<!-- vcorelib_io&#45;&gt;vcorelib_dict_cache -->
<g id="edge12" class="edge">
<title>vcorelib_io&#45;&gt;vcorelib_dict_cache</title><style>.edge>path:hover{stroke-width:8}</style>
<path fill="none" stroke="black" d="M70.72,-148.22C70.72,-134.87 70.72,-115.87 70.72,-99.23"/>
</g>
<!-- vcorelib_io_archive -->
<g id="node6" class="node">
<title>vcorelib_io_archive</title><style>.edge>path:hover{stroke-width:8}</style>
<ellipse fill="#3535a1" stroke="black" cx="399.72" cy="-264.56" rx="37.79" ry="31.23"/>
<text text-anchor="middle" x="399.72" y="-273.56" font-family="Helvetica,sans-Serif" font-size="10.00" fill="#ffffff">vcorelib.</text>
<text text-anchor="middle" x="399.72" y="-261.56" font-family="Helvetica,sans-Serif" font-size="10.00" fill="#ffffff">io.</text>
<text text-anchor="middle" x="399.72" y="-249.56" font-family="Helvetica,sans-Serif" font-size="10.00" fill="#ffffff">archive</text>
</g>
<!-- vcorelib_io_archive&#45;&gt;vcorelib_io_cache -->
<g id="edge13" class="edge">
<title>vcorelib_io_archive&#45;&gt;vcorelib_io_cache</title><style>.edge>path:hover{stroke-width:8}</style>
<path fill="none" stroke="black" d="M369.76,-245.53C362.61,-241.42 354.96,-237.17 347.72,-233.45 313.6,-215.9 273.87,-198.07 244.48,-185.36"/>
<polygon fill="#3535a1" stroke="black" points="245.5,-181.99 234.93,-181.25 242.73,-188.42 245.5,-181.99"/>
</g>
<!-- vcorelib_io_decode&#45;&gt;vcorelib_io -->
<g id="edge14" class="edge">
<title>vcorelib_io_decode&#45;&gt;vcorelib_io</title><style>.edge>path:hover{stroke-width:8}</style>
<path fill="none" stroke="black" d="M117.79,-237.01C108.3,-222.96 96.71,-205.81 87.41,-192.04"/>
<polygon fill="#303091" stroke="black" points="90.17,-189.87 81.67,-183.55 84.37,-193.79 90.17,-189.87"/>
</g>
<!-- vcorelib_io_encode&#45;&gt;vcorelib_io -->
<g id="edge15" class="edge">
<title>vcorelib_io_encode&#45;&gt;vcorelib_io</title><style>.edge>path:hover{stroke-width:8}</style>
<path fill="none" stroke="black" d="M237.75,-245.55C230.61,-241.43 222.95,-237.18 215.72,-233.45 179.39,-214.7 136.68,-195.57 107.06,-182.74"/>
<polygon fill="#303091" stroke="black" points="108.12,-179.38 97.55,-178.64 105.35,-185.81 108.12,-179.38"/>
</g>
<!-- vcorelib_io_types&#45;&gt;vcorelib_dict_cache -->
<g id="edge16" class="edge">
<title>vcorelib_io_types&#45;&gt;vcorelib_dict_cache</title><style>.edge>path:hover{stroke-width:8}</style>
<path fill="none" stroke="black" d="M201.72,-263.56C195.17,-249.16 191.81,-246.4 182.72,-233.45 171.08,-216.86 166.25,-214.13 154.72,-197.45 136.3,-170.79 138.27,-159.43 116.72,-135.23 99.46,-115.84 70.72,-125.19 70.72,-99.23"/>
</g>
<!-- vcorelib_io_types&#45;&gt;vcorelib_io -->
<g id="edge17" class="edge">
<title>vcorelib_io_types&#45;&gt;vcorelib_io</title><style>.edge>path:hover{stroke-width:8}</style>
<path fill="none" stroke="black" d="M225,-340.06C220.32,-318.66 212.67,-289.6 201.72,-265.56"/>
<path fill="none" stroke="black" d="M201.72,-263.56C195.17,-249.16 194.08,-244.47 182.72,-233.45 160.14,-211.52 148.83,-213.45 121.72,-197.45 115.33,-193.68 108.49,-189.64 101.96,-185.78"/>
<polygon fill="#0505e5" stroke="black" points="103.71,-182.75 93.32,-180.68 100.15,-188.78 103.71,-182.75"/>
</g>
<!-- vcorelib_io_types&#45;&gt;vcorelib_io_archive -->
<g id="edge18" class="edge">
<title>vcorelib_io_types&#45;&gt;vcorelib_io_archive</title><style>.edge>path:hover{stroke-width:8}</style>
<path fill="none" stroke="black" d="M260.55,-351.8C288.58,-334.43 330.67,-308.35 361.23,-289.42"/>
<polygon fill="#0505e5" stroke="black" points="363.26,-292.28 369.91,-284.03 359.57,-286.33 363.26,-292.28"/>
</g>
<!-- vcorelib_io_types&#45;&gt;vcorelib_io_cache -->
<g id="edge19" class="edge">
<title>vcorelib_io_types&#45;&gt;vcorelib_io_cache</title><style>.edge>path:hover{stroke-width:8}</style>
<path fill="none" stroke="black" d="M201.72,-263.56C193.85,-246.28 192.97,-225.37 194.43,-207.46"/>
<polygon fill="#0505e5" stroke="black" points="197.93,-207.63 195.52,-197.32 190.97,-206.88 197.93,-207.63"/>
</g>
<!-- vcorelib_io_types&#45;&gt;vcorelib_io_decode -->
<g id="edge20" class="edge">
<title>vcorelib_io_types&#45;&gt;vcorelib_io_decode</title><style>.edge>path:hover{stroke-width:8}</style>
<path fill="none" stroke="black" d="M208.69,-345.99C195.71,-331.69 179.14,-313.42 165.07,-297.9"/>
<polygon fill="#0505e5" stroke="black" points="167.28,-295.13 157.97,-290.08 162.09,-299.84 167.28,-295.13"/>
</g>
<!-- vcorelib_io_types&#45;&gt;vcorelib_io_encode -->
<g id="edge21" class="edge">
<title>vcorelib_io_types&#45;&gt;vcorelib_io_encode</title><style>.edge>path:hover{stroke-width:8}</style>
<path fill="none" stroke="black" d="M241.03,-341.11C245.08,-329.65 249.79,-316.33 254.11,-304.1"/>
<polygon fill="#0505e5" stroke="black" points="257.44,-305.17 257.47,-294.57 250.84,-302.84 257.44,-305.17"/>
</g>
<!-- vcorelib_logging -->
<g id="node11" class="node">
<title>vcorelib_logging</title><style>.edge>path:hover{stroke-width:8}</style>
<ellipse fill="#4646a4" stroke="black" cx="531.72" cy="-264.56" rx="37.79" ry="22.76"/>
<text text-anchor="middle" x="531.72" y="-267.56" font-family="Helvetica,sans-Serif" font-size="10.00" fill="#ffffff">vcorelib.</text>
<text text-anchor="middle" x="531.72" y="-255.56" font-family="Helvetica,sans-Serif" font-size="10.00" fill="#ffffff">logging</text>
</g>
<!-- vcorelib_math -->
<g id="node12" class="node">
<title>vcorelib_math</title><style>.edge>path:hover{stroke-width:8}</style>
<ellipse fill="#1010f9" stroke="black" cx="577.72" cy="-477.98" rx="45.26" ry="18"/>
<text text-anchor="middle" x="577.72" y="-474.98" font-family="Helvetica,sans-Serif" font-size="10.00" fill="#ffffff">vcorelib.math</text>
</g>
<!-- vcorelib_math&#45;&gt;vcorelib_io_archive -->
<g id="edge22" class="edge">
<title>vcorelib_math&#45;&gt;vcorelib_io_archive</title><style>.edge>path:hover{stroke-width:8}</style>
<path fill="none" stroke="black" d="M584.25,-460.05C591.43,-439.44 601.48,-403.51 597.72,-372.27"/>
<path fill="none" stroke="black" d="M597.72,-370.27C595.19,-349.23 586.5,-344.62 569.72,-331.68 559.28,-323.62 490.39,-298.04 443.58,-281.16"/>
<polygon fill="#1010f9" stroke="black" points="444.55,-277.79 433.95,-277.7 442.18,-284.38 444.55,-277.79"/>
</g>
<!-- vcorelib_math&#45;&gt;vcorelib_io_cache -->
<g id="edge23" class="edge">
<title>vcorelib_math&#45;&gt;vcorelib_io_cache</title><style>.edge>path:hover{stroke-width:8}</style>
<path fill="none" stroke="black" d="M597.72,-370.27C590.39,-309.32 621.36,-277.63 578.72,-233.45 533.96,-187.06 340.5,-173.01 249.44,-168.93"/>
<polygon fill="#1010f9" stroke="black" points="249.53,-165.43 239.39,-168.5 249.23,-172.42 249.53,-165.43"/>
</g>
<!-- vcorelib_math&#45;&gt;vcorelib_io_decode -->
<g id="edge24" class="edge">
<title>vcorelib_math&#45;&gt;vcorelib_io_decode</title><style>.edge>path:hover{stroke-width:8}</style>
<path fill="none" stroke="black" d="M553.19,-462.82C544.02,-457.66 533.47,-451.86 523.72,-446.87 399.75,-383.38 249.44,-315.72 177.73,-283.99"/>
<polygon fill="#1010f9" stroke="black" points="179.12,-280.78 168.56,-279.94 176.29,-287.18 179.12,-280.78"/>
</g>
<!-- vcorelib_math&#45;&gt;vcorelib_io_encode -->
<g id="edge25" class="edge">
<title>vcorelib_math&#45;&gt;vcorelib_io_encode</title><style>.edge>path:hover{stroke-width:8}</style>
<path fill="none" stroke="black" d="M570.88,-459.75C557.85,-429.2 526.55,-365.59 479.72,-331.68 432.21,-297.26 408.62,-313.48 352.72,-295.68 339.29,-291.4 324.79,-286.4 311.64,-281.73"/>
<polygon fill="#1010f9" stroke="black" points="312.48,-278.31 301.88,-278.23 310.11,-284.9 312.48,-278.31"/>
</g>
<!-- vcorelib_math&#45;&gt;vcorelib_logging -->
<g id="edge26" class="edge">
<title>vcorelib_math&#45;&gt;vcorelib_logging</title><style>.edge>path:hover{stroke-width:8}</style>
<path fill="none" stroke="black" d="M597.72,-370.27C594.12,-340.27 574.56,-311.63 557.66,-291.92"/>
<polygon fill="#1010f9" stroke="black" points="560.14,-289.44 550.87,-284.29 554.91,-294.09 560.14,-289.44"/>
</g>
<!-- vcorelib_math&#45;&gt;vcorelib_task -->
<g id="edge27" class="edge">
<title>vcorelib_math&#45;&gt;vcorelib_task</title><style>.edge>path:hover{stroke-width:8}</style>
<path fill="none" stroke="black" d="M597.72,-370.27C593.75,-337.26 619.31,-306.67 640.86,-287.18"/>
<polygon fill="#1010f9" stroke="black" points="643.29,-289.71 648.56,-280.52 638.71,-284.42 643.29,-289.71"/>
</g>
<!-- vcorelib_math_time&#45;&gt;vcorelib_io_archive -->
<g id="edge28" class="edge">
<title>vcorelib_math_time&#45;&gt;vcorelib_io_archive</title><style>.edge>path:hover{stroke-width:8}</style>
<path fill="none" stroke="black" d="M475.08,-446.51C473.57,-425.49 470.77,-396.99 465.72,-372.27"/>
<path fill="none" stroke="black" d="M465.72,-370.27C460.23,-343.38 443.79,-317.25 428.69,-297.82"/>
<polygon fill="#0505e5" stroke="black" points="431.33,-295.52 422.33,-289.92 425.87,-299.91 431.33,-295.52"/>
</g>
<!-- vcorelib_math_time&#45;&gt;vcorelib_io_cache -->
<g id="edge29" class="edge">
<title>vcorelib_math_time&#45;&gt;vcorelib_io_cache</title><style>.edge>path:hover{stroke-width:8}</style>
<path fill="none" stroke="black" d="M465.72,-370.27C453.45,-310.12 487.33,-279.5 446.72,-233.45 420.85,-204.1 312.95,-183.65 249.29,-173.88"/>
<polygon fill="#0505e5" stroke="black" points="249.5,-170.38 239.09,-172.35 248.46,-177.3 249.5,-170.38"/>
</g>
<!-- vcorelib_math_time&#45;&gt;vcorelib_io_decode -->
<g id="edge30" class="edge">
<title>vcorelib_math_time&#45;&gt;vcorelib_io_decode</title><style>.edge>path:hover{stroke-width:8}</style>
<path fill="none" stroke="black" d="M440.14,-470.55C366.12,-457.27 203.87,-426.75 183.72,-410.87 168.71,-399.03 175.8,-387.86 164.72,-372.27"/>
</g>
<!-- vcorelib_math_time&#45;&gt;vcorelib_io_encode -->
<g id="edge31" class="edge">
<title>vcorelib_math_time&#45;&gt;vcorelib_io_encode</title><style>.edge>path:hover{stroke-width:8}</style>
<path fill="none" stroke="black" d="M453.15,-453.14C415.19,-414.74 340.5,-339.18 298.42,-296.61"/>
<polygon fill="#0505e5" stroke="black" points="300.73,-293.97 291.21,-289.32 295.75,-298.89 300.73,-293.97"/>
</g>
<!-- vcorelib_math_time&#45;&gt;vcorelib_logging -->
<g id="edge32" class="edge">
<title>vcorelib_math_time&#45;&gt;vcorelib_logging</title><style>.edge>path:hover{stroke-width:8}</style>
<path fill="none" stroke="black" d="M498.51,-452.04C515.61,-431.59 539.2,-401.39 555.72,-372.27"/>
<path fill="none" stroke="black" d="M555.72,-370.27C568.87,-347.1 559.87,-317.18 549.35,-295.26"/>
<polygon fill="#0505e5" stroke="black" points="552.33,-293.4 544.64,-286.11 546.1,-296.6 552.33,-293.4"/>
</g>
<!-- vcorelib_math_time&#45;&gt;vcorelib_task -->
<g id="edge33" class="edge">
<title>vcorelib_math_time&#45;&gt;vcorelib_task</title><style>.edge>path:hover{stroke-width:8}</style>
<path fill="none" stroke="black" d="M555.72,-370.27C566.18,-351.84 568.99,-346.91 583.72,-331.68 600.21,-314.62 621.24,-298.23 638.25,-286.04"/>
<polygon fill="#0505e5" stroke="black" points="640.58,-288.68 646.74,-280.06 636.55,-282.96 640.58,-288.68"/>
</g>
<!-- vcorelib_paths -->
<g id="node14" class="node">
<title>vcorelib_paths</title><style>.edge>path:hover{stroke-width:8}</style>
<ellipse fill="#1919e6" stroke="black" cx="46.72" cy="-563.1" rx="46.95" ry="18"/>
<text text-anchor="middle" x="46.72" y="-560.1" font-family="Helvetica,sans-Serif" font-size="10.00" fill="#ffffff">vcorelib.paths</text>
</g>
<!-- vcorelib_paths&#45;&gt;vcorelib_dict_cache -->
<g id="edge34" class="edge">
<title>vcorelib_paths&#45;&gt;vcorelib_dict_cache</title><style>.edge>path:hover{stroke-width:8}</style>
<path fill="none" stroke="black" d="M47.6,-545.01C50.03,-499.47 57.49,-371.49 69.72,-265.56"/>
<path fill="none" stroke="black" d="M69.72,-263.56C75.45,-228.48 35.19,-231.42 24.72,-197.45 16.58,-171.02 12.61,-160.09 24.72,-135.23 36.09,-111.89 70.72,-125.19 70.72,-99.23"/>
<path fill="none" stroke="black" d="M70.72,-98.23C70.4,-89.91 70.25,-81 70.22,-72.5"/>
<polygon fill="#1919e6" stroke="black" points="73.72,-72.4 70.22,-62.4 66.72,-72.4 73.72,-72.4"/>
</g>
<!-- vcorelib_paths&#45;&gt;vcorelib_io -->
<g id="edge35" class="edge">
<title>vcorelib_paths&#45;&gt;vcorelib_io</title><style>.edge>path:hover{stroke-width:8}</style>
<path fill="none" stroke="black" d="M69.72,-263.56C72.4,-240.43 72.45,-213.95 71.95,-194.64"/>
<polygon fill="#1919e6" stroke="black" points="75.44,-194.32 71.62,-184.44 68.45,-194.55 75.44,-194.32"/>
</g>
<!-- vcorelib_paths&#45;&gt;vcorelib_io_cache -->
<g id="edge36" class="edge">
<title>vcorelib_paths&#45;&gt;vcorelib_io_cache</title><style>.edge>path:hover{stroke-width:8}</style>
<path fill="none" stroke="black" d="M69.72,-263.56C74.68,-220.63 120.51,-194.72 156.79,-180.77"/>
<polygon fill="#1919e6" stroke="black" points="158.06,-184.03 166.25,-177.31 155.66,-177.46 158.06,-184.03"/>
</g>
<!-- vcorelib_paths&#45;&gt;vcorelib_io_types -->
<g id="edge37" class="edge">
<title>vcorelib_paths&#45;&gt;vcorelib_io_types</title><style>.edge>path:hover{stroke-width:8}</style>
<path fill="none" stroke="black" d="M88.24,-554.59C117.03,-547.41 154.42,-533.86 178.72,-509.1 204.44,-482.9 217.69,-442.7 224.36,-412.64"/>
<polygon fill="#1919e6" stroke="black" points="227.86,-412.97 226.45,-402.47 221.01,-411.56 227.86,-412.97"/>
</g>
<!-- vcorelib_script -->
<g id="node15" class="node">
<title>vcorelib_script</title><style>.edge>path:hover{stroke-width:8}</style>
<ellipse fill="#4747c2" stroke="black" cx="934.72" cy="-648.21" rx="37.79" ry="22.76"/>
<text text-anchor="middle" x="934.72" y="-651.21" font-family="Helvetica,sans-Serif" font-size="10.00" fill="#ffffff">vcorelib.</text>
<text text-anchor="middle" x="934.72" y="-639.21" font-family="Helvetica,sans-Serif" font-size="10.00" fill="#ffffff">script</text>
</g>
<!-- vcorelib_script&#45;&gt;vcorelib_task_manager -->
<g id="edge38" class="edge">
<title>vcorelib_script&#45;&gt;vcorelib_task_manager</title><style>.edge>path:hover{stroke-width:8}</style>
<path fill="none" stroke="black" d="M959.49,-631.14C979.5,-615.92 1003.46,-591.38 997.72,-564.1"/>
<path fill="none" stroke="black" d="M997.72,-562.1C993.67,-542.81 981.97,-524.58 970.05,-510.13"/>
<polygon fill="#4747c2" stroke="black" points="972.65,-507.77 963.46,-502.51 967.36,-512.36 972.65,-507.77"/>
</g>
<!-- vcorelib_target -->
<g id="node16" class="node">
<title>vcorelib_target</title><style>.edge>path:hover{stroke-width:8}</style>
<ellipse fill="#2f2fdb" stroke="black" cx="841.72" cy="-648.21" rx="37.79" ry="22.76"/>
<text text-anchor="middle" x="841.72" y="-651.21" font-family="Helvetica,sans-Serif" font-size="10.00" fill="#ffffff">vcorelib.</text>
<text text-anchor="middle" x="841.72" y="-639.21" font-family="Helvetica,sans-Serif" font-size="10.00" fill="#ffffff">target</text>
</g>
<!-- vcorelib_target&#45;&gt;vcorelib_task -->
<g id="edge39" class="edge">
<title>vcorelib_target&#45;&gt;vcorelib_task</title><style>.edge>path:hover{stroke-width:8}</style>
<path fill="none" stroke="black" d="M849.25,-625.99C855.24,-609.16 863.9,-585.08 871.72,-564.1"/>
<path fill="none" stroke="black" d="M871.72,-562.1C889.67,-513.96 883.98,-372.45 852.72,-331.68 821.65,-291.15 763.56,-275.42 720.93,-269.34"/>
<polygon fill="#2f2fdb" stroke="black" points="721.36,-265.87 711,-268.06 720.47,-272.81 721.36,-265.87"/>
</g>
<!-- vcorelib_target&#45;&gt;vcorelib_task_manager -->
<g id="edge40" class="edge">
<title>vcorelib_target&#45;&gt;vcorelib_task_manager</title><style>.edge>path:hover{stroke-width:8}</style>
<path fill="none" stroke="black" d="M871.72,-562.1C878.99,-542.61 892.76,-524.24 905.94,-509.75"/>
<polygon fill="#2f2fdb" stroke="black" points="908.83,-511.78 913.15,-502.11 903.74,-506.98 908.83,-511.78"/>
</g>
<!-- vcorelib_target_resolver -->
<g id="node17" class="node">
<title>vcorelib_target_resolver</title><style>.edge>path:hover{stroke-width:8}</style>
<ellipse fill="#3d3db8" stroke="black" cx="1027.72" cy="-648.21" rx="37.79" ry="31.23"/>
<text text-anchor="middle" x="1027.72" y="-657.21" font-family="Helvetica,sans-Serif" font-size="10.00" fill="#ffffff">vcorelib.</text>
<text text-anchor="middle" x="1027.72" y="-645.21" font-family="Helvetica,sans-Serif" font-size="10.00" fill="#ffffff">target.</text>
<text text-anchor="middle" x="1027.72" y="-633.21" font-family="Helvetica,sans-Serif" font-size="10.00" fill="#ffffff">resolver</text>
</g>
<!-- vcorelib_target_resolver&#45;&gt;vcorelib_task_manager -->
<g id="edge41" class="edge">
<title>vcorelib_target_resolver&#45;&gt;vcorelib_task_manager</title><style>.edge>path:hover{stroke-width:8}</style>
<path fill="none" stroke="black" d="M1015.14,-618.55C1008.8,-602.79 1001.64,-582.71 997.72,-564.1"/>
</g>
</g>
</svg>
