<?xml version="1.0" encoding="UTF-8" standalone="no"?>
<!DOCTYPE svg PUBLIC "-//W3C//DTD SVG 1.1//EN"
 "http://www.w3.org/Graphics/SVG/1.1/DTD/svg11.dtd">
<!-- Generated by graphviz version 2.38.0 (20140413.2041)
 -->
<!-- Title: G Pages: 1 -->
<svg width="1455pt" height="1043pt"
 viewBox="0.00 0.00 1455.26 1042.97" xmlns="http://www.w3.org/2000/svg" xmlns:xlink="http://www.w3.org/1999/xlink">
<g id="graph0" class="graph" transform="scale(1 1) rotate(0) translate(4 1038.97)">
<title>G</title><style>.edge>path:hover{stroke-width:8}</style>
<polygon fill="white" stroke="none" points="-4,4 -4,-1038.97 1451.26,-1038.97 1451.26,4 -4,4"/>
<!-- __main__ -->
<g id="node1" class="node"><title>__main__</title><style>.edge>path:hover{stroke-width:8}</style>
<ellipse fill="#6b2e2e" stroke="black" cx="272.788" cy="-1016.97" rx="34.9638" ry="18"/>
<text text-anchor="middle" x="272.788" y="-1014.47" font-family="Helvetica,sans-Serif" font-size="10.00" fill="#ffffff">__main__</text>
</g>
<!-- pkg_resources -->
<g id="node4" class="node"><title>pkg_resources</title><style>.edge>path:hover{stroke-width:8}</style>
<ellipse fill="#31c485" stroke="black" cx="272.788" cy="-944.975" rx="47.1863" ry="18"/>
<text text-anchor="middle" x="272.788" y="-942.475" font-family="Helvetica,sans-Serif" font-size="10.00" fill="#000000">pkg_resources</text>
</g>
<!-- __main__&#45;&gt;pkg_resources -->
<g id="edge1" class="edge"><title>__main__&#45;&gt;pkg_resources</title><style>.edge>path:hover{stroke-width:8}</style>
<path fill="none" stroke="black" d="M272.788,-998.671C272.788,-990.957 272.788,-981.687 272.788,-973.087"/>
<polygon fill="#6b2e2e" stroke="black" points="276.288,-973.079 272.788,-963.079 269.288,-973.079 276.288,-973.079"/>
</g>
<!-- cerberus -->
<g id="node2" class="node"><title>cerberus</title><style>.edge>path:hover{stroke-width:8}</style>
<ellipse fill="#b8a63d" stroke="black" cx="31.7878" cy="-299.948" rx="31.577" ry="18"/>
<text text-anchor="middle" x="31.7878" y="-297.448" font-family="Helvetica,sans-Serif" font-size="10.00" fill="#000000">cerberus</text>
</g>
<!-- vcorelib_schemas -->
<g id="node24" class="node"><title>vcorelib_schemas</title><style>.edge>path:hover{stroke-width:8}</style>
<ellipse fill="#ac2b99" stroke="black" cx="131.788" cy="-122.974" rx="39.6962" ry="21.4286"/>
<text text-anchor="middle" x="131.788" y="-125.974" font-family="Helvetica,sans-Serif" font-size="10.00" fill="#ffffff">vcorelib.</text>
<text text-anchor="middle" x="131.788" y="-114.974" font-family="Helvetica,sans-Serif" font-size="10.00" fill="#ffffff">schemas</text>
</g>
<!-- cerberus&#45;&gt;vcorelib_schemas -->
<g id="edge2" class="edge"><title>cerberus&#45;&gt;vcorelib_schemas</title><style>.edge>path:hover{stroke-width:8}</style>
<path fill="none" stroke="black" d="M57.4484,-288.764C83.6952,-276.568 121.976,-253.258 131.788,-217.957"/>
<path fill="none" stroke="black" d="M131.788,-215.957C137.365,-195.893 137.26,-172.401 135.815,-154.181"/>
<polygon fill="#b8a63d" stroke="black" points="139.289,-153.744 134.842,-144.128 132.322,-154.419 139.289,-153.744"/>
</g>
<!-- fastjsonschema -->
<g id="node3" class="node"><title>fastjsonschema</title><style>.edge>path:hover{stroke-width:8}</style>
<ellipse fill="#70b653" stroke="black" cx="131.788" cy="-299.948" rx="50.7503" ry="18"/>
<text text-anchor="middle" x="131.788" y="-297.448" font-family="Helvetica,sans-Serif" font-size="10.00" fill="#000000">fastjsonschema</text>
</g>
<!-- fastjsonschema&#45;&gt;vcorelib_schemas -->
<g id="edge3" class="edge"><title>fastjsonschema&#45;&gt;vcorelib_schemas</title><style>.edge>path:hover{stroke-width:8}</style>
<path fill="none" stroke="black" d="M129.172,-281.839C127.233,-265.196 125.838,-239.362 131.788,-217.957"/>
</g>
<!-- pkg_resources&#45;&gt;cerberus -->
<g id="edge4" class="edge"><title>pkg_resources&#45;&gt;cerberus</title><style>.edge>path:hover{stroke-width:8}</style>
<path fill="none" stroke="black" d="M270.636,-926.982C269.041,-910.426 267.894,-884.654 272.788,-862.983"/>
<path fill="none" stroke="black" d="M272.788,-860.983C288.843,-789.893 272.788,-769.882 272.788,-697.001 272.788,-697.001 272.788,-697.001 272.788,-483.701 272.788,-431.901 129.642,-351.396 63.9933,-317.199"/>
<polygon fill="#31c485" stroke="black" points="65.3867,-313.979 54.8959,-312.498 62.1734,-320.198 65.3867,-313.979"/>
</g>
<!-- vcorelib_paths -->
<g id="node22" class="node"><title>vcorelib_paths</title><style>.edge>path:hover{stroke-width:8}</style>
<ellipse fill="#ef06ce" stroke="black" cx="351.788" cy="-778.992" rx="45.1548" ry="18"/>
<text text-anchor="middle" x="351.788" y="-776.492" font-family="Helvetica,sans-Serif" font-size="10.00" fill="#ffffff">vcorelib.paths</text>
</g>
<!-- pkg_resources&#45;&gt;vcorelib_paths -->
<g id="edge5" class="edge"><title>pkg_resources&#45;&gt;vcorelib_paths</title><style>.edge>path:hover{stroke-width:8}</style>
<path fill="none" stroke="black" d="M272.788,-860.983C278.592,-835.281 300.007,-814.276 319.077,-800.103"/>
<polygon fill="#31c485" stroke="black" points="321.187,-802.898 327.331,-794.266 317.145,-797.182 321.187,-802.898"/>
</g>
<!-- tomli -->
<g id="node5" class="node"><title>tomli</title><style>.edge>path:hover{stroke-width:8}</style>
<ellipse fill="#538cb6" stroke="black" cx="695.788" cy="-778.992" rx="27" ry="18"/>
<text text-anchor="middle" x="695.788" y="-776.492" font-family="Helvetica,sans-Serif" font-size="10.00" fill="#000000">tomli</text>
</g>
<!-- vcorelib_io_decode -->
<g id="node14" class="node"><title>vcorelib_io_decode</title><style>.edge>path:hover{stroke-width:8}</style>
<ellipse fill="#913084" stroke="black" cx="657.788" cy="-484.701" rx="37.4533" ry="28.9828"/>
<text text-anchor="middle" x="657.788" y="-493.201" font-family="Helvetica,sans-Serif" font-size="10.00" fill="#ffffff">vcorelib.</text>
<text text-anchor="middle" x="657.788" y="-482.201" font-family="Helvetica,sans-Serif" font-size="10.00" fill="#ffffff">io.</text>
<text text-anchor="middle" x="657.788" y="-471.201" font-family="Helvetica,sans-Serif" font-size="10.00" fill="#ffffff">decode</text>
</g>
<!-- tomli&#45;&gt;vcorelib_io_decode -->
<g id="edge6" class="edge"><title>tomli&#45;&gt;vcorelib_io_decode</title><style>.edge>path:hover{stroke-width:8}</style>
<path fill="none" stroke="black" d="M692.161,-761.07C682.811,-717.372 658.559,-603.569 657.788,-595.24"/>
</g>
<!-- tomli_w -->
<g id="node6" class="node"><title>tomli_w</title><style>.edge>path:hover{stroke-width:8}</style>
<ellipse fill="#6440c0" stroke="black" cx="524.788" cy="-778.992" rx="29.3664" ry="18"/>
<text text-anchor="middle" x="524.788" y="-776.492" font-family="Helvetica,sans-Serif" font-size="10.00" fill="#ffffff">tomli_w</text>
</g>
<!-- vcorelib_io_encode -->
<g id="node15" class="node"><title>vcorelib_io_encode</title><style>.edge>path:hover{stroke-width:8}</style>
<ellipse fill="#913084" stroke="black" cx="489.788" cy="-484.701" rx="37.4533" ry="28.9828"/>
<text text-anchor="middle" x="489.788" y="-493.201" font-family="Helvetica,sans-Serif" font-size="10.00" fill="#ffffff">vcorelib.</text>
<text text-anchor="middle" x="489.788" y="-482.201" font-family="Helvetica,sans-Serif" font-size="10.00" fill="#ffffff">io.</text>
<text text-anchor="middle" x="489.788" y="-471.201" font-family="Helvetica,sans-Serif" font-size="10.00" fill="#ffffff">encode</text>
</g>
<!-- tomli_w&#45;&gt;vcorelib_io_encode -->
<g id="edge7" class="edge"><title>tomli_w&#45;&gt;vcorelib_io_encode</title><style>.edge>path:hover{stroke-width:8}</style>
<path fill="none" stroke="black" d="M543.775,-764.833C562.464,-750.094 587.449,-724.625 581.788,-697.001"/>
<path fill="none" stroke="black" d="M581.788,-695.001C573.126,-652.734 535.569,-664.836 508.788,-631.009 497.614,-616.896 500.28,-609.867 489.788,-595.24"/>
<path fill="none" stroke="black" d="M489.788,-593.24C475.444,-573.242 475.872,-545.328 479.662,-522.951"/>
<polygon fill="#6440c0" stroke="black" points="483.102,-523.595 481.598,-513.107 476.234,-522.243 483.102,-523.595"/>
</g>
<!-- vcorelib_asyncio -->
<g id="node7" class="node"><title>vcorelib_asyncio</title><style>.edge>path:hover{stroke-width:8}</style>
<ellipse fill="#c247b1" stroke="black" cx="1223.79" cy="-861.983" rx="37.4533" ry="21.4286"/>
<text text-anchor="middle" x="1223.79" y="-864.983" font-family="Helvetica,sans-Serif" font-size="10.00" fill="#ffffff">vcorelib.</text>
<text text-anchor="middle" x="1223.79" y="-853.983" font-family="Helvetica,sans-Serif" font-size="10.00" fill="#ffffff">asyncio</text>
</g>
<!-- vcorelib_task_manager -->
<g id="node32" class="node"><title>vcorelib_task_manager</title><style>.edge>path:hover{stroke-width:8}</style>
<ellipse fill="#883a7d" stroke="black" cx="1296.79" cy="-696.001" rx="38.3684" ry="28.9828"/>
<text text-anchor="middle" x="1296.79" y="-704.501" font-family="Helvetica,sans-Serif" font-size="10.00" fill="#ffffff">vcorelib.</text>
<text text-anchor="middle" x="1296.79" y="-693.501" font-family="Helvetica,sans-Serif" font-size="10.00" fill="#ffffff">task.</text>
<text text-anchor="middle" x="1296.79" y="-682.501" font-family="Helvetica,sans-Serif" font-size="10.00" fill="#ffffff">manager</text>
</g>
<!-- vcorelib_asyncio&#45;&gt;vcorelib_task_manager -->
<g id="edge8" class="edge"><title>vcorelib_asyncio&#45;&gt;vcorelib_task_manager</title><style>.edge>path:hover{stroke-width:8}</style>
<path fill="none" stroke="black" d="M1243.88,-844.075C1260.54,-828.958 1283.57,-805.334 1296.79,-779.992"/>
</g>
<!-- vcorelib_dict -->
<g id="node8" class="node"><title>vcorelib_dict</title><style>.edge>path:hover{stroke-width:8}</style>
<ellipse fill="#f910d8" stroke="black" cx="807.788" cy="-861.983" rx="40.7358" ry="18"/>
<text text-anchor="middle" x="807.788" y="-859.483" font-family="Helvetica,sans-Serif" font-size="10.00" fill="#ffffff">vcorelib.dict</text>
</g>
<!-- vcorelib_io -->
<g id="node11" class="node"><title>vcorelib_io</title><style>.edge>path:hover{stroke-width:8}</style>
<ellipse fill="#bd04a3" stroke="black" cx="450.788" cy="-382.94" rx="35.8171" ry="18"/>
<text text-anchor="middle" x="450.788" y="-380.44" font-family="Helvetica,sans-Serif" font-size="10.00" fill="#ffffff">vcorelib.io</text>
</g>
<!-- vcorelib_dict&#45;&gt;vcorelib_io -->
<g id="edge9" class="edge"><title>vcorelib_dict&#45;&gt;vcorelib_io</title><style>.edge>path:hover{stroke-width:8}</style>
<path fill="none" stroke="black" d="M767.163,-861.701C668.593,-861.116 424.788,-844.737 424.788,-697.001 424.788,-697.001 424.788,-697.001 424.788,-593.24 424.788,-527.332 437.641,-450.634 445.273,-410.902"/>
<polygon fill="#f910d8" stroke="black" points="448.737,-411.429 447.227,-400.943 441.868,-410.082 448.737,-411.429"/>
</g>
<!-- vcorelib_io_cache -->
<g id="node13" class="node"><title>vcorelib_io_cache</title><style>.edge>path:hover{stroke-width:8}</style>
<ellipse fill="#813776" stroke="black" cx="619.788" cy="-382.94" rx="37.4533" ry="28.9828"/>
<text text-anchor="middle" x="619.788" y="-391.44" font-family="Helvetica,sans-Serif" font-size="10.00" fill="#ffffff">vcorelib.</text>
<text text-anchor="middle" x="619.788" y="-380.44" font-family="Helvetica,sans-Serif" font-size="10.00" fill="#ffffff">io.</text>
<text text-anchor="middle" x="619.788" y="-369.44" font-family="Helvetica,sans-Serif" font-size="10.00" fill="#ffffff">cache</text>
</g>
<!-- vcorelib_dict&#45;&gt;vcorelib_io_cache -->
<g id="edge10" class="edge"><title>vcorelib_dict&#45;&gt;vcorelib_io_cache</title><style>.edge>path:hover{stroke-width:8}</style>
<path fill="none" stroke="black" d="M846.713,-856.466C916.284,-847.317 1055.85,-823.659 1067.79,-779.992"/>
<path fill="none" stroke="black" d="M1067.79,-777.992C1086.5,-709.52 807.084,-770.716 752.788,-724.992 718.925,-696.476 727.227,-674.65 719.788,-631.009 714.296,-598.79 719.105,-590.147 719.788,-557.47 720.455,-525.552 734.013,-515.588 722.788,-485.701"/>
<path fill="none" stroke="black" d="M722.788,-483.701C715.584,-467.204 715.44,-461.652 703.788,-447.931 690.571,-432.367 672.955,-418.234 657.27,-407.232"/>
<polygon fill="#f910d8" stroke="black" points="659.028,-404.195 648.794,-401.453 655.085,-409.978 659.028,-404.195"/>
</g>
<!-- vcorelib_dict&#45;&gt;vcorelib_io_decode -->
<g id="edge11" class="edge"><title>vcorelib_dict&#45;&gt;vcorelib_io_decode</title><style>.edge>path:hover{stroke-width:8}</style>
<path fill="none" stroke="black" d="M657.788,-695.001C663.82,-651.075 660.066,-639.519 657.788,-595.24"/>
<path fill="none" stroke="black" d="M657.788,-593.24C656.611,-570.376 656.562,-544.741 656.83,-524.237"/>
<polygon fill="#f910d8" stroke="black" points="660.333,-524.079 656.995,-514.024 653.334,-523.966 660.333,-524.079"/>
</g>
<!-- vcorelib_dict&#45;&gt;vcorelib_io_encode -->
<g id="edge12" class="edge"><title>vcorelib_dict&#45;&gt;vcorelib_io_encode</title><style>.edge>path:hover{stroke-width:8}</style>
<path fill="none" stroke="black" d="M770.65,-854.344C710.457,-842.6 596.775,-815.965 581.788,-779.992"/>
<path fill="none" stroke="black" d="M581.788,-777.992C567.945,-744.764 589.014,-732.264 581.788,-697.001"/>
</g>
<!-- vcorelib_io_types -->
<g id="node16" class="node"><title>vcorelib_io_types</title><style>.edge>path:hover{stroke-width:8}</style>
<ellipse fill="#e505c5" stroke="black" cx="554.788" cy="-594.24" rx="37.4533" ry="28.9828"/>
<text text-anchor="middle" x="554.788" y="-602.74" font-family="Helvetica,sans-Serif" font-size="10.00" fill="#ffffff">vcorelib.</text>
<text text-anchor="middle" x="554.788" y="-591.74" font-family="Helvetica,sans-Serif" font-size="10.00" fill="#ffffff">io.</text>
<text text-anchor="middle" x="554.788" y="-580.74" font-family="Helvetica,sans-Serif" font-size="10.00" fill="#ffffff">types</text>
</g>
<!-- vcorelib_dict&#45;&gt;vcorelib_io_types -->
<g id="edge13" class="edge"><title>vcorelib_dict&#45;&gt;vcorelib_io_types</title><style>.edge>path:hover{stroke-width:8}</style>
<path fill="none" stroke="black" d="M581.788,-777.992C562.805,-732.426 651.072,-745.904 657.788,-697.001"/>
<path fill="none" stroke="black" d="M657.788,-695.001C662.843,-658.187 626.987,-630.388 596.208,-613.606"/>
<polygon fill="#f910d8" stroke="black" points="597.772,-610.474 587.286,-608.96 594.539,-616.683 597.772,-610.474"/>
</g>
<!-- vcorelib_math_time -->
<g id="node21" class="node"><title>vcorelib_math_time</title><style>.edge>path:hover{stroke-width:8}</style>
<ellipse fill="#e505c5" stroke="black" cx="983.788" cy="-696.001" rx="37.4533" ry="28.9828"/>
<text text-anchor="middle" x="983.788" y="-704.501" font-family="Helvetica,sans-Serif" font-size="10.00" fill="#ffffff">vcorelib.</text>
<text text-anchor="middle" x="983.788" y="-693.501" font-family="Helvetica,sans-Serif" font-size="10.00" fill="#ffffff">math.</text>
<text text-anchor="middle" x="983.788" y="-682.501" font-family="Helvetica,sans-Serif" font-size="10.00" fill="#ffffff">time</text>
</g>
<!-- vcorelib_dict&#45;&gt;vcorelib_math_time -->
<g id="edge14" class="edge"><title>vcorelib_dict&#45;&gt;vcorelib_math_time</title><style>.edge>path:hover{stroke-width:8}</style>
<path fill="none" stroke="black" d="M1067.79,-777.992C1075.19,-750.929 1049.99,-729.444 1025.31,-715.422"/>
<polygon fill="#f910d8" stroke="black" points="1026.77,-712.233 1016.3,-710.597 1023.46,-718.404 1026.77,-712.233"/>
</g>
<!-- vcorelib_paths_info_cache -->
<g id="node23" class="node"><title>vcorelib_paths_info_cache</title><style>.edge>path:hover{stroke-width:8}</style>
<ellipse fill="#8f3d83" stroke="black" cx="554.788" cy="-28.9914" rx="45.011" ry="28.9828"/>
<text text-anchor="middle" x="554.788" y="-37.4914" font-family="Helvetica,sans-Serif" font-size="10.00" fill="#ffffff">vcorelib.</text>
<text text-anchor="middle" x="554.788" y="-26.4914" font-family="Helvetica,sans-Serif" font-size="10.00" fill="#ffffff">paths.</text>
<text text-anchor="middle" x="554.788" y="-15.4914" font-family="Helvetica,sans-Serif" font-size="10.00" fill="#ffffff">info_cache</text>
</g>
<!-- vcorelib_dict&#45;&gt;vcorelib_paths_info_cache -->
<g id="edge15" class="edge"><title>vcorelib_dict&#45;&gt;vcorelib_paths_info_cache</title><style>.edge>path:hover{stroke-width:8}</style>
<path fill="none" stroke="black" d="M1067.79,-777.992C1108.79,-630.433 1261.6,-568.207 1166.79,-447.931 1123.49,-393.009 563.425,-370.346 554.788,-300.948"/>
</g>
<!-- vcorelib_task -->
<g id="node30" class="node"><title>vcorelib_task</title><style>.edge>path:hover{stroke-width:8}</style>
<ellipse fill="#c115a8" stroke="black" cx="1115.79" cy="-484.701" rx="42.2678" ry="18"/>
<text text-anchor="middle" x="1115.79" y="-482.201" font-family="Helvetica,sans-Serif" font-size="10.00" fill="#ffffff">vcorelib.task</text>
</g>
<!-- vcorelib_dict&#45;&gt;vcorelib_task -->
<g id="edge16" class="edge"><title>vcorelib_dict&#45;&gt;vcorelib_task</title><style>.edge>path:hover{stroke-width:8}</style>
<path fill="none" stroke="black" d="M1067.79,-777.992C1077.28,-743.27 1070.16,-732.919 1067.79,-697.001"/>
<path fill="none" stroke="black" d="M1067.79,-695.001C1064.57,-646.282 992.098,-634 1021.79,-595.24"/>
</g>
<!-- vcorelib_task_dict_melder -->
<g id="node31" class="node"><title>vcorelib_task_dict_melder</title><style>.edge>path:hover{stroke-width:8}</style>
<ellipse fill="#a44697" stroke="black" cx="1086.79" cy="-594.24" rx="37.4533" ry="36.5405"/>
<text text-anchor="middle" x="1086.79" y="-608.24" font-family="Helvetica,sans-Serif" font-size="10.00" fill="#ffffff">vcorelib.</text>
<text text-anchor="middle" x="1086.79" y="-597.24" font-family="Helvetica,sans-Serif" font-size="10.00" fill="#ffffff">task.</text>
<text text-anchor="middle" x="1086.79" y="-586.24" font-family="Helvetica,sans-Serif" font-size="10.00" fill="#ffffff">dict.</text>
<text text-anchor="middle" x="1086.79" y="-575.24" font-family="Helvetica,sans-Serif" font-size="10.00" fill="#ffffff">melder</text>
</g>
<!-- vcorelib_dict&#45;&gt;vcorelib_task_dict_melder -->
<g id="edge17" class="edge"><title>vcorelib_dict&#45;&gt;vcorelib_task_dict_melder</title><style>.edge>path:hover{stroke-width:8}</style>
<path fill="none" stroke="black" d="M1067.79,-695.001C1066.57,-676.618 1069.52,-656.621 1073.42,-639.39"/>
<polygon fill="#f910d8" stroke="black" points="1076.84,-640.143 1075.81,-629.598 1070.04,-638.484 1076.84,-640.143"/>
</g>
<!-- vcorelib_dict&#45;&gt;vcorelib_task_manager -->
<g id="edge18" class="edge"><title>vcorelib_dict&#45;&gt;vcorelib_task_manager</title><style>.edge>path:hover{stroke-width:8}</style>
<path fill="none" stroke="black" d="M846.427,-856.271C960.13,-842.186 1286.28,-800.138 1296.79,-779.992"/>
<path fill="none" stroke="black" d="M1296.79,-777.992C1303.59,-764.951 1304.84,-749.044 1303.93,-734.791"/>
<polygon fill="#f910d8" stroke="black" points="1307.4,-734.376 1302.93,-724.77 1300.44,-735.066 1307.4,-734.376"/>
</g>
<!-- vcorelib_dict_cache -->
<g id="node9" class="node"><title>vcorelib_dict_cache</title><style>.edge>path:hover{stroke-width:8}</style>
<ellipse fill="#a83898" stroke="black" cx="298.788" cy="-216.957" rx="37.4533" ry="28.9828"/>
<text text-anchor="middle" x="298.788" y="-225.457" font-family="Helvetica,sans-Serif" font-size="10.00" fill="#ffffff">vcorelib.</text>
<text text-anchor="middle" x="298.788" y="-214.457" font-family="Helvetica,sans-Serif" font-size="10.00" fill="#ffffff">dict.</text>
<text text-anchor="middle" x="298.788" y="-203.457" font-family="Helvetica,sans-Serif" font-size="10.00" fill="#ffffff">cache</text>
</g>
<!-- vcorelib_dict_cache&#45;&gt;vcorelib_paths_info_cache -->
<g id="edge19" class="edge"><title>vcorelib_dict_cache&#45;&gt;vcorelib_paths_info_cache</title><style>.edge>path:hover{stroke-width:8}</style>
<path fill="none" stroke="black" d="M333.695,-206.277C401.296,-187.132 544.387,-144.514 554.788,-123.974"/>
<path fill="none" stroke="black" d="M554.788,-121.974C563.032,-105.693 563.916,-85.6171 562.368,-68.3794"/>
<polygon fill="#a83898" stroke="black" points="565.798,-67.5855 561.133,-58.0726 558.847,-68.4178 565.798,-67.5855"/>
</g>
<!-- vcorelib_dict_config -->
<g id="node10" class="node"><title>vcorelib_dict_config</title><style>.edge>path:hover{stroke-width:8}</style>
<ellipse fill="#96408a" stroke="black" cx="450.788" cy="-216.957" rx="37.4533" ry="28.9828"/>
<text text-anchor="middle" x="450.788" y="-225.457" font-family="Helvetica,sans-Serif" font-size="10.00" fill="#ffffff">vcorelib.</text>
<text text-anchor="middle" x="450.788" y="-214.457" font-family="Helvetica,sans-Serif" font-size="10.00" fill="#ffffff">dict.</text>
<text text-anchor="middle" x="450.788" y="-203.457" font-family="Helvetica,sans-Serif" font-size="10.00" fill="#ffffff">config</text>
</g>
<!-- vcorelib_io&#45;&gt;vcorelib_dict_cache -->
<g id="edge20" class="edge"><title>vcorelib_io&#45;&gt;vcorelib_dict_cache</title><style>.edge>path:hover{stroke-width:8}</style>
<path fill="none" stroke="black" d="M454.276,-364.843C456.926,-347.983 458.888,-321.786 450.788,-300.948"/>
<path fill="none" stroke="black" d="M450.788,-298.948C434.28,-256.479 383.569,-235.873 345.221,-226.149"/>
<polygon fill="#bd04a3" stroke="black" points="345.808,-222.691 335.271,-223.795 344.196,-229.503 345.808,-222.691"/>
</g>
<!-- vcorelib_io&#45;&gt;vcorelib_dict_config -->
<g id="edge21" class="edge"><title>vcorelib_io&#45;&gt;vcorelib_dict_config</title><style>.edge>path:hover{stroke-width:8}</style>
<path fill="none" stroke="black" d="M450.788,-298.948C445.592,-285.58 444.536,-270.007 445.147,-256.109"/>
<polygon fill="#bd04a3" stroke="black" points="448.657,-256.1 445.897,-245.871 441.675,-255.588 448.657,-256.1"/>
</g>
<!-- vcorelib_io&#45;&gt;vcorelib_paths_info_cache -->
<g id="edge22" class="edge"><title>vcorelib_io&#45;&gt;vcorelib_paths_info_cache</title><style>.edge>path:hover{stroke-width:8}</style>
<path fill="none" stroke="black" d="M481.044,-373.014C512.448,-361.678 556.763,-338.886 554.788,-300.948"/>
<path fill="none" stroke="black" d="M554.788,-298.948C550.744,-221.287 519.657,-193.353 554.788,-123.974"/>
</g>
<!-- vcorelib_schemas_base -->
<g id="node25" class="node"><title>vcorelib_schemas_base</title><style>.edge>path:hover{stroke-width:8}</style>
<ellipse fill="#bc2fa8" stroke="black" cx="201.788" cy="-216.957" rx="41.9398" ry="28.9828"/>
<text text-anchor="middle" x="201.788" y="-225.457" font-family="Helvetica,sans-Serif" font-size="10.00" fill="#ffffff">vcorelib.</text>
<text text-anchor="middle" x="201.788" y="-214.457" font-family="Helvetica,sans-Serif" font-size="10.00" fill="#ffffff">schemas.</text>
<text text-anchor="middle" x="201.788" y="-203.457" font-family="Helvetica,sans-Serif" font-size="10.00" fill="#ffffff">base</text>
</g>
<!-- vcorelib_io&#45;&gt;vcorelib_schemas_base -->
<g id="edge23" class="edge"><title>vcorelib_io&#45;&gt;vcorelib_schemas_base</title><style>.edge>path:hover{stroke-width:8}</style>
<path fill="none" stroke="black" d="M432.029,-367.386C405.881,-347.325 356.735,-310.428 312.788,-281.948 299.93,-273.616 268.768,-255.721 242.725,-240.968"/>
<polygon fill="#bd04a3" stroke="black" points="244.192,-237.777 233.765,-235.902 240.747,-243.871 244.192,-237.777"/>
</g>
<!-- vcorelib_io_archive -->
<g id="node12" class="node"><title>vcorelib_io_archive</title><style>.edge>path:hover{stroke-width:8}</style>
<ellipse fill="#a13591" stroke="black" cx="787.788" cy="-484.701" rx="37.4533" ry="28.9828"/>
<text text-anchor="middle" x="787.788" y="-493.201" font-family="Helvetica,sans-Serif" font-size="10.00" fill="#ffffff">vcorelib.</text>
<text text-anchor="middle" x="787.788" y="-482.201" font-family="Helvetica,sans-Serif" font-size="10.00" fill="#ffffff">io.</text>
<text text-anchor="middle" x="787.788" y="-471.201" font-family="Helvetica,sans-Serif" font-size="10.00" fill="#ffffff">archive</text>
</g>
<!-- vcorelib_io_archive&#45;&gt;vcorelib_io_cache -->
<g id="edge24" class="edge"><title>vcorelib_io_archive&#45;&gt;vcorelib_io_cache</title><style>.edge>path:hover{stroke-width:8}</style>
<path fill="none" stroke="black" d="M761.171,-464.19C753.427,-458.745 744.874,-452.95 736.788,-447.931 708.399,-430.31 700.1,-427.969 670.788,-411.931 666.895,-409.801 662.836,-407.577 658.782,-405.355"/>
<polygon fill="#a13591" stroke="black" points="660.435,-402.27 649.984,-400.53 657.069,-408.408 660.435,-402.27"/>
</g>
<!-- vcorelib_io_decode&#45;&gt;vcorelib_io -->
<g id="edge25" class="edge"><title>vcorelib_io_decode&#45;&gt;vcorelib_io</title><style>.edge>path:hover{stroke-width:8}</style>
<path fill="none" stroke="black" d="M626.349,-468.549C588.292,-450.208 524.431,-419.431 485.119,-400.485"/>
<polygon fill="#913084" stroke="black" points="486.212,-397.127 475.684,-395.938 483.173,-403.433 486.212,-397.127"/>
</g>
<!-- vcorelib_io_encode&#45;&gt;vcorelib_io -->
<g id="edge26" class="edge"><title>vcorelib_io_encode&#45;&gt;vcorelib_io</title><style>.edge>path:hover{stroke-width:8}</style>
<path fill="none" stroke="black" d="M479.234,-456.704C473.643,-442.402 466.799,-424.896 461.226,-410.639"/>
<polygon fill="#913084" stroke="black" points="464.329,-408.964 457.428,-400.925 457.809,-411.513 464.329,-408.964"/>
</g>
<!-- vcorelib_io_types&#45;&gt;vcorelib_dict_cache -->
<g id="edge27" class="edge"><title>vcorelib_io_types&#45;&gt;vcorelib_dict_cache</title><style>.edge>path:hover{stroke-width:8}</style>
<path fill="none" stroke="black" d="M558.828,-565.285C561.056,-543.249 562.082,-511.965 554.788,-485.701"/>
<path fill="none" stroke="black" d="M554.788,-483.701C549.971,-466.356 549.826,-459.199 535.788,-447.931 489.033,-410.405 452.838,-449.087 405.788,-411.931 354.544,-371.464 324.209,-299.358 309.587,-255.377"/>
<polygon fill="#e505c5" stroke="black" points="312.848,-254.087 306.453,-245.639 306.185,-256.231 312.848,-254.087"/>
</g>
<!-- vcorelib_io_types&#45;&gt;vcorelib_dict_config -->
<g id="edge28" class="edge"><title>vcorelib_io_types&#45;&gt;vcorelib_dict_config</title><style>.edge>path:hover{stroke-width:8}</style>
<path fill="none" stroke="black" d="M554.788,-483.701C542.923,-440.979 559.767,-427.997 554.788,-383.94"/>
<path fill="none" stroke="black" d="M554.788,-381.94C548.733,-328.36 509.647,-277.72 481.168,-247.262"/>
<polygon fill="#e505c5" stroke="black" points="483.626,-244.768 474.183,-239.963 478.569,-249.608 483.626,-244.768"/>
</g>
<!-- vcorelib_io_types&#45;&gt;vcorelib_io -->
<g id="edge29" class="edge"><title>vcorelib_io_types&#45;&gt;vcorelib_io</title><style>.edge>path:hover{stroke-width:8}</style>
<path fill="none" stroke="black" d="M554.788,-483.701C544.622,-447.098 509.93,-418.82 483.381,-401.868"/>
<polygon fill="#e505c5" stroke="black" points="485.09,-398.81 474.737,-396.558 481.426,-404.775 485.09,-398.81"/>
</g>
<!-- vcorelib_io_types&#45;&gt;vcorelib_io_archive -->
<g id="edge30" class="edge"><title>vcorelib_io_types&#45;&gt;vcorelib_io_archive</title><style>.edge>path:hover{stroke-width:8}</style>
<path fill="none" stroke="black" d="M589.062,-582.434C626.467,-570.029 687.585,-547.944 736.788,-521.47 742.35,-518.477 748.029,-514.988 753.482,-511.385"/>
<polygon fill="#e505c5" stroke="black" points="755.538,-514.219 761.815,-505.684 751.586,-508.442 755.538,-514.219"/>
</g>
<!-- vcorelib_io_types&#45;&gt;vcorelib_io_cache -->
<g id="edge31" class="edge"><title>vcorelib_io_types&#45;&gt;vcorelib_io_cache</title><style>.edge>path:hover{stroke-width:8}</style>
<path fill="none" stroke="black" d="M554.788,-483.701C547.185,-456.325 566.481,-429.59 585.985,-410.697"/>
<polygon fill="#e505c5" stroke="black" points="588.429,-413.204 593.415,-403.855 583.688,-408.055 588.429,-413.204"/>
</g>
<!-- vcorelib_io_types&#45;&gt;vcorelib_io_decode -->
<g id="edge32" class="edge"><title>vcorelib_io_types&#45;&gt;vcorelib_io_decode</title><style>.edge>path:hover{stroke-width:8}</style>
<path fill="none" stroke="black" d="M576.631,-570.433C591.789,-554.607 612.147,-533.353 628.681,-516.091"/>
<polygon fill="#e505c5" stroke="black" points="631.586,-518.117 635.976,-508.474 626.531,-513.275 631.586,-518.117"/>
</g>
<!-- vcorelib_io_types&#45;&gt;vcorelib_io_encode -->
<g id="edge33" class="edge"><title>vcorelib_io_types&#45;&gt;vcorelib_io_encode</title><style>.edge>path:hover{stroke-width:8}</style>
<path fill="none" stroke="black" d="M539.384,-567.754C530.785,-553.528 519.954,-535.609 510.609,-520.148"/>
<polygon fill="#e505c5" stroke="black" points="513.475,-518.123 505.307,-511.376 507.484,-521.744 513.475,-518.123"/>
</g>
<!-- vcorelib_io_types&#45;&gt;vcorelib_paths_info_cache -->
<g id="edge34" class="edge"><title>vcorelib_io_types&#45;&gt;vcorelib_paths_info_cache</title><style>.edge>path:hover{stroke-width:8}</style>
<path fill="none" stroke="black" d="M554.788,-381.94C551.365,-346.107 559.234,-336.669 554.788,-300.948"/>
</g>
<!-- vcorelib_logging -->
<g id="node17" class="node"><title>vcorelib_logging</title><style>.edge>path:hover{stroke-width:8}</style>
<ellipse fill="#a44697" stroke="black" cx="880.788" cy="-484.701" rx="37.4533" ry="21.4286"/>
<text text-anchor="middle" x="880.788" y="-487.701" font-family="Helvetica,sans-Serif" font-size="10.00" fill="#ffffff">vcorelib.</text>
<text text-anchor="middle" x="880.788" y="-476.701" font-family="Helvetica,sans-Serif" font-size="10.00" fill="#ffffff">logging</text>
</g>
<!-- vcorelib_math -->
<g id="node18" class="node"><title>vcorelib_math</title><style>.edge>path:hover{stroke-width:8}</style>
<ellipse fill="#f910d8" stroke="black" cx="805.788" cy="-696.001" rx="44.3" ry="18"/>
<text text-anchor="middle" x="805.788" y="-693.501" font-family="Helvetica,sans-Serif" font-size="10.00" fill="#ffffff">vcorelib.math</text>
</g>
<!-- vcorelib_math&#45;&gt;vcorelib_io_archive -->
<g id="edge35" class="edge"><title>vcorelib_math&#45;&gt;vcorelib_io_archive</title><style>.edge>path:hover{stroke-width:8}</style>
<path fill="none" stroke="black" d="M805.546,-677.977C805.476,-658.055 806.022,-624.116 809.788,-595.24"/>
<path fill="none" stroke="black" d="M809.788,-593.24C812.879,-569.53 807.656,-543.229 801.525,-522.573"/>
<polygon fill="#f910d8" stroke="black" points="804.826,-521.402 798.475,-512.921 798.151,-523.511 804.826,-521.402"/>
</g>
<!-- vcorelib_math&#45;&gt;vcorelib_io_cache -->
<g id="edge36" class="edge"><title>vcorelib_math&#45;&gt;vcorelib_io_cache</title><style>.edge>path:hover{stroke-width:8}</style>
<path fill="none" stroke="black" d="M733.788,-593.24C710.885,-551.005 739.68,-530.678 722.788,-485.701"/>
</g>
<!-- vcorelib_math&#45;&gt;vcorelib_io_decode -->
<g id="edge37" class="edge"><title>vcorelib_math&#45;&gt;vcorelib_io_decode</title><style>.edge>path:hover{stroke-width:8}</style>
<path fill="none" stroke="black" d="M791.897,-678.581C776.251,-659.496 750.792,-626.596 733.788,-595.24"/>
<path fill="none" stroke="black" d="M733.788,-593.24C719.324,-566.568 699.432,-538.649 683.626,-517.943"/>
<polygon fill="#f910d8" stroke="black" points="686.233,-515.593 677.351,-509.818 680.693,-519.872 686.233,-515.593"/>
</g>
<!-- vcorelib_math&#45;&gt;vcorelib_io_encode -->
<g id="edge38" class="edge"><title>vcorelib_math&#45;&gt;vcorelib_io_encode</title><style>.edge>path:hover{stroke-width:8}</style>
<path fill="none" stroke="black" d="M767.361,-686.938C687.634,-670.181 511.391,-632.977 508.788,-631.009 494.429,-620.153 500.28,-609.867 489.788,-595.24"/>
</g>
<!-- vcorelib_math&#45;&gt;vcorelib_logging -->
<g id="edge39" class="edge"><title>vcorelib_math&#45;&gt;vcorelib_logging</title><style>.edge>path:hover{stroke-width:8}</style>
<path fill="none" stroke="black" d="M809.788,-593.24C813.976,-561.121 836.136,-530.936 854.601,-510.77"/>
<polygon fill="#f910d8" stroke="black" points="857.358,-512.949 861.708,-503.288 852.283,-508.128 857.358,-512.949"/>
</g>
<!-- vcorelib_math&#45;&gt;vcorelib_task -->
<g id="edge40" class="edge"><title>vcorelib_math&#45;&gt;vcorelib_task</title><style>.edge>path:hover{stroke-width:8}</style>
<path fill="none" stroke="black" d="M845.908,-688.138C895.449,-677.436 978.46,-651.806 1021.79,-595.24"/>
<path fill="none" stroke="black" d="M1021.79,-593.24C1032.73,-578.949 1029.92,-571.824 1040.79,-557.47 1054.77,-538.992 1073.63,-520.969 1088.94,-507.607"/>
<polygon fill="#f910d8" stroke="black" points="1091.26,-510.229 1096.57,-501.066 1086.7,-504.913 1091.26,-510.229"/>
</g>
<!-- vcorelib_math_analysis_average -->
<g id="node19" class="node"><title>vcorelib_math_analysis_average</title><style>.edge>path:hover{stroke-width:8}</style>
<ellipse fill="#c247b1" stroke="black" cx="915.788" cy="-594.24" rx="39.6962" ry="36.5405"/>
<text text-anchor="middle" x="915.788" y="-608.24" font-family="Helvetica,sans-Serif" font-size="10.00" fill="#ffffff">vcorelib.</text>
<text text-anchor="middle" x="915.788" y="-597.24" font-family="Helvetica,sans-Serif" font-size="10.00" fill="#ffffff">math.</text>
<text text-anchor="middle" x="915.788" y="-586.24" font-family="Helvetica,sans-Serif" font-size="10.00" fill="#ffffff">analysis.</text>
<text text-anchor="middle" x="915.788" y="-575.24" font-family="Helvetica,sans-Serif" font-size="10.00" fill="#ffffff">average</text>
</g>
<!-- vcorelib_math_analysis_rate -->
<g id="node20" class="node"><title>vcorelib_math_analysis_rate</title><style>.edge>path:hover{stroke-width:8}</style>
<ellipse fill="#96408a" stroke="black" cx="1013.79" cy="-484.701" rx="39.6962" ry="36.5405"/>
<text text-anchor="middle" x="1013.79" y="-498.701" font-family="Helvetica,sans-Serif" font-size="10.00" fill="#ffffff">vcorelib.</text>
<text text-anchor="middle" x="1013.79" y="-487.701" font-family="Helvetica,sans-Serif" font-size="10.00" fill="#ffffff">math.</text>
<text text-anchor="middle" x="1013.79" y="-476.701" font-family="Helvetica,sans-Serif" font-size="10.00" fill="#ffffff">analysis.</text>
<text text-anchor="middle" x="1013.79" y="-465.701" font-family="Helvetica,sans-Serif" font-size="10.00" fill="#ffffff">rate</text>
</g>
<!-- vcorelib_math_analysis_average&#45;&gt;vcorelib_math_analysis_rate -->
<g id="edge41" class="edge"><title>vcorelib_math_analysis_average&#45;&gt;vcorelib_math_analysis_rate</title><style>.edge>path:hover{stroke-width:8}</style>
<path fill="none" stroke="black" d="M941.025,-565.546C953.371,-551.998 968.372,-535.537 981.538,-521.089"/>
<polygon fill="#c247b1" stroke="black" points="984.487,-523.05 988.636,-513.301 979.313,-518.335 984.487,-523.05"/>
</g>
<!-- vcorelib_math_time&#45;&gt;vcorelib_io_archive -->
<g id="edge42" class="edge"><title>vcorelib_math_time&#45;&gt;vcorelib_io_archive</title><style>.edge>path:hover{stroke-width:8}</style>
<path fill="none" stroke="black" d="M950.18,-682.812C924.783,-672.249 890.38,-654.892 866.788,-631.009 854.137,-618.203 854.092,-612.101 847.788,-595.24"/>
<path fill="none" stroke="black" d="M847.788,-593.24C838.069,-567.248 822.782,-539.969 810.071,-519.389"/>
<polygon fill="#e505c5" stroke="black" points="812.908,-517.324 804.624,-510.719 806.98,-521.048 812.908,-517.324"/>
</g>
<!-- vcorelib_math_time&#45;&gt;vcorelib_io_cache -->
<g id="edge43" class="edge"><title>vcorelib_math_time&#45;&gt;vcorelib_io_cache</title><style>.edge>path:hover{stroke-width:8}</style>
<path fill="none" stroke="black" d="M847.788,-593.24C832.233,-551.641 926.384,-522.183 926.788,-521.47 942.891,-493.028 948.229,-472.599 926.788,-447.931 889.1,-404.572 725.305,-430.048 670.788,-411.931 666.41,-410.476 661.971,-408.65 657.633,-406.63"/>
<polygon fill="#e505c5" stroke="black" points="658.863,-403.332 648.356,-401.971 655.721,-409.587 658.863,-403.332"/>
</g>
<!-- vcorelib_math_time&#45;&gt;vcorelib_io_decode -->
<g id="edge44" class="edge"><title>vcorelib_math_time&#45;&gt;vcorelib_io_decode</title><style>.edge>path:hover{stroke-width:8}</style>
<path fill="none" stroke="black" d="M946.811,-689.785C906.225,-682.499 840.855,-666.008 795.788,-631.009 764.961,-607.07 774.046,-586.347 747.788,-557.47 731.843,-539.935 711.356,-523.244 693.958,-510.379"/>
<polygon fill="#e505c5" stroke="black" points="695.847,-507.425 685.699,-504.383 691.735,-513.09 695.847,-507.425"/>
</g>
<!-- vcorelib_math_time&#45;&gt;vcorelib_io_encode -->
<g id="edge45" class="edge"><title>vcorelib_math_time&#45;&gt;vcorelib_io_encode</title><style>.edge>path:hover{stroke-width:8}</style>
<path fill="none" stroke="black" d="M948.443,-685.917C923.528,-679.802 889.298,-671.977 858.788,-667.009 781.616,-654.445 573.648,-674.673 508.788,-631.009 493.855,-620.957 500.28,-609.867 489.788,-595.24"/>
</g>
<!-- vcorelib_math_time&#45;&gt;vcorelib_logging -->
<g id="edge46" class="edge"><title>vcorelib_math_time&#45;&gt;vcorelib_logging</title><style>.edge>path:hover{stroke-width:8}</style>
<path fill="none" stroke="black" d="M847.788,-593.24C837.793,-566.51 849.96,-535.257 862.246,-513.354"/>
<polygon fill="#e505c5" stroke="black" points="865.359,-514.965 867.454,-504.58 859.34,-511.392 865.359,-514.965"/>
</g>
<!-- vcorelib_math_time&#45;&gt;vcorelib_math_analysis_rate -->
<g id="edge47" class="edge"><title>vcorelib_math_time&#45;&gt;vcorelib_math_analysis_rate</title><style>.edge>path:hover{stroke-width:8}</style>
<path fill="none" stroke="black" d="M987.834,-666.773C992.802,-632.108 1001.3,-572.843 1007.21,-531.595"/>
<polygon fill="#e505c5" stroke="black" points="1010.7,-531.918 1008.65,-521.523 1003.77,-530.925 1010.7,-531.918"/>
</g>
<!-- vcorelib_math_time&#45;&gt;vcorelib_task -->
<g id="edge48" class="edge"><title>vcorelib_math_time&#45;&gt;vcorelib_task</title><style>.edge>path:hover{stroke-width:8}</style>
<path fill="none" stroke="black" d="M993.962,-668.014C1005.02,-638.734 1021.2,-596.012 1021.79,-595.24"/>
</g>
<!-- vcorelib_paths&#45;&gt;vcorelib_dict_cache -->
<g id="edge49" class="edge"><title>vcorelib_paths&#45;&gt;vcorelib_dict_cache</title><style>.edge>path:hover{stroke-width:8}</style>
<path fill="none" stroke="black" d="M298.788,-298.948C294.093,-285.515 293.11,-270.045 293.638,-256.249"/>
<polygon fill="#ef06ce" stroke="black" points="297.142,-256.292 294.3,-246.086 290.157,-255.837 297.142,-256.292"/>
</g>
<!-- vcorelib_paths&#45;&gt;vcorelib_dict_config -->
<g id="edge50" class="edge"><title>vcorelib_paths&#45;&gt;vcorelib_dict_config</title><style>.edge>path:hover{stroke-width:8}</style>
<path fill="none" stroke="black" d="M386.788,-483.701C385.141,-399.855 416.265,-305.134 435.701,-254.508"/>
<polygon fill="#ef06ce" stroke="black" points="439.042,-255.574 439.419,-244.986 432.521,-253.028 439.042,-255.574"/>
</g>
<!-- vcorelib_paths&#45;&gt;vcorelib_io -->
<g id="edge51" class="edge"><title>vcorelib_paths&#45;&gt;vcorelib_io</title><style>.edge>path:hover{stroke-width:8}</style>
<path fill="none" stroke="black" d="M386.788,-483.701C386.194,-453.458 407.384,-425.053 425.537,-406.347"/>
<polygon fill="#ef06ce" stroke="black" points="428.385,-408.456 433.059,-398.947 423.476,-403.466 428.385,-408.456"/>
</g>
<!-- vcorelib_paths&#45;&gt;vcorelib_io_cache -->
<g id="edge52" class="edge"><title>vcorelib_paths&#45;&gt;vcorelib_io_cache</title><style>.edge>path:hover{stroke-width:8}</style>
<path fill="none" stroke="black" d="M393.337,-771.749C459.489,-761.406 582.672,-740.335 595.788,-724.992 615.824,-701.553 608.985,-478.639 611.788,-447.931 612.555,-439.529 613.563,-430.528 614.605,-422.009"/>
<polygon fill="#ef06ce" stroke="black" points="618.097,-422.29 615.878,-411.93 611.152,-421.413 618.097,-422.29"/>
</g>
<!-- vcorelib_paths&#45;&gt;vcorelib_io_types -->
<g id="edge53" class="edge"><title>vcorelib_paths&#45;&gt;vcorelib_io_types</title><style>.edge>path:hover{stroke-width:8}</style>
<path fill="none" stroke="black" d="M369.448,-762.094C403.774,-731.191 479.915,-662.645 523.165,-623.709"/>
<polygon fill="#ef06ce" stroke="black" points="525.75,-626.091 530.84,-616.799 521.066,-620.888 525.75,-626.091"/>
</g>
<!-- vcorelib_paths&#45;&gt;vcorelib_schemas_base -->
<g id="edge54" class="edge"><title>vcorelib_paths&#45;&gt;vcorelib_schemas_base</title><style>.edge>path:hover{stroke-width:8}</style>
<path fill="none" stroke="black" d="M355.272,-760.946C364.125,-716.091 386.788,-590.982 386.788,-485.701"/>
<path fill="none" stroke="black" d="M386.788,-483.701C387.759,-448.225 367.212,-443.892 351.788,-411.931 328.03,-362.702 316.822,-352.549 298.788,-300.948"/>
<path fill="none" stroke="black" d="M298.788,-298.948C286.31,-274.929 263.33,-255.25 242.868,-241.307"/>
<polygon fill="#ef06ce" stroke="black" points="244.574,-238.24 234.291,-235.686 240.737,-244.095 244.574,-238.24"/>
</g>
<!-- vcorelib_schemas_base&#45;&gt;vcorelib_schemas -->
<g id="edge55" class="edge"><title>vcorelib_schemas_base&#45;&gt;vcorelib_schemas</title><style>.edge>path:hover{stroke-width:8}</style>
<path fill="none" stroke="black" d="M182.66,-190.822C173.319,-178.548 162.065,-163.76 152.519,-151.216"/>
<polygon fill="#bc2fa8" stroke="black" points="155.069,-148.788 146.228,-142.949 149.499,-153.027 155.069,-148.788"/>
</g>
<!-- vcorelib_schemas_mixins -->
<g id="node26" class="node"><title>vcorelib_schemas_mixins</title><style>.edge>path:hover{stroke-width:8}</style>
<ellipse fill="#a44697" stroke="black" cx="230.788" cy="-122.974" rx="41.9398" ry="28.9828"/>
<text text-anchor="middle" x="230.788" y="-131.474" font-family="Helvetica,sans-Serif" font-size="10.00" fill="#ffffff">vcorelib.</text>
<text text-anchor="middle" x="230.788" y="-120.474" font-family="Helvetica,sans-Serif" font-size="10.00" fill="#ffffff">schemas.</text>
<text text-anchor="middle" x="230.788" y="-109.474" font-family="Helvetica,sans-Serif" font-size="10.00" fill="#ffffff">mixins</text>
</g>
<!-- vcorelib_schemas_base&#45;&gt;vcorelib_schemas_mixins -->
<g id="edge56" class="edge"><title>vcorelib_schemas_base&#45;&gt;vcorelib_schemas_mixins</title><style>.edge>path:hover{stroke-width:8}</style>
<path fill="none" stroke="black" d="M210.489,-188.359C213.184,-179.809 216.2,-170.245 219.065,-161.156"/>
<polygon fill="#bc2fa8" stroke="black" points="222.424,-162.142 222.093,-151.553 215.748,-160.037 222.424,-162.142"/>
</g>
<!-- vcorelib_script -->
<g id="node27" class="node"><title>vcorelib_script</title><style>.edge>path:hover{stroke-width:8}</style>
<ellipse fill="#c247b1" stroke="black" cx="1316.79" cy="-861.983" rx="37.4533" ry="21.4286"/>
<text text-anchor="middle" x="1316.79" y="-864.983" font-family="Helvetica,sans-Serif" font-size="10.00" fill="#ffffff">vcorelib.</text>
<text text-anchor="middle" x="1316.79" y="-853.983" font-family="Helvetica,sans-Serif" font-size="10.00" fill="#ffffff">script</text>
</g>
<!-- vcorelib_script&#45;&gt;vcorelib_task_manager -->
<g id="edge57" class="edge"><title>vcorelib_script&#45;&gt;vcorelib_task_manager</title><style>.edge>path:hover{stroke-width:8}</style>
<path fill="none" stroke="black" d="M1304.7,-841.742C1295.68,-824.731 1286.54,-799.638 1296.79,-779.992"/>
</g>
<!-- vcorelib_target -->
<g id="node28" class="node"><title>vcorelib_target</title><style>.edge>path:hover{stroke-width:8}</style>
<ellipse fill="#db2fc2" stroke="black" cx="1130.79" cy="-861.983" rx="37.4533" ry="21.4286"/>
<text text-anchor="middle" x="1130.79" y="-864.983" font-family="Helvetica,sans-Serif" font-size="10.00" fill="#ffffff">vcorelib.</text>
<text text-anchor="middle" x="1130.79" y="-853.983" font-family="Helvetica,sans-Serif" font-size="10.00" fill="#ffffff">target</text>
</g>
<!-- vcorelib_target&#45;&gt;vcorelib_task -->
<g id="edge58" class="edge"><title>vcorelib_target&#45;&gt;vcorelib_task</title><style>.edge>path:hover{stroke-width:8}</style>
<path fill="none" stroke="black" d="M1132.64,-840.643C1136.71,-791.679 1145.17,-663.456 1132.79,-557.47 1131.03,-542.417 1127.26,-525.942 1123.72,-512.577"/>
<polygon fill="#db2fc2" stroke="black" points="1127.01,-511.321 1120.97,-502.613 1120.26,-513.183 1127.01,-511.321"/>
</g>
<!-- vcorelib_target&#45;&gt;vcorelib_task_manager -->
<g id="edge59" class="edge"><title>vcorelib_target&#45;&gt;vcorelib_task_manager</title><style>.edge>path:hover{stroke-width:8}</style>
<path fill="none" stroke="black" d="M1155.36,-845.609C1162.49,-841.346 1170.37,-836.837 1177.79,-832.992 1229.19,-806.355 1270.01,-831.322 1296.79,-779.992"/>
</g>
<!-- vcorelib_target_resolver -->
<g id="node29" class="node"><title>vcorelib_target_resolver</title><style>.edge>path:hover{stroke-width:8}</style>
<ellipse fill="#b83da6" stroke="black" cx="1409.79" cy="-861.983" rx="37.4533" ry="28.9828"/>
<text text-anchor="middle" x="1409.79" y="-870.483" font-family="Helvetica,sans-Serif" font-size="10.00" fill="#ffffff">vcorelib.</text>
<text text-anchor="middle" x="1409.79" y="-859.483" font-family="Helvetica,sans-Serif" font-size="10.00" fill="#ffffff">target.</text>
<text text-anchor="middle" x="1409.79" y="-848.483" font-family="Helvetica,sans-Serif" font-size="10.00" fill="#ffffff">resolver</text>
</g>
<!-- vcorelib_target_resolver&#45;&gt;vcorelib_task_manager -->
<g id="edge60" class="edge"><title>vcorelib_target_resolver&#45;&gt;vcorelib_task_manager</title><style>.edge>path:hover{stroke-width:8}</style>
<path fill="none" stroke="black" d="M1381.39,-842.617C1347.13,-820.184 1294.37,-784.633 1296.79,-779.992"/>
</g>
</g>
</svg>
