<?xml version="1.0" encoding="UTF-8" standalone="no"?>
<!DOCTYPE svg PUBLIC "-//W3C//DTD SVG 1.1//EN"
 "http://www.w3.org/Graphics/SVG/1.1/DTD/svg11.dtd">
<!-- Generated by graphviz version 3.0.1~dev.20220405.0544 (20220405.0544)
 -->
<!-- Title: G Pages: 1 -->
<svg width="796pt" height="526pt"
 viewBox="0.00 0.00 796.13 525.87" xmlns="http://www.w3.org/2000/svg" xmlns:xlink="http://www.w3.org/1999/xlink">
<g id="graph0" class="graph" transform="scale(1 1) rotate(0) translate(4 521.87)">
<title>G</title><style>.edge>path:hover{stroke-width:8}</style>
<polygon fill="white" stroke="transparent" points="-4,4 -4,-521.87 792.13,-521.87 792.13,4 -4,4"/>
<!-- tomli -->
<g id="node1" class="node">
<title>tomli</title><style>.edge>path:hover{stroke-width:8}</style>
<ellipse fill="#b65353" stroke="black" cx="126.9" cy="-427.87" rx="27" ry="18"/>
<text text-anchor="middle" x="126.9" y="-424.87" font-family="Helvetica,sans-Serif" font-size="10.00" fill="#ffffff">tomli</text>
</g>
<!-- vcorelib_io_decode -->
<g id="node7" class="node">
<title>vcorelib_io_decode</title><style>.edge>path:hover{stroke-width:8}</style>
<ellipse fill="#303091" stroke="black" cx="71.9" cy="-129.34" rx="37.79" ry="31.23"/>
<text text-anchor="middle" x="71.9" y="-138.34" font-family="Helvetica,sans-Serif" font-size="10.00" fill="#ffffff">vcorelib.</text>
<text text-anchor="middle" x="71.9" y="-126.34" font-family="Helvetica,sans-Serif" font-size="10.00" fill="#ffffff">io.</text>
<text text-anchor="middle" x="71.9" y="-114.34" font-family="Helvetica,sans-Serif" font-size="10.00" fill="#ffffff">decode</text>
</g>
<!-- tomli&#45;&gt;vcorelib_io_decode -->
<g id="edge1" class="edge">
<title>tomli&#45;&gt;vcorelib_io_decode</title><style>.edge>path:hover{stroke-width:8}</style>
<path fill="none" stroke="black" d="M134.98,-410.4C155.09,-368.24 203.84,-258.23 175.9,-237.05"/>
<path fill="none" stroke="black" d="M175.9,-235.05C159.87,-222.77 165.2,-211.66 151.9,-196.45 139.12,-181.82 122.91,-167.79 108.43,-156.44"/>
<polygon fill="#b65353" stroke="black" points="110.21,-153.39 100.14,-150.09 105.95,-158.95 110.21,-153.39"/>
</g>
<!-- tomli_w -->
<g id="node2" class="node">
<title>tomli_w</title><style>.edge>path:hover{stroke-width:8}</style>
<ellipse fill="#40c040" stroke="black" cx="351.9" cy="-427.87" rx="30.01" ry="18"/>
<text text-anchor="middle" x="351.9" y="-424.87" font-family="Helvetica,sans-Serif" font-size="10.00" fill="#000000">tomli_w</text>
</g>
<!-- vcorelib_io_encode -->
<g id="node8" class="node">
<title>vcorelib_io_encode</title><style>.edge>path:hover{stroke-width:8}</style>
<ellipse fill="#303091" stroke="black" cx="249.9" cy="-129.34" rx="37.79" ry="31.23"/>
<text text-anchor="middle" x="249.9" y="-138.34" font-family="Helvetica,sans-Serif" font-size="10.00" fill="#ffffff">vcorelib.</text>
<text text-anchor="middle" x="249.9" y="-126.34" font-family="Helvetica,sans-Serif" font-size="10.00" fill="#ffffff">io.</text>
<text text-anchor="middle" x="249.9" y="-114.34" font-family="Helvetica,sans-Serif" font-size="10.00" fill="#ffffff">encode</text>
</g>
<!-- tomli_w&#45;&gt;vcorelib_io_encode -->
<g id="edge2" class="edge">
<title>tomli_w&#45;&gt;vcorelib_io_encode</title><style>.edge>path:hover{stroke-width:8}</style>
<path fill="none" stroke="black" d="M351.89,-409.84C351.6,-392.92 350.36,-366.33 345.9,-343.76"/>
<path fill="none" stroke="black" d="M345.9,-341.76C333.22,-277.54 353.05,-254.02 321.9,-196.45 313.48,-180.88 299.96,-167.01 286.9,-156.06"/>
<polygon fill="#40c040" stroke="black" points="288.87,-153.15 278.88,-149.62 284.49,-158.61 288.87,-153.15"/>
</g>
<!-- vcorelib_dict -->
<g id="node3" class="node">
<title>vcorelib_dict</title><style>.edge>path:hover{stroke-width:8}</style>
<ellipse fill="#1010f9" stroke="black" cx="293.9" cy="-499.87" rx="41.24" ry="18"/>
<text text-anchor="middle" x="293.9" y="-496.87" font-family="Helvetica,sans-Serif" font-size="10.00" fill="#ffffff">vcorelib.dict</text>
</g>
<!-- vcorelib_io -->
<g id="node4" class="node">
<title>vcorelib_io</title><style>.edge>path:hover{stroke-width:8}</style>
<ellipse fill="#0909b8" stroke="black" cx="145.9" cy="-31.11" rx="36.89" ry="18"/>
<text text-anchor="middle" x="145.9" y="-28.11" font-family="Helvetica,sans-Serif" font-size="10.00" fill="#ffffff">vcorelib.io</text>
</g>
<!-- vcorelib_dict&#45;&gt;vcorelib_io -->
<g id="edge3" class="edge">
<title>vcorelib_dict&#45;&gt;vcorelib_io</title><style>.edge>path:hover{stroke-width:8}</style>
<path fill="none" stroke="black" d="M255,-493.72C202.51,-485.95 112.99,-469.6 90.9,-445.87 59.45,-412.09 78.8,-389.4 71.9,-343.76"/>
<path fill="none" stroke="black" d="M71.9,-341.76C60.52,-287.94 12.87,-291.62 5.9,-237.05"/>
<path fill="none" stroke="black" d="M5.9,-235.05C0.01,-188.89 -3.38,-175.94 5.9,-130.34"/>
<path fill="none" stroke="black" d="M5.9,-128.34C15.22,-82.57 66.58,-56.61 104.4,-43.46"/>
<polygon fill="#1010f9" stroke="black" points="105.78,-46.69 114.18,-40.23 103.58,-40.04 105.78,-46.69"/>
</g>
<!-- vcorelib_io_cache -->
<g id="node6" class="node">
<title>vcorelib_io_cache</title><style>.edge>path:hover{stroke-width:8}</style>
<ellipse fill="#373781" stroke="black" cx="290.9" cy="-31.11" rx="37.79" ry="31.23"/>
<text text-anchor="middle" x="290.9" y="-40.11" font-family="Helvetica,sans-Serif" font-size="10.00" fill="#ffffff">vcorelib.</text>
<text text-anchor="middle" x="290.9" y="-28.11" font-family="Helvetica,sans-Serif" font-size="10.00" fill="#ffffff">io.</text>
<text text-anchor="middle" x="290.9" y="-16.11" font-family="Helvetica,sans-Serif" font-size="10.00" fill="#ffffff">cache</text>
</g>
<!-- vcorelib_dict&#45;&gt;vcorelib_io_cache -->
<g id="edge4" class="edge">
<title>vcorelib_dict&#45;&gt;vcorelib_io_cache</title><style>.edge>path:hover{stroke-width:8}</style>
<path fill="none" stroke="black" d="M637.9,-341.76C694.01,-248.48 733.84,-181.64 663.9,-98.23 622.92,-49.33 429.8,-36.58 338.7,-33.26"/>
<polygon fill="#1010f9" stroke="black" points="338.75,-29.76 328.63,-32.92 338.51,-36.76 338.75,-29.76"/>
</g>
<!-- vcorelib_dict&#45;&gt;vcorelib_io_decode -->
<g id="edge5" class="edge">
<title>vcorelib_dict&#45;&gt;vcorelib_io_decode</title><style>.edge>path:hover{stroke-width:8}</style>
<path fill="none" stroke="black" d="M5.9,-235.05C2.25,-206.45 20.56,-179.06 38.81,-159.47"/>
<polygon fill="#1010f9" stroke="black" points="41.54,-161.69 46.03,-152.1 36.53,-156.8 41.54,-161.69"/>
</g>
<!-- vcorelib_dict&#45;&gt;vcorelib_io_encode -->
<g id="edge6" class="edge">
<title>vcorelib_dict&#45;&gt;vcorelib_io_encode</title><style>.edge>path:hover{stroke-width:8}</style>
<path fill="none" stroke="black" d="M321.24,-486.06C341.24,-476.18 368.65,-461.59 390.9,-445.87 400.16,-439.33 400.9,-435.76 409.9,-428.87"/>
<path fill="none" stroke="black" d="M409.9,-426.87C434.45,-408.1 383.19,-398.78 364.9,-373.87 355.54,-361.12 350.05,-359.03 345.9,-343.76"/>
</g>
<!-- vcorelib_io_types -->
<g id="node9" class="node">
<title>vcorelib_io_types</title><style>.edge>path:hover{stroke-width:8}</style>
<ellipse fill="#0b0bdf" stroke="black" cx="241.9" cy="-236.05" rx="37.79" ry="31.23"/>
<text text-anchor="middle" x="241.9" y="-245.05" font-family="Helvetica,sans-Serif" font-size="10.00" fill="#ffffff">vcorelib.</text>
<text text-anchor="middle" x="241.9" y="-233.05" font-family="Helvetica,sans-Serif" font-size="10.00" fill="#ffffff">io.</text>
<text text-anchor="middle" x="241.9" y="-221.05" font-family="Helvetica,sans-Serif" font-size="10.00" fill="#ffffff">types</text>
</g>
<!-- vcorelib_dict&#45;&gt;vcorelib_io_types -->
<g id="edge7" class="edge">
<title>vcorelib_dict&#45;&gt;vcorelib_io_types</title><style>.edge>path:hover{stroke-width:8}</style>
<path fill="none" stroke="black" d="M293.04,-481.85C291.07,-448.66 285.18,-373.19 269.9,-311.65 266.88,-299.48 262.49,-286.58 258.08,-274.99"/>
<polygon fill="#1010f9" stroke="black" points="261.31,-273.63 254.4,-265.6 254.79,-276.19 261.31,-273.63"/>
</g>
<!-- vcorelib_math_time -->
<g id="node12" class="node">
<title>vcorelib_math_time</title><style>.edge>path:hover{stroke-width:8}</style>
<ellipse fill="#0505e5" stroke="black" cx="519.9" cy="-342.76" rx="37.79" ry="31.23"/>
<text text-anchor="middle" x="519.9" y="-351.76" font-family="Helvetica,sans-Serif" font-size="10.00" fill="#ffffff">vcorelib.</text>
<text text-anchor="middle" x="519.9" y="-339.76" font-family="Helvetica,sans-Serif" font-size="10.00" fill="#ffffff">math.</text>
<text text-anchor="middle" x="519.9" y="-327.76" font-family="Helvetica,sans-Serif" font-size="10.00" fill="#ffffff">time</text>
</g>
<!-- vcorelib_dict&#45;&gt;vcorelib_math_time -->
<g id="edge8" class="edge">
<title>vcorelib_dict&#45;&gt;vcorelib_math_time</title><style>.edge>path:hover{stroke-width:8}</style>
<path fill="none" stroke="black" d="M409.9,-426.87C434.58,-408 462.5,-386.91 484.04,-370.69"/>
<polygon fill="#1010f9" stroke="black" points="486.38,-373.32 492.26,-364.51 482.17,-367.72 486.38,-373.32"/>
</g>
<!-- vcorelib_task -->
<g id="node16" class="node">
<title>vcorelib_task</title><style>.edge>path:hover{stroke-width:8}</style>
<ellipse fill="#2020b6" stroke="black" cx="611.9" cy="-129.34" rx="43.08" ry="18"/>
<text text-anchor="middle" x="611.9" y="-126.34" font-family="Helvetica,sans-Serif" font-size="10.00" fill="#ffffff">vcorelib.task</text>
</g>
<!-- vcorelib_dict&#45;&gt;vcorelib_task -->
<g id="edge9" class="edge">
<title>vcorelib_dict&#45;&gt;vcorelib_task</title><style>.edge>path:hover{stroke-width:8}</style>
<path fill="none" stroke="black" d="M409.9,-426.87C495.58,-361.36 585.29,-437.91 637.9,-343.76"/>
<path fill="none" stroke="black" d="M637.9,-341.76C658.47,-304.96 586.31,-314.48 569.9,-275.65 556.21,-243.22 560.08,-230.25 569.9,-196.45 574.3,-181.32 583.33,-166.34 591.88,-154.48"/>
<polygon fill="#1010f9" stroke="black" points="594.73,-156.52 597.96,-146.43 589.14,-152.3 594.73,-156.52"/>
</g>
<!-- vcorelib_task_dict_melder -->
<g id="node17" class="node">
<title>vcorelib_task_dict_melder</title><style>.edge>path:hover{stroke-width:8}</style>
<ellipse fill="#4646a4" stroke="black" cx="71.9" cy="-236.05" rx="37.79" ry="39.7"/>
<text text-anchor="middle" x="71.9" y="-251.05" font-family="Helvetica,sans-Serif" font-size="10.00" fill="#ffffff">vcorelib.</text>
<text text-anchor="middle" x="71.9" y="-239.05" font-family="Helvetica,sans-Serif" font-size="10.00" fill="#ffffff">task.</text>
<text text-anchor="middle" x="71.9" y="-227.05" font-family="Helvetica,sans-Serif" font-size="10.00" fill="#ffffff">dict.</text>
<text text-anchor="middle" x="71.9" y="-215.05" font-family="Helvetica,sans-Serif" font-size="10.00" fill="#ffffff">melder</text>
</g>
<!-- vcorelib_dict&#45;&gt;vcorelib_task_dict_melder -->
<g id="edge10" class="edge">
<title>vcorelib_dict&#45;&gt;vcorelib_task_dict_melder</title><style>.edge>path:hover{stroke-width:8}</style>
<path fill="none" stroke="black" d="M71.9,-341.76C69.16,-323.58 68.58,-303.42 68.89,-285.68"/>
<polygon fill="#1010f9" stroke="black" points="72.39,-285.64 69.16,-275.55 65.39,-285.45 72.39,-285.64"/>
</g>
<!-- vcorelib_io_archive -->
<g id="node5" class="node">
<title>vcorelib_io_archive</title><style>.edge>path:hover{stroke-width:8}</style>
<ellipse fill="#3535a1" stroke="black" cx="342.9" cy="-129.34" rx="37.79" ry="31.23"/>
<text text-anchor="middle" x="342.9" y="-138.34" font-family="Helvetica,sans-Serif" font-size="10.00" fill="#ffffff">vcorelib.</text>
<text text-anchor="middle" x="342.9" y="-126.34" font-family="Helvetica,sans-Serif" font-size="10.00" fill="#ffffff">io.</text>
<text text-anchor="middle" x="342.9" y="-114.34" font-family="Helvetica,sans-Serif" font-size="10.00" fill="#ffffff">archive</text>
</g>
<!-- vcorelib_io_archive&#45;&gt;vcorelib_io_cache -->
<g id="edge11" class="edge">
<title>vcorelib_io_archive&#45;&gt;vcorelib_io_cache</title><style>.edge>path:hover{stroke-width:8}</style>
<path fill="none" stroke="black" d="M328,-100.76C322.62,-90.8 316.45,-79.39 310.71,-68.76"/>
<polygon fill="#3535a1" stroke="black" points="313.64,-66.82 305.81,-59.69 307.48,-70.15 313.64,-66.82"/>
</g>
<!-- vcorelib_io_decode&#45;&gt;vcorelib_io -->
<g id="edge12" class="edge">
<title>vcorelib_io_decode&#45;&gt;vcorelib_io</title><style>.edge>path:hover{stroke-width:8}</style>
<path fill="none" stroke="black" d="M91.73,-102.55C102.73,-88.26 116.31,-70.59 127.13,-56.53"/>
<polygon fill="#303091" stroke="black" points="130.14,-58.36 133.46,-48.29 124.59,-54.09 130.14,-58.36"/>
</g>
<!-- vcorelib_io_encode&#45;&gt;vcorelib_io -->
<g id="edge13" class="edge">
<title>vcorelib_io_encode&#45;&gt;vcorelib_io</title><style>.edge>path:hover{stroke-width:8}</style>
<path fill="none" stroke="black" d="M225.26,-105.53C208.53,-90.06 186.53,-69.7 169.94,-54.35"/>
<polygon fill="#303091" stroke="black" points="171.99,-51.48 162.27,-47.26 167.24,-56.62 171.99,-51.48"/>
</g>
<!-- vcorelib_io_types&#45;&gt;vcorelib_io -->
<g id="edge14" class="edge">
<title>vcorelib_io_types&#45;&gt;vcorelib_io</title><style>.edge>path:hover{stroke-width:8}</style>
<path fill="none" stroke="black" d="M215.78,-213.56C187.69,-189.43 146.9,-150.97 145.9,-130.34"/>
<path fill="none" stroke="black" d="M145.9,-128.34C144.78,-105.08 144.88,-78.61 145.2,-59.33"/>
<polygon fill="#0b0bdf" stroke="black" points="148.71,-59.23 145.41,-49.16 141.71,-59.09 148.71,-59.23"/>
</g>
<!-- vcorelib_io_types&#45;&gt;vcorelib_io_archive -->
<g id="edge15" class="edge">
<title>vcorelib_io_types&#45;&gt;vcorelib_io_archive</title><style>.edge>path:hover{stroke-width:8}</style>
<path fill="none" stroke="black" d="M264.82,-211.29C278.93,-196.67 297.17,-177.75 312.48,-161.88"/>
<polygon fill="#0b0bdf" stroke="black" points="315.3,-163.99 319.73,-154.37 310.26,-159.13 315.3,-163.99"/>
</g>
<!-- vcorelib_io_types&#45;&gt;vcorelib_io_cache -->
<g id="edge16" class="edge">
<title>vcorelib_io_types&#45;&gt;vcorelib_io_cache</title><style>.edge>path:hover{stroke-width:8}</style>
<path fill="none" stroke="black" d="M145.9,-128.34C143.56,-79.9 201.15,-54.38 244.44,-42.07"/>
<polygon fill="#0b0bdf" stroke="black" points="245.51,-45.41 254.26,-39.44 243.7,-38.65 245.51,-45.41"/>
</g>
<!-- vcorelib_io_types&#45;&gt;vcorelib_io_decode -->
<g id="edge17" class="edge">
<title>vcorelib_io_types&#45;&gt;vcorelib_io_decode</title><style>.edge>path:hover{stroke-width:8}</style>
<path fill="none" stroke="black" d="M215.11,-214.15C207.15,-208.21 198.3,-201.89 189.9,-196.45 164.85,-180.23 135.58,-163.81 112.46,-151.4"/>
<polygon fill="#0b0bdf" stroke="black" points="114.07,-148.29 103.6,-146.68 110.78,-154.47 114.07,-148.29"/>
</g>
<!-- vcorelib_io_types&#45;&gt;vcorelib_io_encode -->
<g id="edge18" class="edge">
<title>vcorelib_io_types&#45;&gt;vcorelib_io_encode</title><style>.edge>path:hover{stroke-width:8}</style>
<path fill="none" stroke="black" d="M244.22,-204.76C245.03,-194.13 245.96,-182 246.82,-170.67"/>
<polygon fill="#0b0bdf" stroke="black" points="250.32,-170.79 247.6,-160.56 243.34,-170.26 250.32,-170.79"/>
</g>
<!-- vcorelib_logging -->
<g id="node10" class="node">
<title>vcorelib_logging</title><style>.edge>path:hover{stroke-width:8}</style>
<ellipse fill="#4646a4" stroke="black" cx="474.9" cy="-129.34" rx="37.79" ry="22.76"/>
<text text-anchor="middle" x="474.9" y="-132.34" font-family="Helvetica,sans-Serif" font-size="10.00" fill="#ffffff">vcorelib.</text>
<text text-anchor="middle" x="474.9" y="-120.34" font-family="Helvetica,sans-Serif" font-size="10.00" fill="#ffffff">logging</text>
</g>
<!-- vcorelib_math -->
<g id="node11" class="node">
<title>vcorelib_math</title><style>.edge>path:hover{stroke-width:8}</style>
<ellipse fill="#1010f9" stroke="black" cx="418.9" cy="-342.76" rx="45.26" ry="18"/>
<text text-anchor="middle" x="418.9" y="-339.76" font-family="Helvetica,sans-Serif" font-size="10.00" fill="#ffffff">vcorelib.math</text>
</g>
<!-- vcorelib_math&#45;&gt;vcorelib_io_archive -->
<g id="edge19" class="edge">
<title>vcorelib_math&#45;&gt;vcorelib_io_archive</title><style>.edge>path:hover{stroke-width:8}</style>
<path fill="none" stroke="black" d="M383.9,-235.05C372.44,-214.16 362.59,-189.4 355.42,-169.19"/>
<polygon fill="#1010f9" stroke="black" points="358.7,-167.98 352.12,-159.68 352.09,-170.27 358.7,-167.98"/>
</g>
<!-- vcorelib_math&#45;&gt;vcorelib_io_cache -->
<g id="edge20" class="edge">
<title>vcorelib_math&#45;&gt;vcorelib_io_cache</title><style>.edge>path:hover{stroke-width:8}</style>
<path fill="none" stroke="black" d="M425.75,-324.78C434.03,-304.11 448.3,-268.14 459.9,-237.05"/>
<path fill="none" stroke="black" d="M459.9,-235.05C466.28,-217.95 453.56,-213.01 445.9,-196.45 440.63,-185.05 398.47,-107.42 389.9,-98.23 373.24,-80.34 350.84,-64.87 331.57,-53.4"/>
<polygon fill="#1010f9" stroke="black" points="333.09,-50.24 322.68,-48.26 329.58,-56.3 333.09,-50.24"/>
</g>
<!-- vcorelib_math&#45;&gt;vcorelib_io_decode -->
<g id="edge21" class="edge">
<title>vcorelib_math&#45;&gt;vcorelib_io_decode</title><style>.edge>path:hover{stroke-width:8}</style>
<path fill="none" stroke="black" d="M378.78,-333.96C322.22,-322.29 222.81,-299.16 194.9,-275.65 180.28,-263.33 191.14,-248.6 175.9,-237.05"/>
</g>
<!-- vcorelib_math&#45;&gt;vcorelib_io_encode -->
<g id="edge22" class="edge">
<title>vcorelib_math&#45;&gt;vcorelib_io_encode</title><style>.edge>path:hover{stroke-width:8}</style>
<path fill="none" stroke="black" d="M415.19,-324.67C410.11,-303.28 399.76,-265.95 383.9,-237.05"/>
<path fill="none" stroke="black" d="M383.9,-235.05C374.19,-217.34 374.5,-210.42 359.9,-196.45 336.33,-173.89 323.79,-177.4 295.9,-160.45 293.13,-158.77 290.28,-157 287.43,-155.2"/>
<polygon fill="#1010f9" stroke="black" points="289.23,-152.19 278.92,-149.75 285.46,-158.09 289.23,-152.19"/>
</g>
<!-- vcorelib_math&#45;&gt;vcorelib_logging -->
<g id="edge23" class="edge">
<title>vcorelib_math&#45;&gt;vcorelib_logging</title><style>.edge>path:hover{stroke-width:8}</style>
<path fill="none" stroke="black" d="M459.9,-235.05C468.64,-211.65 472.33,-183.55 473.86,-162.36"/>
<polygon fill="#1010f9" stroke="black" points="477.36,-162.46 474.47,-152.26 470.38,-162.03 477.36,-162.46"/>
</g>
<!-- vcorelib_math&#45;&gt;vcorelib_task -->
<g id="edge24" class="edge">
<title>vcorelib_math&#45;&gt;vcorelib_task</title><style>.edge>path:hover{stroke-width:8}</style>
<path fill="none" stroke="black" d="M459.9,-235.05C477.41,-188.14 530.18,-159.48 568.64,-144.27"/>
<polygon fill="#1010f9" stroke="black" points="569.97,-147.51 578.08,-140.69 567.48,-140.97 569.97,-147.51"/>
</g>
<!-- vcorelib_math_time&#45;&gt;vcorelib_io_archive -->
<g id="edge25" class="edge">
<title>vcorelib_math_time&#45;&gt;vcorelib_io_archive</title><style>.edge>path:hover{stroke-width:8}</style>
<path fill="none" stroke="black" d="M518.84,-311.42C517.86,-290.47 516.08,-261.99 512.9,-237.05"/>
<path fill="none" stroke="black" d="M512.9,-235.05C509.17,-205.71 434.9,-168.97 385.77,-147.72"/>
<polygon fill="#0505e5" stroke="black" points="386.88,-144.39 376.31,-143.68 384.13,-150.83 386.88,-144.39"/>
</g>
<!-- vcorelib_math_time&#45;&gt;vcorelib_io_cache -->
<g id="edge26" class="edge">
<title>vcorelib_math_time&#45;&gt;vcorelib_io_cache</title><style>.edge>path:hover{stroke-width:8}</style>
<path fill="none" stroke="black" d="M512.9,-235.05C505.21,-174.59 558.59,-146.89 521.9,-98.23 499.83,-68.94 399.11,-48.7 338.18,-38.89"/>
<polygon fill="#0505e5" stroke="black" points="338.46,-35.39 328.03,-37.29 337.37,-42.3 338.46,-35.39"/>
</g>
<!-- vcorelib_math_time&#45;&gt;vcorelib_io_decode -->
<g id="edge27" class="edge">
<title>vcorelib_math_time&#45;&gt;vcorelib_io_decode</title><style>.edge>path:hover{stroke-width:8}</style>
<path fill="none" stroke="black" d="M492.38,-321.31C486.23,-317.56 479.55,-314.07 472.9,-311.65 355.84,-269.01 296.23,-348.14 194.9,-275.65 179.35,-264.52 191.14,-248.6 175.9,-237.05"/>
</g>
<!-- vcorelib_math_time&#45;&gt;vcorelib_io_encode -->
<g id="edge28" class="edge">
<title>vcorelib_math_time&#45;&gt;vcorelib_io_encode</title><style>.edge>path:hover{stroke-width:8}</style>
<path fill="none" stroke="black" d="M503.62,-314.66C482.86,-282.27 444.07,-228.43 397.9,-196.45 358.39,-169.08 338.99,-181.77 295.9,-160.45 292.82,-158.92 289.68,-157.23 286.58,-155.44"/>
<polygon fill="#0505e5" stroke="black" points="288.35,-152.42 277.98,-150.24 284.72,-158.41 288.35,-152.42"/>
</g>
<!-- vcorelib_math_time&#45;&gt;vcorelib_logging -->
<g id="edge29" class="edge">
<title>vcorelib_math_time&#45;&gt;vcorelib_logging</title><style>.edge>path:hover{stroke-width:8}</style>
<path fill="none" stroke="black" d="M512.9,-235.05C509.58,-208.88 499.01,-180.87 489.86,-160.41"/>
<polygon fill="#0505e5" stroke="black" points="493.02,-158.91 485.65,-151.3 486.66,-161.84 493.02,-158.91"/>
</g>
<!-- vcorelib_math_time&#45;&gt;vcorelib_task -->
<g id="edge30" class="edge">
<title>vcorelib_math_time&#45;&gt;vcorelib_task</title><style>.edge>path:hover{stroke-width:8}</style>
<path fill="none" stroke="black" d="M512.9,-235.05C508.01,-196.59 545.32,-166.32 575.53,-148.42"/>
<polygon fill="#0505e5" stroke="black" points="577.65,-151.24 584.62,-143.27 574.2,-145.15 577.65,-151.24"/>
</g>
<!-- vcorelib_paths -->
<g id="node13" class="node">
<title>vcorelib_paths</title><style>.edge>path:hover{stroke-width:8}</style>
<ellipse fill="#2626d9" stroke="black" cx="218.9" cy="-427.87" rx="46.95" ry="18"/>
<text text-anchor="middle" x="218.9" y="-424.87" font-family="Helvetica,sans-Serif" font-size="10.00" fill="#ffffff">vcorelib.paths</text>
</g>
<!-- vcorelib_paths&#45;&gt;vcorelib_io -->
<g id="edge31" class="edge">
<title>vcorelib_paths&#45;&gt;vcorelib_io</title><style>.edge>path:hover{stroke-width:8}</style>
<path fill="none" stroke="black" d="M212.4,-409.85C192.95,-359.27 135.56,-212.4 118.9,-196.45 76.87,-156.22 -5.8,-187.34 5.9,-130.34"/>
</g>
<!-- vcorelib_paths&#45;&gt;vcorelib_io_cache -->
<g id="edge32" class="edge">
<title>vcorelib_paths&#45;&gt;vcorelib_io_cache</title><style>.edge>path:hover{stroke-width:8}</style>
<path fill="none" stroke="black" d="M255.9,-341.76C265.39,-310.32 281.37,-307.61 288.9,-275.65 296.98,-241.39 308.4,-225.75 288.9,-196.45 265.95,-161.96 225.86,-194.95 202.9,-160.45 187.58,-137.43 190.55,-122.97 202.9,-98.23 212.72,-78.57 231.47,-63.24 249.14,-52.31"/>
<polygon fill="#2626d9" stroke="black" points="251.37,-55.06 258.24,-46.99 247.84,-49.02 251.37,-55.06"/>
</g>
<!-- vcorelib_paths&#45;&gt;vcorelib_io_types -->
<g id="edge33" class="edge">
<title>vcorelib_paths&#45;&gt;vcorelib_io_types</title><style>.edge>path:hover{stroke-width:8}</style>
<path fill="none" stroke="black" d="M227.85,-410.16C236.29,-393.71 248.69,-367.65 255.9,-343.76"/>
<path fill="none" stroke="black" d="M255.9,-341.76C262.34,-320.43 259.52,-295.77 254.77,-275.73"/>
<polygon fill="#2626d9" stroke="black" points="258.15,-274.81 252.24,-266.02 251.37,-276.58 258.15,-274.81"/>
</g>
<!-- vcorelib_target -->
<g id="node14" class="node">
<title>vcorelib_target</title><style>.edge>path:hover{stroke-width:8}</style>
<ellipse fill="#2f2fdb" stroke="black" cx="616.9" cy="-236.05" rx="37.79" ry="22.76"/>
<text text-anchor="middle" x="616.9" y="-239.05" font-family="Helvetica,sans-Serif" font-size="10.00" fill="#ffffff">vcorelib.</text>
<text text-anchor="middle" x="616.9" y="-227.05" font-family="Helvetica,sans-Serif" font-size="10.00" fill="#ffffff">target</text>
</g>
<!-- vcorelib_target&#45;&gt;vcorelib_task -->
<g id="edge34" class="edge">
<title>vcorelib_target&#45;&gt;vcorelib_task</title><style>.edge>path:hover{stroke-width:8}</style>
<path fill="none" stroke="black" d="M615.87,-213.35C615.1,-197.18 614.04,-174.98 613.21,-157.61"/>
<polygon fill="#2f2fdb" stroke="black" points="616.7,-157.34 612.72,-147.51 609.71,-157.67 616.7,-157.34"/>
</g>
<!-- vcorelib_task_manager -->
<g id="node18" class="node">
<title>vcorelib_task_manager</title><style>.edge>path:hover{stroke-width:8}</style>
<ellipse fill="#43439d" stroke="black" cx="748.9" cy="-31.11" rx="39.44" ry="31.23"/>
<text text-anchor="middle" x="748.9" y="-40.11" font-family="Helvetica,sans-Serif" font-size="10.00" fill="#ffffff">vcorelib.</text>
<text text-anchor="middle" x="748.9" y="-28.11" font-family="Helvetica,sans-Serif" font-size="10.00" fill="#ffffff">task.</text>
<text text-anchor="middle" x="748.9" y="-16.11" font-family="Helvetica,sans-Serif" font-size="10.00" fill="#ffffff">manager</text>
</g>
<!-- vcorelib_target&#45;&gt;vcorelib_task_manager -->
<g id="edge35" class="edge">
<title>vcorelib_target&#45;&gt;vcorelib_task_manager</title><style>.edge>path:hover{stroke-width:8}</style>
<path fill="none" stroke="black" d="M648.21,-223.19C682.82,-207.93 735.47,-177.61 748.9,-130.34"/>
<path fill="none" stroke="black" d="M748.9,-128.34C753.97,-110.51 754.65,-90.05 753.78,-72.6"/>
<polygon fill="#2f2fdb" stroke="black" points="757.25,-71.91 753.07,-62.17 750.26,-72.39 757.25,-71.91"/>
</g>
<!-- vcorelib_target_resolver -->
<g id="node15" class="node">
<title>vcorelib_target_resolver</title><style>.edge>path:hover{stroke-width:8}</style>
<ellipse fill="#3d3db8" stroke="black" cx="748.9" cy="-236.05" rx="37.79" ry="31.23"/>
<text text-anchor="middle" x="748.9" y="-245.05" font-family="Helvetica,sans-Serif" font-size="10.00" fill="#ffffff">vcorelib.</text>
<text text-anchor="middle" x="748.9" y="-233.05" font-family="Helvetica,sans-Serif" font-size="10.00" fill="#ffffff">target.</text>
<text text-anchor="middle" x="748.9" y="-221.05" font-family="Helvetica,sans-Serif" font-size="10.00" fill="#ffffff">resolver</text>
</g>
<!-- vcorelib_target_resolver&#45;&gt;vcorelib_task_manager -->
<g id="edge36" class="edge">
<title>vcorelib_target_resolver&#45;&gt;vcorelib_task_manager</title><style>.edge>path:hover{stroke-width:8}</style>
<path fill="none" stroke="black" d="M744.62,-205.11C742.6,-183.84 741.95,-154.82 748.9,-130.34"/>
</g>
</g>
</svg>
