<?xml version="1.0" encoding="UTF-8" standalone="no"?>
<!DOCTYPE svg PUBLIC "-//W3C//DTD SVG 1.1//EN"
 "http://www.w3.org/Graphics/SVG/1.1/DTD/svg11.dtd">
<!-- Generated by graphviz version 2.38.0 (20140413.2041)
 -->
<!-- Title: G Pages: 1 -->
<svg width="1562pt" height="1137pt"
 viewBox="0.00 0.00 1562.31 1136.96" xmlns="http://www.w3.org/2000/svg" xmlns:xlink="http://www.w3.org/1999/xlink">
<g id="graph0" class="graph" transform="scale(1 1) rotate(0) translate(4 1132.96)">
<title>G</title><style>.edge>path:hover{stroke-width:8}</style>
<polygon fill="white" stroke="none" points="-4,4 -4,-1132.96 1558.31,-1132.96 1558.31,4 -4,4"/>
<!-- __main__ -->
<g id="node1" class="node"><title>__main__</title><style>.edge>path:hover{stroke-width:8}</style>
<ellipse fill="#6b2e2e" stroke="black" cx="91.8354" cy="-1110.96" rx="34.9638" ry="18"/>
<text text-anchor="middle" x="91.8354" y="-1108.46" font-family="Helvetica,sans-Serif" font-size="10.00" fill="#ffffff">__main__</text>
</g>
<!-- pkg_resources -->
<g id="node4" class="node"><title>pkg_resources</title><style>.edge>path:hover{stroke-width:8}</style>
<ellipse fill="#31c485" stroke="black" cx="91.8354" cy="-1038.96" rx="47.1863" ry="18"/>
<text text-anchor="middle" x="91.8354" y="-1036.46" font-family="Helvetica,sans-Serif" font-size="10.00" fill="#000000">pkg_resources</text>
</g>
<!-- __main__&#45;&gt;pkg_resources -->
<g id="edge1" class="edge"><title>__main__&#45;&gt;pkg_resources</title><style>.edge>path:hover{stroke-width:8}</style>
<path fill="none" stroke="black" d="M91.8354,-1092.65C91.8354,-1084.94 91.8354,-1075.67 91.8354,-1067.07"/>
<polygon fill="#6b2e2e" stroke="black" points="95.3355,-1067.06 91.8354,-1057.06 88.3355,-1067.06 95.3355,-1067.06"/>
</g>
<!-- cerberus -->
<g id="node2" class="node"><title>cerberus</title><style>.edge>path:hover{stroke-width:8}</style>
<ellipse fill="#b8a63d" stroke="black" cx="78.8354" cy="-393.931" rx="31.577" ry="18"/>
<text text-anchor="middle" x="78.8354" y="-391.431" font-family="Helvetica,sans-Serif" font-size="10.00" fill="#000000">cerberus</text>
</g>
<!-- vcorelib_schemas -->
<g id="node25" class="node"><title>vcorelib_schemas</title><style>.edge>path:hover{stroke-width:8}</style>
<ellipse fill="#b620a1" stroke="black" cx="157.835" cy="-216.957" rx="39.6962" ry="21.4286"/>
<text text-anchor="middle" x="157.835" y="-219.957" font-family="Helvetica,sans-Serif" font-size="10.00" fill="#ffffff">vcorelib.</text>
<text text-anchor="middle" x="157.835" y="-208.957" font-family="Helvetica,sans-Serif" font-size="10.00" fill="#ffffff">schemas</text>
</g>
<!-- cerberus&#45;&gt;vcorelib_schemas -->
<g id="edge2" class="edge"><title>cerberus&#45;&gt;vcorelib_schemas</title><style>.edge>path:hover{stroke-width:8}</style>
<path fill="none" stroke="black" d="M100.62,-380.472C121.506,-366.831 150.615,-342.737 155.835,-311.94"/>
<path fill="none" stroke="black" d="M155.835,-309.94C159.278,-289.63 159.76,-266.439 159.39,-248.425"/>
<polygon fill="#b8a63d" stroke="black" points="162.882,-248.102 159.079,-238.214 155.885,-248.315 162.882,-248.102"/>
</g>
<!-- fastjsonschema -->
<g id="node3" class="node"><title>fastjsonschema</title><style>.edge>path:hover{stroke-width:8}</style>
<ellipse fill="#70b653" stroke="black" cx="178.835" cy="-393.931" rx="50.7503" ry="18"/>
<text text-anchor="middle" x="178.835" y="-391.431" font-family="Helvetica,sans-Serif" font-size="10.00" fill="#000000">fastjsonschema</text>
</g>
<!-- fastjsonschema&#45;&gt;vcorelib_schemas -->
<g id="edge3" class="edge"><title>fastjsonschema&#45;&gt;vcorelib_schemas</title><style>.edge>path:hover{stroke-width:8}</style>
<path fill="none" stroke="black" d="M169.456,-376.113C161.52,-359.901 152,-334.566 155.835,-311.94"/>
</g>
<!-- pkg_resources&#45;&gt;cerberus -->
<g id="edge4" class="edge"><title>pkg_resources&#45;&gt;cerberus</title><style>.edge>path:hover{stroke-width:8}</style>
<path fill="none" stroke="black" d="M89.7981,-1020.68C88.3233,-1004.14 87.2946,-978.57 91.8354,-956.966"/>
<path fill="none" stroke="black" d="M91.8354,-954.966C106.827,-883.643 91.8354,-863.865 91.8354,-790.983 91.8354,-790.983 91.8354,-790.983 91.8354,-577.683 91.8354,-522.337 85.8297,-457.8 81.9823,-422.135"/>
<polygon fill="#31c485" stroke="black" points="85.4436,-421.59 80.8666,-412.035 78.4859,-422.359 85.4436,-421.59"/>
</g>
<!-- vcorelib_paths -->
<g id="node23" class="node"><title>vcorelib_paths</title><style>.edge>path:hover{stroke-width:8}</style>
<ellipse fill="#ef06ce" stroke="black" cx="164.835" cy="-872.975" rx="45.1548" ry="18"/>
<text text-anchor="middle" x="164.835" y="-870.475" font-family="Helvetica,sans-Serif" font-size="10.00" fill="#ffffff">vcorelib.paths</text>
</g>
<!-- pkg_resources&#45;&gt;vcorelib_paths -->
<g id="edge5" class="edge"><title>pkg_resources&#45;&gt;vcorelib_paths</title><style>.edge>path:hover{stroke-width:8}</style>
<path fill="none" stroke="black" d="M91.8354,-954.966C96.9885,-930.45 116.323,-909.636 133.8,-895.249"/>
<polygon fill="#31c485" stroke="black" points="136.436,-897.631 142.159,-888.715 132.125,-892.116 136.436,-897.631"/>
</g>
<!-- tomli -->
<g id="node5" class="node"><title>tomli</title><style>.edge>path:hover{stroke-width:8}</style>
<ellipse fill="#538cb6" stroke="black" cx="577.835" cy="-872.975" rx="27" ry="18"/>
<text text-anchor="middle" x="577.835" y="-870.475" font-family="Helvetica,sans-Serif" font-size="10.00" fill="#000000">tomli</text>
</g>
<!-- vcorelib_io_decode -->
<g id="node15" class="node"><title>vcorelib_io_decode</title><style>.edge>path:hover{stroke-width:8}</style>
<ellipse fill="#913084" stroke="black" cx="550.835" cy="-578.683" rx="37.4533" ry="28.9828"/>
<text text-anchor="middle" x="550.835" y="-587.183" font-family="Helvetica,sans-Serif" font-size="10.00" fill="#ffffff">vcorelib.</text>
<text text-anchor="middle" x="550.835" y="-576.183" font-family="Helvetica,sans-Serif" font-size="10.00" fill="#ffffff">io.</text>
<text text-anchor="middle" x="550.835" y="-565.183" font-family="Helvetica,sans-Serif" font-size="10.00" fill="#ffffff">decode</text>
</g>
<!-- tomli&#45;&gt;vcorelib_io_decode -->
<g id="edge6" class="edge"><title>tomli&#45;&gt;vcorelib_io_decode</title><style>.edge>path:hover{stroke-width:8}</style>
<path fill="none" stroke="black" d="M583.319,-855.221C593.433,-820.974 611.11,-741.758 577.835,-689.222"/>
</g>
<!-- tomli_w -->
<g id="node6" class="node"><title>tomli_w</title><style>.edge>path:hover{stroke-width:8}</style>
<ellipse fill="#6440c0" stroke="black" cx="706.835" cy="-872.975" rx="29.3664" ry="18"/>
<text text-anchor="middle" x="706.835" y="-870.475" font-family="Helvetica,sans-Serif" font-size="10.00" fill="#ffffff">tomli_w</text>
</g>
<!-- vcorelib_io_encode -->
<g id="node16" class="node"><title>vcorelib_io_encode</title><style>.edge>path:hover{stroke-width:8}</style>
<ellipse fill="#913084" stroke="black" cx="643.835" cy="-578.683" rx="37.4533" ry="28.9828"/>
<text text-anchor="middle" x="643.835" y="-587.183" font-family="Helvetica,sans-Serif" font-size="10.00" fill="#ffffff">vcorelib.</text>
<text text-anchor="middle" x="643.835" y="-576.183" font-family="Helvetica,sans-Serif" font-size="10.00" fill="#ffffff">io.</text>
<text text-anchor="middle" x="643.835" y="-565.183" font-family="Helvetica,sans-Serif" font-size="10.00" fill="#ffffff">encode</text>
</g>
<!-- tomli_w&#45;&gt;vcorelib_io_encode -->
<g id="edge7" class="edge"><title>tomli_w&#45;&gt;vcorelib_io_encode</title><style>.edge>path:hover{stroke-width:8}</style>
<path fill="none" stroke="black" d="M716.3,-855.829C724.734,-839.901 735.764,-814.581 735.835,-790.983"/>
<path fill="none" stroke="black" d="M735.835,-788.983C735.969,-744.645 763.936,-723.518 735.835,-689.222"/>
<path fill="none" stroke="black" d="M735.835,-687.222C714.571,-661.27 689.815,-632.406 671.343,-611.121"/>
<polygon fill="#6440c0" stroke="black" points="673.794,-608.606 664.591,-603.356 668.512,-613.199 673.794,-608.606"/>
</g>
<!-- vcorelib_asyncio -->
<g id="node7" class="node"><title>vcorelib_asyncio</title><style>.edge>path:hover{stroke-width:8}</style>
<ellipse fill="#c247b1" stroke="black" cx="1423.84" cy="-955.966" rx="37.4533" ry="21.4286"/>
<text text-anchor="middle" x="1423.84" y="-958.966" font-family="Helvetica,sans-Serif" font-size="10.00" fill="#ffffff">vcorelib.</text>
<text text-anchor="middle" x="1423.84" y="-947.966" font-family="Helvetica,sans-Serif" font-size="10.00" fill="#ffffff">asyncio</text>
</g>
<!-- vcorelib_task_manager -->
<g id="node33" class="node"><title>vcorelib_task_manager</title><style>.edge>path:hover{stroke-width:8}</style>
<ellipse fill="#883a7d" stroke="black" cx="1393.84" cy="-789.983" rx="38.3684" ry="28.9828"/>
<text text-anchor="middle" x="1393.84" y="-798.483" font-family="Helvetica,sans-Serif" font-size="10.00" fill="#ffffff">vcorelib.</text>
<text text-anchor="middle" x="1393.84" y="-787.483" font-family="Helvetica,sans-Serif" font-size="10.00" fill="#ffffff">task.</text>
<text text-anchor="middle" x="1393.84" y="-776.483" font-family="Helvetica,sans-Serif" font-size="10.00" fill="#ffffff">manager</text>
</g>
<!-- vcorelib_asyncio&#45;&gt;vcorelib_task_manager -->
<g id="edge8" class="edge"><title>vcorelib_asyncio&#45;&gt;vcorelib_task_manager</title><style>.edge>path:hover{stroke-width:8}</style>
<path fill="none" stroke="black" d="M1408.15,-936.53C1395.78,-919.612 1382.36,-894.184 1393.84,-873.975"/>
</g>
<!-- vcorelib_dict -->
<g id="node8" class="node"><title>vcorelib_dict</title><style>.edge>path:hover{stroke-width:8}</style>
<ellipse fill="#f910d8" stroke="black" cx="763.835" cy="-955.966" rx="40.7358" ry="18"/>
<text text-anchor="middle" x="763.835" y="-953.466" font-family="Helvetica,sans-Serif" font-size="10.00" fill="#ffffff">vcorelib.dict</text>
</g>
<!-- vcorelib_io -->
<g id="node12" class="node"><title>vcorelib_io</title><style>.edge>path:hover{stroke-width:8}</style>
<ellipse fill="#bd04a3" stroke="black" cx="522.835" cy="-476.922" rx="35.8171" ry="18"/>
<text text-anchor="middle" x="522.835" y="-474.422" font-family="Helvetica,sans-Serif" font-size="10.00" fill="#ffffff">vcorelib.io</text>
</g>
<!-- vcorelib_dict&#45;&gt;vcorelib_io -->
<g id="edge9" class="edge"><title>vcorelib_dict&#45;&gt;vcorelib_io</title><style>.edge>path:hover{stroke-width:8}</style>
<path fill="none" stroke="black" d="M723.213,-954.927C673.334,-952.589 589.507,-940.846 541.835,-890.975 510.255,-857.938 521.759,-836.517 517.835,-790.983"/>
<path fill="none" stroke="black" d="M517.835,-788.983C511.7,-753.136 485.012,-756.492 466.835,-724.992 432.163,-664.905 384.242,-644.162 409.835,-579.683"/>
</g>
<!-- vcorelib_io_cache -->
<g id="node14" class="node"><title>vcorelib_io_cache</title><style>.edge>path:hover{stroke-width:8}</style>
<ellipse fill="#813776" stroke="black" cx="699.835" cy="-476.922" rx="37.4533" ry="28.9828"/>
<text text-anchor="middle" x="699.835" y="-485.422" font-family="Helvetica,sans-Serif" font-size="10.00" fill="#ffffff">vcorelib.</text>
<text text-anchor="middle" x="699.835" y="-474.422" font-family="Helvetica,sans-Serif" font-size="10.00" fill="#ffffff">io.</text>
<text text-anchor="middle" x="699.835" y="-463.422" font-family="Helvetica,sans-Serif" font-size="10.00" fill="#ffffff">cache</text>
</g>
<!-- vcorelib_dict&#45;&gt;vcorelib_io_cache -->
<g id="edge10" class="edge"><title>vcorelib_dict&#45;&gt;vcorelib_io_cache</title><style>.edge>path:hover{stroke-width:8}</style>
<path fill="none" stroke="black" d="M1137.84,-788.983C1175.19,-746.002 1220.35,-774.298 1248.84,-724.992 1291.67,-650.851 1259.51,-590.255 1188.84,-541.914 1117.72,-493.272 856.194,-481.561 747.597,-478.777"/>
<polygon fill="#f910d8" stroke="black" points="747.659,-475.277 737.577,-478.534 747.489,-482.275 747.659,-475.277"/>
</g>
<!-- vcorelib_dict&#45;&gt;vcorelib_io_decode -->
<g id="edge11" class="edge"><title>vcorelib_dict&#45;&gt;vcorelib_io_decode</title><style>.edge>path:hover{stroke-width:8}</style>
<path fill="none" stroke="black" d="M517.835,-788.983C513.394,-737.435 605.896,-732.692 577.835,-689.222"/>
<path fill="none" stroke="black" d="M577.835,-687.222C564.468,-666.514 557.718,-639.617 554.309,-617.903"/>
<polygon fill="#f910d8" stroke="black" points="557.736,-617.132 552.891,-607.71 550.803,-618.097 557.736,-617.132"/>
</g>
<!-- vcorelib_dict&#45;&gt;vcorelib_io_encode -->
<g id="edge12" class="edge"><title>vcorelib_dict&#45;&gt;vcorelib_io_encode</title><style>.edge>path:hover{stroke-width:8}</style>
<path fill="none" stroke="black" d="M759.017,-938.079C755.087,-920.666 751.923,-893.39 763.835,-873.975"/>
<path fill="none" stroke="black" d="M763.835,-871.975C783.754,-839.512 735.721,-829.07 735.835,-790.983"/>
</g>
<!-- vcorelib_io_types -->
<g id="node17" class="node"><title>vcorelib_io_types</title><style>.edge>path:hover{stroke-width:8}</style>
<ellipse fill="#e505c5" stroke="black" cx="512.835" cy="-688.222" rx="37.4533" ry="28.9828"/>
<text text-anchor="middle" x="512.835" y="-696.722" font-family="Helvetica,sans-Serif" font-size="10.00" fill="#ffffff">vcorelib.</text>
<text text-anchor="middle" x="512.835" y="-685.722" font-family="Helvetica,sans-Serif" font-size="10.00" fill="#ffffff">io.</text>
<text text-anchor="middle" x="512.835" y="-674.722" font-family="Helvetica,sans-Serif" font-size="10.00" fill="#ffffff">types</text>
</g>
<!-- vcorelib_dict&#45;&gt;vcorelib_io_types -->
<g id="edge13" class="edge"><title>vcorelib_dict&#45;&gt;vcorelib_io_types</title><style>.edge>path:hover{stroke-width:8}</style>
<path fill="none" stroke="black" d="M517.835,-788.983C516.085,-768.669 514.888,-745.971 514.105,-727.364"/>
<polygon fill="#f910d8" stroke="black" points="517.596,-727.063 513.701,-717.21 510.601,-727.341 517.596,-727.063"/>
</g>
<!-- vcorelib_math_time -->
<g id="node22" class="node"><title>vcorelib_math_time</title><style>.edge>path:hover{stroke-width:8}</style>
<ellipse fill="#e505c5" stroke="black" cx="907.835" cy="-789.983" rx="37.4533" ry="28.9828"/>
<text text-anchor="middle" x="907.835" y="-798.483" font-family="Helvetica,sans-Serif" font-size="10.00" fill="#ffffff">vcorelib.</text>
<text text-anchor="middle" x="907.835" y="-787.483" font-family="Helvetica,sans-Serif" font-size="10.00" fill="#ffffff">math.</text>
<text text-anchor="middle" x="907.835" y="-776.483" font-family="Helvetica,sans-Serif" font-size="10.00" fill="#ffffff">time</text>
</g>
<!-- vcorelib_dict&#45;&gt;vcorelib_math_time -->
<g id="edge14" class="edge"><title>vcorelib_dict&#45;&gt;vcorelib_math_time</title><style>.edge>path:hover{stroke-width:8}</style>
<path fill="none" stroke="black" d="M763.835,-871.975C789.528,-830.102 818.168,-843.326 860.835,-818.975 863.855,-817.251 866.972,-815.448 870.097,-813.624"/>
<polygon fill="#f910d8" stroke="black" points="872.007,-816.561 878.851,-808.473 868.457,-810.528 872.007,-816.561"/>
</g>
<!-- vcorelib_paths_info_cache -->
<g id="node24" class="node"><title>vcorelib_paths_info_cache</title><style>.edge>path:hover{stroke-width:8}</style>
<ellipse fill="#8f3d83" stroke="black" cx="579.835" cy="-122.974" rx="45.011" ry="28.9828"/>
<text text-anchor="middle" x="579.835" y="-131.474" font-family="Helvetica,sans-Serif" font-size="10.00" fill="#ffffff">vcorelib.</text>
<text text-anchor="middle" x="579.835" y="-120.474" font-family="Helvetica,sans-Serif" font-size="10.00" fill="#ffffff">paths.</text>
<text text-anchor="middle" x="579.835" y="-109.474" font-family="Helvetica,sans-Serif" font-size="10.00" fill="#ffffff">info_cache</text>
</g>
<!-- vcorelib_dict&#45;&gt;vcorelib_paths_info_cache -->
<g id="edge15" class="edge"><title>vcorelib_dict&#45;&gt;vcorelib_paths_info_cache</title><style>.edge>path:hover{stroke-width:8}</style>
<path fill="none" stroke="black" d="M763.835,-871.975C808.308,-799.493 1085.93,-858.341 1137.84,-790.983"/>
<path fill="none" stroke="black" d="M1137.84,-788.983C1193,-717.402 1000.1,-796.491 944.835,-724.992 894.966,-660.476 970.577,-614.196 932.835,-541.914 857.02,-396.714 710.889,-461.833 644.835,-311.94"/>
</g>
<!-- vcorelib_task -->
<g id="node31" class="node"><title>vcorelib_task</title><style>.edge>path:hover{stroke-width:8}</style>
<ellipse fill="#c115a8" stroke="black" cx="1137.84" cy="-578.683" rx="42.2678" ry="18"/>
<text text-anchor="middle" x="1137.84" y="-576.183" font-family="Helvetica,sans-Serif" font-size="10.00" fill="#ffffff">vcorelib.task</text>
</g>
<!-- vcorelib_dict&#45;&gt;vcorelib_task -->
<g id="edge16" class="edge"><title>vcorelib_dict&#45;&gt;vcorelib_task</title><style>.edge>path:hover{stroke-width:8}</style>
<path fill="none" stroke="black" d="M1137.84,-788.983C1160.41,-762.295 1149.05,-657.517 1142.02,-607.09"/>
<polygon fill="#f910d8" stroke="black" points="1145.44,-606.319 1140.55,-596.92 1138.51,-607.317 1145.44,-606.319"/>
</g>
<!-- vcorelib_task_dict_melder -->
<g id="node32" class="node"><title>vcorelib_task_dict_melder</title><style>.edge>path:hover{stroke-width:8}</style>
<ellipse fill="#a44697" stroke="black" cx="1202.84" cy="-688.222" rx="37.4533" ry="36.5405"/>
<text text-anchor="middle" x="1202.84" y="-702.222" font-family="Helvetica,sans-Serif" font-size="10.00" fill="#ffffff">vcorelib.</text>
<text text-anchor="middle" x="1202.84" y="-691.222" font-family="Helvetica,sans-Serif" font-size="10.00" fill="#ffffff">task.</text>
<text text-anchor="middle" x="1202.84" y="-680.222" font-family="Helvetica,sans-Serif" font-size="10.00" fill="#ffffff">dict.</text>
<text text-anchor="middle" x="1202.84" y="-669.222" font-family="Helvetica,sans-Serif" font-size="10.00" fill="#ffffff">melder</text>
</g>
<!-- vcorelib_dict&#45;&gt;vcorelib_task_dict_melder -->
<g id="edge17" class="edge"><title>vcorelib_dict&#45;&gt;vcorelib_task_dict_melder</title><style>.edge>path:hover{stroke-width:8}</style>
<path fill="none" stroke="black" d="M1137.84,-788.983C1153.39,-770.588 1168.26,-748.266 1179.83,-729.405"/>
<polygon fill="#f910d8" stroke="black" points="1182.9,-731.102 1185.08,-720.734 1176.91,-727.481 1182.9,-731.102"/>
</g>
<!-- vcorelib_dict&#45;&gt;vcorelib_task_manager -->
<g id="edge18" class="edge"><title>vcorelib_dict&#45;&gt;vcorelib_task_manager</title><style>.edge>path:hover{stroke-width:8}</style>
<path fill="none" stroke="black" d="M804.415,-953.385C939.108,-947.661 1364.53,-925.573 1393.84,-873.975"/>
<path fill="none" stroke="black" d="M1393.84,-871.975C1401.16,-859.087 1402.45,-843.08 1401.43,-828.708"/>
<polygon fill="#f910d8" stroke="black" points="1404.9,-828.166 1400.34,-818.6 1397.94,-828.918 1404.9,-828.166"/>
</g>
<!-- vcorelib_dict_cache -->
<g id="node9" class="node"><title>vcorelib_dict_cache</title><style>.edge>path:hover{stroke-width:8}</style>
<ellipse fill="#a83898" stroke="black" cx="579.835" cy="-310.94" rx="37.4533" ry="28.9828"/>
<text text-anchor="middle" x="579.835" y="-319.44" font-family="Helvetica,sans-Serif" font-size="10.00" fill="#ffffff">vcorelib.</text>
<text text-anchor="middle" x="579.835" y="-308.44" font-family="Helvetica,sans-Serif" font-size="10.00" fill="#ffffff">dict.</text>
<text text-anchor="middle" x="579.835" y="-297.44" font-family="Helvetica,sans-Serif" font-size="10.00" fill="#ffffff">cache</text>
</g>
<!-- vcorelib_dict_cache&#45;&gt;vcorelib_paths_info_cache -->
<g id="edge19" class="edge"><title>vcorelib_dict_cache&#45;&gt;vcorelib_paths_info_cache</title><style>.edge>path:hover{stroke-width:8}</style>
<path fill="none" stroke="black" d="M579.835,-281.759C579.835,-263.555 579.835,-239.356 579.835,-217.957"/>
</g>
<!-- vcorelib_dict_codec -->
<g id="node10" class="node"><title>vcorelib_dict_codec</title><style>.edge>path:hover{stroke-width:8}</style>
<ellipse fill="#883a7d" stroke="black" cx="225.835" cy="-28.9914" rx="37.4533" ry="28.9828"/>
<text text-anchor="middle" x="225.835" y="-37.4914" font-family="Helvetica,sans-Serif" font-size="10.00" fill="#ffffff">vcorelib.</text>
<text text-anchor="middle" x="225.835" y="-26.4914" font-family="Helvetica,sans-Serif" font-size="10.00" fill="#ffffff">dict.</text>
<text text-anchor="middle" x="225.835" y="-15.4914" font-family="Helvetica,sans-Serif" font-size="10.00" fill="#ffffff">codec</text>
</g>
<!-- vcorelib_dict_config -->
<g id="node11" class="node"><title>vcorelib_dict_config</title><style>.edge>path:hover{stroke-width:8}</style>
<ellipse fill="#96408a" stroke="black" cx="360.835" cy="-310.94" rx="37.4533" ry="28.9828"/>
<text text-anchor="middle" x="360.835" y="-319.44" font-family="Helvetica,sans-Serif" font-size="10.00" fill="#ffffff">vcorelib.</text>
<text text-anchor="middle" x="360.835" y="-308.44" font-family="Helvetica,sans-Serif" font-size="10.00" fill="#ffffff">dict.</text>
<text text-anchor="middle" x="360.835" y="-297.44" font-family="Helvetica,sans-Serif" font-size="10.00" fill="#ffffff">config</text>
</g>
<!-- vcorelib_io&#45;&gt;vcorelib_dict_cache -->
<g id="edge20" class="edge"><title>vcorelib_io&#45;&gt;vcorelib_dict_cache</title><style>.edge>path:hover{stroke-width:8}</style>
<path fill="none" stroke="black" d="M514.835,-392.931C517.762,-371.947 531.699,-353.161 545.921,-338.978"/>
<polygon fill="#bd04a3" stroke="black" points="548.453,-341.4 553.327,-331.993 543.65,-336.308 548.453,-341.4"/>
</g>
<!-- vcorelib_io&#45;&gt;vcorelib_dict_codec -->
<g id="edge21" class="edge"><title>vcorelib_io&#45;&gt;vcorelib_dict_codec</title><style>.edge>path:hover{stroke-width:8}</style>
<path fill="none" stroke="black" d="M425.835,-392.931C396.833,-352.148 415.297,-331.271 406.835,-281.948 401.956,-253.506 405.856,-245.019 395.835,-217.957"/>
</g>
<!-- vcorelib_io&#45;&gt;vcorelib_dict_config -->
<g id="edge22" class="edge"><title>vcorelib_io&#45;&gt;vcorelib_dict_config</title><style>.edge>path:hover{stroke-width:8}</style>
<path fill="none" stroke="black" d="M500.726,-462.364C478.983,-448.023 446.178,-423.537 425.835,-394.931"/>
<path fill="none" stroke="black" d="M425.835,-392.931C413.846,-376.071 399.545,-358.053 387.413,-343.302"/>
<polygon fill="#bd04a3" stroke="black" points="390.001,-340.939 380.925,-335.472 384.61,-345.405 390.001,-340.939"/>
</g>
<!-- vcorelib_io&#45;&gt;vcorelib_paths_info_cache -->
<g id="edge23" class="edge"><title>vcorelib_io&#45;&gt;vcorelib_paths_info_cache</title><style>.edge>path:hover{stroke-width:8}</style>
<path fill="none" stroke="black" d="M518.797,-458.811C515.474,-442.386 511.771,-416.902 514.835,-394.931"/>
<path fill="none" stroke="black" d="M514.835,-392.931C521.748,-343.367 514.513,-328.111 533.835,-281.948 547.359,-249.638 579.835,-252.983 579.835,-217.957"/>
<path fill="none" stroke="black" d="M579.835,-215.957C579.462,-198.407 579.409,-178.97 579.471,-162.501"/>
<polygon fill="#bd04a3" stroke="black" points="582.972,-162.176 579.525,-152.158 575.973,-162.139 582.972,-162.176"/>
</g>
<!-- vcorelib_schemas_base -->
<g id="node26" class="node"><title>vcorelib_schemas_base</title><style>.edge>path:hover{stroke-width:8}</style>
<ellipse fill="#c823b0" stroke="black" cx="225.835" cy="-310.94" rx="41.9398" ry="28.9828"/>
<text text-anchor="middle" x="225.835" y="-319.44" font-family="Helvetica,sans-Serif" font-size="10.00" fill="#ffffff">vcorelib.</text>
<text text-anchor="middle" x="225.835" y="-308.44" font-family="Helvetica,sans-Serif" font-size="10.00" fill="#ffffff">schemas.</text>
<text text-anchor="middle" x="225.835" y="-297.44" font-family="Helvetica,sans-Serif" font-size="10.00" fill="#ffffff">base</text>
</g>
<!-- vcorelib_io&#45;&gt;vcorelib_schemas_base -->
<g id="edge24" class="edge"><title>vcorelib_io&#45;&gt;vcorelib_schemas_base</title><style>.edge>path:hover{stroke-width:8}</style>
<path fill="none" stroke="black" d="M492.507,-466.974C458.526,-456.317 402.37,-436.791 357.835,-411.931 321.819,-391.826 284.713,-362.85 259.05,-341.261"/>
<polygon fill="#bd04a3" stroke="black" points="261.022,-338.343 251.136,-334.531 256.487,-343.676 261.022,-338.343"/>
</g>
<!-- vcorelib_io_archive -->
<g id="node13" class="node"><title>vcorelib_io_archive</title><style>.edge>path:hover{stroke-width:8}</style>
<ellipse fill="#a13591" stroke="black" cx="773.835" cy="-578.683" rx="37.4533" ry="28.9828"/>
<text text-anchor="middle" x="773.835" y="-587.183" font-family="Helvetica,sans-Serif" font-size="10.00" fill="#ffffff">vcorelib.</text>
<text text-anchor="middle" x="773.835" y="-576.183" font-family="Helvetica,sans-Serif" font-size="10.00" fill="#ffffff">io.</text>
<text text-anchor="middle" x="773.835" y="-565.183" font-family="Helvetica,sans-Serif" font-size="10.00" fill="#ffffff">archive</text>
</g>
<!-- vcorelib_io_archive&#45;&gt;vcorelib_io_cache -->
<g id="edge25" class="edge"><title>vcorelib_io_archive&#45;&gt;vcorelib_io_cache</title><style>.edge>path:hover{stroke-width:8}</style>
<path fill="none" stroke="black" d="M755.733,-553.279C746.237,-540.477 734.47,-524.614 724.186,-510.75"/>
<polygon fill="#a13591" stroke="black" points="726.776,-508.367 718.007,-502.42 721.154,-512.537 726.776,-508.367"/>
</g>
<!-- vcorelib_io_decode&#45;&gt;vcorelib_io -->
<g id="edge26" class="edge"><title>vcorelib_io_decode&#45;&gt;vcorelib_io</title><style>.edge>path:hover{stroke-width:8}</style>
<path fill="none" stroke="black" d="M543.11,-550.159C539.163,-536.096 534.377,-519.043 530.446,-505.039"/>
<polygon fill="#913084" stroke="black" points="533.707,-503.705 527.635,-495.023 526.968,-505.597 533.707,-503.705"/>
</g>
<!-- vcorelib_io_encode&#45;&gt;vcorelib_io -->
<g id="edge27" class="edge"><title>vcorelib_io_encode&#45;&gt;vcorelib_io</title><style>.edge>path:hover{stroke-width:8}</style>
<path fill="none" stroke="black" d="M618.764,-557.013C598.231,-540.084 569.292,-516.224 548.578,-499.147"/>
<polygon fill="#913084" stroke="black" points="550.746,-496.397 540.803,-492.736 546.293,-501.798 550.746,-496.397"/>
</g>
<!-- vcorelib_io_types&#45;&gt;vcorelib_dict_cache -->
<g id="edge28" class="edge"><title>vcorelib_io_types&#45;&gt;vcorelib_dict_cache</title><style>.edge>path:hover{stroke-width:8}</style>
<path fill="none" stroke="black" d="M497.455,-661.745C486.111,-639.498 474.459,-606.64 485.835,-579.683"/>
<path fill="none" stroke="black" d="M485.835,-577.683C492.834,-561.099 492.305,-554.837 504.835,-541.914 527.284,-518.761 544.057,-527.699 567.835,-505.914 612.101,-465.358 646.926,-454.929 644.835,-394.931"/>
<path fill="none" stroke="black" d="M644.835,-392.931C646.194,-370.972 631.488,-351.544 615.723,-337.224"/>
<polygon fill="#e505c5" stroke="black" points="617.848,-334.436 607.965,-330.616 613.309,-339.765 617.848,-334.436"/>
</g>
<!-- vcorelib_io_types&#45;&gt;vcorelib_dict_codec -->
<g id="edge29" class="edge"><title>vcorelib_io_types&#45;&gt;vcorelib_dict_codec</title><style>.edge>path:hover{stroke-width:8}</style>
<path fill="none" stroke="black" d="M477.227,-678.552C442.766,-668.532 391.007,-648.961 357.835,-615.453 310.665,-567.803 295.835,-544.971 295.835,-477.922 295.835,-477.922 295.835,-477.922 295.835,-392.931 295.835,-342.888 289.284,-324.977 314.835,-281.948 338.26,-242.5 410.099,-261.562 395.835,-217.957"/>
<path fill="none" stroke="black" d="M395.835,-215.957C367.309,-134.925 226.018,-209.88 225.835,-123.974"/>
</g>
<!-- vcorelib_io_types&#45;&gt;vcorelib_dict_config -->
<g id="edge30" class="edge"><title>vcorelib_io_types&#45;&gt;vcorelib_dict_config</title><style>.edge>path:hover{stroke-width:8}</style>
<path fill="none" stroke="black" d="M478.832,-675.921C451.594,-664.972 414.894,-645.551 395.835,-615.453 343.092,-532.159 348.877,-490.809 371.835,-394.931"/>
</g>
<!-- vcorelib_io_types&#45;&gt;vcorelib_io -->
<g id="edge31" class="edge"><title>vcorelib_io_types&#45;&gt;vcorelib_io</title><style>.edge>path:hover{stroke-width:8}</style>
<path fill="none" stroke="black" d="M480.601,-672.958C444.662,-654.751 393.574,-620.652 409.835,-579.683"/>
</g>
<!-- vcorelib_io_types&#45;&gt;vcorelib_io_archive -->
<g id="edge32" class="edge"><title>vcorelib_io_types&#45;&gt;vcorelib_io_archive</title><style>.edge>path:hover{stroke-width:8}</style>
<path fill="none" stroke="black" d="M545.853,-674.033C581.458,-659.764 639.772,-636.26 689.835,-615.453 703.616,-609.726 718.621,-603.373 732.087,-597.63"/>
<polygon fill="#e505c5" stroke="black" points="733.76,-600.721 741.581,-593.573 731.01,-594.284 733.76,-600.721"/>
</g>
<!-- vcorelib_io_types&#45;&gt;vcorelib_io_cache -->
<g id="edge33" class="edge"><title>vcorelib_io_types&#45;&gt;vcorelib_io_cache</title><style>.edge>path:hover{stroke-width:8}</style>
<path fill="none" stroke="black" d="M485.835,-577.683C492.834,-561.099 490.819,-553.21 504.835,-541.914 550.848,-504.831 577.024,-525.34 632.835,-505.914 641.226,-502.993 650.075,-499.559 658.493,-496.116"/>
<polygon fill="#e505c5" stroke="black" points="659.884,-499.328 667.768,-492.251 657.191,-492.867 659.884,-499.328"/>
</g>
<!-- vcorelib_io_types&#45;&gt;vcorelib_io_decode -->
<g id="edge34" class="edge"><title>vcorelib_io_types&#45;&gt;vcorelib_io_decode</title><style>.edge>path:hover{stroke-width:8}</style>
<path fill="none" stroke="black" d="M522.424,-660.086C527.105,-646.84 532.805,-630.71 537.867,-616.384"/>
<polygon fill="#e505c5" stroke="black" points="541.218,-617.406 541.249,-606.811 534.618,-615.074 541.218,-617.406"/>
</g>
<!-- vcorelib_io_types&#45;&gt;vcorelib_io_encode -->
<g id="edge35" class="edge"><title>vcorelib_io_types&#45;&gt;vcorelib_io_encode</title><style>.edge>path:hover{stroke-width:8}</style>
<path fill="none" stroke="black" d="M538.094,-666.488C558.753,-649.528 588.134,-625.409 610.685,-606.897"/>
<polygon fill="#e505c5" stroke="black" points="613.146,-609.405 618.655,-600.354 608.705,-603.994 613.146,-609.405"/>
</g>
<!-- vcorelib_io_types&#45;&gt;vcorelib_paths_info_cache -->
<g id="edge36" class="edge"><title>vcorelib_io_types&#45;&gt;vcorelib_paths_info_cache</title><style>.edge>path:hover{stroke-width:8}</style>
<path fill="none" stroke="black" d="M644.835,-392.931C647.059,-357.004 659.351,-344.879 644.835,-311.94"/>
<path fill="none" stroke="black" d="M644.835,-309.94C638.772,-296.18 634.447,-294.274 625.835,-281.948 605.776,-253.235 580.58,-252.975 579.835,-217.957"/>
</g>
<!-- vcorelib_logging -->
<g id="node18" class="node"><title>vcorelib_logging</title><style>.edge>path:hover{stroke-width:8}</style>
<ellipse fill="#a44697" stroke="black" cx="866.835" cy="-578.683" rx="37.4533" ry="21.4286"/>
<text text-anchor="middle" x="866.835" y="-581.683" font-family="Helvetica,sans-Serif" font-size="10.00" fill="#ffffff">vcorelib.</text>
<text text-anchor="middle" x="866.835" y="-570.683" font-family="Helvetica,sans-Serif" font-size="10.00" fill="#ffffff">logging</text>
</g>
<!-- vcorelib_math -->
<g id="node19" class="node"><title>vcorelib_math</title><style>.edge>path:hover{stroke-width:8}</style>
<ellipse fill="#f910d8" stroke="black" cx="807.835" cy="-789.983" rx="44.3" ry="18"/>
<text text-anchor="middle" x="807.835" y="-787.483" font-family="Helvetica,sans-Serif" font-size="10.00" fill="#ffffff">vcorelib.math</text>
</g>
<!-- vcorelib_math&#45;&gt;vcorelib_io_archive -->
<g id="edge37" class="edge"><title>vcorelib_math&#45;&gt;vcorelib_io_archive</title><style>.edge>path:hover{stroke-width:8}</style>
<path fill="none" stroke="black" d="M773.835,-687.222C771.105,-664.332 771.008,-638.505 771.64,-617.899"/>
<polygon fill="#f910d8" stroke="black" points="775.147,-617.768 772.027,-607.643 768.152,-617.504 775.147,-617.768"/>
</g>
<!-- vcorelib_math&#45;&gt;vcorelib_io_cache -->
<g id="edge38" class="edge"><title>vcorelib_math&#45;&gt;vcorelib_io_cache</title><style>.edge>path:hover{stroke-width:8}</style>
<path fill="none" stroke="black" d="M799.677,-772.196C790.821,-752.773 777.455,-719.565 773.835,-689.222"/>
<path fill="none" stroke="black" d="M773.835,-687.222C769.348,-649.602 742.079,-650.561 727.835,-615.453 714.798,-583.319 707.603,-544.408 703.784,-516.187"/>
<polygon fill="#f910d8" stroke="black" points="707.213,-515.41 702.48,-505.931 700.269,-516.292 707.213,-515.41"/>
</g>
<!-- vcorelib_math&#45;&gt;vcorelib_io_decode -->
<g id="edge39" class="edge"><title>vcorelib_math&#45;&gt;vcorelib_io_decode</title><style>.edge>path:hover{stroke-width:8}</style>
<path fill="none" stroke="black" d="M765.569,-784.667C711.105,-776.561 618.591,-753.57 577.835,-689.222"/>
</g>
<!-- vcorelib_math&#45;&gt;vcorelib_io_encode -->
<g id="edge40" class="edge"><title>vcorelib_math&#45;&gt;vcorelib_io_encode</title><style>.edge>path:hover{stroke-width:8}</style>
<path fill="none" stroke="black" d="M795.162,-772.586C785.342,-759.762 771.491,-741.413 759.835,-724.992 748.754,-709.38 747.969,-704.031 735.835,-689.222"/>
</g>
<!-- vcorelib_math&#45;&gt;vcorelib_logging -->
<g id="edge41" class="edge"><title>vcorelib_math&#45;&gt;vcorelib_logging</title><style>.edge>path:hover{stroke-width:8}</style>
<path fill="none" stroke="black" d="M773.835,-687.222C771.43,-667.06 810.532,-628.394 838.78,-603.337"/>
<polygon fill="#f910d8" stroke="black" points="841.194,-605.876 846.417,-596.657 836.586,-600.607 841.194,-605.876"/>
</g>
<!-- vcorelib_math&#45;&gt;vcorelib_task -->
<g id="edge42" class="edge"><title>vcorelib_math&#45;&gt;vcorelib_task</title><style>.edge>path:hover{stroke-width:8}</style>
<path fill="none" stroke="black" d="M831.647,-774.796C840.826,-769.825 851.572,-764.591 861.835,-760.992 939.234,-733.85 976.034,-772.582 1042.84,-724.992 1073.67,-703.024 1065.15,-683.163 1085.84,-651.453 1096.32,-635.385 1108.93,-617.943 1119.1,-604.278"/>
<polygon fill="#f910d8" stroke="black" points="1122.19,-605.995 1125.39,-595.895 1116.59,-601.794 1122.19,-605.995"/>
</g>
<!-- vcorelib_math_analysis_average -->
<g id="node20" class="node"><title>vcorelib_math_analysis_average</title><style>.edge>path:hover{stroke-width:8}</style>
<ellipse fill="#c247b1" stroke="black" cx="993.835" cy="-688.222" rx="39.6962" ry="36.5405"/>
<text text-anchor="middle" x="993.835" y="-702.222" font-family="Helvetica,sans-Serif" font-size="10.00" fill="#ffffff">vcorelib.</text>
<text text-anchor="middle" x="993.835" y="-691.222" font-family="Helvetica,sans-Serif" font-size="10.00" fill="#ffffff">math.</text>
<text text-anchor="middle" x="993.835" y="-680.222" font-family="Helvetica,sans-Serif" font-size="10.00" fill="#ffffff">analysis.</text>
<text text-anchor="middle" x="993.835" y="-669.222" font-family="Helvetica,sans-Serif" font-size="10.00" fill="#ffffff">average</text>
</g>
<!-- vcorelib_math_analysis_rate -->
<g id="node21" class="node"><title>vcorelib_math_analysis_rate</title><style>.edge>path:hover{stroke-width:8}</style>
<ellipse fill="#96408a" stroke="black" cx="1037.84" cy="-578.683" rx="39.6962" ry="36.5405"/>
<text text-anchor="middle" x="1037.84" y="-592.683" font-family="Helvetica,sans-Serif" font-size="10.00" fill="#ffffff">vcorelib.</text>
<text text-anchor="middle" x="1037.84" y="-581.683" font-family="Helvetica,sans-Serif" font-size="10.00" fill="#ffffff">math.</text>
<text text-anchor="middle" x="1037.84" y="-570.683" font-family="Helvetica,sans-Serif" font-size="10.00" fill="#ffffff">analysis.</text>
<text text-anchor="middle" x="1037.84" y="-559.683" font-family="Helvetica,sans-Serif" font-size="10.00" fill="#ffffff">rate</text>
</g>
<!-- vcorelib_math_analysis_average&#45;&gt;vcorelib_math_analysis_rate -->
<g id="edge43" class="edge"><title>vcorelib_math_analysis_average&#45;&gt;vcorelib_math_analysis_rate</title><style>.edge>path:hover{stroke-width:8}</style>
<path fill="none" stroke="black" d="M1007.64,-653.491C1011.61,-643.782 1016,-633.056 1020.17,-622.859"/>
<polygon fill="#c247b1" stroke="black" points="1023.54,-623.875 1024.08,-613.295 1017.06,-621.224 1023.54,-623.875"/>
</g>
<!-- vcorelib_math_time&#45;&gt;vcorelib_io_archive -->
<g id="edge44" class="edge"><title>vcorelib_math_time&#45;&gt;vcorelib_io_archive</title><style>.edge>path:hover{stroke-width:8}</style>
<path fill="none" stroke="black" d="M902.741,-760.921C898.972,-740.869 893.524,-713.289 887.835,-689.222"/>
<path fill="none" stroke="black" d="M887.835,-687.222C885.275,-676.391 839.411,-635.469 806.649,-607.35"/>
<polygon fill="#e505c5" stroke="black" points="808.512,-604.338 798.636,-600.503 803.965,-609.66 808.512,-604.338"/>
</g>
<!-- vcorelib_math_time&#45;&gt;vcorelib_io_cache -->
<g id="edge45" class="edge"><title>vcorelib_math_time&#45;&gt;vcorelib_io_cache</title><style>.edge>path:hover{stroke-width:8}</style>
<path fill="none" stroke="black" d="M887.835,-687.222C880.066,-654.351 907.201,-648.757 912.835,-615.453 918.288,-583.227 932.34,-568.14 912.835,-541.914 892.933,-515.153 802.901,-495.37 746.448,-485.333"/>
<polygon fill="#e505c5" stroke="black" points="746.774,-481.837 736.323,-483.573 745.575,-488.734 746.774,-481.837"/>
</g>
<!-- vcorelib_math_time&#45;&gt;vcorelib_io_decode -->
<g id="edge46" class="edge"><title>vcorelib_math_time&#45;&gt;vcorelib_io_decode</title><style>.edge>path:hover{stroke-width:8}</style>
<path fill="none" stroke="black" d="M879.94,-770.59C873.814,-767.062 867.24,-763.645 860.835,-760.992 740.956,-711.328 647.266,-798.844 577.835,-689.222"/>
</g>
<!-- vcorelib_math_time&#45;&gt;vcorelib_io_encode -->
<g id="edge47" class="edge"><title>vcorelib_math_time&#45;&gt;vcorelib_io_encode</title><style>.edge>path:hover{stroke-width:8}</style>
<path fill="none" stroke="black" d="M879.487,-770.901C873.447,-767.391 867.023,-763.903 860.835,-760.992 817.715,-740.704 797.45,-754.252 759.835,-724.992 744.724,-713.237 747.969,-704.031 735.835,-689.222"/>
</g>
<!-- vcorelib_math_time&#45;&gt;vcorelib_logging -->
<g id="edge48" class="edge"><title>vcorelib_math_time&#45;&gt;vcorelib_logging</title><style>.edge>path:hover{stroke-width:8}</style>
<path fill="none" stroke="black" d="M887.835,-687.222C881.706,-661.29 875.997,-631.54 872.083,-609.913"/>
<polygon fill="#e505c5" stroke="black" points="875.517,-609.23 870.312,-600.002 868.626,-610.461 875.517,-609.23"/>
</g>
<!-- vcorelib_math_time&#45;&gt;vcorelib_math_analysis_rate -->
<g id="edge49" class="edge"><title>vcorelib_math_time&#45;&gt;vcorelib_math_analysis_rate</title><style>.edge>path:hover{stroke-width:8}</style>
<path fill="none" stroke="black" d="M944.163,-781.93C980.548,-773.409 1036.63,-756.173 1075.84,-724.992 1090.82,-713.075 1090.87,-706.14 1099.84,-689.222"/>
<path fill="none" stroke="black" d="M1099.84,-687.222C1113.64,-661.159 1094.97,-632.227 1074.59,-610.943"/>
<polygon fill="#e505c5" stroke="black" points="1076.92,-608.324 1067.36,-603.75 1071.98,-613.285 1076.92,-608.324"/>
</g>
<!-- vcorelib_math_time&#45;&gt;vcorelib_task -->
<g id="edge50" class="edge"><title>vcorelib_math_time&#45;&gt;vcorelib_task</title><style>.edge>path:hover{stroke-width:8}</style>
<path fill="none" stroke="black" d="M1099.84,-687.222C1113.68,-661.09 1124.3,-628.848 1130.75,-606.519"/>
<polygon fill="#e505c5" stroke="black" points="1134.17,-607.293 1133.5,-596.72 1127.43,-605.404 1134.17,-607.293"/>
</g>
<!-- vcorelib_paths&#45;&gt;vcorelib_dict_cache -->
<g id="edge51" class="edge"><title>vcorelib_paths&#45;&gt;vcorelib_dict_cache</title><style>.edge>path:hover{stroke-width:8}</style>
<path fill="none" stroke="black" d="M333.835,-687.222C245.461,-554.949 454.591,-394.917 542.841,-335.57"/>
<polygon fill="#ef06ce" stroke="black" points="544.853,-338.435 551.239,-329.981 540.975,-332.607 544.853,-338.435"/>
</g>
<!-- vcorelib_paths&#45;&gt;vcorelib_dict_codec -->
<g id="edge52" class="edge"><title>vcorelib_paths&#45;&gt;vcorelib_dict_codec</title><style>.edge>path:hover{stroke-width:8}</style>
<path fill="none" stroke="black" d="M333.835,-687.222C277.947,-605.549 282.906,-573.659 257.835,-477.922"/>
<path fill="none" stroke="black" d="M257.835,-475.922C219.951,-381.402 98.9633,-493.373 37.8354,-411.931 -6.63364,-352.684 -39.0405,-358.026 108.835,-187.966 147.726,-143.24 225.962,-183.243 225.835,-123.974"/>
<path fill="none" stroke="black" d="M225.835,-121.974C225.22,-104.431 225.133,-84.9948 225.234,-68.5252"/>
<polygon fill="#ef06ce" stroke="black" points="228.737,-68.2107 225.324,-58.1806 221.737,-68.1497 228.737,-68.2107"/>
</g>
<!-- vcorelib_paths&#45;&gt;vcorelib_dict_config -->
<g id="edge53" class="edge"><title>vcorelib_paths&#45;&gt;vcorelib_dict_config</title><style>.edge>path:hover{stroke-width:8}</style>
<path fill="none" stroke="black" d="M257.835,-475.922C242.09,-415.798 355.703,-454.953 371.835,-394.931"/>
<path fill="none" stroke="black" d="M371.835,-392.931C375.592,-378.953 374.609,-363.256 372.067,-349.429"/>
<polygon fill="#ef06ce" stroke="black" points="375.406,-348.314 369.871,-339.28 368.565,-349.794 375.406,-348.314"/>
</g>
<!-- vcorelib_paths&#45;&gt;vcorelib_io -->
<g id="edge54" class="edge"><title>vcorelib_paths&#45;&gt;vcorelib_io</title><style>.edge>path:hover{stroke-width:8}</style>
<path fill="none" stroke="black" d="M333.835,-687.222C301.322,-638.558 388.244,-634.081 409.835,-579.683"/>
<path fill="none" stroke="black" d="M409.835,-577.683C424.558,-540.591 461.838,-512.29 489.577,-495.469"/>
<polygon fill="#ef06ce" stroke="black" points="491.347,-498.488 498.207,-490.414 487.809,-492.448 491.347,-498.488"/>
</g>
<!-- vcorelib_paths&#45;&gt;vcorelib_io_cache -->
<g id="edge55" class="edge"><title>vcorelib_paths&#45;&gt;vcorelib_io_cache</title><style>.edge>path:hover{stroke-width:8}</style>
<path fill="none" stroke="black" d="M447.835,-788.983C506.737,-695.697 401.015,-626.508 471.835,-541.914 483.648,-527.804 590.45,-502.132 653.603,-487.971"/>
<polygon fill="#ef06ce" stroke="black" points="654.721,-491.308 663.721,-485.717 653.199,-484.475 654.721,-491.308"/>
</g>
<!-- vcorelib_paths&#45;&gt;vcorelib_io_types -->
<g id="edge56" class="edge"><title>vcorelib_paths&#45;&gt;vcorelib_io_types</title><style>.edge>path:hover{stroke-width:8}</style>
<path fill="none" stroke="black" d="M447.835,-788.983C461.808,-766.853 477.859,-742.212 490.515,-722.956"/>
<polygon fill="#ef06ce" stroke="black" points="493.495,-724.793 496.071,-714.516 487.649,-720.944 493.495,-724.793"/>
</g>
<!-- vcorelib_paths&#45;&gt;vcorelib_schemas_base -->
<g id="edge57" class="edge"><title>vcorelib_paths&#45;&gt;vcorelib_schemas_base</title><style>.edge>path:hover{stroke-width:8}</style>
<path fill="none" stroke="black" d="M257.835,-475.922C247.406,-431.905 247.561,-420.317 238.835,-375.931 237.169,-367.456 235.344,-358.358 233.601,-349.758"/>
<polygon fill="#ef06ce" stroke="black" points="237.031,-349.06 231.607,-339.959 230.171,-350.456 237.031,-349.06"/>
</g>
<!-- vcorelib_task_subprocess_run -->
<g id="node34" class="node"><title>vcorelib_task_subprocess_run</title><style>.edge>path:hover{stroke-width:8}</style>
<ellipse fill="#a44697" stroke="black" cx="180.835" cy="-578.683" rx="49.4949" ry="36.5405"/>
<text text-anchor="middle" x="180.835" y="-592.683" font-family="Helvetica,sans-Serif" font-size="10.00" fill="#ffffff">vcorelib.</text>
<text text-anchor="middle" x="180.835" y="-581.683" font-family="Helvetica,sans-Serif" font-size="10.00" fill="#ffffff">task.</text>
<text text-anchor="middle" x="180.835" y="-570.683" font-family="Helvetica,sans-Serif" font-size="10.00" fill="#ffffff">subprocess.</text>
<text text-anchor="middle" x="180.835" y="-559.683" font-family="Helvetica,sans-Serif" font-size="10.00" fill="#ffffff">run</text>
</g>
<!-- vcorelib_paths&#45;&gt;vcorelib_task_subprocess_run -->
<g id="edge58" class="edge"><title>vcorelib_paths&#45;&gt;vcorelib_task_subprocess_run</title><style>.edge>path:hover{stroke-width:8}</style>
<path fill="none" stroke="black" d="M207.544,-866.627C280.088,-856.503 422.052,-831.818 447.835,-790.983"/>
<path fill="none" stroke="black" d="M447.835,-788.983C483.781,-732.054 371.238,-745.205 333.835,-689.222"/>
<path fill="none" stroke="black" d="M333.835,-687.222C319.959,-666.454 267.494,-631.803 227.839,-607.46"/>
<polygon fill="#ef06ce" stroke="black" points="229.444,-604.34 219.083,-602.124 225.801,-610.317 229.444,-604.34"/>
</g>
<!-- vcorelib_schemas&#45;&gt;vcorelib_dict_codec -->
<g id="edge59" class="edge"><title>vcorelib_schemas&#45;&gt;vcorelib_dict_codec</title><style>.edge>path:hover{stroke-width:8}</style>
<path fill="none" stroke="black" d="M180.493,-199.317C200.285,-182.685 225.869,-155.153 225.835,-123.974"/>
</g>
<!-- vcorelib_schemas_base&#45;&gt;vcorelib_dict_codec -->
<g id="edge60" class="edge"><title>vcorelib_schemas_base&#45;&gt;vcorelib_dict_codec</title><style>.edge>path:hover{stroke-width:8}</style>
<path fill="none" stroke="black" d="M225.854,-281.9C225.874,-245.496 225.895,-179.99 225.835,-123.974"/>
</g>
<!-- vcorelib_schemas_base&#45;&gt;vcorelib_schemas -->
<g id="edge61" class="edge"><title>vcorelib_schemas_base&#45;&gt;vcorelib_schemas</title><style>.edge>path:hover{stroke-width:8}</style>
<path fill="none" stroke="black" d="M207.254,-284.805C198.18,-272.531 187.248,-257.742 177.975,-245.199"/>
<polygon fill="#c823b0" stroke="black" points="180.622,-242.893 171.863,-236.932 174.993,-247.054 180.622,-242.893"/>
</g>
<!-- vcorelib_schemas_mixins -->
<g id="node27" class="node"><title>vcorelib_schemas_mixins</title><style>.edge>path:hover{stroke-width:8}</style>
<ellipse fill="#b03a9f" stroke="black" cx="295.835" cy="-216.957" rx="41.9398" ry="28.9828"/>
<text text-anchor="middle" x="295.835" y="-225.457" font-family="Helvetica,sans-Serif" font-size="10.00" fill="#ffffff">vcorelib.</text>
<text text-anchor="middle" x="295.835" y="-214.457" font-family="Helvetica,sans-Serif" font-size="10.00" fill="#ffffff">schemas.</text>
<text text-anchor="middle" x="295.835" y="-203.457" font-family="Helvetica,sans-Serif" font-size="10.00" fill="#ffffff">mixins</text>
</g>
<!-- vcorelib_schemas_base&#45;&gt;vcorelib_schemas_mixins -->
<g id="edge62" class="edge"><title>vcorelib_schemas_base&#45;&gt;vcorelib_schemas_mixins</title><style>.edge>path:hover{stroke-width:8}</style>
<path fill="none" stroke="black" d="M244.963,-284.805C252.834,-274.462 262.063,-262.335 270.485,-251.269"/>
<polygon fill="#c823b0" stroke="black" points="273.46,-253.139 276.731,-243.061 267.89,-248.899 273.46,-253.139"/>
</g>
<!-- vcorelib_schemas_mixins&#45;&gt;vcorelib_dict_codec -->
<g id="edge63" class="edge"><title>vcorelib_schemas_mixins&#45;&gt;vcorelib_dict_codec</title><style>.edge>path:hover{stroke-width:8}</style>
<path fill="none" stroke="black" d="M267.785,-195.486C248.319,-178.717 225.866,-153.072 225.835,-123.974"/>
</g>
<!-- vcorelib_script -->
<g id="node28" class="node"><title>vcorelib_script</title><style>.edge>path:hover{stroke-width:8}</style>
<ellipse fill="#c247b1" stroke="black" cx="1516.84" cy="-955.966" rx="37.4533" ry="21.4286"/>
<text text-anchor="middle" x="1516.84" y="-958.966" font-family="Helvetica,sans-Serif" font-size="10.00" fill="#ffffff">vcorelib.</text>
<text text-anchor="middle" x="1516.84" y="-947.966" font-family="Helvetica,sans-Serif" font-size="10.00" fill="#ffffff">script</text>
</g>
<!-- vcorelib_script&#45;&gt;vcorelib_task_manager -->
<g id="edge64" class="edge"><title>vcorelib_script&#45;&gt;vcorelib_task_manager</title><style>.edge>path:hover{stroke-width:8}</style>
<path fill="none" stroke="black" d="M1491.53,-940.025C1454.69,-918.048 1390.95,-879.046 1393.84,-873.975"/>
</g>
<!-- vcorelib_target -->
<g id="node29" class="node"><title>vcorelib_target</title><style>.edge>path:hover{stroke-width:8}</style>
<ellipse fill="#db2fc2" stroke="black" cx="1237.84" cy="-955.966" rx="37.4533" ry="21.4286"/>
<text text-anchor="middle" x="1237.84" y="-958.966" font-family="Helvetica,sans-Serif" font-size="10.00" fill="#ffffff">vcorelib.</text>
<text text-anchor="middle" x="1237.84" y="-947.966" font-family="Helvetica,sans-Serif" font-size="10.00" fill="#ffffff">target</text>
</g>
<!-- vcorelib_target&#45;&gt;vcorelib_task -->
<g id="edge65" class="edge"><title>vcorelib_target&#45;&gt;vcorelib_task</title><style>.edge>path:hover{stroke-width:8}</style>
<path fill="none" stroke="black" d="M1245.12,-934.932C1262.37,-883.909 1300.51,-746.395 1248.84,-651.453 1234.1,-624.375 1204.26,-605.953 1179.23,-594.558"/>
<polygon fill="#db2fc2" stroke="black" points="1180.48,-591.286 1169.91,-590.532 1177.71,-597.712 1180.48,-591.286"/>
</g>
<!-- vcorelib_target&#45;&gt;vcorelib_task_manager -->
<g id="edge66" class="edge"><title>vcorelib_target&#45;&gt;vcorelib_task_manager</title><style>.edge>path:hover{stroke-width:8}</style>
<path fill="none" stroke="black" d="M1262.49,-939.752C1269.63,-935.492 1277.48,-930.944 1284.84,-926.975 1332.24,-901.392 1367.23,-920.813 1393.84,-873.975"/>
</g>
<!-- vcorelib_target_resolver -->
<g id="node30" class="node"><title>vcorelib_target_resolver</title><style>.edge>path:hover{stroke-width:8}</style>
<ellipse fill="#b83da6" stroke="black" cx="1330.84" cy="-955.966" rx="37.4533" ry="28.9828"/>
<text text-anchor="middle" x="1330.84" y="-964.466" font-family="Helvetica,sans-Serif" font-size="10.00" fill="#ffffff">vcorelib.</text>
<text text-anchor="middle" x="1330.84" y="-953.466" font-family="Helvetica,sans-Serif" font-size="10.00" fill="#ffffff">target.</text>
<text text-anchor="middle" x="1330.84" y="-942.466" font-family="Helvetica,sans-Serif" font-size="10.00" fill="#ffffff">resolver</text>
</g>
<!-- vcorelib_target_resolver&#45;&gt;vcorelib_task_manager -->
<g id="edge67" class="edge"><title>vcorelib_target_resolver&#45;&gt;vcorelib_task_manager</title><style>.edge>path:hover{stroke-width:8}</style>
<path fill="none" stroke="black" d="M1351.79,-931.804C1365.09,-916.265 1381.96,-894.886 1393.84,-873.975"/>
</g>
</g>
</svg>
