<?xml version="1.0" encoding="UTF-8" standalone="no"?>
<!DOCTYPE svg PUBLIC "-//W3C//DTD SVG 1.1//EN"
 "http://www.w3.org/Graphics/SVG/1.1/DTD/svg11.dtd">
<!-- Generated by graphviz version 2.38.0 (20140413.2041)
 -->
<!-- Title: G Pages: 1 -->
<svg width="1051pt" height="791pt"
 viewBox="0.00 0.00 1051.46 791.44" xmlns="http://www.w3.org/2000/svg" xmlns:xlink="http://www.w3.org/1999/xlink">
<g id="graph0" class="graph" transform="scale(1 1) rotate(0) translate(4 787.436)">
<title>G</title><style>.edge>path:hover{stroke-width:8}</style>
<polygon fill="white" stroke="none" points="-4,4 -4,-787.436 1047.46,-787.436 1047.46,4 -4,4"/>
<!-- tomli -->
<g id="node1" class="node"><title>tomli</title><style>.edge>path:hover{stroke-width:8}</style>
<ellipse fill="#b65353" stroke="black" cx="493.984" cy="-671.453" rx="27" ry="18"/>
<text text-anchor="middle" x="493.984" y="-668.953" font-family="Helvetica,sans-Serif" font-size="10.00" fill="#ffffff">tomli</text>
</g>
<!-- vcorelib_io_decode -->
<g id="node9" class="node"><title>vcorelib_io_decode</title><style>.edge>path:hover{stroke-width:8}</style>
<ellipse fill="#303091" stroke="black" cx="442.984" cy="-384.94" rx="37.4533" ry="28.9828"/>
<text text-anchor="middle" x="442.984" y="-393.44" font-family="Helvetica,sans-Serif" font-size="10.00" fill="#ffffff">vcorelib.</text>
<text text-anchor="middle" x="442.984" y="-382.44" font-family="Helvetica,sans-Serif" font-size="10.00" fill="#ffffff">io.</text>
<text text-anchor="middle" x="442.984" y="-371.44" font-family="Helvetica,sans-Serif" font-size="10.00" fill="#ffffff">decode</text>
</g>
<!-- tomli&#45;&gt;vcorelib_io_decode -->
<g id="edge1" class="edge"><title>tomli&#45;&gt;vcorelib_io_decode</title><style>.edge>path:hover{stroke-width:8}</style>
<path fill="none" stroke="black" d="M490.946,-653.507C482.922,-608.745 461.011,-486.508 449.795,-423.939"/>
<polygon fill="#b65353" stroke="black" points="453.235,-423.293 448.026,-414.068 446.345,-424.529 453.235,-423.293"/>
</g>
<!-- tomli_w -->
<g id="node2" class="node"><title>tomli_w</title><style>.edge>path:hover{stroke-width:8}</style>
<ellipse fill="#40c040" stroke="black" cx="360.984" cy="-671.453" rx="29.3664" ry="18"/>
<text text-anchor="middle" x="360.984" y="-668.953" font-family="Helvetica,sans-Serif" font-size="10.00" fill="#000000">tomli_w</text>
</g>
<!-- vcorelib_io_encode -->
<g id="node10" class="node"><title>vcorelib_io_encode</title><style>.edge>path:hover{stroke-width:8}</style>
<ellipse fill="#303091" stroke="black" cx="349.984" cy="-384.94" rx="37.4533" ry="28.9828"/>
<text text-anchor="middle" x="349.984" y="-393.44" font-family="Helvetica,sans-Serif" font-size="10.00" fill="#ffffff">vcorelib.</text>
<text text-anchor="middle" x="349.984" y="-382.44" font-family="Helvetica,sans-Serif" font-size="10.00" fill="#ffffff">io.</text>
<text text-anchor="middle" x="349.984" y="-371.44" font-family="Helvetica,sans-Serif" font-size="10.00" fill="#ffffff">encode</text>
</g>
<!-- tomli_w&#45;&gt;vcorelib_io_encode -->
<g id="edge2" class="edge"><title>tomli_w&#45;&gt;vcorelib_io_encode</title><style>.edge>path:hover{stroke-width:8}</style>
<path fill="none" stroke="black" d="M359.353,-653.253C358.173,-636.765 357.349,-611.236 360.984,-589.462"/>
</g>
<!-- vcorelib_dict -->
<g id="node3" class="node"><title>vcorelib_dict</title><style>.edge>path:hover{stroke-width:8}</style>
<ellipse fill="#1010f9" stroke="black" cx="417.984" cy="-754.444" rx="40.7358" ry="18"/>
<text text-anchor="middle" x="417.984" y="-751.944" font-family="Helvetica,sans-Serif" font-size="10.00" fill="#ffffff">vcorelib.dict</text>
</g>
<!-- vcorelib_io -->
<g id="node6" class="node"><title>vcorelib_io</title><style>.edge>path:hover{stroke-width:8}</style>
<ellipse fill="#0404bd" stroke="black" cx="182.984" cy="-290.957" rx="35.8171" ry="18"/>
<text text-anchor="middle" x="182.984" y="-288.457" font-family="Helvetica,sans-Serif" font-size="10.00" fill="#ffffff">vcorelib.io</text>
</g>
<!-- vcorelib_dict&#45;&gt;vcorelib_io -->
<g id="edge3" class="edge"><title>vcorelib_dict&#45;&gt;vcorelib_io</title><style>.edge>path:hover{stroke-width:8}</style>
<path fill="none" stroke="black" d="M116.984,-485.701C109.71,-440.347 140.38,-431.731 143.984,-385.94"/>
<path fill="none" stroke="black" d="M143.984,-383.94C145.873,-359.938 157.179,-334.922 167.135,-317.048"/>
<polygon fill="#1010f9" stroke="black" points="170.164,-318.801 172.161,-308.395 164.111,-315.284 170.164,-318.801"/>
</g>
<!-- vcorelib_io_cache -->
<g id="node8" class="node"><title>vcorelib_io_cache</title><style>.edge>path:hover{stroke-width:8}</style>
<ellipse fill="#373781" stroke="black" cx="535.984" cy="-290.957" rx="37.4533" ry="28.9828"/>
<text text-anchor="middle" x="535.984" y="-299.457" font-family="Helvetica,sans-Serif" font-size="10.00" fill="#ffffff">vcorelib.</text>
<text text-anchor="middle" x="535.984" y="-288.457" font-family="Helvetica,sans-Serif" font-size="10.00" fill="#ffffff">io.</text>
<text text-anchor="middle" x="535.984" y="-277.457" font-family="Helvetica,sans-Serif" font-size="10.00" fill="#ffffff">cache</text>
</g>
<!-- vcorelib_dict&#45;&gt;vcorelib_io_cache -->
<g id="edge4" class="edge"><title>vcorelib_dict&#45;&gt;vcorelib_io_cache</title><style>.edge>path:hover{stroke-width:8}</style>
<path fill="none" stroke="black" d="M795.984,-587.462C794.7,-558.377 806.195,-552.336 809.984,-523.47 816.326,-475.15 813.872,-462.653 814.984,-413.931 815.571,-388.168 831.04,-376.105 814.984,-355.948 786.541,-320.244 655.236,-302.829 583.352,-295.841"/>
<polygon fill="#1010f9" stroke="black" points="583.481,-292.338 573.197,-294.885 582.824,-299.307 583.481,-292.338"/>
</g>
<!-- vcorelib_dict&#45;&gt;vcorelib_io_decode -->
<g id="edge5" class="edge"><title>vcorelib_dict&#45;&gt;vcorelib_io_decode</title><style>.edge>path:hover{stroke-width:8}</style>
<path fill="none" stroke="black" d="M419.156,-736.212C422.955,-680.372 434.988,-503.473 440.356,-424.574"/>
<polygon fill="#1010f9" stroke="black" points="443.88,-424.329 441.067,-414.115 436.896,-423.854 443.88,-424.329"/>
</g>
<!-- vcorelib_dict&#45;&gt;vcorelib_io_encode -->
<g id="edge6" class="edge"><title>vcorelib_dict&#45;&gt;vcorelib_io_encode</title><style>.edge>path:hover{stroke-width:8}</style>
<path fill="none" stroke="black" d="M387.53,-742.142C365.207,-732.057 336.529,-714.908 322.984,-689.453 300.651,-647.483 353.156,-636.354 360.984,-589.462"/>
<path fill="none" stroke="black" d="M360.984,-587.462C367.733,-530.648 361.397,-464.324 355.923,-423.735"/>
<polygon fill="#1010f9" stroke="black" points="359.377,-423.161 354.522,-413.744 352.444,-424.133 359.377,-423.161"/>
</g>
<!-- vcorelib_io_types -->
<g id="node11" class="node"><title>vcorelib_io_types</title><style>.edge>path:hover{stroke-width:8}</style>
<ellipse fill="#0505e5" stroke="black" cx="219.984" cy="-486.701" rx="37.4533" ry="28.9828"/>
<text text-anchor="middle" x="219.984" y="-495.201" font-family="Helvetica,sans-Serif" font-size="10.00" fill="#ffffff">vcorelib.</text>
<text text-anchor="middle" x="219.984" y="-484.201" font-family="Helvetica,sans-Serif" font-size="10.00" fill="#ffffff">io.</text>
<text text-anchor="middle" x="219.984" y="-473.201" font-family="Helvetica,sans-Serif" font-size="10.00" fill="#ffffff">types</text>
</g>
<!-- vcorelib_dict&#45;&gt;vcorelib_io_types -->
<g id="edge7" class="edge"><title>vcorelib_dict&#45;&gt;vcorelib_io_types</title><style>.edge>path:hover{stroke-width:8}</style>
<path fill="none" stroke="black" d="M157.984,-670.453C123.105,-624.475 163.231,-557.634 193.219,-518.82"/>
<polygon fill="#1010f9" stroke="black" points="195.964,-520.991 199.433,-510.98 190.478,-516.642 195.964,-520.991"/>
</g>
<!-- vcorelib_math_time -->
<g id="node14" class="node"><title>vcorelib_math_time</title><style>.edge>path:hover{stroke-width:8}</style>
<ellipse fill="#0505e5" stroke="black" cx="665.984" cy="-588.462" rx="37.4533" ry="28.9828"/>
<text text-anchor="middle" x="665.984" y="-596.962" font-family="Helvetica,sans-Serif" font-size="10.00" fill="#ffffff">vcorelib.</text>
<text text-anchor="middle" x="665.984" y="-585.962" font-family="Helvetica,sans-Serif" font-size="10.00" fill="#ffffff">math.</text>
<text text-anchor="middle" x="665.984" y="-574.962" font-family="Helvetica,sans-Serif" font-size="10.00" fill="#ffffff">time</text>
</g>
<!-- vcorelib_dict&#45;&gt;vcorelib_math_time -->
<g id="edge8" class="edge"><title>vcorelib_dict&#45;&gt;vcorelib_math_time</title><style>.edge>path:hover{stroke-width:8}</style>
<path fill="none" stroke="black" d="M458.629,-752.658C551.508,-749.757 773.079,-736.162 795.984,-672.453"/>
<path fill="none" stroke="black" d="M795.984,-670.453C810.464,-630.175 755.342,-608.528 712.418,-598.007"/>
<polygon fill="#1010f9" stroke="black" points="713.18,-594.591 702.648,-595.748 711.602,-601.411 713.18,-594.591"/>
</g>
<!-- vcorelib_paths_info_cache -->
<g id="node16" class="node"><title>vcorelib_paths_info_cache</title><style>.edge>path:hover{stroke-width:8}</style>
<ellipse fill="#3d3d8f" stroke="black" cx="118.984" cy="-28.9914" rx="45.011" ry="28.9828"/>
<text text-anchor="middle" x="118.984" y="-37.4914" font-family="Helvetica,sans-Serif" font-size="10.00" fill="#ffffff">vcorelib.</text>
<text text-anchor="middle" x="118.984" y="-26.4914" font-family="Helvetica,sans-Serif" font-size="10.00" fill="#ffffff">paths.</text>
<text text-anchor="middle" x="118.984" y="-15.4914" font-family="Helvetica,sans-Serif" font-size="10.00" fill="#ffffff">info_cache</text>
</g>
<!-- vcorelib_dict&#45;&gt;vcorelib_paths_info_cache -->
<g id="edge9" class="edge"><title>vcorelib_dict&#45;&gt;vcorelib_paths_info_cache</title><style>.edge>path:hover{stroke-width:8}</style>
<path fill="none" stroke="black" d="M377.399,-752.511C320.189,-748.934 216.315,-733.767 157.984,-672.453"/>
<path fill="none" stroke="black" d="M157.984,-670.453C100.608,-610.143 130.165,-569.893 116.984,-487.701"/>
<path fill="none" stroke="black" d="M116.984,-485.701C110.298,-450.647 94.5296,-446.946 80.9837,-413.931 41.0824,-316.682 24.4076,-292.791 7.98371,-188.966 3.95727,-163.512 -7.1692,-151.827 7.98371,-130.983 38.4794,-89.0329 123.867,-146.615 118.984,-94.9828"/>
<path fill="none" stroke="black" d="M118.984,-93.9828C117.953,-85.6743 117.529,-76.7122 117.444,-68.2013"/>
<polygon fill="#1010f9" stroke="black" points="120.945,-68.1339 117.491,-58.1179 113.945,-68.1016 120.945,-68.1339"/>
</g>
<!-- vcorelib_task -->
<g id="node20" class="node"><title>vcorelib_task</title><style>.edge>path:hover{stroke-width:8}</style>
<ellipse fill="#1515c1" stroke="black" cx="763.984" cy="-384.94" rx="42.2678" ry="18"/>
<text text-anchor="middle" x="763.984" y="-382.44" font-family="Helvetica,sans-Serif" font-size="10.00" fill="#ffffff">vcorelib.task</text>
</g>
<!-- vcorelib_dict&#45;&gt;vcorelib_task -->
<g id="edge10" class="edge"><title>vcorelib_dict&#45;&gt;vcorelib_task</title><style>.edge>path:hover{stroke-width:8}</style>
<path fill="none" stroke="black" d="M795.984,-587.462C794.029,-543.166 804.425,-531.228 795.984,-487.701"/>
<path fill="none" stroke="black" d="M795.984,-485.701C791.059,-460.307 781.731,-432.341 774.411,-412.497"/>
<polygon fill="#1010f9" stroke="black" points="777.602,-411.039 770.801,-402.916 771.052,-413.508 777.602,-411.039"/>
</g>
<!-- vcorelib_task_dict_melder -->
<g id="node21" class="node"><title>vcorelib_task_dict_melder</title><style>.edge>path:hover{stroke-width:8}</style>
<ellipse fill="#4646a4" stroke="black" cx="730.984" cy="-486.701" rx="37.4533" ry="36.5405"/>
<text text-anchor="middle" x="730.984" y="-500.701" font-family="Helvetica,sans-Serif" font-size="10.00" fill="#ffffff">vcorelib.</text>
<text text-anchor="middle" x="730.984" y="-489.701" font-family="Helvetica,sans-Serif" font-size="10.00" fill="#ffffff">task.</text>
<text text-anchor="middle" x="730.984" y="-478.701" font-family="Helvetica,sans-Serif" font-size="10.00" fill="#ffffff">dict.</text>
<text text-anchor="middle" x="730.984" y="-467.701" font-family="Helvetica,sans-Serif" font-size="10.00" fill="#ffffff">melder</text>
</g>
<!-- vcorelib_dict&#45;&gt;vcorelib_task_dict_melder -->
<g id="edge11" class="edge"><title>vcorelib_dict&#45;&gt;vcorelib_task_dict_melder</title><style>.edge>path:hover{stroke-width:8}</style>
<path fill="none" stroke="black" d="M795.984,-670.453C808.162,-636.579 797.571,-625.423 795.984,-589.462"/>
<path fill="none" stroke="black" d="M795.984,-587.462C794.877,-562.389 780.201,-538.661 765.075,-520.641"/>
<polygon fill="#1010f9" stroke="black" points="767.38,-517.963 758.141,-512.778 762.131,-522.593 767.38,-517.963"/>
</g>
<!-- vcorelib_task_manager -->
<g id="node22" class="node"><title>vcorelib_task_manager</title><style>.edge>path:hover{stroke-width:8}</style>
<ellipse fill="#3d3d8f" stroke="black" cx="912.984" cy="-588.462" rx="38.3684" ry="28.9828"/>
<text text-anchor="middle" x="912.984" y="-596.962" font-family="Helvetica,sans-Serif" font-size="10.00" fill="#ffffff">vcorelib.</text>
<text text-anchor="middle" x="912.984" y="-585.962" font-family="Helvetica,sans-Serif" font-size="10.00" fill="#ffffff">task.</text>
<text text-anchor="middle" x="912.984" y="-574.962" font-family="Helvetica,sans-Serif" font-size="10.00" fill="#ffffff">manager</text>
</g>
<!-- vcorelib_dict&#45;&gt;vcorelib_task_manager -->
<g id="edge12" class="edge"><title>vcorelib_dict&#45;&gt;vcorelib_task_manager</title><style>.edge>path:hover{stroke-width:8}</style>
<path fill="none" stroke="black" d="M457.696,-750.478C571.399,-741.517 891.441,-712.838 912.984,-672.453"/>
<path fill="none" stroke="black" d="M912.984,-670.453C919.907,-657.475 921.172,-641.579 920.247,-627.318"/>
<polygon fill="#1010f9" stroke="black" points="923.721,-626.886 919.236,-617.287 916.756,-627.588 923.721,-626.886"/>
</g>
<!-- vcorelib_dict_cache -->
<g id="node4" class="node"><title>vcorelib_dict_cache</title><style>.edge>path:hover{stroke-width:8}</style>
<ellipse fill="#3838a8" stroke="black" cx="183.984" cy="-159.974" rx="37.4533" ry="28.9828"/>
<text text-anchor="middle" x="183.984" y="-168.474" font-family="Helvetica,sans-Serif" font-size="10.00" fill="#ffffff">vcorelib.</text>
<text text-anchor="middle" x="183.984" y="-157.474" font-family="Helvetica,sans-Serif" font-size="10.00" fill="#ffffff">dict.</text>
<text text-anchor="middle" x="183.984" y="-146.474" font-family="Helvetica,sans-Serif" font-size="10.00" fill="#ffffff">cache</text>
</g>
<!-- vcorelib_dict_cache&#45;&gt;vcorelib_paths_info_cache -->
<g id="edge13" class="edge"><title>vcorelib_dict_cache&#45;&gt;vcorelib_paths_info_cache</title><style>.edge>path:hover{stroke-width:8}</style>
<path fill="none" stroke="black" d="M153.694,-142.325C137.947,-131.35 121.462,-115.26 118.984,-94.9828"/>
</g>
<!-- vcorelib_dict_config -->
<g id="node5" class="node"><title>vcorelib_dict_config</title><style>.edge>path:hover{stroke-width:8}</style>
<ellipse fill="#404096" stroke="black" cx="53.9837" cy="-159.974" rx="37.4533" ry="28.9828"/>
<text text-anchor="middle" x="53.9837" y="-168.474" font-family="Helvetica,sans-Serif" font-size="10.00" fill="#ffffff">vcorelib.</text>
<text text-anchor="middle" x="53.9837" y="-157.474" font-family="Helvetica,sans-Serif" font-size="10.00" fill="#ffffff">dict.</text>
<text text-anchor="middle" x="53.9837" y="-146.474" font-family="Helvetica,sans-Serif" font-size="10.00" fill="#ffffff">config</text>
</g>
<!-- vcorelib_io&#45;&gt;vcorelib_dict_cache -->
<g id="edge14" class="edge"><title>vcorelib_io&#45;&gt;vcorelib_dict_cache</title><style>.edge>path:hover{stroke-width:8}</style>
<path fill="none" stroke="black" d="M187.864,-273.007C191.134,-260.202 194.864,-242.129 194.984,-225.966"/>
</g>
<!-- vcorelib_io&#45;&gt;vcorelib_dict_config -->
<g id="edge15" class="edge"><title>vcorelib_io&#45;&gt;vcorelib_dict_config</title><style>.edge>path:hover{stroke-width:8}</style>
<path fill="none" stroke="black" d="M172.034,-273.62C162.496,-259.939 147.893,-240.253 132.984,-224.966 119.592,-211.234 103.334,-197.629 89.0563,-186.518"/>
<polygon fill="#0404bd" stroke="black" points="90.9823,-183.584 80.9153,-180.282 86.7256,-189.141 90.9823,-183.584"/>
</g>
<!-- vcorelib_io&#45;&gt;vcorelib_paths_info_cache -->
<g id="edge16" class="edge"><title>vcorelib_io&#45;&gt;vcorelib_paths_info_cache</title><style>.edge>path:hover{stroke-width:8}</style>
<path fill="none" stroke="black" d="M196.056,-273.975C219.346,-243.453 262.645,-175.912 229.984,-130.983 199.488,-89.0329 125.275,-146.463 118.984,-94.9828"/>
</g>
<!-- vcorelib_io_archive -->
<g id="node7" class="node"><title>vcorelib_io_archive</title><style>.edge>path:hover{stroke-width:8}</style>
<ellipse fill="#3535a1" stroke="black" cx="535.984" cy="-384.94" rx="37.4533" ry="28.9828"/>
<text text-anchor="middle" x="535.984" y="-393.44" font-family="Helvetica,sans-Serif" font-size="10.00" fill="#ffffff">vcorelib.</text>
<text text-anchor="middle" x="535.984" y="-382.44" font-family="Helvetica,sans-Serif" font-size="10.00" fill="#ffffff">io.</text>
<text text-anchor="middle" x="535.984" y="-371.44" font-family="Helvetica,sans-Serif" font-size="10.00" fill="#ffffff">archive</text>
</g>
<!-- vcorelib_io_archive&#45;&gt;vcorelib_io_cache -->
<g id="edge17" class="edge"><title>vcorelib_io_archive&#45;&gt;vcorelib_io_cache</title><style>.edge>path:hover{stroke-width:8}</style>
<path fill="none" stroke="black" d="M535.984,-355.842C535.984,-347.804 535.984,-338.902 535.984,-330.359"/>
<polygon fill="#3535a1" stroke="black" points="539.484,-330.199 535.984,-320.199 532.484,-330.199 539.484,-330.199"/>
</g>
<!-- vcorelib_io_decode&#45;&gt;vcorelib_io -->
<g id="edge18" class="edge"><title>vcorelib_io_decode&#45;&gt;vcorelib_io</title><style>.edge>path:hover{stroke-width:8}</style>
<path fill="none" stroke="black" d="M414.746,-365.613C408.699,-362.121 402.243,-358.702 395.984,-355.948 338.889,-330.827 269.032,-311.928 225.256,-301.403"/>
<polygon fill="#303091" stroke="black" points="225.788,-297.932 215.251,-299.034 224.175,-304.744 225.788,-297.932"/>
</g>
<!-- vcorelib_io_encode&#45;&gt;vcorelib_io -->
<g id="edge19" class="edge"><title>vcorelib_io_encode&#45;&gt;vcorelib_io</title><style>.edge>path:hover{stroke-width:8}</style>
<path fill="none" stroke="black" d="M319.741,-367.282C290.183,-351.002 245.344,-326.305 215.145,-309.671"/>
<polygon fill="#303091" stroke="black" points="216.724,-306.545 206.276,-304.786 213.347,-312.677 216.724,-306.545"/>
</g>
<!-- vcorelib_io_types&#45;&gt;vcorelib_dict_cache -->
<g id="edge20" class="edge"><title>vcorelib_io_types&#45;&gt;vcorelib_dict_cache</title><style>.edge>path:hover{stroke-width:8}</style>
<path fill="none" stroke="black" d="M118.984,-289.957C123.879,-275.74 127.178,-272.42 137.984,-261.966 159.518,-241.131 194.762,-255.928 194.984,-225.966"/>
<path fill="none" stroke="black" d="M194.984,-224.966C195.048,-216.296 194.081,-207.061 192.696,-198.381"/>
<polygon fill="#0505e5" stroke="black" points="196.136,-197.735 190.916,-188.515 189.247,-198.978 196.136,-197.735"/>
</g>
<!-- vcorelib_io_types&#45;&gt;vcorelib_dict_config -->
<g id="edge21" class="edge"><title>vcorelib_io_types&#45;&gt;vcorelib_dict_config</title><style>.edge>path:hover{stroke-width:8}</style>
<path fill="none" stroke="black" d="M193.106,-465.962C167.982,-447.245 133.772,-420.97 129.984,-413.931 104.186,-366.002 101.263,-343.422 118.984,-291.957"/>
<path fill="none" stroke="black" d="M118.984,-289.957C126.228,-262.454 125.476,-253.655 118.984,-225.966"/>
<path fill="none" stroke="black" d="M118.984,-224.966C115.217,-208.904 103.752,-195.317 91.4774,-184.851"/>
<polygon fill="#0505e5" stroke="black" points="93.3798,-181.893 83.3671,-178.429 89.0344,-187.381 93.3798,-181.893"/>
</g>
<!-- vcorelib_io_types&#45;&gt;vcorelib_io -->
<g id="edge22" class="edge"><title>vcorelib_io_types&#45;&gt;vcorelib_io</title><style>.edge>path:hover{stroke-width:8}</style>
<path fill="none" stroke="black" d="M192.15,-466.729C169.39,-448.678 141.353,-419.367 143.984,-385.94"/>
</g>
<!-- vcorelib_io_types&#45;&gt;vcorelib_io_archive -->
<g id="edge23" class="edge"><title>vcorelib_io_types&#45;&gt;vcorelib_io_archive</title><style>.edge>path:hover{stroke-width:8}</style>
<path fill="none" stroke="black" d="M244.877,-464.913C252.794,-459.246 261.872,-453.651 270.984,-449.931 361.898,-412.81 396.75,-447.641 488.984,-413.931 492.443,-412.667 495.933,-411.143 499.365,-409.468"/>
<polygon fill="#0505e5" stroke="black" points="501.059,-412.531 508.252,-404.752 497.778,-406.347 501.059,-412.531"/>
</g>
<!-- vcorelib_io_types&#45;&gt;vcorelib_io_cache -->
<g id="edge24" class="edge"><title>vcorelib_io_types&#45;&gt;vcorelib_io_cache</title><style>.edge>path:hover{stroke-width:8}</style>
<path fill="none" stroke="black" d="M233.665,-459.247C245.46,-437.978 263.889,-408.098 284.984,-385.94"/>
<path fill="none" stroke="black" d="M284.984,-383.94C295.351,-373.05 291.762,-364.707 303.984,-355.948 359.312,-316.299 438.175,-301.199 488.212,-295.459"/>
<polygon fill="#0505e5" stroke="black" points="488.86,-298.91 498.433,-294.371 488.119,-291.95 488.86,-298.91"/>
</g>
<!-- vcorelib_io_types&#45;&gt;vcorelib_io_decode -->
<g id="edge25" class="edge"><title>vcorelib_io_types&#45;&gt;vcorelib_io_decode</title><style>.edge>path:hover{stroke-width:8}</style>
<path fill="none" stroke="black" d="M245.429,-465.382C253.292,-459.797 262.203,-454.13 270.984,-449.931 323.141,-424.991 342.934,-436.911 395.984,-413.931 399.219,-412.53 402.504,-410.946 405.757,-409.262"/>
<polygon fill="#0505e5" stroke="black" points="407.684,-412.198 414.77,-404.322 404.319,-406.06 407.684,-412.198"/>
</g>
<!-- vcorelib_io_types&#45;&gt;vcorelib_io_encode -->
<g id="edge26" class="edge"><title>vcorelib_io_types&#45;&gt;vcorelib_io_encode</title><style>.edge>path:hover{stroke-width:8}</style>
<path fill="none" stroke="black" d="M245.979,-465.752C265.952,-450.425 293.723,-429.113 315.545,-412.368"/>
<polygon fill="#0505e5" stroke="black" points="317.786,-415.06 323.588,-406.195 313.524,-409.507 317.786,-415.06"/>
</g>
<!-- vcorelib_io_types&#45;&gt;vcorelib_paths_info_cache -->
<g id="edge27" class="edge"><title>vcorelib_io_types&#45;&gt;vcorelib_paths_info_cache</title><style>.edge>path:hover{stroke-width:8}</style>
<path fill="none" stroke="black" d="M118.984,-224.966C105.795,-168.721 124.635,-152.476 118.984,-94.9828"/>
</g>
<!-- vcorelib_logging -->
<g id="node12" class="node"><title>vcorelib_logging</title><style>.edge>path:hover{stroke-width:8}</style>
<ellipse fill="#4646a4" stroke="black" cx="665.984" cy="-384.94" rx="37.4533" ry="21.4286"/>
<text text-anchor="middle" x="665.984" y="-387.94" font-family="Helvetica,sans-Serif" font-size="10.00" fill="#ffffff">vcorelib.</text>
<text text-anchor="middle" x="665.984" y="-376.94" font-family="Helvetica,sans-Serif" font-size="10.00" fill="#ffffff">logging</text>
</g>
<!-- vcorelib_math -->
<g id="node13" class="node"><title>vcorelib_math</title><style>.edge>path:hover{stroke-width:8}</style>
<ellipse fill="#1010f9" stroke="black" cx="565.984" cy="-588.462" rx="44.3" ry="18"/>
<text text-anchor="middle" x="565.984" y="-585.962" font-family="Helvetica,sans-Serif" font-size="10.00" fill="#ffffff">vcorelib.math</text>
</g>
<!-- vcorelib_math&#45;&gt;vcorelib_io_archive -->
<g id="edge28" class="edge"><title>vcorelib_math&#45;&gt;vcorelib_io_archive</title><style>.edge>path:hover{stroke-width:8}</style>
<path fill="none" stroke="black" d="M562.984,-485.701C562.51,-464.261 556.593,-441.095 550.419,-422.489"/>
<polygon fill="#1010f9" stroke="black" points="553.687,-421.23 547.096,-412.935 547.076,-423.53 553.687,-421.23"/>
</g>
<!-- vcorelib_math&#45;&gt;vcorelib_io_cache -->
<g id="edge29" class="edge"><title>vcorelib_math&#45;&gt;vcorelib_io_cache</title><style>.edge>path:hover{stroke-width:8}</style>
<path fill="none" stroke="black" d="M562.984,-485.701C561.935,-438.266 610.886,-432.341 600.984,-385.94"/>
<path fill="none" stroke="black" d="M600.984,-383.94C595.969,-360.439 580.79,-338.304 566.361,-321.64"/>
<polygon fill="#1010f9" stroke="black" points="568.686,-318.992 559.386,-313.916 563.491,-323.684 568.686,-318.992"/>
</g>
<!-- vcorelib_math&#45;&gt;vcorelib_io_decode -->
<g id="edge30" class="edge"><title>vcorelib_math&#45;&gt;vcorelib_io_decode</title><style>.edge>path:hover{stroke-width:8}</style>
<path fill="none" stroke="black" d="M565.38,-570.162C564.705,-550.269 563.623,-516.63 562.984,-487.701"/>
<path fill="none" stroke="black" d="M562.984,-485.701C562.506,-464.102 516.05,-430.696 481.089,-408.577"/>
<polygon fill="#1010f9" stroke="black" points="482.821,-405.532 472.483,-403.211 479.117,-411.472 482.821,-405.532"/>
</g>
<!-- vcorelib_math&#45;&gt;vcorelib_io_encode -->
<g id="edge31" class="edge"><title>vcorelib_math&#45;&gt;vcorelib_io_encode</title><style>.edge>path:hover{stroke-width:8}</style>
<path fill="none" stroke="black" d="M549.035,-571.648C512.764,-537.809 427.172,-457.954 380.924,-414.806"/>
<polygon fill="#1010f9" stroke="black" points="383.281,-412.218 373.582,-407.956 378.506,-417.337 383.281,-412.218"/>
</g>
<!-- vcorelib_math&#45;&gt;vcorelib_logging -->
<g id="edge32" class="edge"><title>vcorelib_math&#45;&gt;vcorelib_logging</title><style>.edge>path:hover{stroke-width:8}</style>
<path fill="none" stroke="black" d="M562.984,-485.701C562.536,-465.454 604.263,-430.646 634.736,-407.964"/>
<polygon fill="#1010f9" stroke="black" points="636.995,-410.648 642.988,-401.911 632.855,-405.004 636.995,-410.648"/>
</g>
<!-- vcorelib_math&#45;&gt;vcorelib_task -->
<g id="edge33" class="edge"><title>vcorelib_math&#45;&gt;vcorelib_task</title><style>.edge>path:hover{stroke-width:8}</style>
<path fill="none" stroke="black" d="M584.923,-572.158C606.653,-553.853 642.327,-521.43 665.984,-487.701"/>
<path fill="none" stroke="black" d="M665.984,-485.701C676.32,-470.963 673.537,-463.824 684.984,-449.931 698.715,-433.265 717.364,-417.913 733.096,-406.426"/>
<polygon fill="#1010f9" stroke="black" points="735.365,-409.107 741.485,-400.458 731.308,-403.403 735.365,-409.107"/>
</g>
<!-- vcorelib_math_time&#45;&gt;vcorelib_io_archive -->
<g id="edge34" class="edge"><title>vcorelib_math_time&#45;&gt;vcorelib_io_archive</title><style>.edge>path:hover{stroke-width:8}</style>
<path fill="none" stroke="black" d="M600.984,-485.701C592.339,-473.662 572.986,-443.811 557.632,-419.879"/>
<polygon fill="#0505e5" stroke="black" points="560.525,-417.906 552.184,-411.374 554.631,-421.682 560.525,-417.906"/>
</g>
<!-- vcorelib_math_time&#45;&gt;vcorelib_io_cache -->
<g id="edge35" class="edge"><title>vcorelib_math_time&#45;&gt;vcorelib_io_cache</title><style>.edge>path:hover{stroke-width:8}</style>
<path fill="none" stroke="black" d="M600.984,-485.701C575.122,-449.686 610.237,-429.302 600.984,-385.94"/>
</g>
<!-- vcorelib_math_time&#45;&gt;vcorelib_io_decode -->
<g id="edge36" class="edge"><title>vcorelib_math_time&#45;&gt;vcorelib_io_decode</title><style>.edge>path:hover{stroke-width:8}</style>
<path fill="none" stroke="black" d="M600.984,-485.701C589.817,-470.15 591.796,-462.059 576.984,-449.931 544.606,-423.421 527.392,-432.686 489.984,-413.931 486.876,-412.373 483.695,-410.688 480.527,-408.944"/>
<polygon fill="#0505e5" stroke="black" points="482.124,-405.826 471.7,-403.931 478.667,-411.913 482.124,-405.826"/>
</g>
<!-- vcorelib_math_time&#45;&gt;vcorelib_io_encode -->
<g id="edge37" class="edge"><title>vcorelib_math_time&#45;&gt;vcorelib_io_encode</title><style>.edge>path:hover{stroke-width:8}</style>
<path fill="none" stroke="black" d="M650.306,-562.03C637.509,-541.613 618.708,-512.383 600.984,-487.701"/>
<path fill="none" stroke="black" d="M600.984,-485.701C589.817,-470.15 592.906,-460.56 576.984,-449.931 509.129,-404.635 473.127,-443.226 396.984,-413.931 393.546,-412.609 390.072,-411.044 386.65,-409.342"/>
<polygon fill="#0505e5" stroke="black" points="388.245,-406.226 377.779,-404.585 384.937,-412.395 388.245,-406.226"/>
</g>
<!-- vcorelib_math_time&#45;&gt;vcorelib_logging -->
<g id="edge38" class="edge"><title>vcorelib_math_time&#45;&gt;vcorelib_logging</title><style>.edge>path:hover{stroke-width:8}</style>
<path fill="none" stroke="black" d="M600.984,-485.701C582.271,-459.64 610.139,-428.511 634.985,-408.038"/>
<polygon fill="#0505e5" stroke="black" points="637.215,-410.737 642.883,-401.785 632.87,-405.248 637.215,-410.737"/>
</g>
<!-- vcorelib_math_time&#45;&gt;vcorelib_task -->
<g id="edge39" class="edge"><title>vcorelib_math_time&#45;&gt;vcorelib_task</title><style>.edge>path:hover{stroke-width:8}</style>
<path fill="none" stroke="black" d="M658.033,-559.942C653.534,-538.345 651.364,-508.545 665.984,-487.701"/>
</g>
<!-- vcorelib_paths -->
<g id="node15" class="node"><title>vcorelib_paths</title><style>.edge>path:hover{stroke-width:8}</style>
<ellipse fill="#0606f9" stroke="black" cx="230.984" cy="-671.453" rx="45.1548" ry="18"/>
<text text-anchor="middle" x="230.984" y="-668.953" font-family="Helvetica,sans-Serif" font-size="10.00" fill="#ffffff">vcorelib.paths</text>
</g>
<!-- vcorelib_paths&#45;&gt;vcorelib_dict_cache -->
<g id="edge40" class="edge"><title>vcorelib_paths&#45;&gt;vcorelib_dict_cache</title><style>.edge>path:hover{stroke-width:8}</style>
<path fill="none" stroke="black" d="M246.984,-383.94C228.543,-332.267 251.761,-311.41 227.984,-261.966 218.577,-242.405 194.823,-247.67 194.984,-225.966"/>
</g>
<!-- vcorelib_paths&#45;&gt;vcorelib_dict_config -->
<g id="edge41" class="edge"><title>vcorelib_paths&#45;&gt;vcorelib_dict_config</title><style>.edge>path:hover{stroke-width:8}</style>
<path fill="none" stroke="black" d="M224.67,-653.57C210.288,-615.876 173.062,-522.476 130.984,-449.931 121.081,-432.859 112.891,-432.014 104.984,-413.931 73.5648,-342.078 61.2678,-250.216 56.6324,-199.305"/>
<polygon fill="#0606f9" stroke="black" points="60.0976,-198.748 55.7555,-189.084 53.1233,-199.347 60.0976,-198.748"/>
</g>
<!-- vcorelib_paths&#45;&gt;vcorelib_io -->
<g id="edge42" class="edge"><title>vcorelib_paths&#45;&gt;vcorelib_io</title><style>.edge>path:hover{stroke-width:8}</style>
<path fill="none" stroke="black" d="M284.984,-587.462C290.901,-543.52 289.07,-531.85 284.984,-487.701"/>
<path fill="none" stroke="black" d="M284.984,-485.701C280.611,-438.457 262.931,-430.625 246.984,-385.94"/>
<path fill="none" stroke="black" d="M246.984,-383.94C237.768,-358.116 219.302,-332.847 204.564,-315.349"/>
<polygon fill="#0606f9" stroke="black" points="206.88,-312.678 197.685,-307.415 201.591,-317.263 206.88,-312.678"/>
</g>
<!-- vcorelib_paths&#45;&gt;vcorelib_io_cache -->
<g id="edge43" class="edge"><title>vcorelib_paths&#45;&gt;vcorelib_io_cache</title><style>.edge>path:hover{stroke-width:8}</style>
<path fill="none" stroke="black" d="M284.984,-485.701C280.897,-441.551 254.412,-418.052 284.984,-385.94"/>
</g>
<!-- vcorelib_paths&#45;&gt;vcorelib_io_types -->
<g id="edge44" class="edge"><title>vcorelib_paths&#45;&gt;vcorelib_io_types</title><style>.edge>path:hover{stroke-width:8}</style>
<path fill="none" stroke="black" d="M247.935,-654.703C262.429,-639.637 281.488,-615.422 284.984,-589.462"/>
<path fill="none" stroke="black" d="M284.984,-587.462C288.653,-560.214 270.965,-534.352 253.121,-515.79"/>
<polygon fill="#0606f9" stroke="black" points="255.104,-512.829 245.526,-508.299 250.188,-517.813 255.104,-512.829"/>
</g>
<!-- vcorelib_script -->
<g id="node17" class="node"><title>vcorelib_script</title><style>.edge>path:hover{stroke-width:8}</style>
<ellipse fill="#4747c2" stroke="black" cx="912.984" cy="-754.444" rx="37.4533" ry="21.4286"/>
<text text-anchor="middle" x="912.984" y="-757.444" font-family="Helvetica,sans-Serif" font-size="10.00" fill="#ffffff">vcorelib.</text>
<text text-anchor="middle" x="912.984" y="-746.444" font-family="Helvetica,sans-Serif" font-size="10.00" fill="#ffffff">script</text>
</g>
<!-- vcorelib_script&#45;&gt;vcorelib_task_manager -->
<g id="edge45" class="edge"><title>vcorelib_script&#45;&gt;vcorelib_task_manager</title><style>.edge>path:hover{stroke-width:8}</style>
<path fill="none" stroke="black" d="M907.94,-733.2C904.786,-715.998 902.991,-691.186 912.984,-672.453"/>
</g>
<!-- vcorelib_target -->
<g id="node18" class="node"><title>vcorelib_target</title><style>.edge>path:hover{stroke-width:8}</style>
<ellipse fill="#2f2fdb" stroke="black" cx="819.984" cy="-754.444" rx="37.4533" ry="21.4286"/>
<text text-anchor="middle" x="819.984" y="-757.444" font-family="Helvetica,sans-Serif" font-size="10.00" fill="#ffffff">vcorelib.</text>
<text text-anchor="middle" x="819.984" y="-746.444" font-family="Helvetica,sans-Serif" font-size="10.00" fill="#ffffff">target</text>
</g>
<!-- vcorelib_target&#45;&gt;vcorelib_task -->
<g id="edge46" class="edge"><title>vcorelib_target&#45;&gt;vcorelib_task</title><style>.edge>path:hover{stroke-width:8}</style>
<path fill="none" stroke="black" d="M819.876,-732.976C819.478,-697.51 817.704,-622.393 809.984,-559.47 806.026,-527.213 803.855,-519.232 795.984,-487.701"/>
</g>
<!-- vcorelib_target&#45;&gt;vcorelib_task_manager -->
<g id="edge47" class="edge"><title>vcorelib_target&#45;&gt;vcorelib_task_manager</title><style>.edge>path:hover{stroke-width:8}</style>
<path fill="none" stroke="black" d="M845.547,-738.698C867.359,-724.64 897.566,-701.356 912.984,-672.453"/>
</g>
<!-- vcorelib_target_resolver -->
<g id="node19" class="node"><title>vcorelib_target_resolver</title><style>.edge>path:hover{stroke-width:8}</style>
<ellipse fill="#3d3db8" stroke="black" cx="1005.98" cy="-754.444" rx="37.4533" ry="28.9828"/>
<text text-anchor="middle" x="1005.98" y="-762.944" font-family="Helvetica,sans-Serif" font-size="10.00" fill="#ffffff">vcorelib.</text>
<text text-anchor="middle" x="1005.98" y="-751.944" font-family="Helvetica,sans-Serif" font-size="10.00" fill="#ffffff">target.</text>
<text text-anchor="middle" x="1005.98" y="-740.944" font-family="Helvetica,sans-Serif" font-size="10.00" fill="#ffffff">resolver</text>
</g>
<!-- vcorelib_target_resolver&#45;&gt;vcorelib_task_manager -->
<g id="edge48" class="edge"><title>vcorelib_target_resolver&#45;&gt;vcorelib_task_manager</title><style>.edge>path:hover{stroke-width:8}</style>
<path fill="none" stroke="black" d="M976.481,-736.266C946.207,-717.532 904.62,-688.132 912.984,-672.453"/>
</g>
</g>
</svg>
