<?xml version="1.0" encoding="UTF-8" standalone="no"?>
<!DOCTYPE svg PUBLIC "-//W3C//DTD SVG 1.1//EN"
 "http://www.w3.org/Graphics/SVG/1.1/DTD/svg11.dtd">
<!-- Generated by graphviz version 2.38.0 (20140413.2041)
 -->
<!-- Title: G Pages: 1 -->
<svg width="1032pt" height="791pt"
 viewBox="0.00 0.00 1031.61 791.44" xmlns="http://www.w3.org/2000/svg" xmlns:xlink="http://www.w3.org/1999/xlink">
<g id="graph0" class="graph" transform="scale(1 1) rotate(0) translate(4 787.436)">
<title>G</title><style>.edge>path:hover{stroke-width:8}</style>
<polygon fill="white" stroke="none" points="-4,4 -4,-787.436 1027.61,-787.436 1027.61,4 -4,4"/>
<!-- tomli -->
<g id="node1" class="node"><title>tomli</title><style>.edge>path:hover{stroke-width:8}</style>
<ellipse fill="#b65353" stroke="black" cx="191.134" cy="-671.453" rx="27" ry="18"/>
<text text-anchor="middle" x="191.134" y="-668.953" font-family="Helvetica,sans-Serif" font-size="10.00" fill="#ffffff">tomli</text>
</g>
<!-- vcorelib_io_decode -->
<g id="node8" class="node"><title>vcorelib_io_decode</title><style>.edge>path:hover{stroke-width:8}</style>
<ellipse fill="#303091" stroke="black" cx="273.134" cy="-384.94" rx="37.4533" ry="28.9828"/>
<text text-anchor="middle" x="273.134" y="-393.44" font-family="Helvetica,sans-Serif" font-size="10.00" fill="#ffffff">vcorelib.</text>
<text text-anchor="middle" x="273.134" y="-382.44" font-family="Helvetica,sans-Serif" font-size="10.00" fill="#ffffff">io.</text>
<text text-anchor="middle" x="273.134" y="-371.44" font-family="Helvetica,sans-Serif" font-size="10.00" fill="#ffffff">decode</text>
</g>
<!-- tomli&#45;&gt;vcorelib_io_decode -->
<g id="edge1" class="edge"><title>tomli&#45;&gt;vcorelib_io_decode</title><style>.edge>path:hover{stroke-width:8}</style>
<path fill="none" stroke="black" d="M196.018,-653.507C208.951,-608.632 244.327,-485.888 262.319,-423.465"/>
<polygon fill="#b65353" stroke="black" points="265.748,-424.203 265.155,-413.624 259.022,-422.264 265.748,-424.203"/>
</g>
<!-- tomli_w -->
<g id="node2" class="node"><title>tomli_w</title><style>.edge>path:hover{stroke-width:8}</style>
<ellipse fill="#40c040" stroke="black" cx="117.134" cy="-671.453" rx="29.3664" ry="18"/>
<text text-anchor="middle" x="117.134" y="-668.953" font-family="Helvetica,sans-Serif" font-size="10.00" fill="#000000">tomli_w</text>
</g>
<!-- vcorelib_io_encode -->
<g id="node9" class="node"><title>vcorelib_io_encode</title><style>.edge>path:hover{stroke-width:8}</style>
<ellipse fill="#303091" stroke="black" cx="180.134" cy="-384.94" rx="37.4533" ry="28.9828"/>
<text text-anchor="middle" x="180.134" y="-393.44" font-family="Helvetica,sans-Serif" font-size="10.00" fill="#ffffff">vcorelib.</text>
<text text-anchor="middle" x="180.134" y="-382.44" font-family="Helvetica,sans-Serif" font-size="10.00" fill="#ffffff">io.</text>
<text text-anchor="middle" x="180.134" y="-371.44" font-family="Helvetica,sans-Serif" font-size="10.00" fill="#ffffff">encode</text>
</g>
<!-- tomli_w&#45;&gt;vcorelib_io_encode -->
<g id="edge2" class="edge"><title>tomli_w&#45;&gt;vcorelib_io_encode</title><style>.edge>path:hover{stroke-width:8}</style>
<path fill="none" stroke="black" d="M113.333,-653.391C106.751,-619.914 96.1823,-543.985 121.134,-487.701"/>
</g>
<!-- vcorelib_dict -->
<g id="node3" class="node"><title>vcorelib_dict</title><style>.edge>path:hover{stroke-width:8}</style>
<ellipse fill="#1010f9" stroke="black" cx="521.134" cy="-754.444" rx="40.7358" ry="18"/>
<text text-anchor="middle" x="521.134" y="-751.944" font-family="Helvetica,sans-Serif" font-size="10.00" fill="#ffffff">vcorelib.dict</text>
</g>
<!-- vcorelib_io -->
<g id="node5" class="node"><title>vcorelib_io</title><style>.edge>path:hover{stroke-width:8}</style>
<ellipse fill="#0404bd" stroke="black" cx="241.134" cy="-290.957" rx="35.8171" ry="18"/>
<text text-anchor="middle" x="241.134" y="-288.457" font-family="Helvetica,sans-Serif" font-size="10.00" fill="#ffffff">vcorelib.io</text>
</g>
<!-- vcorelib_dict&#45;&gt;vcorelib_io -->
<g id="edge3" class="edge"><title>vcorelib_dict&#45;&gt;vcorelib_io</title><style>.edge>path:hover{stroke-width:8}</style>
<path fill="none" stroke="black" d="M480.313,-753.217C382.237,-751.809 137.168,-742.896 79.1338,-689.453 45.5896,-658.562 56.1338,-635.063 56.1338,-589.462"/>
<path fill="none" stroke="black" d="M56.1338,-587.462C53.6211,-552.525 20.8733,-556.809 10.1338,-523.47 0.112519,-492.36 -5.87114,-478.428 10.1338,-449.931 36.8954,-402.282 82.5263,-429.796 115.134,-385.94"/>
<path fill="none" stroke="black" d="M115.134,-383.94C123.699,-371.582 123.201,-366.271 134.134,-355.948 155.341,-335.924 183.868,-319.251 206.134,-307.948"/>
<polygon fill="#1010f9" stroke="black" points="207.84,-311.009 215.253,-303.439 204.738,-304.734 207.84,-311.009"/>
</g>
<!-- vcorelib_io_cache -->
<g id="node7" class="node"><title>vcorelib_io_cache</title><style>.edge>path:hover{stroke-width:8}</style>
<ellipse fill="#373781" stroke="black" cx="441.134" cy="-290.957" rx="37.4533" ry="28.9828"/>
<text text-anchor="middle" x="441.134" y="-299.457" font-family="Helvetica,sans-Serif" font-size="10.00" fill="#ffffff">vcorelib.</text>
<text text-anchor="middle" x="441.134" y="-288.457" font-family="Helvetica,sans-Serif" font-size="10.00" fill="#ffffff">io.</text>
<text text-anchor="middle" x="441.134" y="-277.457" font-family="Helvetica,sans-Serif" font-size="10.00" fill="#ffffff">cache</text>
</g>
<!-- vcorelib_dict&#45;&gt;vcorelib_io_cache -->
<g id="edge4" class="edge"><title>vcorelib_dict&#45;&gt;vcorelib_io_cache</title><style>.edge>path:hover{stroke-width:8}</style>
<path fill="none" stroke="black" d="M776.134,-485.701C766.691,-442.38 798.538,-424.201 776.134,-385.94"/>
<path fill="none" stroke="black" d="M776.134,-383.94C768.536,-370.965 769.652,-364.278 757.134,-355.948 713.628,-326.999 565.481,-306.237 488.481,-297.12"/>
<polygon fill="#1010f9" stroke="black" points="488.444,-293.592 478.106,-295.911 487.634,-300.545 488.444,-293.592"/>
</g>
<!-- vcorelib_dict&#45;&gt;vcorelib_io_decode -->
<g id="edge5" class="edge"><title>vcorelib_dict&#45;&gt;vcorelib_io_decode</title><style>.edge>path:hover{stroke-width:8}</style>
<path fill="none" stroke="black" d="M482.072,-749.004C444.283,-742.561 388.287,-726.948 357.134,-689.453 328.225,-654.659 345.098,-634.158 338.134,-589.462"/>
<path fill="none" stroke="black" d="M338.134,-587.462C330.474,-553.283 310.614,-553.225 292.134,-523.47 282.636,-508.178 282.376,-503.148 273.134,-487.701"/>
<path fill="none" stroke="black" d="M273.134,-485.701C262.154,-467.349 261.766,-443.492 264.306,-423.709"/>
<polygon fill="#1010f9" stroke="black" points="267.771,-424.208 265.861,-413.787 260.855,-423.124 267.771,-424.208"/>
</g>
<!-- vcorelib_dict&#45;&gt;vcorelib_io_encode -->
<g id="edge6" class="edge"><title>vcorelib_dict&#45;&gt;vcorelib_io_encode</title><style>.edge>path:hover{stroke-width:8}</style>
<path fill="none" stroke="black" d="M56.1338,-587.462C56.1338,-552.435 83.654,-553.225 102.134,-523.47 111.631,-508.178 113.339,-503.927 121.134,-487.701"/>
<path fill="none" stroke="black" d="M121.134,-485.701C132.041,-462.997 146.388,-438.644 158.203,-419.683"/>
<polygon fill="#1010f9" stroke="black" points="161.235,-421.435 163.602,-411.108 155.312,-417.706 161.235,-421.435"/>
</g>
<!-- vcorelib_io_types -->
<g id="node10" class="node"><title>vcorelib_io_types</title><style>.edge>path:hover{stroke-width:8}</style>
<ellipse fill="#0505e5" stroke="black" cx="338.134" cy="-486.701" rx="37.4533" ry="28.9828"/>
<text text-anchor="middle" x="338.134" y="-495.201" font-family="Helvetica,sans-Serif" font-size="10.00" fill="#ffffff">vcorelib.</text>
<text text-anchor="middle" x="338.134" y="-484.201" font-family="Helvetica,sans-Serif" font-size="10.00" fill="#ffffff">io.</text>
<text text-anchor="middle" x="338.134" y="-473.201" font-family="Helvetica,sans-Serif" font-size="10.00" fill="#ffffff">types</text>
</g>
<!-- vcorelib_dict&#45;&gt;vcorelib_io_types -->
<g id="edge7" class="edge"><title>vcorelib_dict&#45;&gt;vcorelib_io_types</title><style>.edge>path:hover{stroke-width:8}</style>
<path fill="none" stroke="black" d="M338.134,-587.462C334.999,-567.34 334.743,-544.658 335.384,-526.011"/>
<polygon fill="#1010f9" stroke="black" points="338.889,-525.975 335.834,-515.83 331.896,-525.665 338.889,-525.975"/>
</g>
<!-- vcorelib_math_time -->
<g id="node13" class="node"><title>vcorelib_math_time</title><style>.edge>path:hover{stroke-width:8}</style>
<ellipse fill="#0505e5" stroke="black" cx="575.134" cy="-588.462" rx="37.4533" ry="28.9828"/>
<text text-anchor="middle" x="575.134" y="-596.962" font-family="Helvetica,sans-Serif" font-size="10.00" fill="#ffffff">vcorelib.</text>
<text text-anchor="middle" x="575.134" y="-585.962" font-family="Helvetica,sans-Serif" font-size="10.00" fill="#ffffff">math.</text>
<text text-anchor="middle" x="575.134" y="-574.962" font-family="Helvetica,sans-Serif" font-size="10.00" fill="#ffffff">time</text>
</g>
<!-- vcorelib_dict&#45;&gt;vcorelib_math_time -->
<g id="edge8" class="edge"><title>vcorelib_dict&#45;&gt;vcorelib_math_time</title><style>.edge>path:hover{stroke-width:8}</style>
<path fill="none" stroke="black" d="M559.958,-748.932C629.258,-739.791 767.83,-716.147 776.134,-672.453"/>
<path fill="none" stroke="black" d="M776.134,-670.453C788.643,-604.631 686.479,-591.193 623.133,-589.11"/>
<polygon fill="#1010f9" stroke="black" points="623.023,-585.607 612.941,-588.861 622.852,-592.605 623.023,-585.607"/>
</g>
<!-- vcorelib_paths_info_cache -->
<g id="node15" class="node"><title>vcorelib_paths_info_cache</title><style>.edge>path:hover{stroke-width:8}</style>
<ellipse fill="#3d3d8f" stroke="black" cx="273.134" cy="-28.9914" rx="45.011" ry="28.9828"/>
<text text-anchor="middle" x="273.134" y="-37.4914" font-family="Helvetica,sans-Serif" font-size="10.00" fill="#ffffff">vcorelib.</text>
<text text-anchor="middle" x="273.134" y="-26.4914" font-family="Helvetica,sans-Serif" font-size="10.00" fill="#ffffff">paths.</text>
<text text-anchor="middle" x="273.134" y="-15.4914" font-family="Helvetica,sans-Serif" font-size="10.00" fill="#ffffff">info_cache</text>
</g>
<!-- vcorelib_dict&#45;&gt;vcorelib_paths_info_cache -->
<g id="edge9" class="edge"><title>vcorelib_dict&#45;&gt;vcorelib_paths_info_cache</title><style>.edge>path:hover{stroke-width:8}</style>
<path fill="none" stroke="black" d="M776.134,-383.94C665.755,-195.441 470.971,-334.379 338.134,-160.974"/>
</g>
<!-- vcorelib_task -->
<g id="node19" class="node"><title>vcorelib_task</title><style>.edge>path:hover{stroke-width:8}</style>
<ellipse fill="#1515c1" stroke="black" cx="706.134" cy="-384.94" rx="42.2678" ry="18"/>
<text text-anchor="middle" x="706.134" y="-382.44" font-family="Helvetica,sans-Serif" font-size="10.00" fill="#ffffff">vcorelib.task</text>
</g>
<!-- vcorelib_dict&#45;&gt;vcorelib_task -->
<g id="edge10" class="edge"><title>vcorelib_dict&#45;&gt;vcorelib_task</title><style>.edge>path:hover{stroke-width:8}</style>
<path fill="none" stroke="black" d="M776.134,-670.453C791.299,-590.658 789.526,-567.812 776.134,-487.701"/>
<path fill="none" stroke="black" d="M776.134,-485.701C769.589,-455.674 747.936,-427.605 730.427,-408.939"/>
<polygon fill="#1010f9" stroke="black" points="732.712,-406.268 723.232,-401.536 727.692,-411.147 732.712,-406.268"/>
</g>
<!-- vcorelib_task_dict_melder -->
<g id="node20" class="node"><title>vcorelib_task_dict_melder</title><style>.edge>path:hover{stroke-width:8}</style>
<ellipse fill="#4646a4" stroke="black" cx="56.1338" cy="-486.701" rx="37.4533" ry="36.5405"/>
<text text-anchor="middle" x="56.1338" y="-500.701" font-family="Helvetica,sans-Serif" font-size="10.00" fill="#ffffff">vcorelib.</text>
<text text-anchor="middle" x="56.1338" y="-489.701" font-family="Helvetica,sans-Serif" font-size="10.00" fill="#ffffff">task.</text>
<text text-anchor="middle" x="56.1338" y="-478.701" font-family="Helvetica,sans-Serif" font-size="10.00" fill="#ffffff">dict.</text>
<text text-anchor="middle" x="56.1338" y="-467.701" font-family="Helvetica,sans-Serif" font-size="10.00" fill="#ffffff">melder</text>
</g>
<!-- vcorelib_dict&#45;&gt;vcorelib_task_dict_melder -->
<g id="edge11" class="edge"><title>vcorelib_dict&#45;&gt;vcorelib_task_dict_melder</title><style>.edge>path:hover{stroke-width:8}</style>
<path fill="none" stroke="black" d="M56.1338,-587.462C56.1338,-569.963 56.1338,-550.739 56.1338,-533.876"/>
<polygon fill="#1010f9" stroke="black" points="59.6339,-533.718 56.1338,-523.718 52.6339,-533.718 59.6339,-533.718"/>
</g>
<!-- vcorelib_task_manager -->
<g id="node21" class="node"><title>vcorelib_task_manager</title><style>.edge>path:hover{stroke-width:8}</style>
<ellipse fill="#3d3d8f" stroke="black" cx="893.134" cy="-588.462" rx="38.3684" ry="28.9828"/>
<text text-anchor="middle" x="893.134" y="-596.962" font-family="Helvetica,sans-Serif" font-size="10.00" fill="#ffffff">vcorelib.</text>
<text text-anchor="middle" x="893.134" y="-585.962" font-family="Helvetica,sans-Serif" font-size="10.00" fill="#ffffff">task.</text>
<text text-anchor="middle" x="893.134" y="-574.962" font-family="Helvetica,sans-Serif" font-size="10.00" fill="#ffffff">manager</text>
</g>
<!-- vcorelib_dict&#45;&gt;vcorelib_task_manager -->
<g id="edge12" class="edge"><title>vcorelib_dict&#45;&gt;vcorelib_task_manager</title><style>.edge>path:hover{stroke-width:8}</style>
<path fill="none" stroke="black" d="M559.578,-748.54C651.871,-736.3 879.372,-703.179 893.134,-672.453"/>
<path fill="none" stroke="black" d="M893.134,-670.453C899.042,-657.261 900.206,-641.605 899.482,-627.59"/>
<polygon fill="#1010f9" stroke="black" points="902.939,-626.93 898.608,-617.26 895.964,-627.52 902.939,-626.93"/>
</g>
<!-- vcorelib_dict_cache -->
<g id="node4" class="node"><title>vcorelib_dict_cache</title><style>.edge>path:hover{stroke-width:8}</style>
<ellipse fill="#3838a8" stroke="black" cx="273.134" cy="-159.974" rx="37.4533" ry="28.9828"/>
<text text-anchor="middle" x="273.134" y="-168.474" font-family="Helvetica,sans-Serif" font-size="10.00" fill="#ffffff">vcorelib.</text>
<text text-anchor="middle" x="273.134" y="-157.474" font-family="Helvetica,sans-Serif" font-size="10.00" fill="#ffffff">dict.</text>
<text text-anchor="middle" x="273.134" y="-146.474" font-family="Helvetica,sans-Serif" font-size="10.00" fill="#ffffff">cache</text>
</g>
<!-- vcorelib_dict_cache&#45;&gt;vcorelib_paths_info_cache -->
<g id="edge13" class="edge"><title>vcorelib_dict_cache&#45;&gt;vcorelib_paths_info_cache</title><style>.edge>path:hover{stroke-width:8}</style>
<path fill="none" stroke="black" d="M273.134,-130.94C273.134,-119.754 273.134,-106.759 273.134,-94.9828"/>
</g>
<!-- vcorelib_io&#45;&gt;vcorelib_dict_cache -->
<g id="edge14" class="edge"><title>vcorelib_io&#45;&gt;vcorelib_dict_cache</title><style>.edge>path:hover{stroke-width:8}</style>
<path fill="none" stroke="black" d="M208.134,-224.966C208.08,-207.492 220.149,-193.193 233.9,-182.578"/>
<polygon fill="#0404bd" stroke="black" points="235.977,-185.396 242.112,-176.758 231.929,-179.685 235.977,-185.396"/>
</g>
<!-- vcorelib_io&#45;&gt;vcorelib_paths_info_cache -->
<g id="edge15" class="edge"><title>vcorelib_io&#45;&gt;vcorelib_paths_info_cache</title><style>.edge>path:hover{stroke-width:8}</style>
<path fill="none" stroke="black" d="M227.553,-274.008C218.479,-261.713 208.188,-243.84 208.134,-225.966"/>
<path fill="none" stroke="black" d="M208.134,-224.966C208.004,-182.351 204.746,-167.244 227.134,-130.983 240.772,-108.893 273.134,-120.944 273.134,-94.9828"/>
<path fill="none" stroke="black" d="M273.134,-93.9828C272.921,-85.6133 272.833,-76.6262 272.816,-68.1102"/>
<polygon fill="#0404bd" stroke="black" points="276.316,-68.0329 272.825,-58.0295 269.316,-68.0262 276.316,-68.0329"/>
</g>
<!-- vcorelib_io_archive -->
<g id="node6" class="node"><title>vcorelib_io_archive</title><style>.edge>path:hover{stroke-width:8}</style>
<ellipse fill="#3535a1" stroke="black" cx="441.134" cy="-384.94" rx="37.4533" ry="28.9828"/>
<text text-anchor="middle" x="441.134" y="-393.44" font-family="Helvetica,sans-Serif" font-size="10.00" fill="#ffffff">vcorelib.</text>
<text text-anchor="middle" x="441.134" y="-382.44" font-family="Helvetica,sans-Serif" font-size="10.00" fill="#ffffff">io.</text>
<text text-anchor="middle" x="441.134" y="-371.44" font-family="Helvetica,sans-Serif" font-size="10.00" fill="#ffffff">archive</text>
</g>
<!-- vcorelib_io_archive&#45;&gt;vcorelib_io_cache -->
<g id="edge16" class="edge"><title>vcorelib_io_archive&#45;&gt;vcorelib_io_cache</title><style>.edge>path:hover{stroke-width:8}</style>
<path fill="none" stroke="black" d="M441.134,-355.842C441.134,-347.804 441.134,-338.902 441.134,-330.359"/>
<polygon fill="#3535a1" stroke="black" points="444.634,-330.199 441.134,-320.199 437.634,-330.199 444.634,-330.199"/>
</g>
<!-- vcorelib_io_decode&#45;&gt;vcorelib_io -->
<g id="edge17" class="edge"><title>vcorelib_io_decode&#45;&gt;vcorelib_io</title><style>.edge>path:hover{stroke-width:8}</style>
<path fill="none" stroke="black" d="M263.706,-356.839C259.471,-344.667 254.494,-330.359 250.291,-318.28"/>
<polygon fill="#303091" stroke="black" points="253.569,-317.049 246.978,-308.754 246.958,-319.349 253.569,-317.049"/>
</g>
<!-- vcorelib_io_encode&#45;&gt;vcorelib_io -->
<g id="edge18" class="edge"><title>vcorelib_io_encode&#45;&gt;vcorelib_io</title><style>.edge>path:hover{stroke-width:8}</style>
<path fill="none" stroke="black" d="M196.802,-358.805C205.458,-345.753 215.999,-329.858 224.631,-316.842"/>
<polygon fill="#303091" stroke="black" points="227.645,-318.63 230.255,-308.362 221.811,-314.761 227.645,-318.63"/>
</g>
<!-- vcorelib_io_types&#45;&gt;vcorelib_dict_cache -->
<g id="edge19" class="edge"><title>vcorelib_io_types&#45;&gt;vcorelib_dict_cache</title><style>.edge>path:hover{stroke-width:8}</style>
<path fill="none" stroke="black" d="M338.134,-383.94C338.881,-313.733 354.162,-294.322 338.134,-225.966"/>
<path fill="none" stroke="black" d="M338.134,-224.966C333.555,-209.251 322.077,-195.795 310.018,-185.335"/>
<polygon fill="#0505e5" stroke="black" points="312.05,-182.476 302.077,-178.9 307.643,-187.915 312.05,-182.476"/>
</g>
<!-- vcorelib_io_types&#45;&gt;vcorelib_io -->
<g id="edge20" class="edge"><title>vcorelib_io_types&#45;&gt;vcorelib_io</title><style>.edge>path:hover{stroke-width:8}</style>
<path fill="none" stroke="black" d="M337.973,-457.319C337.9,-437.355 337.878,-410.013 338.134,-385.94"/>
<path fill="none" stroke="black" d="M338.134,-383.94C338.507,-348.912 304.72,-323.213 276.925,-308.019"/>
<polygon fill="#0505e5" stroke="black" points="278.274,-304.776 267.787,-303.271 275.046,-310.987 278.274,-304.776"/>
</g>
<!-- vcorelib_io_types&#45;&gt;vcorelib_io_archive -->
<g id="edge21" class="edge"><title>vcorelib_io_types&#45;&gt;vcorelib_io_archive</title><style>.edge>path:hover{stroke-width:8}</style>
<path fill="none" stroke="black" d="M360.993,-463.56C375.661,-449.353 394.875,-430.743 410.812,-415.307"/>
<polygon fill="#0505e5" stroke="black" points="413.591,-417.489 418.339,-408.018 408.721,-412.461 413.591,-417.489"/>
</g>
<!-- vcorelib_io_types&#45;&gt;vcorelib_io_cache -->
<g id="edge22" class="edge"><title>vcorelib_io_types&#45;&gt;vcorelib_io_cache</title><style>.edge>path:hover{stroke-width:8}</style>
<path fill="none" stroke="black" d="M338.134,-383.94C338.5,-349.545 370.807,-324.811 399.138,-309.713"/>
<polygon fill="#0505e5" stroke="black" points="400.811,-312.789 408.152,-305.15 397.649,-306.544 400.811,-312.789"/>
</g>
<!-- vcorelib_io_types&#45;&gt;vcorelib_io_decode -->
<g id="edge23" class="edge"><title>vcorelib_io_types&#45;&gt;vcorelib_io_decode</title><style>.edge>path:hover{stroke-width:8}</style>
<path fill="none" stroke="black" d="M321.732,-460.527C313.649,-448.121 303.788,-432.988 295.067,-419.603"/>
<polygon fill="#0505e5" stroke="black" points="297.922,-417.573 289.531,-411.105 292.057,-421.395 297.922,-417.573"/>
</g>
<!-- vcorelib_io_types&#45;&gt;vcorelib_io_encode -->
<g id="edge24" class="edge"><title>vcorelib_io_types&#45;&gt;vcorelib_io_encode</title><style>.edge>path:hover{stroke-width:8}</style>
<path fill="none" stroke="black" d="M309.521,-467.635C283.683,-451.32 245.502,-427.213 217.308,-409.411"/>
<polygon fill="#0505e5" stroke="black" points="218.858,-406.251 208.534,-403.871 215.121,-412.17 218.858,-406.251"/>
</g>
<!-- vcorelib_io_types&#45;&gt;vcorelib_paths_info_cache -->
<g id="edge25" class="edge"><title>vcorelib_io_types&#45;&gt;vcorelib_paths_info_cache</title><style>.edge>path:hover{stroke-width:8}</style>
<path fill="none" stroke="black" d="M338.134,-224.966C330.177,-197.661 355.429,-183.552 338.134,-160.974"/>
<path fill="none" stroke="black" d="M338.134,-158.974C328.99,-147.038 329.4,-141.968 319.134,-130.983 301.408,-112.015 273.794,-120.935 273.134,-94.9828"/>
</g>
<!-- vcorelib_logging -->
<g id="node11" class="node"><title>vcorelib_logging</title><style>.edge>path:hover{stroke-width:8}</style>
<ellipse fill="#4646a4" stroke="black" cx="571.134" cy="-384.94" rx="37.4533" ry="21.4286"/>
<text text-anchor="middle" x="571.134" y="-387.94" font-family="Helvetica,sans-Serif" font-size="10.00" fill="#ffffff">vcorelib.</text>
<text text-anchor="middle" x="571.134" y="-376.94" font-family="Helvetica,sans-Serif" font-size="10.00" fill="#ffffff">logging</text>
</g>
<!-- vcorelib_math -->
<g id="node12" class="node"><title>vcorelib_math</title><style>.edge>path:hover{stroke-width:8}</style>
<ellipse fill="#1010f9" stroke="black" cx="475.134" cy="-588.462" rx="44.3" ry="18"/>
<text text-anchor="middle" x="475.134" y="-585.962" font-family="Helvetica,sans-Serif" font-size="10.00" fill="#ffffff">vcorelib.math</text>
</g>
<!-- vcorelib_math&#45;&gt;vcorelib_io_archive -->
<g id="edge26" class="edge"><title>vcorelib_math&#45;&gt;vcorelib_io_archive</title><style>.edge>path:hover{stroke-width:8}</style>
<path fill="none" stroke="black" d="M482.151,-570.535C489.839,-550.984 501.672,-517.658 506.134,-487.701"/>
<path fill="none" stroke="black" d="M506.134,-485.701C510.22,-458.265 492.164,-432.181 474.055,-413.57"/>
<polygon fill="#1010f9" stroke="black" points="476.49,-411.056 466.892,-406.568 471.596,-416.062 476.49,-411.056"/>
</g>
<!-- vcorelib_math&#45;&gt;vcorelib_io_cache -->
<g id="edge27" class="edge"><title>vcorelib_math&#45;&gt;vcorelib_io_cache</title><style>.edge>path:hover{stroke-width:8}</style>
<path fill="none" stroke="black" d="M506.134,-485.701C514.72,-428.054 508.986,-409.979 487.134,-355.948 482.485,-344.453 475.363,-333.078 468.101,-323.177"/>
<polygon fill="#1010f9" stroke="black" points="470.879,-321.048 462.02,-315.238 465.322,-325.305 470.879,-321.048"/>
</g>
<!-- vcorelib_math&#45;&gt;vcorelib_io_decode -->
<g id="edge28" class="edge"><title>vcorelib_math&#45;&gt;vcorelib_io_decode</title><style>.edge>path:hover{stroke-width:8}</style>
<path fill="none" stroke="black" d="M449.273,-573.823C439.381,-568.915 427.891,-563.581 417.134,-559.47 363.129,-538.832 337.035,-559.889 292.134,-523.47 278.153,-512.131 282.376,-503.148 273.134,-487.701"/>
</g>
<!-- vcorelib_math&#45;&gt;vcorelib_io_encode -->
<g id="edge29" class="edge"><title>vcorelib_math&#45;&gt;vcorelib_io_encode</title><style>.edge>path:hover{stroke-width:8}</style>
<path fill="none" stroke="black" d="M449.68,-573.64C439.738,-568.653 428.108,-563.313 417.134,-559.47 349.159,-535.667 318.498,-564.251 259.134,-523.47 243.354,-512.63 249.697,-500.127 235.134,-487.701"/>
<path fill="none" stroke="black" d="M235.134,-485.701C229.549,-480.935 211.938,-448.133 198.131,-421.423"/>
<polygon fill="#1010f9" stroke="black" points="201.118,-419.577 193.432,-412.285 194.893,-422.779 201.118,-419.577"/>
</g>
<!-- vcorelib_math&#45;&gt;vcorelib_logging -->
<g id="edge30" class="edge"><title>vcorelib_math&#45;&gt;vcorelib_logging</title><style>.edge>path:hover{stroke-width:8}</style>
<path fill="none" stroke="black" d="M506.134,-485.701C510.397,-457.076 529.437,-429.924 545.817,-411.195"/>
<polygon fill="#1010f9" stroke="black" points="548.489,-413.459 552.623,-403.704 543.308,-408.751 548.489,-413.459"/>
</g>
<!-- vcorelib_math&#45;&gt;vcorelib_task -->
<g id="edge31" class="edge"><title>vcorelib_math&#45;&gt;vcorelib_task</title><style>.edge>path:hover{stroke-width:8}</style>
<path fill="none" stroke="black" d="M488.546,-570.988C511.1,-543.87 558.81,-488.948 606.134,-449.931 626.821,-432.876 652.303,-416.631 672.367,-404.777"/>
<polygon fill="#1010f9" stroke="black" points="674.287,-407.709 681.167,-399.652 670.764,-401.66 674.287,-407.709"/>
</g>
<!-- vcorelib_math_time&#45;&gt;vcorelib_io_archive -->
<g id="edge32" class="edge"><title>vcorelib_math_time&#45;&gt;vcorelib_io_archive</title><style>.edge>path:hover{stroke-width:8}</style>
<path fill="none" stroke="black" d="M568.552,-559.826C560.596,-530.487 545.081,-483.775 520.134,-449.931 508.753,-434.491 492.799,-420.629 478.205,-409.786"/>
<polygon fill="#0505e5" stroke="black" points="479.978,-406.751 469.814,-403.763 475.896,-412.438 479.978,-406.751"/>
</g>
<!-- vcorelib_math_time&#45;&gt;vcorelib_io_cache -->
<g id="edge33" class="edge"><title>vcorelib_math_time&#45;&gt;vcorelib_io_cache</title><style>.edge>path:hover{stroke-width:8}</style>
<path fill="none" stroke="black" d="M620.134,-485.701C633.152,-442.724 660.576,-423.609 636.134,-385.94"/>
<path fill="none" stroke="black" d="M636.134,-383.94C627.95,-371.326 628.997,-365.186 617.134,-355.948 578.867,-326.152 525.438,-309.353 487.51,-300.521"/>
<polygon fill="#0505e5" stroke="black" points="488.257,-297.101 477.735,-298.34 486.733,-303.934 488.257,-297.101"/>
</g>
<!-- vcorelib_math_time&#45;&gt;vcorelib_io_decode -->
<g id="edge34" class="edge"><title>vcorelib_math_time&#45;&gt;vcorelib_io_decode</title><style>.edge>path:hover{stroke-width:8}</style>
<path fill="none" stroke="black" d="M547.424,-568.587C541.286,-565.092 534.66,-561.81 528.134,-559.47 428.257,-523.66 378.676,-584.855 292.134,-523.47 277.451,-513.056 282.376,-503.148 273.134,-487.701"/>
</g>
<!-- vcorelib_math_time&#45;&gt;vcorelib_io_encode -->
<g id="edge35" class="edge"><title>vcorelib_math_time&#45;&gt;vcorelib_io_encode</title><style>.edge>path:hover{stroke-width:8}</style>
<path fill="none" stroke="black" d="M547.709,-568.639C541.498,-565.095 534.771,-561.781 528.134,-559.47 414.221,-519.803 361.559,-587.178 259.134,-523.47 242.877,-513.359 249.697,-500.127 235.134,-487.701"/>
</g>
<!-- vcorelib_math_time&#45;&gt;vcorelib_logging -->
<g id="edge36" class="edge"><title>vcorelib_math_time&#45;&gt;vcorelib_logging</title><style>.edge>path:hover{stroke-width:8}</style>
<path fill="none" stroke="black" d="M589.093,-561.508C599.139,-541.785 612.257,-513.704 620.134,-487.701"/>
<path fill="none" stroke="black" d="M620.134,-485.701C628.197,-459.082 611.646,-430.812 595.643,-411.189"/>
<polygon fill="#0505e5" stroke="black" points="598.295,-408.904 589.125,-403.597 592.984,-413.464 598.295,-408.904"/>
</g>
<!-- vcorelib_math_time&#45;&gt;vcorelib_task -->
<g id="edge37" class="edge"><title>vcorelib_math_time&#45;&gt;vcorelib_task</title><style>.edge>path:hover{stroke-width:8}</style>
<path fill="none" stroke="black" d="M620.134,-485.701C629.892,-453.487 656.86,-425.337 678.022,-407.227"/>
<polygon fill="#0505e5" stroke="black" points="680.327,-409.862 685.8,-400.79 675.865,-404.469 680.327,-409.862"/>
</g>
<!-- vcorelib_paths -->
<g id="node14" class="node"><title>vcorelib_paths</title><style>.edge>path:hover{stroke-width:8}</style>
<ellipse fill="#0606f9" stroke="black" cx="411.134" cy="-671.453" rx="45.1548" ry="18"/>
<text text-anchor="middle" x="411.134" y="-668.953" font-family="Helvetica,sans-Serif" font-size="10.00" fill="#ffffff">vcorelib.paths</text>
</g>
<!-- vcorelib_paths&#45;&gt;vcorelib_dict_cache -->
<g id="edge38" class="edge"><title>vcorelib_paths&#45;&gt;vcorelib_dict_cache</title><style>.edge>path:hover{stroke-width:8}</style>
<path fill="none" stroke="black" d="M403.134,-587.462C386.764,-507.778 393.852,-294.802 352.134,-224.966 342.297,-208.499 326.576,-194.481 311.739,-183.801"/>
<polygon fill="#0606f9" stroke="black" points="313.381,-180.682 303.156,-177.904 309.417,-186.452 313.381,-180.682"/>
</g>
<!-- vcorelib_paths&#45;&gt;vcorelib_io -->
<g id="edge39" class="edge"><title>vcorelib_paths&#45;&gt;vcorelib_io</title><style>.edge>path:hover{stroke-width:8}</style>
<path fill="none" stroke="black" d="M385.167,-656.385C367.416,-646.352 343.661,-632.095 324.134,-617.453 268.682,-575.872 77.9235,-444.414 115.134,-385.94"/>
</g>
<!-- vcorelib_paths&#45;&gt;vcorelib_io_cache -->
<g id="edge40" class="edge"><title>vcorelib_paths&#45;&gt;vcorelib_io_cache</title><style>.edge>path:hover{stroke-width:8}</style>
<path fill="none" stroke="black" d="M453.839,-665.317C508.593,-657.818 599.118,-642.029 621.134,-617.453 646.13,-589.55 638.38,-389.402 636.134,-385.94"/>
</g>
<!-- vcorelib_paths&#45;&gt;vcorelib_io_types -->
<g id="edge41" class="edge"><title>vcorelib_paths&#45;&gt;vcorelib_io_types</title><style>.edge>path:hover{stroke-width:8}</style>
<path fill="none" stroke="black" d="M410.473,-653.233C409.595,-636.73 407.598,-611.191 403.134,-589.462"/>
<path fill="none" stroke="black" d="M403.134,-587.462C397.831,-561.649 381.692,-536.807 366.823,-518.369"/>
<polygon fill="#0606f9" stroke="black" points="369.228,-515.789 360.125,-510.368 363.861,-520.282 369.228,-515.789"/>
</g>
<!-- vcorelib_script -->
<g id="node16" class="node"><title>vcorelib_script</title><style>.edge>path:hover{stroke-width:8}</style>
<ellipse fill="#4747c2" stroke="black" cx="893.134" cy="-754.444" rx="37.4533" ry="21.4286"/>
<text text-anchor="middle" x="893.134" y="-757.444" font-family="Helvetica,sans-Serif" font-size="10.00" fill="#ffffff">vcorelib.</text>
<text text-anchor="middle" x="893.134" y="-746.444" font-family="Helvetica,sans-Serif" font-size="10.00" fill="#ffffff">script</text>
</g>
<!-- vcorelib_script&#45;&gt;vcorelib_task_manager -->
<g id="edge42" class="edge"><title>vcorelib_script&#45;&gt;vcorelib_task_manager</title><style>.edge>path:hover{stroke-width:8}</style>
<path fill="none" stroke="black" d="M888.699,-733.187C885.994,-716.2 884.512,-691.702 893.134,-672.453"/>
</g>
<!-- vcorelib_target -->
<g id="node17" class="node"><title>vcorelib_target</title><style>.edge>path:hover{stroke-width:8}</style>
<ellipse fill="#2f2fdb" stroke="black" cx="800.134" cy="-754.444" rx="37.4533" ry="21.4286"/>
<text text-anchor="middle" x="800.134" y="-757.444" font-family="Helvetica,sans-Serif" font-size="10.00" fill="#ffffff">vcorelib.</text>
<text text-anchor="middle" x="800.134" y="-746.444" font-family="Helvetica,sans-Serif" font-size="10.00" fill="#ffffff">target</text>
</g>
<!-- vcorelib_target&#45;&gt;vcorelib_task -->
<g id="edge43" class="edge"><title>vcorelib_target&#45;&gt;vcorelib_task</title><style>.edge>path:hover{stroke-width:8}</style>
<path fill="none" stroke="black" d="M805.085,-733.169C816.407,-682.161 839.573,-545.744 790.134,-449.931 779.897,-430.092 760.392,-414.647 742.753,-403.906"/>
<polygon fill="#2f2fdb" stroke="black" points="744.169,-400.682 733.758,-398.719 740.673,-406.746 744.169,-400.682"/>
</g>
<!-- vcorelib_target&#45;&gt;vcorelib_task_manager -->
<g id="edge44" class="edge"><title>vcorelib_target&#45;&gt;vcorelib_task_manager</title><style>.edge>path:hover{stroke-width:8}</style>
<path fill="none" stroke="black" d="M826.681,-739.18C849.14,-725.439 879.744,-702.349 893.134,-672.453"/>
</g>
<!-- vcorelib_target_resolver -->
<g id="node18" class="node"><title>vcorelib_target_resolver</title><style>.edge>path:hover{stroke-width:8}</style>
<ellipse fill="#3d3db8" stroke="black" cx="986.134" cy="-754.444" rx="37.4533" ry="28.9828"/>
<text text-anchor="middle" x="986.134" y="-762.944" font-family="Helvetica,sans-Serif" font-size="10.00" fill="#ffffff">vcorelib.</text>
<text text-anchor="middle" x="986.134" y="-751.944" font-family="Helvetica,sans-Serif" font-size="10.00" fill="#ffffff">target.</text>
<text text-anchor="middle" x="986.134" y="-740.944" font-family="Helvetica,sans-Serif" font-size="10.00" fill="#ffffff">resolver</text>
</g>
<!-- vcorelib_target_resolver&#45;&gt;vcorelib_task_manager -->
<g id="edge45" class="edge"><title>vcorelib_target_resolver&#45;&gt;vcorelib_task_manager</title><style>.edge>path:hover{stroke-width:8}</style>
<path fill="none" stroke="black" d="M956.769,-736.298C926.882,-717.735 885.892,-688.622 893.134,-672.453"/>
</g>
</g>
</svg>
