<?xml version="1.0" encoding="UTF-8" standalone="no"?>
<!DOCTYPE svg PUBLIC "-//W3C//DTD SVG 1.1//EN"
 "http://www.w3.org/Graphics/SVG/1.1/DTD/svg11.dtd">
<!-- Generated by graphviz version 2.38.0 (20140413.2041)
 -->
<!-- Title: G Pages: 1 -->
<svg width="672pt" height="492pt"
 viewBox="0.00 0.00 671.88 491.93" xmlns="http://www.w3.org/2000/svg" xmlns:xlink="http://www.w3.org/1999/xlink">
<g id="graph0" class="graph" transform="scale(1 1) rotate(0) translate(4 487.931)">
<title>G</title><style>.edge>path:hover{stroke-width:8}</style>
<polygon fill="white" stroke="none" points="-4,4 -4,-487.931 667.876,-487.931 667.876,4 -4,4"/>
<!-- tomli -->
<g id="node1" class="node"><title>tomli</title><style>.edge>path:hover{stroke-width:8}</style>
<ellipse fill="#b65353" stroke="black" cx="414.481" cy="-393.931" rx="27" ry="18"/>
<text text-anchor="middle" x="414.481" y="-391.431" font-family="Helvetica,sans-Serif" font-size="10.00" fill="#ffffff">tomli</text>
</g>
<!-- vcorelib_io_decode -->
<g id="node7" class="node"><title>vcorelib_io_decode</title><style>.edge>path:hover{stroke-width:8}</style>
<ellipse fill="#303091" stroke="black" cx="363.481" cy="-122.974" rx="37.4533" ry="28.9828"/>
<text text-anchor="middle" x="363.481" y="-131.474" font-family="Helvetica,sans-Serif" font-size="10.00" fill="#ffffff">vcorelib.</text>
<text text-anchor="middle" x="363.481" y="-120.474" font-family="Helvetica,sans-Serif" font-size="10.00" fill="#ffffff">io.</text>
<text text-anchor="middle" x="363.481" y="-109.474" font-family="Helvetica,sans-Serif" font-size="10.00" fill="#ffffff">decode</text>
</g>
<!-- tomli&#45;&gt;vcorelib_io_decode -->
<g id="edge1" class="edge"><title>tomli&#45;&gt;vcorelib_io_decode</title><style>.edge>path:hover{stroke-width:8}</style>
<path fill="none" stroke="black" d="M416.145,-375.916C418.851,-344.495 423.086,-275.336 414.481,-217.957"/>
</g>
<!-- tomli_w -->
<g id="node2" class="node"><title>tomli_w</title><style>.edge>path:hover{stroke-width:8}</style>
<ellipse fill="#40c040" stroke="black" cx="526.481" cy="-393.931" rx="29.3664" ry="18"/>
<text text-anchor="middle" x="526.481" y="-391.431" font-family="Helvetica,sans-Serif" font-size="10.00" fill="#000000">tomli_w</text>
</g>
<!-- vcorelib_io_encode -->
<g id="node8" class="node"><title>vcorelib_io_encode</title><style>.edge>path:hover{stroke-width:8}</style>
<ellipse fill="#303091" stroke="black" cx="456.481" cy="-122.974" rx="37.4533" ry="28.9828"/>
<text text-anchor="middle" x="456.481" y="-131.474" font-family="Helvetica,sans-Serif" font-size="10.00" fill="#ffffff">vcorelib.</text>
<text text-anchor="middle" x="456.481" y="-120.474" font-family="Helvetica,sans-Serif" font-size="10.00" fill="#ffffff">io.</text>
<text text-anchor="middle" x="456.481" y="-109.474" font-family="Helvetica,sans-Serif" font-size="10.00" fill="#ffffff">encode</text>
</g>
<!-- tomli_w&#45;&gt;vcorelib_io_encode -->
<g id="edge2" class="edge"><title>tomli_w&#45;&gt;vcorelib_io_encode</title><style>.edge>path:hover{stroke-width:8}</style>
<path fill="none" stroke="black" d="M524.85,-375.731C523.67,-359.243 522.846,-333.714 526.481,-311.94"/>
</g>
<!-- vcorelib_dict -->
<g id="node3" class="node"><title>vcorelib_dict</title><style>.edge>path:hover{stroke-width:8}</style>
<ellipse fill="#1010f9" stroke="black" cx="414.481" cy="-465.931" rx="40.7358" ry="18"/>
<text text-anchor="middle" x="414.481" y="-463.431" font-family="Helvetica,sans-Serif" font-size="10.00" fill="#ffffff">vcorelib.dict</text>
</g>
<!-- vcorelib_io -->
<g id="node4" class="node"><title>vcorelib_io</title><style>.edge>path:hover{stroke-width:8}</style>
<ellipse fill="#0909b8" stroke="black" cx="363.481" cy="-28.9914" rx="35.8171" ry="18"/>
<text text-anchor="middle" x="363.481" y="-26.4914" font-family="Helvetica,sans-Serif" font-size="10.00" fill="#ffffff">vcorelib.io</text>
</g>
<!-- vcorelib_dict&#45;&gt;vcorelib_io -->
<g id="edge3" class="edge"><title>vcorelib_dict&#45;&gt;vcorelib_io</title><style>.edge>path:hover{stroke-width:8}</style>
<path fill="none" stroke="black" d="M454.902,-462.973C490.307,-458.862 539.841,-446.77 564.481,-411.931 600,-361.71 777.56,-542.999 549.481,-123.974"/>
</g>
<!-- vcorelib_io_cache -->
<g id="node6" class="node"><title>vcorelib_io_cache</title><style>.edge>path:hover{stroke-width:8}</style>
<ellipse fill="#373781" stroke="black" cx="227.481" cy="-28.9914" rx="37.4533" ry="28.9828"/>
<text text-anchor="middle" x="227.481" y="-37.4914" font-family="Helvetica,sans-Serif" font-size="10.00" fill="#ffffff">vcorelib.</text>
<text text-anchor="middle" x="227.481" y="-26.4914" font-family="Helvetica,sans-Serif" font-size="10.00" fill="#ffffff">io.</text>
<text text-anchor="middle" x="227.481" y="-15.4914" font-family="Helvetica,sans-Serif" font-size="10.00" fill="#ffffff">cache</text>
</g>
<!-- vcorelib_dict&#45;&gt;vcorelib_io_cache -->
<g id="edge4" class="edge"><title>vcorelib_dict&#45;&gt;vcorelib_io_cache</title><style>.edge>path:hover{stroke-width:8}</style>
<path fill="none" stroke="black" d="M374.514,-462.536C287.358,-456.836 83.0079,-440.744 20.4809,-411.931 10.1898,-407.189 4.25101,-405.918 1.48088,-394.931"/>
<path fill="none" stroke="black" d="M1.48088,-392.931C-10.3661,-345.942 73.529,-360.39 74.4809,-311.94"/>
<path fill="none" stroke="black" d="M74.4809,-309.94C76.1362,-225.685 0.372438,-199.635 37.4809,-123.974"/>
<path fill="none" stroke="black" d="M37.4809,-121.974C43.8269,-108.343 44.6607,-103.276 56.4809,-93.9828 93.2665,-65.0619 144.488,-48.2168 181.266,-39.1374"/>
<polygon fill="#1010f9" stroke="black" points="182.306,-42.4878 191.231,-36.7788 180.694,-35.6759 182.306,-42.4878"/>
</g>
<!-- vcorelib_dict&#45;&gt;vcorelib_io_decode -->
<g id="edge5" class="edge"><title>vcorelib_dict&#45;&gt;vcorelib_io_decode</title><style>.edge>path:hover{stroke-width:8}</style>
<path fill="none" stroke="black" d="M376.481,-309.94C373.594,-265.802 421.602,-261.612 414.481,-217.957"/>
<path fill="none" stroke="black" d="M414.481,-215.957C410.976,-194.472 399.675,-173.049 388.599,-156.29"/>
<polygon fill="#1010f9" stroke="black" points="391.426,-154.225 382.87,-147.976 385.662,-158.196 391.426,-154.225"/>
</g>
<!-- vcorelib_dict&#45;&gt;vcorelib_io_encode -->
<g id="edge6" class="edge"><title>vcorelib_dict&#45;&gt;vcorelib_io_encode</title><style>.edge>path:hover{stroke-width:8}</style>
<path fill="none" stroke="black" d="M427.608,-448.771C456.601,-412.842 523.764,-328.214 526.481,-311.94"/>
<path fill="none" stroke="black" d="M526.481,-309.94C535.499,-254.055 504.195,-193.406 480.556,-157.062"/>
<polygon fill="#1010f9" stroke="black" points="483.208,-154.731 474.74,-148.363 477.389,-158.621 483.208,-154.731"/>
</g>
<!-- vcorelib_io_types -->
<g id="node9" class="node"><title>vcorelib_io_types</title><style>.edge>path:hover{stroke-width:8}</style>
<ellipse fill="#0b0bdf" stroke="black" cx="311.481" cy="-216.957" rx="37.4533" ry="28.9828"/>
<text text-anchor="middle" x="311.481" y="-225.457" font-family="Helvetica,sans-Serif" font-size="10.00" fill="#ffffff">vcorelib.</text>
<text text-anchor="middle" x="311.481" y="-214.457" font-family="Helvetica,sans-Serif" font-size="10.00" fill="#ffffff">io.</text>
<text text-anchor="middle" x="311.481" y="-203.457" font-family="Helvetica,sans-Serif" font-size="10.00" fill="#ffffff">types</text>
</g>
<!-- vcorelib_dict&#45;&gt;vcorelib_io_types -->
<g id="edge7" class="edge"><title>vcorelib_dict&#45;&gt;vcorelib_io_types</title><style>.edge>path:hover{stroke-width:8}</style>
<path fill="none" stroke="black" d="M400.092,-449.065C392.084,-439.161 382.869,-425.709 378.481,-411.931 364.992,-369.578 375.161,-356.37 376.481,-311.94"/>
<path fill="none" stroke="black" d="M376.481,-309.94C374.876,-285.404 359.166,-262.78 343.594,-246.109"/>
<polygon fill="#1010f9" stroke="black" points="346.004,-243.567 336.501,-238.882 341.008,-248.47 346.004,-243.567"/>
</g>
<!-- vcorelib_math_time -->
<g id="node12" class="node"><title>vcorelib_math_time</title><style>.edge>path:hover{stroke-width:8}</style>
<ellipse fill="#0b0bdf" stroke="black" cx="139.481" cy="-310.94" rx="37.4533" ry="28.9828"/>
<text text-anchor="middle" x="139.481" y="-319.44" font-family="Helvetica,sans-Serif" font-size="10.00" fill="#ffffff">vcorelib.</text>
<text text-anchor="middle" x="139.481" y="-308.44" font-family="Helvetica,sans-Serif" font-size="10.00" fill="#ffffff">math.</text>
<text text-anchor="middle" x="139.481" y="-297.44" font-family="Helvetica,sans-Serif" font-size="10.00" fill="#ffffff">time</text>
</g>
<!-- vcorelib_dict&#45;&gt;vcorelib_math_time -->
<g id="edge8" class="edge"><title>vcorelib_dict&#45;&gt;vcorelib_math_time</title><style>.edge>path:hover{stroke-width:8}</style>
<path fill="none" stroke="black" d="M1.48088,-392.931C-1.28925,-381.944 11.1829,-382.407 20.4809,-375.931 48.5411,-356.386 58.38,-356.158 88.4809,-339.931 92.4385,-337.797 96.5619,-335.56 100.674,-333.318"/>
<polygon fill="#1010f9" stroke="black" points="102.493,-336.313 109.588,-328.444 99.1346,-330.171 102.493,-336.313"/>
</g>
<!-- vcorelib_io_archive -->
<g id="node5" class="node"><title>vcorelib_io_archive</title><style>.edge>path:hover{stroke-width:8}</style>
<ellipse fill="#3535a1" stroke="black" cx="195.481" cy="-122.974" rx="37.4533" ry="28.9828"/>
<text text-anchor="middle" x="195.481" y="-131.474" font-family="Helvetica,sans-Serif" font-size="10.00" fill="#ffffff">vcorelib.</text>
<text text-anchor="middle" x="195.481" y="-120.474" font-family="Helvetica,sans-Serif" font-size="10.00" fill="#ffffff">io.</text>
<text text-anchor="middle" x="195.481" y="-109.474" font-family="Helvetica,sans-Serif" font-size="10.00" fill="#ffffff">archive</text>
</g>
<!-- vcorelib_io_archive&#45;&gt;vcorelib_io_cache -->
<g id="edge9" class="edge"><title>vcorelib_io_archive&#45;&gt;vcorelib_io_cache</title><style>.edge>path:hover{stroke-width:8}</style>
<path fill="none" stroke="black" d="M204.909,-94.8738C207.974,-86.0636 211.428,-76.134 214.696,-66.7409"/>
<polygon fill="#3535a1" stroke="black" points="218.03,-67.8107 218.01,-57.2159 211.418,-65.5106 218.03,-67.8107"/>
</g>
<!-- vcorelib_io_decode&#45;&gt;vcorelib_io -->
<g id="edge10" class="edge"><title>vcorelib_io_decode&#45;&gt;vcorelib_io</title><style>.edge>path:hover{stroke-width:8}</style>
<path fill="none" stroke="black" d="M363.481,-93.8765C363.481,-82.3457 363.481,-69.0371 363.481,-57.5615"/>
<polygon fill="#303091" stroke="black" points="366.981,-57.2386 363.481,-47.2386 359.981,-57.2387 366.981,-57.2386"/>
</g>
<!-- vcorelib_io_encode&#45;&gt;vcorelib_io -->
<g id="edge11" class="edge"><title>vcorelib_io_encode&#45;&gt;vcorelib_io</title><style>.edge>path:hover{stroke-width:8}</style>
<path fill="none" stroke="black" d="M433.968,-99.7077C419.502,-85.4002 400.772,-66.8744 386.255,-52.5165"/>
<polygon fill="#303091" stroke="black" points="388.664,-49.9762 379.093,-45.4326 383.741,-54.9532 388.664,-49.9762"/>
</g>
<!-- vcorelib_io_types&#45;&gt;vcorelib_io -->
<g id="edge12" class="edge"><title>vcorelib_io_types&#45;&gt;vcorelib_io</title><style>.edge>path:hover{stroke-width:8}</style>
<path fill="none" stroke="black" d="M298.481,-121.974C296.093,-93.8441 317.072,-68.1871 335.821,-51.1606"/>
<polygon fill="#0b0bdf" stroke="black" points="338.361,-53.5925 343.646,-44.4099 333.788,-48.2925 338.361,-53.5925"/>
</g>
<!-- vcorelib_io_types&#45;&gt;vcorelib_io_archive -->
<g id="edge13" class="edge"><title>vcorelib_io_types&#45;&gt;vcorelib_io_archive</title><style>.edge>path:hover{stroke-width:8}</style>
<path fill="none" stroke="black" d="M285.737,-195.543C269.067,-182.324 247.184,-164.972 229.141,-150.665"/>
<polygon fill="#0b0bdf" stroke="black" points="231.163,-147.802 221.153,-144.331 226.814,-153.287 231.163,-147.802"/>
</g>
<!-- vcorelib_io_types&#45;&gt;vcorelib_io_cache -->
<g id="edge14" class="edge"><title>vcorelib_io_types&#45;&gt;vcorelib_io_cache</title><style>.edge>path:hover{stroke-width:8}</style>
<path fill="none" stroke="black" d="M306.683,-187.869C303.785,-169.701 300.309,-145.508 298.481,-123.974"/>
<path fill="none" stroke="black" d="M298.481,-121.974C296.306,-96.3502 278.692,-73.4375 261.554,-56.8894"/>
<polygon fill="#0b0bdf" stroke="black" points="263.505,-53.9295 253.771,-49.7473 258.772,-59.0872 263.505,-53.9295"/>
</g>
<!-- vcorelib_io_types&#45;&gt;vcorelib_io_decode -->
<g id="edge15" class="edge"><title>vcorelib_io_types&#45;&gt;vcorelib_io_decode</title><style>.edge>path:hover{stroke-width:8}</style>
<path fill="none" stroke="black" d="M326.243,-189.844C331.724,-180.149 338.029,-168.995 343.875,-158.654"/>
<polygon fill="#0b0bdf" stroke="black" points="346.987,-160.261 348.862,-149.834 340.894,-156.816 346.987,-160.261"/>
</g>
<!-- vcorelib_io_types&#45;&gt;vcorelib_io_encode -->
<g id="edge16" class="edge"><title>vcorelib_io_types&#45;&gt;vcorelib_io_encode</title><style>.edge>path:hover{stroke-width:8}</style>
<path fill="none" stroke="black" d="M340.128,-197.784C362.768,-183.422 394.547,-163.263 419.174,-147.64"/>
<polygon fill="#0b0bdf" stroke="black" points="421.324,-150.421 427.893,-142.109 417.574,-144.51 421.324,-150.421"/>
</g>
<!-- vcorelib_logging -->
<g id="node10" class="node"><title>vcorelib_logging</title><style>.edge>path:hover{stroke-width:8}</style>
<ellipse fill="#4646a4" stroke="black" cx="102.481" cy="-122.974" rx="37.4533" ry="21.4286"/>
<text text-anchor="middle" x="102.481" y="-125.974" font-family="Helvetica,sans-Serif" font-size="10.00" fill="#ffffff">vcorelib.</text>
<text text-anchor="middle" x="102.481" y="-114.974" font-family="Helvetica,sans-Serif" font-size="10.00" fill="#ffffff">logging</text>
</g>
<!-- vcorelib_math -->
<g id="node11" class="node"><title>vcorelib_math</title><style>.edge>path:hover{stroke-width:8}</style>
<ellipse fill="#1010f9" stroke="black" cx="239.481" cy="-310.94" rx="44.3" ry="18"/>
<text text-anchor="middle" x="239.481" y="-308.44" font-family="Helvetica,sans-Serif" font-size="10.00" fill="#ffffff">vcorelib.math</text>
</g>
<!-- vcorelib_math&#45;&gt;vcorelib_io_archive -->
<g id="edge17" class="edge"><title>vcorelib_math&#45;&gt;vcorelib_io_archive</title><style>.edge>path:hover{stroke-width:8}</style>
<path fill="none" stroke="black" d="M218.008,-294.917C197.394,-278.53 169.503,-250.282 170.481,-217.957"/>
</g>
<!-- vcorelib_math&#45;&gt;vcorelib_io_cache -->
<g id="edge18" class="edge"><title>vcorelib_math&#45;&gt;vcorelib_io_cache</title><style>.edge>path:hover{stroke-width:8}</style>
<path fill="none" stroke="black" d="M238.151,-292.773C237.281,-273.87 237.631,-242.856 246.481,-217.957"/>
<path fill="none" stroke="black" d="M246.481,-215.957C264.091,-166.411 251.8,-105.09 240.402,-66.7449"/>
<polygon fill="#1010f9" stroke="black" points="243.697,-65.5533 237.39,-57.0403 237.012,-67.6283 243.697,-65.5533"/>
</g>
<!-- vcorelib_math&#45;&gt;vcorelib_io_decode -->
<g id="edge19" class="edge"><title>vcorelib_math&#45;&gt;vcorelib_io_decode</title><style>.edge>path:hover{stroke-width:8}</style>
<path fill="none" stroke="black" d="M246.481,-215.957C251.516,-201.789 254.754,-198.502 265.481,-187.966 275.314,-178.306 302.248,-160.913 325.397,-146.696"/>
<polygon fill="#1010f9" stroke="black" points="327.324,-149.62 334.039,-141.425 323.679,-143.644 327.324,-149.62"/>
</g>
<!-- vcorelib_math&#45;&gt;vcorelib_io_encode -->
<g id="edge20" class="edge"><title>vcorelib_math&#45;&gt;vcorelib_io_encode</title><style>.edge>path:hover{stroke-width:8}</style>
<path fill="none" stroke="black" d="M270.6,-297.96C295.987,-287.106 331.738,-269.251 357.481,-245.948 368.628,-235.858 364.655,-227.243 376.481,-217.957"/>
</g>
<!-- vcorelib_math&#45;&gt;vcorelib_logging -->
<g id="edge21" class="edge"><title>vcorelib_math&#45;&gt;vcorelib_logging</title><style>.edge>path:hover{stroke-width:8}</style>
<path fill="none" stroke="black" d="M215.01,-295.748C196.896,-284.231 172.657,-266.56 156.481,-245.948 134.645,-218.124 119.644,-180.086 111.094,-153.925"/>
<polygon fill="#1010f9" stroke="black" points="114.37,-152.674 108.029,-144.186 107.692,-154.775 114.37,-152.674"/>
</g>
<!-- vcorelib_math_time&#45;&gt;vcorelib_io_archive -->
<g id="edge22" class="edge"><title>vcorelib_math_time&#45;&gt;vcorelib_io_archive</title><style>.edge>path:hover{stroke-width:8}</style>
<path fill="none" stroke="black" d="M152.896,-283.75C160.953,-265.754 169.782,-241.033 170.481,-217.957"/>
<path fill="none" stroke="black" d="M170.481,-215.957C171.045,-197.328 175.951,-177.287 181.27,-160.682"/>
<polygon fill="#0b0bdf" stroke="black" points="184.713,-161.425 184.6,-150.831 178.082,-159.183 184.713,-161.425"/>
</g>
<!-- vcorelib_math_time&#45;&gt;vcorelib_io_cache -->
<g id="edge23" class="edge"><title>vcorelib_math_time&#45;&gt;vcorelib_io_cache</title><style>.edge>path:hover{stroke-width:8}</style>
<path fill="none" stroke="black" d="M118.007,-287.021C103.102,-269.549 84.3843,-244.108 75.4809,-217.957"/>
<path fill="none" stroke="black" d="M75.4809,-215.957C61.2251,-174.085 18.0034,-163.687 37.4809,-123.974"/>
</g>
<!-- vcorelib_math_time&#45;&gt;vcorelib_io_decode -->
<g id="edge24" class="edge"><title>vcorelib_math_time&#45;&gt;vcorelib_io_decode</title><style>.edge>path:hover{stroke-width:8}</style>
<path fill="none" stroke="black" d="M157.331,-285.204C181.632,-251.741 223.175,-195.355 232.481,-187.966 263.015,-163.719 277.586,-169.359 312.481,-151.966 316.505,-149.96 320.671,-147.805 324.809,-145.614"/>
<polygon fill="#0b0bdf" stroke="black" points="326.606,-148.622 333.756,-140.803 323.291,-142.457 326.606,-148.622"/>
</g>
<!-- vcorelib_math_time&#45;&gt;vcorelib_io_encode -->
<g id="edge25" class="edge"><title>vcorelib_math_time&#45;&gt;vcorelib_io_encode</title><style>.edge>path:hover{stroke-width:8}</style>
<path fill="none" stroke="black" d="M167.295,-291.345C173.426,-287.83 180.023,-284.47 186.481,-281.948 258.826,-253.695 292.987,-289.221 357.481,-245.948 369.967,-237.571 364.655,-227.243 376.481,-217.957"/>
<path fill="none" stroke="black" d="M376.481,-215.957C397.941,-199.106 418.076,-175.9 432.777,-157.012"/>
<polygon fill="#0b0bdf" stroke="black" points="435.649,-159.018 438.934,-148.945 430.084,-154.771 435.649,-159.018"/>
</g>
<!-- vcorelib_math_time&#45;&gt;vcorelib_logging -->
<g id="edge26" class="edge"><title>vcorelib_math_time&#45;&gt;vcorelib_logging</title><style>.edge>path:hover{stroke-width:8}</style>
<path fill="none" stroke="black" d="M75.4809,-215.957C68.2639,-194.759 76.0912,-170.435 85.1425,-152.126"/>
<polygon fill="#0b0bdf" stroke="black" points="88.3114,-153.622 89.9142,-143.149 82.1302,-150.336 88.3114,-153.622"/>
</g>
<!-- vcorelib_paths -->
<g id="node13" class="node"><title>vcorelib_paths</title><style>.edge>path:hover{stroke-width:8}</style>
<ellipse fill="#2626d9" stroke="black" cx="74.4809" cy="-393.931" rx="45.1548" ry="18"/>
<text text-anchor="middle" x="74.4809" y="-391.431" font-family="Helvetica,sans-Serif" font-size="10.00" fill="#ffffff">vcorelib.paths</text>
</g>
<!-- vcorelib_paths&#45;&gt;vcorelib_io -->
<g id="edge27" class="edge"><title>vcorelib_paths&#45;&gt;vcorelib_io</title><style>.edge>path:hover{stroke-width:8}</style>
<path fill="none" stroke="black" d="M118.583,-389.622C194.401,-383.27 345.638,-367.496 390.481,-339.931 441.251,-308.723 574.403,-178.107 549.481,-123.974"/>
<path fill="none" stroke="black" d="M549.481,-121.974C521.301,-70.2015 453.158,-47.0336 407.65,-37.0548"/>
<polygon fill="#2626d9" stroke="black" points="408.241,-33.6031 397.74,-35.0104 406.827,-40.4588 408.241,-33.6031"/>
</g>
<!-- vcorelib_paths&#45;&gt;vcorelib_io_cache -->
<g id="edge28" class="edge"><title>vcorelib_paths&#45;&gt;vcorelib_io_cache</title><style>.edge>path:hover{stroke-width:8}</style>
<path fill="none" stroke="black" d="M74.2863,-375.865C74.1455,-359.473 74.0472,-334.011 74.4809,-311.94"/>
</g>
<!-- vcorelib_paths&#45;&gt;vcorelib_io_types -->
<g id="edge29" class="edge"><title>vcorelib_paths&#45;&gt;vcorelib_io_types</title><style>.edge>path:hover{stroke-width:8}</style>
<path fill="none" stroke="black" d="M117.764,-388.093C174.406,-380.841 269.217,-365.235 292.481,-339.931 312.969,-317.646 316.633,-282.819 315.8,-256.076"/>
<polygon fill="#2626d9" stroke="black" points="319.285,-255.701 315.26,-245.901 312.295,-256.072 319.285,-255.701"/>
</g>
</g>
</svg>
