<?xml version="1.0" encoding="UTF-8" standalone="no"?>
<!DOCTYPE svg PUBLIC "-//W3C//DTD SVG 1.1//EN"
 "http://www.w3.org/Graphics/SVG/1.1/DTD/svg11.dtd">
<!-- Generated by graphviz version 3.0.1~dev.20220405.0544 (20220405.0544)
 -->
<!-- Title: G Pages: 1 -->
<svg width="1042pt" height="823pt"
 viewBox="0.00 0.00 1042.46 822.55" xmlns="http://www.w3.org/2000/svg" xmlns:xlink="http://www.w3.org/1999/xlink">
<g id="graph0" class="graph" transform="scale(1 1) rotate(0) translate(4 818.55)">
<title>G</title><style>.edge>path:hover{stroke-width:8}</style>
<polygon fill="white" stroke="transparent" points="-4,4 -4,-818.55 1038.46,-818.55 1038.46,4 -4,4"/>
<!-- tomli -->
<g id="node1" class="node">
<title>tomli</title><style>.edge>path:hover{stroke-width:8}</style>
<ellipse fill="#b65353" stroke="black" cx="194.82" cy="-698.32" rx="27" ry="18"/>
<text text-anchor="middle" x="194.82" y="-695.32" font-family="Helvetica,sans-Serif" font-size="10.00" fill="#ffffff">tomli</text>
</g>
<!-- vcorelib_io_decode -->
<g id="node8" class="node">
<title>vcorelib_io_decode</title><style>.edge>path:hover{stroke-width:8}</style>
<ellipse fill="#303091" stroke="black" cx="275.82" cy="-399.79" rx="37.79" ry="31.23"/>
<text text-anchor="middle" x="275.82" y="-408.79" font-family="Helvetica,sans-Serif" font-size="10.00" fill="#ffffff">vcorelib.</text>
<text text-anchor="middle" x="275.82" y="-396.79" font-family="Helvetica,sans-Serif" font-size="10.00" fill="#ffffff">io.</text>
<text text-anchor="middle" x="275.82" y="-384.79" font-family="Helvetica,sans-Serif" font-size="10.00" fill="#ffffff">decode</text>
</g>
<!-- tomli&#45;&gt;vcorelib_io_decode -->
<g id="edge1" class="edge">
<title>tomli&#45;&gt;vcorelib_io_decode</title><style>.edge>path:hover{stroke-width:8}</style>
<path fill="none" stroke="black" d="M199.4,-680.53C211.95,-634.59 247.1,-505.92 265.02,-440.32"/>
<polygon fill="#b65353" stroke="black" points="268.48,-440.92 267.74,-430.35 261.73,-439.08 268.48,-440.92"/>
</g>
<!-- tomli_w -->
<g id="node2" class="node">
<title>tomli_w</title><style>.edge>path:hover{stroke-width:8}</style>
<ellipse fill="#40c040" stroke="black" cx="119.82" cy="-698.32" rx="30.01" ry="18"/>
<text text-anchor="middle" x="119.82" y="-695.32" font-family="Helvetica,sans-Serif" font-size="10.00" fill="#000000">tomli_w</text>
</g>
<!-- vcorelib_io_encode -->
<g id="node9" class="node">
<title>vcorelib_io_encode</title><style>.edge>path:hover{stroke-width:8}</style>
<ellipse fill="#303091" stroke="black" cx="182.82" cy="-399.79" rx="37.79" ry="31.23"/>
<text text-anchor="middle" x="182.82" y="-408.79" font-family="Helvetica,sans-Serif" font-size="10.00" fill="#ffffff">vcorelib.</text>
<text text-anchor="middle" x="182.82" y="-396.79" font-family="Helvetica,sans-Serif" font-size="10.00" fill="#ffffff">io.</text>
<text text-anchor="middle" x="182.82" y="-384.79" font-family="Helvetica,sans-Serif" font-size="10.00" fill="#ffffff">encode</text>
</g>
<!-- tomli_w&#45;&gt;vcorelib_io_encode -->
<g id="edge2" class="edge">
<title>tomli_w&#45;&gt;vcorelib_io_encode</title><style>.edge>path:hover{stroke-width:8}</style>
<path fill="none" stroke="black" d="M116.1,-680.2C109.5,-645.82 98.64,-566.64 123.82,-507.5"/>
</g>
<!-- vcorelib_dict -->
<g id="node3" class="node">
<title>vcorelib_dict</title><style>.edge>path:hover{stroke-width:8}</style>
<ellipse fill="#1010f9" stroke="black" cx="534.82" cy="-783.44" rx="41.24" ry="18"/>
<text text-anchor="middle" x="534.82" y="-780.44" font-family="Helvetica,sans-Serif" font-size="10.00" fill="#ffffff">vcorelib.dict</text>
</g>
<!-- vcorelib_io -->
<g id="node5" class="node">
<title>vcorelib_io</title><style>.edge>path:hover{stroke-width:8}</style>
<ellipse fill="#0404bd" stroke="black" cx="242.82" cy="-301.56" rx="36.89" ry="18"/>
<text text-anchor="middle" x="242.82" y="-298.56" font-family="Helvetica,sans-Serif" font-size="10.00" fill="#ffffff">vcorelib.io</text>
</g>
<!-- vcorelib_dict&#45;&gt;vcorelib_io -->
<g id="edge3" class="edge">
<title>vcorelib_dict&#45;&gt;vcorelib_io</title><style>.edge>path:hover{stroke-width:8}</style>
<path fill="none" stroke="black" d="M493.24,-782.19C392.71,-780.71 140.36,-771.45 80.82,-716.32 46.68,-684.72 57.82,-660.73 57.82,-614.21"/>
<path fill="none" stroke="black" d="M57.82,-612.21C55.29,-576.25 21.78,-580.44 10.82,-546.1 0.11,-512.57 -6.26,-497.68 10.82,-466.9 37.75,-418.35 84.79,-446.14 116.82,-400.79"/>
<path fill="none" stroke="black" d="M116.82,-398.79C125.55,-385.59 124.57,-379.81 135.82,-368.68 156.72,-347.97 185.26,-330.74 207.61,-319.07"/>
<polygon fill="#1010f9" stroke="black" points="209.44,-322.07 216.77,-314.42 206.27,-315.83 209.44,-322.07"/>
</g>
<!-- vcorelib_io_cache -->
<g id="node7" class="node">
<title>vcorelib_io_cache</title><style>.edge>path:hover{stroke-width:8}</style>
<ellipse fill="#373781" stroke="black" cx="445.82" cy="-301.56" rx="37.79" ry="31.23"/>
<text text-anchor="middle" x="445.82" y="-310.56" font-family="Helvetica,sans-Serif" font-size="10.00" fill="#ffffff">vcorelib.</text>
<text text-anchor="middle" x="445.82" y="-298.56" font-family="Helvetica,sans-Serif" font-size="10.00" fill="#ffffff">io.</text>
<text text-anchor="middle" x="445.82" y="-286.56" font-family="Helvetica,sans-Serif" font-size="10.00" fill="#ffffff">cache</text>
</g>
<!-- vcorelib_dict&#45;&gt;vcorelib_io_cache -->
<g id="edge4" class="edge">
<title>vcorelib_dict&#45;&gt;vcorelib_io_cache</title><style>.edge>path:hover{stroke-width:8}</style>
<path fill="none" stroke="black" d="M785.82,-505.5C776.45,-459.91 809.08,-441.1 785.82,-400.79"/>
<path fill="none" stroke="black" d="M785.82,-398.79C777.91,-385.08 779.83,-377.68 766.82,-368.68 723,-338.34 571.41,-317 493.25,-307.73"/>
<polygon fill="#1010f9" stroke="black" points="493.52,-304.24 483.18,-306.56 492.71,-311.19 493.52,-304.24"/>
</g>
<!-- vcorelib_dict&#45;&gt;vcorelib_io_decode -->
<g id="edge5" class="edge">
<title>vcorelib_dict&#45;&gt;vcorelib_io_decode</title><style>.edge>path:hover{stroke-width:8}</style>
<path fill="none" stroke="black" d="M494.87,-778.44C454.76,-772.21 394.27,-756.38 360.82,-716.32 331.23,-680.89 348.71,-659.85 341.82,-614.21"/>
<path fill="none" stroke="black" d="M341.82,-612.21C334.15,-576.98 313.28,-577.06 294.82,-546.1 285.02,-529.68 285.52,-523.98 275.82,-507.5"/>
<path fill="none" stroke="black" d="M275.82,-505.5C264.45,-486.2 264.03,-461.23 266.64,-440.51"/>
<polygon fill="#1010f9" stroke="black" points="270.13,-440.84 268.19,-430.43 263.21,-439.78 270.13,-440.84"/>
</g>
<!-- vcorelib_dict&#45;&gt;vcorelib_io_encode -->
<g id="edge6" class="edge">
<title>vcorelib_dict&#45;&gt;vcorelib_io_encode</title><style>.edge>path:hover{stroke-width:8}</style>
<path fill="none" stroke="black" d="M57.82,-612.21C57.82,-576.16 86.35,-577.06 104.82,-546.1 114.61,-529.68 115.81,-524.86 123.82,-507.5"/>
<path fill="none" stroke="black" d="M123.82,-505.5C134.72,-481.84 149.03,-456.34 160.82,-436.44"/>
<polygon fill="#1010f9" stroke="black" points="163.91,-438.09 166.04,-427.71 157.9,-434.49 163.91,-438.09"/>
</g>
<!-- vcorelib_io_types -->
<g id="node10" class="node">
<title>vcorelib_io_types</title><style>.edge>path:hover{stroke-width:8}</style>
<ellipse fill="#0505e5" stroke="black" cx="341.82" cy="-506.5" rx="37.79" ry="31.23"/>
<text text-anchor="middle" x="341.82" y="-515.5" font-family="Helvetica,sans-Serif" font-size="10.00" fill="#ffffff">vcorelib.</text>
<text text-anchor="middle" x="341.82" y="-503.5" font-family="Helvetica,sans-Serif" font-size="10.00" fill="#ffffff">io.</text>
<text text-anchor="middle" x="341.82" y="-491.5" font-family="Helvetica,sans-Serif" font-size="10.00" fill="#ffffff">types</text>
</g>
<!-- vcorelib_dict&#45;&gt;vcorelib_io_types -->
<g id="edge7" class="edge">
<title>vcorelib_dict&#45;&gt;vcorelib_io_types</title><style>.edge>path:hover{stroke-width:8}</style>
<path fill="none" stroke="black" d="M341.82,-612.21C338.64,-591.18 338.37,-567.51 339.01,-548"/>
<polygon fill="#1010f9" stroke="black" points="342.51,-548.06 339.43,-537.92 335.51,-547.77 342.51,-548.06"/>
</g>
<!-- vcorelib_math_time -->
<g id="node13" class="node">
<title>vcorelib_math_time</title><style>.edge>path:hover{stroke-width:8}</style>
<ellipse fill="#0505e5" stroke="black" cx="581.82" cy="-613.21" rx="37.79" ry="31.23"/>
<text text-anchor="middle" x="581.82" y="-622.21" font-family="Helvetica,sans-Serif" font-size="10.00" fill="#ffffff">vcorelib.</text>
<text text-anchor="middle" x="581.82" y="-610.21" font-family="Helvetica,sans-Serif" font-size="10.00" fill="#ffffff">math.</text>
<text text-anchor="middle" x="581.82" y="-598.21" font-family="Helvetica,sans-Serif" font-size="10.00" fill="#ffffff">time</text>
</g>
<!-- vcorelib_dict&#45;&gt;vcorelib_math_time -->
<g id="edge8" class="edge">
<title>vcorelib_dict&#45;&gt;vcorelib_math_time</title><style>.edge>path:hover{stroke-width:8}</style>
<path fill="none" stroke="black" d="M573.86,-777.38C642.37,-767.41 777.8,-742.36 785.82,-699.32"/>
<path fill="none" stroke="black" d="M785.82,-697.32C798.33,-630.19 694.14,-616.27 629.96,-614"/>
<polygon fill="#1010f9" stroke="black" points="629.73,-610.49 619.64,-613.72 629.54,-617.49 629.73,-610.49"/>
</g>
<!-- vcorelib_paths_info_cache -->
<g id="node15" class="node">
<title>vcorelib_paths_info_cache</title><style>.edge>path:hover{stroke-width:8}</style>
<ellipse fill="#3d3d8f" stroke="black" cx="275.82" cy="-31.11" rx="45.53" ry="31.23"/>
<text text-anchor="middle" x="275.82" y="-40.11" font-family="Helvetica,sans-Serif" font-size="10.00" fill="#ffffff">vcorelib.</text>
<text text-anchor="middle" x="275.82" y="-28.11" font-family="Helvetica,sans-Serif" font-size="10.00" fill="#ffffff">paths.</text>
<text text-anchor="middle" x="275.82" y="-16.11" font-family="Helvetica,sans-Serif" font-size="10.00" fill="#ffffff">info_cache</text>
</g>
<!-- vcorelib_dict&#45;&gt;vcorelib_paths_info_cache -->
<g id="edge9" class="edge">
<title>vcorelib_dict&#45;&gt;vcorelib_paths_info_cache</title><style>.edge>path:hover{stroke-width:8}</style>
<path fill="none" stroke="black" d="M785.82,-398.79C777.91,-385.08 778.66,-379.17 766.82,-368.68 610.39,-230.05 467.09,-334.65 341.82,-167.34"/>
</g>
<!-- vcorelib_task -->
<g id="node19" class="node">
<title>vcorelib_task</title><style>.edge>path:hover{stroke-width:8}</style>
<ellipse fill="#1515c1" stroke="black" cx="714.82" cy="-399.79" rx="43.08" ry="18"/>
<text text-anchor="middle" x="714.82" y="-396.79" font-family="Helvetica,sans-Serif" font-size="10.00" fill="#ffffff">vcorelib.task</text>
</g>
<!-- vcorelib_dict&#45;&gt;vcorelib_task -->
<g id="edge10" class="edge">
<title>vcorelib_dict&#45;&gt;vcorelib_task</title><style>.edge>path:hover{stroke-width:8}</style>
<path fill="none" stroke="black" d="M785.82,-697.32C801.27,-614.38 799.31,-590.78 785.82,-507.5"/>
<path fill="none" stroke="black" d="M785.82,-505.5C779.29,-473.73 756.67,-443.78 738.7,-424.11"/>
<polygon fill="#1010f9" stroke="black" points="741,-421.45 731.58,-416.59 735.91,-426.26 741,-421.45"/>
</g>
<!-- vcorelib_task_dict_melder -->
<g id="node20" class="node">
<title>vcorelib_task_dict_melder</title><style>.edge>path:hover{stroke-width:8}</style>
<ellipse fill="#4646a4" stroke="black" cx="57.82" cy="-506.5" rx="37.79" ry="39.7"/>
<text text-anchor="middle" x="57.82" y="-521.5" font-family="Helvetica,sans-Serif" font-size="10.00" fill="#ffffff">vcorelib.</text>
<text text-anchor="middle" x="57.82" y="-509.5" font-family="Helvetica,sans-Serif" font-size="10.00" fill="#ffffff">task.</text>
<text text-anchor="middle" x="57.82" y="-497.5" font-family="Helvetica,sans-Serif" font-size="10.00" fill="#ffffff">dict.</text>
<text text-anchor="middle" x="57.82" y="-485.5" font-family="Helvetica,sans-Serif" font-size="10.00" fill="#ffffff">melder</text>
</g>
<!-- vcorelib_dict&#45;&gt;vcorelib_task_dict_melder -->
<g id="edge11" class="edge">
<title>vcorelib_dict&#45;&gt;vcorelib_task_dict_melder</title><style>.edge>path:hover{stroke-width:8}</style>
<path fill="none" stroke="black" d="M57.82,-612.21C57.82,-593.97 57.82,-573.95 57.82,-556.34"/>
<polygon fill="#1010f9" stroke="black" points="61.32,-556.29 57.82,-546.29 54.32,-556.29 61.32,-556.29"/>
</g>
<!-- vcorelib_task_manager -->
<g id="node21" class="node">
<title>vcorelib_task_manager</title><style>.edge>path:hover{stroke-width:8}</style>
<ellipse fill="#3d3d8f" stroke="black" cx="903.82" cy="-613.21" rx="39.44" ry="31.23"/>
<text text-anchor="middle" x="903.82" y="-622.21" font-family="Helvetica,sans-Serif" font-size="10.00" fill="#ffffff">vcorelib.</text>
<text text-anchor="middle" x="903.82" y="-610.21" font-family="Helvetica,sans-Serif" font-size="10.00" fill="#ffffff">task.</text>
<text text-anchor="middle" x="903.82" y="-598.21" font-family="Helvetica,sans-Serif" font-size="10.00" fill="#ffffff">manager</text>
</g>
<!-- vcorelib_dict&#45;&gt;vcorelib_task_manager -->
<g id="edge12" class="edge">
<title>vcorelib_dict&#45;&gt;vcorelib_task_manager</title><style>.edge>path:hover{stroke-width:8}</style>
<path fill="none" stroke="black" d="M573.66,-777.2C665.7,-764.31 890.43,-729.89 903.82,-699.32"/>
<path fill="none" stroke="black" d="M903.82,-697.32C909.58,-684.16 910.86,-668.65 910.27,-654.63"/>
<polygon fill="#1010f9" stroke="black" points="913.73,-653.96 909.5,-644.25 906.75,-654.48 913.73,-653.96"/>
</g>
<!-- vcorelib_dict_cache -->
<g id="node4" class="node">
<title>vcorelib_dict_cache</title><style>.edge>path:hover{stroke-width:8}</style>
<ellipse fill="#3838a8" stroke="black" cx="275.82" cy="-166.34" rx="37.79" ry="31.23"/>
<text text-anchor="middle" x="275.82" y="-175.34" font-family="Helvetica,sans-Serif" font-size="10.00" fill="#ffffff">vcorelib.</text>
<text text-anchor="middle" x="275.82" y="-163.34" font-family="Helvetica,sans-Serif" font-size="10.00" fill="#ffffff">dict.</text>
<text text-anchor="middle" x="275.82" y="-151.34" font-family="Helvetica,sans-Serif" font-size="10.00" fill="#ffffff">cache</text>
</g>
<!-- vcorelib_dict_cache&#45;&gt;vcorelib_paths_info_cache -->
<g id="edge13" class="edge">
<title>vcorelib_dict_cache&#45;&gt;vcorelib_paths_info_cache</title><style>.edge>path:hover{stroke-width:8}</style>
<path fill="none" stroke="black" d="M275.82,-135.06C275.82,-123.81 275.82,-110.93 275.82,-99.23"/>
</g>
<!-- vcorelib_io&#45;&gt;vcorelib_dict_cache -->
<g id="edge14" class="edge">
<title>vcorelib_io&#45;&gt;vcorelib_dict_cache</title><style>.edge>path:hover{stroke-width:8}</style>
<path fill="none" stroke="black" d="M209.82,-233.45C209.82,-215.55 222.08,-200.8 236.03,-189.81"/>
<polygon fill="#0404bd" stroke="black" points="238.32,-192.48 244.36,-183.78 234.21,-186.81 238.32,-192.48"/>
</g>
<!-- vcorelib_io&#45;&gt;vcorelib_paths_info_cache -->
<g id="edge15" class="edge">
<title>vcorelib_io&#45;&gt;vcorelib_paths_info_cache</title><style>.edge>path:hover{stroke-width:8}</style>
<path fill="none" stroke="black" d="M229.58,-284.55C220.4,-271.79 209.82,-253.05 209.82,-234.45"/>
<path fill="none" stroke="black" d="M209.82,-233.45C209.82,-188.99 205.42,-173.04 228.82,-135.23 242.66,-112.85 275.82,-125.54 275.82,-99.23"/>
<path fill="none" stroke="black" d="M275.82,-98.23C275.61,-89.9 275.52,-80.99 275.5,-72.49"/>
<polygon fill="#0404bd" stroke="black" points="279,-72.4 275.5,-62.4 272,-72.4 279,-72.4"/>
</g>
<!-- vcorelib_io_archive -->
<g id="node6" class="node">
<title>vcorelib_io_archive</title><style>.edge>path:hover{stroke-width:8}</style>
<ellipse fill="#3535a1" stroke="black" cx="445.82" cy="-399.79" rx="37.79" ry="31.23"/>
<text text-anchor="middle" x="445.82" y="-408.79" font-family="Helvetica,sans-Serif" font-size="10.00" fill="#ffffff">vcorelib.</text>
<text text-anchor="middle" x="445.82" y="-396.79" font-family="Helvetica,sans-Serif" font-size="10.00" fill="#ffffff">io.</text>
<text text-anchor="middle" x="445.82" y="-384.79" font-family="Helvetica,sans-Serif" font-size="10.00" fill="#ffffff">archive</text>
</g>
<!-- vcorelib_io_archive&#45;&gt;vcorelib_io_cache -->
<g id="edge16" class="edge">
<title>vcorelib_io_archive&#45;&gt;vcorelib_io_cache</title><style>.edge>path:hover{stroke-width:8}</style>
<path fill="none" stroke="black" d="M445.82,-368.61C445.82,-360.53 445.82,-351.68 445.82,-343.14"/>
<polygon fill="#3535a1" stroke="black" points="449.32,-342.97 445.82,-332.97 442.32,-342.97 449.32,-342.97"/>
</g>
<!-- vcorelib_io_decode&#45;&gt;vcorelib_io -->
<g id="edge17" class="edge">
<title>vcorelib_io_decode&#45;&gt;vcorelib_io</title><style>.edge>path:hover{stroke-width:8}</style>
<path fill="none" stroke="black" d="M265.83,-369.66C261.39,-356.74 256.22,-341.64 251.9,-329.05"/>
<polygon fill="#303091" stroke="black" points="255.2,-327.89 248.65,-319.57 248.58,-330.16 255.2,-327.89"/>
</g>
<!-- vcorelib_io_encode&#45;&gt;vcorelib_io -->
<g id="edge18" class="edge">
<title>vcorelib_io_encode&#45;&gt;vcorelib_io</title><style>.edge>path:hover{stroke-width:8}</style>
<path fill="none" stroke="black" d="M199.69,-371.73C208.31,-357.91 218.72,-341.2 227.16,-327.67"/>
<polygon fill="#303091" stroke="black" points="230.32,-329.22 232.64,-318.88 224.38,-325.52 230.32,-329.22"/>
</g>
<!-- vcorelib_io_types&#45;&gt;vcorelib_dict_cache -->
<g id="edge19" class="edge">
<title>vcorelib_io_types&#45;&gt;vcorelib_dict_cache</title><style>.edge>path:hover{stroke-width:8}</style>
<path fill="none" stroke="black" d="M341.82,-398.79C342.44,-325.75 358.26,-305.62 341.82,-234.45"/>
<path fill="none" stroke="black" d="M341.82,-233.45C337.21,-217.33 325.56,-203.45 313.31,-192.63"/>
<polygon fill="#0505e5" stroke="black" points="315.18,-189.64 305.24,-185.97 310.72,-195.04 315.18,-189.64"/>
</g>
<!-- vcorelib_io_types&#45;&gt;vcorelib_io -->
<g id="edge20" class="edge">
<title>vcorelib_io_types&#45;&gt;vcorelib_io</title><style>.edge>path:hover{stroke-width:8}</style>
<path fill="none" stroke="black" d="M341.68,-475.26C341.62,-454.34 341.6,-425.87 341.82,-400.79"/>
<path fill="none" stroke="black" d="M341.82,-398.79C342.13,-362.13 306.73,-334.93 278.18,-318.97"/>
<polygon fill="#0505e5" stroke="black" points="279.68,-315.8 269.2,-314.18 276.38,-321.98 279.68,-315.8"/>
</g>
<!-- vcorelib_io_types&#45;&gt;vcorelib_io_archive -->
<g id="edge21" class="edge">
<title>vcorelib_io_types&#45;&gt;vcorelib_io_archive</title><style>.edge>path:hover{stroke-width:8}</style>
<path fill="none" stroke="black" d="M365.16,-482C379.91,-467.15 399.13,-447.8 415.11,-431.71"/>
<polygon fill="#0505e5" stroke="black" points="417.63,-434.13 422.19,-424.57 412.66,-429.2 417.63,-434.13"/>
</g>
<!-- vcorelib_io_types&#45;&gt;vcorelib_io_cache -->
<g id="edge22" class="edge">
<title>vcorelib_io_types&#45;&gt;vcorelib_io_cache</title><style>.edge>path:hover{stroke-width:8}</style>
<path fill="none" stroke="black" d="M341.82,-398.79C342.12,-363.39 374.95,-337.38 403.64,-321.39"/>
<polygon fill="#0505e5" stroke="black" points="405.57,-324.33 412.77,-316.55 402.29,-318.14 405.57,-324.33"/>
</g>
<!-- vcorelib_io_types&#45;&gt;vcorelib_io_decode -->
<g id="edge23" class="edge">
<title>vcorelib_io_types&#45;&gt;vcorelib_io_decode</title><style>.edge>path:hover{stroke-width:8}</style>
<path fill="none" stroke="black" d="M324.82,-478.53C316.74,-465.71 306.96,-450.2 298.28,-436.42"/>
<polygon fill="#0505e5" stroke="black" points="301.05,-434.26 292.76,-427.66 295.13,-437.99 301.05,-434.26"/>
</g>
<!-- vcorelib_io_types&#45;&gt;vcorelib_io_encode -->
<g id="edge24" class="edge">
<title>vcorelib_io_types&#45;&gt;vcorelib_io_encode</title><style>.edge>path:hover{stroke-width:8}</style>
<path fill="none" stroke="black" d="M312.65,-486.29C286.65,-469.17 248.45,-444.01 220.21,-425.42"/>
<polygon fill="#0505e5" stroke="black" points="222.07,-422.45 211.79,-419.87 218.22,-428.3 222.07,-422.45"/>
</g>
<!-- vcorelib_io_types&#45;&gt;vcorelib_paths_info_cache -->
<g id="edge25" class="edge">
<title>vcorelib_io_types&#45;&gt;vcorelib_paths_info_cache</title><style>.edge>path:hover{stroke-width:8}</style>
<path fill="none" stroke="black" d="M341.82,-233.45C333.74,-205.2 359.43,-190.86 341.82,-167.34"/>
<path fill="none" stroke="black" d="M341.82,-165.34C332.33,-152.67 333.49,-146.91 322.82,-135.23 305.07,-115.79 276.46,-125.53 275.82,-99.23"/>
</g>
<!-- vcorelib_logging -->
<g id="node11" class="node">
<title>vcorelib_logging</title><style>.edge>path:hover{stroke-width:8}</style>
<ellipse fill="#4646a4" stroke="black" cx="577.82" cy="-399.79" rx="37.79" ry="22.76"/>
<text text-anchor="middle" x="577.82" y="-402.79" font-family="Helvetica,sans-Serif" font-size="10.00" fill="#ffffff">vcorelib.</text>
<text text-anchor="middle" x="577.82" y="-390.79" font-family="Helvetica,sans-Serif" font-size="10.00" fill="#ffffff">logging</text>
</g>
<!-- vcorelib_math -->
<g id="node12" class="node">
<title>vcorelib_math</title><style>.edge>path:hover{stroke-width:8}</style>
<ellipse fill="#1010f9" stroke="black" cx="480.82" cy="-613.21" rx="45.26" ry="18"/>
<text text-anchor="middle" x="480.82" y="-610.21" font-family="Helvetica,sans-Serif" font-size="10.00" fill="#ffffff">vcorelib.math</text>
</g>
<!-- vcorelib_math&#45;&gt;vcorelib_io_archive -->
<g id="edge26" class="edge">
<title>vcorelib_math&#45;&gt;vcorelib_io_archive</title><style>.edge>path:hover{stroke-width:8}</style>
<path fill="none" stroke="black" d="M487.56,-595.14C495.24,-574.69 507.3,-539.22 511.82,-507.5"/>
<path fill="none" stroke="black" d="M511.82,-505.5C515.88,-476.95 497.55,-449.56 479.18,-429.96"/>
<polygon fill="#1010f9" stroke="black" points="481.43,-427.25 471.92,-422.58 476.44,-432.16 481.43,-427.25"/>
</g>
<!-- vcorelib_math&#45;&gt;vcorelib_io_cache -->
<g id="edge27" class="edge">
<title>vcorelib_math&#45;&gt;vcorelib_io_cache</title><style>.edge>path:hover{stroke-width:8}</style>
<path fill="none" stroke="black" d="M511.82,-505.5C520.47,-444.72 515.47,-425.74 492.82,-368.68 488.19,-357.02 481.09,-345.47 473.8,-335.37"/>
<polygon fill="#1010f9" stroke="black" points="476.5,-333.13 467.69,-327.25 470.91,-337.34 476.5,-333.13"/>
</g>
<!-- vcorelib_math&#45;&gt;vcorelib_io_decode -->
<g id="edge28" class="edge">
<title>vcorelib_math&#45;&gt;vcorelib_io_decode</title><style>.edge>path:hover{stroke-width:8}</style>
<path fill="none" stroke="black" d="M455.76,-598.05C445.46,-592.59 433.27,-586.59 421.82,-582.1 367.21,-560.66 339.88,-583.66 294.82,-546.1 280.13,-533.86 285.52,-523.98 275.82,-507.5"/>
</g>
<!-- vcorelib_math&#45;&gt;vcorelib_io_encode -->
<g id="edge29" class="edge">
<title>vcorelib_math&#45;&gt;vcorelib_io_encode</title><style>.edge>path:hover{stroke-width:8}</style>
<path fill="none" stroke="black" d="M456.17,-597.88C445.82,-592.34 433.5,-586.32 421.82,-582.1 353.26,-557.34 321.23,-588.32 261.82,-546.1 245.35,-534.39 252.98,-520.85 237.82,-507.5"/>
<path fill="none" stroke="black" d="M237.82,-505.5C232.1,-500.47 214.56,-466.15 200.81,-438.16"/>
<polygon fill="#1010f9" stroke="black" points="203.85,-436.4 196.31,-428.95 197.56,-439.48 203.85,-436.4"/>
</g>
<!-- vcorelib_math&#45;&gt;vcorelib_logging -->
<g id="edge30" class="edge">
<title>vcorelib_math&#45;&gt;vcorelib_logging</title><style>.edge>path:hover{stroke-width:8}</style>
<path fill="none" stroke="black" d="M511.82,-505.5C516.07,-475.58 535.57,-446.94 552.28,-427.19"/>
<polygon fill="#1010f9" stroke="black" points="555.01,-429.38 558.98,-419.56 549.75,-424.77 555.01,-429.38"/>
</g>
<!-- vcorelib_math&#45;&gt;vcorelib_task -->
<g id="edge31" class="edge">
<title>vcorelib_math&#45;&gt;vcorelib_task</title><style>.edge>path:hover{stroke-width:8}</style>
<path fill="none" stroke="black" d="M493.33,-595.65C515.31,-567.22 563.14,-508.23 611.82,-466.9 633.12,-448.81 659.73,-431.86 680.56,-419.65"/>
<polygon fill="#1010f9" stroke="black" points="682.48,-422.58 689.39,-414.55 678.98,-416.52 682.48,-422.58"/>
</g>
<!-- vcorelib_math_time&#45;&gt;vcorelib_io_archive -->
<g id="edge32" class="edge">
<title>vcorelib_math_time&#45;&gt;vcorelib_io_archive</title><style>.edge>path:hover{stroke-width:8}</style>
<path fill="none" stroke="black" d="M575.14,-582.49C567.13,-551.49 551.49,-502.56 525.82,-466.9 514.46,-451.13 498.48,-436.92 483.78,-425.75"/>
<polygon fill="#0505e5" stroke="black" points="485.45,-422.63 475.32,-419.53 481.31,-428.27 485.45,-422.63"/>
</g>
<!-- vcorelib_math_time&#45;&gt;vcorelib_io_cache -->
<g id="edge33" class="edge">
<title>vcorelib_math_time&#45;&gt;vcorelib_io_cache</title><style>.edge>path:hover{stroke-width:8}</style>
<path fill="none" stroke="black" d="M625.82,-505.5C639.17,-460.21 668.89,-440.8 643.82,-400.79"/>
<path fill="none" stroke="black" d="M643.82,-398.79C635.41,-385.38 637.11,-378.64 624.82,-368.68 586.18,-337.38 531.32,-320.05 492.54,-311.08"/>
<polygon fill="#0505e5" stroke="black" points="493.07,-307.61 482.55,-308.87 491.56,-314.44 493.07,-307.61"/>
</g>
<!-- vcorelib_math_time&#45;&gt;vcorelib_io_decode -->
<g id="edge34" class="edge">
<title>vcorelib_math_time&#45;&gt;vcorelib_io_decode</title><style>.edge>path:hover{stroke-width:8}</style>
<path fill="none" stroke="black" d="M554.25,-591.86C548.11,-588.1 541.44,-584.59 534.82,-582.1 433.85,-544.17 381.9,-609.74 294.82,-546.1 279.38,-534.82 285.52,-523.98 275.82,-507.5"/>
</g>
<!-- vcorelib_math_time&#45;&gt;vcorelib_io_encode -->
<g id="edge35" class="edge">
<title>vcorelib_math_time&#45;&gt;vcorelib_io_encode</title><style>.edge>path:hover{stroke-width:8}</style>
<path fill="none" stroke="black" d="M554.29,-591.77C548.14,-588.02 541.46,-584.53 534.82,-582.1 419.87,-540.08 364.67,-612.43 261.82,-546.1 244.84,-535.15 252.98,-520.85 237.82,-507.5"/>
</g>
<!-- vcorelib_math_time&#45;&gt;vcorelib_logging -->
<g id="edge36" class="edge">
<title>vcorelib_math_time&#45;&gt;vcorelib_logging</title><style>.edge>path:hover{stroke-width:8}</style>
<path fill="none" stroke="black" d="M595.72,-583.95C605.41,-563.22 617.95,-534.17 625.82,-507.5"/>
<path fill="none" stroke="black" d="M625.82,-505.5C633.92,-478.02 617.92,-448.5 602.26,-427.84"/>
<polygon fill="#0505e5" stroke="black" points="604.84,-425.46 595.87,-419.83 599.37,-429.83 604.84,-425.46"/>
</g>
<!-- vcorelib_math_time&#45;&gt;vcorelib_task -->
<g id="edge37" class="edge">
<title>vcorelib_math_time&#45;&gt;vcorelib_task</title><style>.edge>path:hover{stroke-width:8}</style>
<path fill="none" stroke="black" d="M625.82,-505.5C635.91,-471.26 664.61,-441.27 686.71,-422.27"/>
<polygon fill="#0505e5" stroke="black" points="689.07,-424.86 694.51,-415.77 684.59,-419.48 689.07,-424.86"/>
</g>
<!-- vcorelib_paths -->
<g id="node14" class="node">
<title>vcorelib_paths</title><style>.edge>path:hover{stroke-width:8}</style>
<ellipse fill="#0606f9" stroke="black" cx="416.82" cy="-698.32" rx="46.95" ry="18"/>
<text text-anchor="middle" x="416.82" y="-695.32" font-family="Helvetica,sans-Serif" font-size="10.00" fill="#ffffff">vcorelib.paths</text>
</g>
<!-- vcorelib_paths&#45;&gt;vcorelib_dict_cache -->
<g id="edge38" class="edge">
<title>vcorelib_paths&#45;&gt;vcorelib_dict_cache</title><style>.edge>path:hover{stroke-width:8}</style>
<path fill="none" stroke="black" d="M407.82,-612.21C390.72,-528.99 399.03,-306.6 355.82,-233.45 345.76,-216.43 329.64,-201.86 314.49,-190.76"/>
<polygon fill="#0606f9" stroke="black" points="316.42,-187.84 306.22,-184.96 312.4,-193.57 316.42,-187.84"/>
</g>
<!-- vcorelib_paths&#45;&gt;vcorelib_io -->
<g id="edge39" class="edge">
<title>vcorelib_paths&#45;&gt;vcorelib_io</title><style>.edge>path:hover{stroke-width:8}</style>
<path fill="none" stroke="black" d="M393.83,-682.63C316.88,-632.57 75.42,-468.08 116.82,-400.79"/>
</g>
<!-- vcorelib_paths&#45;&gt;vcorelib_io_cache -->
<g id="edge40" class="edge">
<title>vcorelib_paths&#45;&gt;vcorelib_io_cache</title><style>.edge>path:hover{stroke-width:8}</style>
<path fill="none" stroke="black" d="M460.97,-692.2C516.44,-684.81 607.02,-669.24 628.82,-644.32 651.22,-618.71 651.16,-412.51 643.82,-400.79"/>
</g>
<!-- vcorelib_paths&#45;&gt;vcorelib_io_types -->
<g id="edge41" class="edge">
<title>vcorelib_paths&#45;&gt;vcorelib_io_types</title><style>.edge>path:hover{stroke-width:8}</style>
<path fill="none" stroke="black" d="M415.92,-680.3C414.81,-663.4 412.46,-636.81 407.82,-614.21"/>
<path fill="none" stroke="black" d="M407.82,-612.21C402.29,-585.32 385.85,-559.19 370.75,-539.76"/>
<polygon fill="#0606f9" stroke="black" points="373.4,-537.46 364.4,-531.86 367.94,-541.85 373.4,-537.46"/>
</g>
<!-- vcorelib_script -->
<g id="node16" class="node">
<title>vcorelib_script</title><style>.edge>path:hover{stroke-width:8}</style>
<ellipse fill="#4747c2" stroke="black" cx="903.82" cy="-783.44" rx="37.79" ry="22.76"/>
<text text-anchor="middle" x="903.82" y="-786.44" font-family="Helvetica,sans-Serif" font-size="10.00" fill="#ffffff">vcorelib.</text>
<text text-anchor="middle" x="903.82" y="-774.44" font-family="Helvetica,sans-Serif" font-size="10.00" fill="#ffffff">script</text>
</g>
<!-- vcorelib_script&#45;&gt;vcorelib_task_manager -->
<g id="edge42" class="edge">
<title>vcorelib_script&#45;&gt;vcorelib_task_manager</title><style>.edge>path:hover{stroke-width:8}</style>
<path fill="none" stroke="black" d="M899.19,-760.63C896.57,-743.27 895.31,-718.75 903.82,-699.32"/>
</g>
<!-- vcorelib_target -->
<g id="node17" class="node">
<title>vcorelib_target</title><style>.edge>path:hover{stroke-width:8}</style>
<ellipse fill="#2f2fdb" stroke="black" cx="810.82" cy="-783.44" rx="37.79" ry="22.76"/>
<text text-anchor="middle" x="810.82" y="-786.44" font-family="Helvetica,sans-Serif" font-size="10.00" fill="#ffffff">vcorelib.</text>
<text text-anchor="middle" x="810.82" y="-774.44" font-family="Helvetica,sans-Serif" font-size="10.00" fill="#ffffff">target</text>
</g>
<!-- vcorelib_target&#45;&gt;vcorelib_task -->
<g id="edge43" class="edge">
<title>vcorelib_target&#45;&gt;vcorelib_task</title><style>.edge>path:hover{stroke-width:8}</style>
<path fill="none" stroke="black" d="M815.94,-760.99C827.47,-707.72 850.69,-566.48 799.82,-466.9 789.29,-446.3 769.08,-430.17 751.01,-419"/>
<polygon fill="#2f2fdb" stroke="black" points="752.75,-415.96 742.36,-413.91 749.2,-422 752.75,-415.96"/>
</g>
<!-- vcorelib_target&#45;&gt;vcorelib_task_manager -->
<g id="edge44" class="edge">
<title>vcorelib_target&#45;&gt;vcorelib_task_manager</title><style>.edge>path:hover{stroke-width:8}</style>
<path fill="none" stroke="black" d="M834.09,-765.29C859.2,-746.21 896.56,-715.89 903.82,-699.32"/>
</g>
<!-- vcorelib_target_resolver -->
<g id="node18" class="node">
<title>vcorelib_target_resolver</title><style>.edge>path:hover{stroke-width:8}</style>
<ellipse fill="#3d3db8" stroke="black" cx="996.82" cy="-783.44" rx="37.79" ry="31.23"/>
<text text-anchor="middle" x="996.82" y="-792.44" font-family="Helvetica,sans-Serif" font-size="10.00" fill="#ffffff">vcorelib.</text>
<text text-anchor="middle" x="996.82" y="-780.44" font-family="Helvetica,sans-Serif" font-size="10.00" fill="#ffffff">target.</text>
<text text-anchor="middle" x="996.82" y="-768.44" font-family="Helvetica,sans-Serif" font-size="10.00" fill="#ffffff">resolver</text>
</g>
<!-- vcorelib_target_resolver&#45;&gt;vcorelib_task_manager -->
<g id="edge45" class="edge">
<title>vcorelib_target_resolver&#45;&gt;vcorelib_task_manager</title><style>.edge>path:hover{stroke-width:8}</style>
<path fill="none" stroke="black" d="M969.34,-762.09C940.63,-740.25 900.2,-707.58 903.82,-699.32"/>
</g>
</g>
</svg>
